<svg xmlns="http://www.w3.org/2000/svg" width="85" height="87" viewBox="0 0 85 87">
  <g id="_11" data-name="11" transform="translate(-180 -829)">
    <rect id="Rect치ngulo_404794" data-name="Rect치ngulo 404794" width="85" height="87" transform="translate(180 829)" fill="#debefb"/>
    <g id="reshot-icon-invoice-8CY2PWFV7D" transform="translate(124.644 840.644)">
      <path id="Trazado_889464" data-name="Trazado 889464" d="M84.96,18.9V69.426h42.569V11.151L123.982,7.6l-3.547,3.547L116.887,7.6l-3.547,3.547L109.792,7.6l-3.547,3.547L102.7,7.6,99.15,11.151,95.6,7.6l-3.547,3.547L88.507,7.6,84.96,11.151V18.9Z" transform="translate(-6.658 -6.658)" fill="#ffdc5e"/>
      <path id="Trazado_889465" data-name="Trazado 889465" d="M123.923,7.6l-3.232,3.232v51.81H84.9v6.78H127.47V11.151Z" transform="translate(-6.606 -6.658)" fill="#cca61c" opacity="0.2"/>
      <rect id="Rect치ngulo_404793" data-name="Rect치ngulo 404793" width="13.439" height="13.439" transform="translate(101.079 15.99)" fill="#fff6d6"/>
      <path id="Trazado_889466" data-name="Trazado 889466" d="M160.717,127.627a1.734,1.734,0,0,1-1.732-1.732.946.946,0,0,0-1.893,0,3.63,3.63,0,0,0,2.678,3.5v.647a.946.946,0,1,0,1.893,0v-.647a3.631,3.631,0,0,0,2.678-3.5c0-1.8-1.336-2.518-2.514-3.148-.207-.111-.422-.225-.632-.346-.283-.169-.548-.314-.8-.454-1.14-.622-1.406-.826-1.406-1.408a1.732,1.732,0,0,1,3.464,0,.946.946,0,0,0,1.893,0,3.63,3.63,0,0,0-2.678-3.5v-.886a.946.946,0,0,0-1.893,0v.886a3.631,3.631,0,0,0-2.678,3.5c0,1.765,1.271,2.458,2.393,3.07.242.132.493.269.745.42l.014.008c.238.137.468.26.691.379,1.209.647,1.514.888,1.514,1.479A1.734,1.734,0,0,1,160.717,127.627Z" transform="translate(-69.814 -100.871)"/>
      <path id="Trazado_889467" data-name="Trazado 889467" d="M135.833,332.769a.946.946,0,0,0,.946.946h18.234a.946.946,0,1,0,0-1.893H136.779A.946.946,0,0,0,135.833,332.769Z" transform="translate(-51.2 -290.531)"/>
      <path id="Trazado_889468" data-name="Trazado 889468" d="M332.816,331.823h-4.794a.946.946,0,1,0,0,1.893h4.794a.946.946,0,1,0,0-1.893Z" transform="translate(-218.644 -290.531)"/>
      <path id="Trazado_889469" data-name="Trazado 889469" d="M136.779,377.41h18.234a.946.946,0,1,0,0-1.893H136.779a.946.946,0,0,0,0,1.893Z" transform="translate(-51.2 -328.787)"/>
      <path id="Trazado_889470" data-name="Trazado 889470" d="M332.816,375.517h-4.794a.946.946,0,1,0,0,1.893h4.794a.946.946,0,1,0,0-1.893Z" transform="translate(-218.644 -328.787)"/>
      <path id="Trazado_889471" data-name="Trazado 889471" d="M275.723,135.281V121.842a.946.946,0,0,0-.946-.946H261.338a.946.946,0,0,0-.946.946v13.439a.946.946,0,0,0,.946.946h13.439A.946.946,0,0,0,275.723,135.281Zm-1.893-.946H262.284V122.788h11.546Z" transform="translate(-160.259 -105.852)"/>
      <path id="Trazado_889472" data-name="Trazado 889472" d="M121.541,3.824,117.993.277a.946.946,0,0,0-1.338,0l-2.878,2.878L110.9.277a.946.946,0,0,0-1.338,0l-2.878,2.878L103.8.277a.946.946,0,0,0-1.338,0L99.587,3.155,96.708.277a.946.946,0,0,0-1.338,0L92.492,3.155,89.614.277a.947.947,0,0,0-1.338,0L85.4,3.155,82.519.277a.946.946,0,0,0-1.338,0L77.633,3.824a.946.946,0,0,0-.277.669V8.649a.946.946,0,0,0,1.893,0V4.885l2.6-2.6,2.878,2.878a.946.946,0,0,0,1.338,0l2.878-2.878,2.878,2.878a.947.947,0,0,0,1.338,0l2.878-2.878,2.878,2.878a.946.946,0,0,0,1.338,0l2.878-2.878,2.878,2.878a.946.946,0,0,0,1.338,0l2.878-2.878,2.878,2.878a.946.946,0,0,0,1.338,0l2.878-2.878,2.6,2.6V61.821H79.249V12.244a.946.946,0,0,0-1.893,0V62.768a.946.946,0,0,0,.946.946h42.569a.946.946,0,0,0,.946-.946V4.493A.947.947,0,0,0,121.541,3.824Z" transform="translate(0 0)"/>
      <path id="Trazado_889473" data-name="Trazado 889473" d="M295.128,164.03a.947.947,0,0,0,1.339,0l3.651-3.651a.946.946,0,0,0-1.338-1.338l-2.982,2.982-1.178-1.178a.946.946,0,1,0-1.338,1.338Z" transform="translate(-188.813 -139.007)"/>
    </g>
  </g>
</svg>
