<svg id="_12" data-name="12" xmlns="http://www.w3.org/2000/svg" xmlns:xlink="http://www.w3.org/1999/xlink" width="330.585" height="197.835" viewBox="0 0 330.585 197.835">
  <defs>
    <clipPath id="clip-path">
      <rect id="Rectángulo_404811" data-name="Rectángulo 404811" width="330.585" height="197.835" fill="none"/>
    </clipPath>
    <clipPath id="clip-path-2">
      <path id="Trazado_889513" data-name="Trazado 889513" d="M260.389,187.723a6.647,6.647,0,0,0-6.232,4.338l-13.552,36.6H207.755v3.789h97.418l17.318-41.256a1.934,1.934,0,0,0,.005-1.349,3.105,3.105,0,0,0-2.979-2.118Z" transform="translate(-207.755 -187.723)" fill="none"/>
    </clipPath>
  </defs>
  <g id="Grupo_1103753" data-name="Grupo 1103753">
    <g id="Grupo_1103752" data-name="Grupo 1103752" clip-path="url(#clip-path)">
      <path id="Trazado_889474" data-name="Trazado 889474" d="M658.173,210.928l-.1-.242c16.765-7.034,27.967-25.582,26.057-43.144-.264-2.423-.755-4.856-1.23-7.21-.418-2.073-.852-4.217-1.128-6.352a30.1,30.1,0,0,1-.165-7.065,23,23,0,0,1-8.838-8.142,30.375,30.375,0,0,1-4.185-17.526,16.573,16.573,0,0,1-1.888-.615c-7.044-2.777-12.6-9.7-14.853-18.524-2.064-8.067-1.344-16.505-.258-24.422l.26.036c-1.082,7.89-1.8,16.3.252,24.321,2.236,8.74,7.729,15.6,14.695,18.345a17.062,17.062,0,0,0,1.8.6,41.491,41.491,0,0,1,.895-6.63c1.138-5.259,3.079-8.914,5.934-11.175,3.3-2.611,8.826-3.154,11.8.2,2.474,2.784,2.15,7.04.732,10.024a14.759,14.759,0,0,1-9.092,7.545,18.687,18.687,0,0,1-10.026.366,30.09,30.09,0,0,0,4.148,17.321,22.467,22.467,0,0,0,8.65,7.982,17.263,17.263,0,0,1,1.87-6.153c2.032-3.791,6.608-7.159,11.422-6.262a8.137,8.137,0,0,1,5.693,4.629,6.443,6.443,0,0,1-.048,5.952c-1.111,1.948-3.346,3.38-6.293,4.035a18.512,18.512,0,0,1-12.181-1.652l-.247-.122a29.959,29.959,0,0,0,.174,6.9c.276,2.125.708,4.264,1.125,6.333.477,2.359.969,4.8,1.234,7.234a41.467,41.467,0,0,1-6.107,25.835,43.734,43.734,0,0,1-20.109,17.579m23.716-64.183a18.654,18.654,0,0,0,12.339,1.817c1.664-.369,4.672-1.368,6.121-3.909a6.183,6.183,0,0,0,.038-5.712,7.873,7.873,0,0,0-5.5-4.481c-4.689-.873-9.155,2.421-11.142,6.128a17.059,17.059,0,0,0-1.852,6.157m-13.035-25.69c7.529,1.919,15.819-1.349,18.869-7.766,1.381-2.906,1.7-7.043-.691-9.737-2.88-3.24-8.243-2.7-11.446-.166-2.806,2.222-4.716,5.828-5.84,11.025a41.132,41.132,0,0,0-.892,6.643" transform="translate(-370.743 -44.275)" fill="#dbdfeb"/>
      <rect id="Rectángulo_404796" data-name="Rectángulo 404796" width="35.641" height="3.266" transform="translate(225.272 88.735)" fill="#ea4c8b"/>
      <rect id="Rectángulo_404797" data-name="Rectángulo 404797" width="45.199" height="3.266" transform="translate(174.906 88.735)" fill="#472d70"/>
      <path id="Trazado_889475" data-name="Trazado 889475" d="M386.716,228.6v-1.9a3.31,3.31,0,0,1,.043-.51H366.147v3.266h20.692a3.239,3.239,0,0,1-.123-.859" transform="translate(-208.672 -128.913)" fill="#472d70"/>
      <path id="Trazado_889476" data-name="Trazado 889476" d="M429.121,229.464h37.925V226.2H429.192a3.1,3.1,0,0,1,.047.51v1.9a3.246,3.246,0,0,1-.118.859" transform="translate(-244.562 -128.913)" fill="#472d70"/>
      <rect id="Rectángulo_404798" data-name="Rectángulo 404798" width="28.545" height="3.266" transform="translate(232.369 97.285)" fill="#ea4c8b"/>
      <rect id="Rectángulo_404799" data-name="Rectángulo 404799" width="14.192" height="3.266" transform="translate(157.475 44.163)" fill="#ea4c8b"/>
      <rect id="Rectángulo_404800" data-name="Rectángulo 404800" width="14.192" height="3.266" transform="translate(157.475 61.894)" fill="#ea4c8b"/>
      <rect id="Rectángulo_404801" data-name="Rectángulo 404801" width="27.089" height="3.266" transform="translate(157.475 79.391)" fill="#ea4c8b"/>
      <rect id="Rectángulo_404802" data-name="Rectángulo 404802" width="14.192" height="3.266" transform="translate(205.091 61.894)" fill="#472d70"/>
      <rect id="Rectángulo_404803" data-name="Rectángulo 404803" width="35.641" height="3.266" transform="translate(225.272 44.163)" fill="#ea4c8b"/>
      <rect id="Rectángulo_404804" data-name="Rectángulo 404804" width="22.709" height="3.266" transform="translate(175.729 61.894)" fill="#472d70"/>
      <rect id="Rectángulo_404805" data-name="Rectángulo 404805" width="45.199" height="3.266" transform="translate(174.906 44.163)" fill="#472d70"/>
      <path id="Trazado_889477" data-name="Trazado 889477" d="M386.716,124.969v-1.9a3.31,3.31,0,0,1,.043-.51H366.147v3.266h20.692a3.239,3.239,0,0,1-.123-.859" transform="translate(-208.672 -69.85)" fill="#472d70"/>
      <path id="Trazado_889478" data-name="Trazado 889478" d="M429.121,125.828h37.925v-3.266H429.192a3.1,3.1,0,0,1,.047.51v1.9a3.245,3.245,0,0,1-.118.859" transform="translate(-244.562 -69.85)" fill="#472d70"/>
      <rect id="Rectángulo_404806" data-name="Rectángulo 404806" width="28.545" height="3.266" transform="translate(232.369 52.712)" fill="#472d70"/>
      <rect id="Rectángulo_404807" data-name="Rectángulo 404807" width="45.199" height="3.266" transform="translate(157.475 71.076)" fill="#472d70"/>
      <rect id="Rectángulo_404808" data-name="Rectángulo 404808" width="223.661" height="151.904" transform="translate(50.971 16.394)" fill="#fff"/>
      <path id="Trazado_889479" data-name="Trazado 889479" d="M342.132,189.981H118.209V37.815H342.132Zm-223.661-.262h223.4V38.077h-223.4Z" transform="translate(-67.369 -21.551)" fill="#0d0f44"/>
      <path id="Trazado_889480" data-name="Trazado 889480" d="M425.991,282.05c.013-.2.019-.4.025-.6l3.925-.973-1.353-6.716-3.829.948a14.956,14.956,0,0,0-1.923-3.261l2.492-3.039-5.173-4.088-2.438,2.945a14.909,14.909,0,0,0-3.081-1.117l.293-3.649-6.725-.083-.314,3.58a16.721,16.721,0,0,0-2.99.864l-1.8-2.937-5.852,3.8,1.773,2.948a18.133,18.133,0,0,0-1.67,1.868l-3.178-1.385-3.167,6.292,3.214,1.419a17.149,17.149,0,0,0-.48,2.632c-.031.3-.052.606-.066.907l-3.631.9,1.058,6.8,3.722-.923a15.016,15.016,0,0,0,1.938,3.391l-2.582,3.118,5.168,4.394,2.635-3.212a14.884,14.884,0,0,0,3.1,1.12l-.36,4.112,7.013.157.336-4.188a16.806,16.806,0,0,0,2.9-.881l2.091,3.475,6.035-4.057-2.122-3.468a18.088,18.088,0,0,0,1.531-1.79l3.682,1.625,3.022-6.551-3.645-1.589a17.048,17.048,0,0,0,.423-2.784M408.7,291.109a8.384,8.384,0,0,1-8.207-9.381,9.861,9.861,0,0,1,9.75-8.89,8.383,8.383,0,0,1,8.264,9.2,9.847,9.847,0,0,1-9.806,9.069" transform="translate(-222.292 -149.553)" fill="#dbdfeb"/>
      <path id="Trazado_889481" data-name="Trazado 889481" d="M204.843,92.865H134.895a1.8,1.8,0,0,1-1.8-1.8v-.041a1.8,1.8,0,0,1,1.8-1.8h69.948a1.8,1.8,0,0,1,1.8,1.8v.041a1.8,1.8,0,0,1-1.8,1.8" transform="translate(-75.85 -50.846)" fill="#c0cfff"/>
      <path id="Trazado_889482" data-name="Trazado 889482" d="M366.533,143.136h-23.7V94.293h23.7Zm-23.442-.262h23.18V94.556h-23.18Z" transform="translate(-195.383 -53.739)" fill="#dbdfeb"/>
      <path id="Trazado_889483" data-name="Trazado 889483" d="M435.831,113.752H424.3a2.5,2.5,0,0,1-2.5-2.5v-.057a2.5,2.5,0,0,1,2.5-2.5h11.528a2.5,2.5,0,0,1,2.5,2.5v.057a2.5,2.5,0,0,1-2.5,2.5" transform="translate(-240.391 -61.946)" fill="#ecd10c"/>
      <path id="Trazado_889484" data-name="Trazado 889484" d="M435.831,137.461H424.3a2.5,2.5,0,0,1-2.5-2.5V134.9a2.5,2.5,0,0,1,2.5-2.5h11.528a2.5,2.5,0,0,1,2.5,2.5v.057a2.5,2.5,0,0,1-2.5,2.5" transform="translate(-240.391 -75.458)" fill="#ecd10c"/>
      <path id="Trazado_889485" data-name="Trazado 889485" d="M435.831,161.171H424.3a2.5,2.5,0,0,1-2.5-2.5v-.057a2.5,2.5,0,0,1,2.5-2.5h11.528a2.5,2.5,0,0,1,2.5,2.5v.057a2.5,2.5,0,0,1-2.5,2.5" transform="translate(-240.391 -88.971)" fill="#ecd10c"/>
      <path id="Trazado_889486" data-name="Trazado 889486" d="M435.831,184.88H424.3a2.5,2.5,0,0,1-2.5-2.5v-.057a2.5,2.5,0,0,1,2.5-2.5h11.528a2.5,2.5,0,0,1,2.5,2.5v.057a2.5,2.5,0,0,1-2.5,2.5" transform="translate(-240.391 -102.483)" fill="#ecd10c"/>
      <path id="Trazado_889487" data-name="Trazado 889487" d="M435.831,208.59H424.3a2.5,2.5,0,0,1-2.5-2.5v-.057a2.5,2.5,0,0,1,2.5-2.5h11.528a2.5,2.5,0,0,1,2.5,2.5v.057a2.5,2.5,0,0,1-2.5,2.5" transform="translate(-240.391 -115.996)" fill="#ecd10c"/>
      <path id="Trazado_889488" data-name="Trazado 889488" d="M489.449,113.752H472.5a2.5,2.5,0,0,1-2.5-2.5v-.057a2.5,2.5,0,0,1,2.5-2.5h16.948a2.5,2.5,0,0,1,2.5,2.5v.057a2.5,2.5,0,0,1-2.5,2.5" transform="translate(-267.86 -61.946)" fill="#c0cfff"/>
      <path id="Trazado_889489" data-name="Trazado 889489" d="M481.184,137.461H472.5a2.5,2.5,0,0,1-2.5-2.5V134.9a2.5,2.5,0,0,1,2.5-2.5h8.683a2.5,2.5,0,0,1,2.5,2.5v.057a2.5,2.5,0,0,1-2.5,2.5" transform="translate(-267.859 -75.458)" fill="#c0cfff"/>
      <path id="Trazado_889490" data-name="Trazado 889490" d="M481.184,184.88H472.5a2.5,2.5,0,0,1-2.5-2.5v-.057a2.5,2.5,0,0,1,2.5-2.5h8.683a2.5,2.5,0,0,1,2.5,2.5v.057a2.5,2.5,0,0,1-2.5,2.5" transform="translate(-267.859 -102.483)" fill="#c0cfff"/>
      <path id="Trazado_889491" data-name="Trazado 889491" d="M512.482,161.171H472.5a2.5,2.5,0,0,1-2.5-2.5v-.057a2.5,2.5,0,0,1,2.5-2.5h39.98a2.5,2.5,0,0,1,2.5,2.5v.057a2.5,2.5,0,0,1-2.5,2.5" transform="translate(-267.86 -88.971)" fill="#dbdfeb"/>
      <path id="Trazado_889492" data-name="Trazado 889492" d="M512.482,208.59H472.5a2.5,2.5,0,0,1-2.5-2.5v-.057a2.5,2.5,0,0,1,2.5-2.5h39.98a2.5,2.5,0,0,1,2.5,2.5v.057a2.5,2.5,0,0,1-2.5,2.5" transform="translate(-267.86 -115.996)" fill="#dbdfeb"/>
      <path id="Trazado_889493" data-name="Trazado 889493" d="M553.523,137.461H514.084a2.5,2.5,0,0,1-2.5-2.5V134.9a2.5,2.5,0,0,1,2.5-2.5h39.439a2.5,2.5,0,0,1,2.5,2.5v.057a2.5,2.5,0,0,1-2.5,2.5" transform="translate(-291.559 -75.458)" fill="#dbdfeb"/>
      <path id="Trazado_889494" data-name="Trazado 889494" d="M562.141,113.752H529.206a2.5,2.5,0,0,1-2.5-2.5v-.057a2.5,2.5,0,0,1,2.5-2.5h32.935a2.5,2.5,0,0,1,2.5,2.5v.057a2.5,2.5,0,0,1-2.5,2.5" transform="translate(-300.176 -61.946)" fill="#dbdfeb"/>
      <path id="Trazado_889495" data-name="Trazado 889495" d="M547.02,184.88H514.084a2.5,2.5,0,0,1-2.5-2.5v-.057a2.5,2.5,0,0,1,2.5-2.5H547.02a2.5,2.5,0,0,1,2.5,2.5v.057a2.5,2.5,0,0,1-2.5,2.5" transform="translate(-291.559 -102.483)" fill="#dbdfeb"/>
      <path id="Trazado_889496" data-name="Trazado 889496" d="M426.13,299.3h-4.066v-.262h3.8v-3.717h.262Zm-8,0h-3.935v-.262h3.935Zm-7.871,0h-3.935v-.262h3.935Zm-7.871,0h-3.935v-.262h3.935Zm-7.871,0h-3.935v-.262h3.935Zm-7.871,0h-3.935v-.262h3.935Zm-7.871,0H374.84v-.262h3.935Zm-7.871,0H366.97v-.262H370.9Zm-7.871,0H359.1v-.262h3.935Zm-7.871,0h-3.935v-.262h3.935Zm-7.616-.254h-.262v-3.935h.262Zm78.583-7.661h-.262v-3.935h.262Zm-78.583-.21h-.262v-3.935h.262Zm78.583-7.661h-.262v-3.935h.262Zm-78.583-.21h-.262v-3.935h.262Zm78.583-7.661h-.262V271.71h.262Zm-78.583-.21h-.262V271.5h.262Zm78.583-7.661h-.262v-3.935h.262Zm-78.583-.21h-.262V263.63h.262ZM426.13,259.9h-.262v-3.935h.262Zm-78.583-.21h-.262v-3.935h.262Zm78.583-7.661h-.262V248.1h.262Zm-78.583-.21h-.262v-3.935h.262ZM424.2,246.1h-3.935v-.262H424.2Zm-7.871,0h-3.935v-.262h3.935Zm-7.87,0h-3.935v-.262h3.935Zm-7.871,0h-3.935v-.262h3.935Zm-7.871,0H388.78v-.262h3.935Zm-7.87,0H380.91v-.262h3.935Zm-7.871,0h-3.935v-.262h3.935Zm-7.87,0h-3.935v-.262H369.1Zm-7.871,0H357.3v-.262h3.935Zm-7.871,0h-3.935v-.262h3.935Z" transform="translate(-197.922 -140.104)" fill="#0d0f44"/>
      <rect id="Rectángulo_404809" data-name="Rectángulo 404809" width="2.845" height="139.487" transform="translate(138.738 28.811)" fill="#dbdfeb"/>
      <rect id="Rectángulo_404810" data-name="Rectángulo 404810" width="223.661" height="12.918" transform="translate(50.971 16.395)" fill="#dbdfeb"/>
      <path id="Trazado_889497" data-name="Trazado 889497" d="M501.811,151.854H408.284V93.293h93.527Zm-93.265-.262h93V93.555h-93Z" transform="translate(-232.687 -53.169)" fill="#dbdfeb"/>
      <path id="Trazado_889498" data-name="Trazado 889498" d="M221.126,400.022h-36.04l-3.428-16.135-6.19-29.12,42.354,2.162Z" transform="translate(-100.001 -202.187)" fill="#ecd10c"/>
      <path id="Trazado_889499" data-name="Trazado 889499" d="M197.558,409.1l-1.345,19.107h-2.924l-3.428-16.135,2.412-7.849Z" transform="translate(-108.204 -230.374)" fill="#0d0f44"/>
      <path id="Trazado_889500" data-name="Trazado 889500" d="M95.186,351.653l-4.462,44.779H133.6l3.342-15.419s4.4-.839,6.26-9.51,2.4-23.033,2.4-23.033Z" transform="translate(-51.705 -198.597)" fill="#ecd10c"/>
      <path id="Trazado_889501" data-name="Trazado 889501" d="M98.224,359.566s52.474,8.451,75.838-.652l.669-6.664H99.808Z" transform="translate(-55.979 -200.752)" fill="#0d0f44"/>
      <path id="Trazado_889502" data-name="Trazado 889502" d="M104.889,133.027s21.543-13.413,60.563,1.423c0,0,15.445,63.408,10.771,92.673,0,0-53.246,6.3-77.634-1.423,0,0-2.642-79.87,6.3-92.673" transform="translate(-55.979 -72.644)" fill="#8722e2"/>
      <path id="Trazado_889503" data-name="Trazado 889503" d="M112.5,198.345s6.439,23.243,7.93,34.217-13.955,10.125-13.955,10.125Z" transform="translate(-60.682 -113.04)" fill="#0d0f44"/>
      <path id="Trazado_889504" data-name="Trazado 889504" d="M254.536,143.7s12.8,7.316,17.681,25.4,8.739,33.127,8.739,33.127l-19.917,3.048Z" transform="translate(-145.064 -81.899)" fill="#8722e2"/>
      <path id="Trazado_889505" data-name="Trazado 889505" d="M231.865,250.651c-.07-.556-6.439-5.063-6.439-5.063s-11.381-6.37-13.549-5.9-4.245,2.875-7.5,6.578a22.2,22.2,0,0,1-6.549,5.229v.372l4.268,11.155,4.81-1.942c6.413-1.445,7.045-6.413,7.045-6.413l3.083-6.811,3.906,3.429.974,6.134s2.337,2.045,2.629-2.142a29.839,29.839,0,0,0,0-5.886,48.96,48.96,0,0,0,4.76,2.1c1.626.442,2.625-.284,2.555-.84" transform="translate(-112.747 -136.586)" fill="#f4b4a4"/>
      <path id="Trazado_889506" data-name="Trazado 889506" d="M86.678,196.488s15.446-.088,31.7-1.568a20.5,20.5,0,0,1,4.268,11.526s-29.265,28.046-60.157,16.665c-1.942-12.278-9.314-53.1,2.439-71.558,0,0,4.877-7.5,17.274-11.157,0,0,4.727,32.122,4.471,56.092" transform="translate(-33.297 -80.014)" fill="#8722e2"/>
      <path id="Trazado_889507" data-name="Trazado 889507" d="M275.227,296.2s3.967,4.878,14.739-1.626,19.917-18.088,19.917-18.088l-35.972,1.423Z" transform="translate(-156.105 -157.573)" fill="#8722e2"/>
      <path id="Trazado_889508" data-name="Trazado 889508" d="M234.69,256.916l3.505,2.726-.625,3.246a1.225,1.225,0,0,0,2.316.782c.029-.073-.16-.15-.133-.231.876-2.629,1.85-6.524,1.85-6.524l-2.531-4.869Z" transform="translate(-133.753 -143.645)" fill="#f4b4a4"/>
      <path id="Trazado_889509" data-name="Trazado 889509" d="M322.5,189.841a3.105,3.105,0,0,0-2.979-2.118H260.389a6.646,6.646,0,0,0-6.232,4.338l-13.553,36.6H207.755v3.789h97.418l17.318-41.256a1.934,1.934,0,0,0,.006-1.349" transform="translate(-118.402 -106.986)" fill="#0d0f44"/>
      <path id="Trazado_889510" data-name="Trazado 889510" d="M322.5,189.841a3.105,3.105,0,0,0-2.979-2.118H260.389a6.646,6.646,0,0,0-6.232,4.338l-13.553,36.6H207.755v3.789h97.418l17.318-41.256a1.934,1.934,0,0,0,.006-1.349" transform="translate(-118.402 -106.986)" fill="#0d0f44"/>
    </g>
  </g>
  <g id="Grupo_1103755" data-name="Grupo 1103755" transform="translate(89.353 80.737)">
    <g id="Grupo_1103754" data-name="Grupo 1103754" clip-path="url(#clip-path-2)">
      <path id="Trazado_889511" data-name="Trazado 889511" d="M283.965,235.572l-.248-.1,14.889-38.671a5.781,5.781,0,0,1,5.362-3.681h57.265a6.5,6.5,0,0,1,5.681,3.35l.929,1.679-.232.129-.929-1.679a6.229,6.229,0,0,0-5.449-3.212H303.968a5.513,5.513,0,0,0-5.114,3.511Z" transform="translate(-251.047 -190.802)" fill="#f3eed9"/>
      <rect id="Rectángulo_404812" data-name="Rectángulo 404812" width="5.8" height="0.265" transform="matrix(0.346, -0.938, 0.938, 0.346, 30.452, 46.33)" fill="#f3eed9"/>
      <path id="Trazado_889512" data-name="Trazado 889512" d="M235.584,287.045H213.1v-1.879h22.487Zm-22.222-.265h21.956v-1.348H213.362Z" transform="translate(-210.799 -243.257)" fill="#f3eed9"/>
    </g>
  </g>
  <g id="Grupo_1103757" data-name="Grupo 1103757">
    <g id="Grupo_1103756" data-name="Grupo 1103756" clip-path="url(#clip-path)">
      <path id="Trazado_889514" data-name="Trazado 889514" d="M383.822,230.395c.964,2.407-1.316,5.586-5.094,7.1s-7.622.789-8.586-1.618,1.316-5.586,5.094-7.1,7.622-.788,8.586,1.619" transform="translate(-210.824 -129.932)" fill="#ea4c8b"/>
      <path id="Trazado_889515" data-name="Trazado 889515" d="M120.607,218.494l.009-.142c1-16.059-2.374-39.306-2.409-39.539l.263-.039c.034.232,3.4,23.371,2.42,39.452,2.23-.025,29.506-.356,31.494-1.547l.136.228c-2.124,1.273-30.561,1.575-31.771,1.587Z" transform="translate(-67.368 -101.886)" fill="#0d0f44"/>
      <path id="Trazado_889516" data-name="Trazado 889516" d="M101.908,313.359v-.265a65.684,65.684,0,0,0,15.274-2.462,70.193,70.193,0,0,0,30.158-16.883l.185.191a70.455,70.455,0,0,1-30.281,16.951,65.972,65.972,0,0,1-15.334,2.469" transform="translate(-58.078 -167.411)" fill="#0d0f44"/>
      <path id="Trazado_889517" data-name="Trazado 889517" d="M90.018,278.345l-.175-.2c.066-.059,6.249-5.506,11.016-7.4-3.127.308-12.223,1.423-15.517,4.186l-.171-.2c4.051-3.4,16.225-4.306,16.741-4.343l1.243-.089-1.2.349c-4.794,1.4-11.869,7.632-11.94,7.695" transform="translate(-48.54 -154.048)" fill="#0d0f44"/>
      <path id="Trazado_889518" data-name="Trazado 889518" d="M178.085,101.534c-1.26,2.852-4.564,6.909-13.155,6.779a23.076,23.076,0,0,1-16.474-7.05c-1.523-1.566.149-3.669,1.38-5.474,6.32-9.263,2.972-25.461,2.972-25.461L175,82.9a22.116,22.116,0,0,0,.958,7.1c.374,1.451.812,2.892,1.234,4.176.374,1.146.732,2.165,1.021,2.953a5.9,5.9,0,0,1-.125,4.4" transform="translate(-84.26 -40.081)" fill="#f4b4a4"/>
      <path id="Trazado_889519" data-name="Trazado 889519" d="M166.638,9.622s-9.877,6.735-6.585,25.89c3.176,18.479,10.925,18.857,19.755,18.557S193.576,40,193.725,25.934,177.563,1.84,166.638,9.622" transform="translate(-90.833 -3.936)" fill="#f4b4a4"/>
      <path id="Trazado_889520" data-name="Trazado 889520" d="M162.654,49.244s1.987,4.621,1.9,6.722l-.09,2.1,2.8.542a81.708,81.708,0,0,0,.4-8.661c-.051-4.511-5.054-1.622-5.01-.7" transform="translate(-92.698 -27.062)" fill="#0d0f44"/>
      <path id="Trazado_889521" data-name="Trazado 889521" d="M165.862,92.637c.034.106.066.209.1.313-.055-.157-.087-.266-.1-.313" transform="translate(-94.527 -52.795)" fill="#0d0f44"/>
      <path id="Trazado_889522" data-name="Trazado 889522" d="M187.634,107.441c-6.161.165-17.34-1.366-21.457-13.842.77,2.133,4.957,11.21,20.224,9.666.374,1.451.812,2.892,1.234,4.176" transform="translate(-94.707 -53.343)" fill="#0d0f44"/>
      <path id="Trazado_889523" data-name="Trazado 889523" d="M194.328,63.478c0,.928-.535,1.68-1.2,1.68s-1.2-.752-1.2-1.68.536-1.68,1.2-1.68,1.2.752,1.2,1.68" transform="translate(-109.386 -35.22)" fill="#0d0f44"/>
      <path id="Trazado_889524" data-name="Trazado 889524" d="M225.48,64.762c0,.928-.535,1.68-1.2,1.68s-1.2-.752-1.2-1.68.536-1.68,1.2-1.68,1.2.752,1.2,1.68" transform="translate(-127.14 -35.951)" fill="#0d0f44"/>
      <path id="Trazado_889525" data-name="Trazado 889525" d="M210.492,77.268a4.433,4.433,0,0,1-2.94-1.125l.175-.2c1.76,1.545,4.167,1.168,4.987.24a1.01,1.01,0,0,0-.2-1.563c-2.026-1.8-2.869-6.137-2.9-6.321l.261-.049c.008.044.861,4.431,2.82,6.173a1.272,1.272,0,0,1,.223,1.936,3.293,3.293,0,0,1-2.421.908" transform="translate(-118.287 -38.897)" fill="#0d0f44"/>
      <path id="Trazado_889526" data-name="Trazado 889526" d="M198.754,92.637a10.4,10.4,0,0,0,9.362.157s-2,4.013-4.681,4.193-4.681-4.35-4.681-4.35" transform="translate(-113.273 -52.795)" fill="#fff"/>
      <path id="Trazado_889527" data-name="Trazado 889527" d="M155.417,22.188s6.685,3.727,6.414-.006a21.247,21.247,0,0,1,.018-5.087l2.691,1.626a13.218,13.218,0,0,0,8.671.993c5.329-.993,9.665-4.064,12.826-1.626s4.7-.09,4.607-3.613-4.607-9.3-10.3-12.194-20.3-4.155-24.982,3.162-2.567,8.31-2.476,11.11,1.536,3.943,1.355,5.629,1.173.006,1.173.006" transform="translate(-86.818 0)" fill="#0d0f44"/>
      <path id="Trazado_889528" data-name="Trazado 889528" d="M156.9,51.638c-.157-.32-.924-2.694-4.385-.9s-2.761,10.975,1.207,12.571,5.773-6.385,3.178-11.673" transform="translate(-85.651 -28.538)" fill="#f4b4a4"/>
      <path id="Trazado_889529" data-name="Trazado 889529" d="M156.513,64.2a1.562,1.562,0,0,1-1.066-.466c-1.213-1.129-1.746-3.9-1.215-6.319a3.009,3.009,0,0,1,1.456-2.272,2.3,2.3,0,0,1,1.9.083l-.124.234a2.068,2.068,0,0,0-1.663-.075,2.771,2.771,0,0,0-1.307,2.086c-.565,2.568.15,5.149,1.137,6.068a1.2,1.2,0,0,0,1.2.348c1.526-.452,1.548-2.415,1.535-2.835a2.048,2.048,0,0,1-1.108-1.018.932.932,0,0,1,.156-.827l.219.15a.668.668,0,0,0-.122.6c.166.538,1.023.88,1.031.883l.077.031.007.082c0,.026.189,2.624-1.721,3.19a1.38,1.38,0,0,1-.392.058" transform="translate(-87.782 -31.329)" fill="#0d0f44"/>
      <path id="Trazado_889530" data-name="Trazado 889530" d="M188.949,66.83c-3.074,0-5.575-2.9-5.575-6.469s2.5-6.468,5.575-6.468,5.575,2.9,5.575,6.468-2.5,6.469-5.575,6.469m0-11.611c-2.342,0-4.248,2.307-4.248,5.142s1.906,5.142,4.248,5.142S193.2,63.2,193.2,60.361s-1.906-5.142-4.248-5.142" transform="translate(-104.507 -30.714)" fill="#4c65e9"/>
      <path id="Trazado_889531" data-name="Trazado 889531" d="M221.264,66.83c-3.074,0-5.575-2.9-5.575-6.469s2.5-6.468,5.575-6.468,5.575,2.9,5.575,6.468-2.5,6.469-5.575,6.469m0-11.611c-2.342,0-4.248,2.307-4.248,5.142s1.906,5.142,4.248,5.142,4.248-2.307,4.248-5.142-1.906-5.142-4.248-5.142" transform="translate(-122.924 -30.714)" fill="#4c65e9"/>
      <path id="Trazado_889532" data-name="Trazado 889532" d="M275.254,246.862l-.265,0c.617-34.123-4.632-54.789-4.685-54.994l.257-.067c.053.205,5.311,20.9,4.693,55.065" transform="translate(-154.05 -109.308)" fill="#0d0f44"/>
      <rect id="Rectángulo_404813" data-name="Rectángulo 404813" width="1.327" height="13.683" transform="translate(67.108 21.76) rotate(-69.267)" fill="#4c65e9"/>
      <path id="Trazado_889533" data-name="Trazado 889533" d="M210.366,62.351c-1.233-1.266-3.8-.193-3.823-.181l-.523-1.219c.138-.06,3.426-1.446,5.3.475Z" transform="translate(-117.414 -34.429)" fill="#4c65e9"/>
      <rect id="Rectángulo_404814" data-name="Rectángulo 404814" width="46.457" height="42.459" transform="translate(233.782 116.608)" fill="#dbdfeb"/>
      <rect id="Rectángulo_404815" data-name="Rectángulo 404815" width="37.515" height="34.286" transform="translate(238.253 120.694)" fill="#fff"/>
      <path id="Trazado_889534" data-name="Trazado 889534" d="M591.438,314.871H553.66V280.323h37.777Zm-37.515-.262h37.253V280.585H553.922Z" transform="translate(-315.538 -159.76)" fill="#0d0f44"/>
      <path id="Trazado_889535" data-name="Trazado 889535" d="M578.409,293.97h16.61v3.141h-16.61Zm6.654,1.926h3.3v21.612h-3.3Z" transform="translate(-329.643 -167.537)" fill="#ff2633"/>
      <rect id="Rectángulo_404816" data-name="Rectángulo 404816" width="3.387" height="4.25" transform="translate(237.018 118.913)" fill="#ff2633"/>
      <rect id="Rectángulo_404817" data-name="Rectángulo 404817" width="3.387" height="4.25" transform="translate(274.074 118.913)" fill="#ff2633"/>
      <rect id="Rectángulo_404818" data-name="Rectángulo 404818" width="3.387" height="4.25" transform="translate(274.074 152.243)" fill="#ff2633"/>
      <rect id="Rectángulo_404819" data-name="Rectángulo 404819" width="3.387" height="4.25" transform="translate(237.3 152.243)" fill="#ff2633"/>
      <path id="Trazado_889536" data-name="Trazado 889536" d="M558.522,53.071H549.84a2.5,2.5,0,0,1-2.5-2.5v-.057a2.5,2.5,0,0,1,2.5-2.5h8.682a2.5,2.5,0,0,1,2.5,2.5v.057a2.5,2.5,0,0,1-2.5,2.5" transform="translate(-311.936 -27.363)" fill="#fff"/>
      <path id="Trazado_889537" data-name="Trazado 889537" d="M601.929,53.071h-8.683a2.5,2.5,0,0,1-2.5-2.5v-.057a2.5,2.5,0,0,1,2.5-2.5h8.683a2.5,2.5,0,0,1,2.5,2.5v.057a2.5,2.5,0,0,1-2.5,2.5" transform="translate(-336.674 -27.363)" fill="#fff"/>
      <rect id="Rectángulo_404820" data-name="Rectángulo 404820" width="47.393" height="25.203" transform="translate(119.121 46.353)" fill="#00ffdf"/>
      <path id="Trazado_889538" data-name="Trazado 889538" d="M285.949,140.416l9.766-14.491,9.876,10.8,5.722-7.7,10.7,11.4Z" transform="translate(-162.966 -71.766)" fill="#fff"/>
      <path id="Trazado_889539" data-name="Trazado 889539" d="M362.511,117.5a3.549,3.549,0,1,1-3.549-3.549,3.549,3.549,0,0,1,3.549,3.549" transform="translate(-202.554 -64.94)" fill="#fff"/>
      <rect id="Rectángulo_404821" data-name="Rectángulo 404821" width="12.703" height="12.703" transform="translate(136.616 177.951)" fill="#dbdfeb"/>
      <path id="Trazado_889540" data-name="Trazado 889540" d="M401.748,418.493H360.164a1.531,1.531,0,0,1-1.532-1.532v-.035a1.531,1.531,0,0,1,1.532-1.532h41.585a1.531,1.531,0,0,1,1.532,1.532v.035a1.531,1.531,0,0,1-1.532,1.532" transform="translate(-204.389 -236.739)" fill="#fff"/>
      <path id="Trazado_889541" data-name="Trazado 889541" d="M401.573,418.45H359.989a1.664,1.664,0,0,1-1.663-1.663v-.035a1.664,1.664,0,0,1,1.663-1.663h41.585a1.664,1.664,0,0,1,1.663,1.663v.035a1.664,1.664,0,0,1-1.663,1.663m-41.585-3.1a1.4,1.4,0,0,0-1.4,1.4v.035a1.4,1.4,0,0,0,1.4,1.4h41.585a1.4,1.4,0,0,0,1.4-1.4v-.035a1.4,1.4,0,0,0-1.4-1.4Z" transform="translate(-204.215 -236.565)" fill="#0d0f44"/>
      <path id="Trazado_889542" data-name="Trazado 889542" d="M373.787,436.982H360.163a1.531,1.531,0,0,1-1.532-1.532v-.035a1.531,1.531,0,0,1,1.532-1.532h13.625a1.531,1.531,0,0,1,1.532,1.532v.035a1.531,1.531,0,0,1-1.532,1.532" transform="translate(-204.389 -247.276)" fill="#fff"/>
      <path id="Trazado_889543" data-name="Trazado 889543" d="M373.613,436.939H359.989a1.664,1.664,0,0,1-1.663-1.663v-.035a1.664,1.664,0,0,1,1.663-1.663h13.625a1.665,1.665,0,0,1,1.663,1.663v.035a1.665,1.665,0,0,1-1.663,1.663m-13.625-3.1a1.4,1.4,0,0,0-1.4,1.4v.035a1.4,1.4,0,0,0,1.4,1.4h13.625a1.4,1.4,0,0,0,1.4-1.4v-.035a1.4,1.4,0,0,0-1.4-1.4Z" transform="translate(-204.215 -247.103)" fill="#0d0f44"/>
      <rect id="Rectángulo_404822" data-name="Rectángulo 404822" width="12.703" height="12.703" transform="translate(209.55 177.951)" fill="#dbdfeb"/>
      <path id="Trazado_889544" data-name="Trazado 889544" d="M546.739,415.394H529.824a1.592,1.592,0,0,0-1.613,1.5,1.549,1.549,0,0,0,1.548,1.6h16.979a1.549,1.549,0,1,0,0-3.1" transform="translate(-301.034 -236.739)" fill="#fff"/>
      <path id="Trazado_889545" data-name="Trazado 889545" d="M546.565,418.45H529.585a1.68,1.68,0,0,1-1.68-1.732,1.727,1.727,0,0,1,1.744-1.629h16.914a1.68,1.68,0,1,1,0,3.36m-16.914-3.1a1.463,1.463,0,0,0-1.482,1.374,1.418,1.418,0,0,0,1.417,1.461h16.979a1.418,1.418,0,1,0,0-2.836Z" transform="translate(-300.86 -236.565)" fill="#0d0f44"/>
      <path id="Trazado_889546" data-name="Trazado 889546" d="M603.519,415.394H586.391a1.549,1.549,0,1,0,0,3.1h17.193a1.549,1.549,0,0,0,1.548-1.6,1.592,1.592,0,0,0-1.613-1.5" transform="translate(-333.309 -236.739)" fill="#fff"/>
      <path id="Trazado_889547" data-name="Trazado 889547" d="M603.411,418.45H586.217a1.68,1.68,0,1,1,0-3.36h17.128a1.727,1.727,0,0,1,1.744,1.629,1.68,1.68,0,0,1-1.679,1.732m-17.193-3.1a1.418,1.418,0,1,0,0,2.836h17.193a1.417,1.417,0,0,0,1.417-1.461,1.462,1.462,0,0,0-1.482-1.374Z" transform="translate(-333.136 -236.565)" fill="#0d0f44"/>
      <path id="Trazado_889548" data-name="Trazado 889548" d="M543.366,436.982H529.742a1.531,1.531,0,0,1-1.532-1.532v-.035a1.531,1.531,0,0,1,1.532-1.532h13.625a1.531,1.531,0,0,1,1.531,1.532v.035a1.531,1.531,0,0,1-1.531,1.532" transform="translate(-301.034 -247.276)" fill="#fff"/>
      <path id="Trazado_889549" data-name="Trazado 889549" d="M543.192,436.939H529.568a1.664,1.664,0,0,1-1.663-1.663v-.035a1.664,1.664,0,0,1,1.663-1.663h13.625a1.665,1.665,0,0,1,1.663,1.663v.035a1.664,1.664,0,0,1-1.663,1.663m-13.625-3.1a1.4,1.4,0,0,0-1.4,1.4v.035a1.4,1.4,0,0,0,1.4,1.4h13.625a1.4,1.4,0,0,0,1.4-1.4v-.035a1.4,1.4,0,0,0-1.4-1.4Z" transform="translate(-300.86 -247.103)" fill="#0d0f44"/>
      <path id="Trazado_889550" data-name="Trazado 889550" d="M11.318,89.612,0,80.679l.085-.1,22.3-27.106L33.3,62l-.083.1ZM.373,80.639l10.9,8.6,21.66-27.2L22.426,53.834Z" transform="translate(0 -30.473)" fill="#dbdfeb"/>
    </g>
  </g>
</svg>
