<svg xmlns="http://www.w3.org/2000/svg" width="85" height="87" viewBox="0 0 85 87">
  <g id="_15" data-name="15" transform="translate(-180 -3086)">
    <g id="Grupo_1103762" data-name="Grupo 1103762" transform="translate(0 2257)">
      <rect id="Rectángulo_404794" data-name="Rectángulo 404794" width="85" height="87" transform="translate(180 829)" fill="#debefb"/>
    </g>
    <g id="Invoice" transform="translate(194.357 3102)">
      <path id="Trazado_889551" data-name="Trazado 889551" d="M41.122,2H40.5a4.31,4.31,0,0,1,.576.058Z" transform="translate(9.183 0.245)" fill="#d3dbef"/>
      <path id="Trazado_889552" data-name="Trazado 889552" d="M45.081,6.357A4.357,4.357,0,0,1,49.438,2H7.916C6.229,2,4,4.229,4,6.98V54.285a2.49,2.49,0,0,0,2.49,2.49H41.347a3.735,3.735,0,0,0,3.735-3.735Z" transform="translate(0.245 0.245)" fill="#d3dbef"/>
      <path id="Trazado_889553" data-name="Trazado 889553" d="M45.081,6.357A4.357,4.357,0,0,1,49.438,2H7.916C6.229,2,4,4.229,4,6.98V54.285a2.49,2.49,0,0,0,2.49,2.49H41.347a3.735,3.735,0,0,0,3.735-3.735Z" transform="translate(0.245 0.245)" fill="#f0c518"/>
      <path id="Trazado_889554" data-name="Trazado 889554" d="M39.092,2a4.357,4.357,0,0,0-4.357,4.357V53.04A3.735,3.735,0,0,1,31,56.775h3.735a3.735,3.735,0,0,0,3.735-3.735V6.357A4.357,4.357,0,0,1,42.826,2Z" transform="translate(6.857 0.245)" fill="#ffec9f"/>
      <path id="Trazado_889555" data-name="Trazado 889555" d="M35.143,37.49h-24.9a1.245,1.245,0,1,1,0-2.49h24.9a1.245,1.245,0,0,1,0,2.49Z" transform="translate(1.469 8.326)" fill="#8491c1"/>
      <path id="Trazado_889556" data-name="Trazado 889556" d="M22.694,32.49H10.245a1.245,1.245,0,0,1,0-2.49H22.694a1.245,1.245,0,1,1,0,2.49Z" transform="translate(1.469 7.102)" fill="#8491c1"/>
      <path id="Trazado_889557" data-name="Trazado 889557" d="M35.143,42.49h-24.9a1.245,1.245,0,0,1,0-2.49h24.9a1.245,1.245,0,0,1,0,2.49Z" transform="translate(1.469 9.551)" fill="#8491c1"/>
      <path id="Trazado_889558" data-name="Trazado 889558" d="M24.714,26.428h-4.98A3.739,3.739,0,0,1,16,22.694a1.245,1.245,0,0,1,2.49,0,1.246,1.246,0,0,0,1.245,1.245h4.98a1.246,1.246,0,0,0,1.245-1.245V20.2a1.246,1.246,0,0,0-1.245-1.245h-4.98A3.739,3.739,0,0,1,16,15.224v-2.49A3.739,3.739,0,0,1,19.735,9h4.98a3.739,3.739,0,0,1,3.735,3.735,1.245,1.245,0,1,1-2.49,0,1.246,1.246,0,0,0-1.245-1.245h-4.98a1.246,1.246,0,0,0-1.245,1.245v2.49a1.246,1.246,0,0,0,1.245,1.245h4.98A3.739,3.739,0,0,1,28.449,20.2v2.49A3.739,3.739,0,0,1,24.714,26.428Z" transform="translate(3.184 1.959)" fill="#8491c1"/>
      <path id="Trazado_889559" data-name="Trazado 889559" d="M21.245,11.98A1.245,1.245,0,0,1,20,10.735V8.245a1.245,1.245,0,0,1,2.49,0v2.49A1.245,1.245,0,0,1,21.245,11.98Z" transform="translate(4.163 1.469)" fill="#8491c1"/>
      <path id="Trazado_889560" data-name="Trazado 889560" d="M21.245,25.98A1.245,1.245,0,0,1,20,24.735v-2.49a1.245,1.245,0,0,1,2.49,0v2.49A1.245,1.245,0,0,1,21.245,25.98Z" transform="translate(4.163 4.898)" fill="#8491c1"/>
      <path id="Trazado_889561" data-name="Trazado 889561" d="M41.357,2h0a4.357,4.357,0,0,1,4.357,4.357V20.673H37V6.357A4.357,4.357,0,0,1,41.357,2Z" transform="translate(8.326 0.245)" fill="#f0c518"/>
      <path id="Trazado_889562" data-name="Trazado 889562" d="M35.143,35h-24.9a1.245,1.245,0,1,0,0,2.49h24.9a1.245,1.245,0,0,0,0-2.49Z" transform="translate(1.469 8.326)" fill="#231f20"/>
      <path id="Trazado_889563" data-name="Trazado 889563" d="M10.245,32.49H22.694a1.245,1.245,0,1,0,0-2.49H10.245a1.245,1.245,0,0,0,0,2.49Z" transform="translate(1.469 7.102)" fill="#231f20"/>
      <path id="Trazado_889564" data-name="Trazado 889564" d="M35.143,40h-24.9a1.245,1.245,0,0,0,0,2.49h24.9a1.245,1.245,0,0,0,0-2.49Z" transform="translate(1.469 9.551)" fill="#231f20"/>
      <path id="Trazado_889565" data-name="Trazado 889565" d="M24.714,24.428h-4.98a1.246,1.246,0,0,1-1.245-1.245,1.245,1.245,0,0,0-2.49,0,3.739,3.739,0,0,0,3.735,3.735H20.98v1.245a1.245,1.245,0,0,0,2.49,0V26.918h1.245a3.739,3.739,0,0,0,3.735-3.735v-2.49a3.739,3.739,0,0,0-3.735-3.735h-4.98a1.246,1.246,0,0,1-1.245-1.245v-2.49a1.246,1.246,0,0,1,1.245-1.245h4.98a1.246,1.246,0,0,1,1.245,1.245,1.245,1.245,0,1,0,2.49,0A3.739,3.739,0,0,0,24.714,9.49H23.469V8.245a1.245,1.245,0,0,0-2.49,0V9.49H19.735A3.739,3.739,0,0,0,16,13.224v2.49a3.739,3.739,0,0,0,3.735,3.735h4.98a1.246,1.246,0,0,1,1.245,1.245v2.49a1.246,1.246,0,0,1-1.245,1.245Z" transform="translate(3.184 1.469)" fill="#231f20"/>
      <path id="Trazado_889566" data-name="Trazado 889566" d="M49.683,1H8.166C5.826,1,3,3.776,3,7.224V54.53a3.739,3.739,0,0,0,3.735,3.735H41.591a4.985,4.985,0,0,0,4.98-4.98V22.163H54.04a1.245,1.245,0,0,0,1.245-1.245V6.6A5.608,5.608,0,0,0,49.683,1Zm-5.6,52.285a2.493,2.493,0,0,1-2.49,2.49H6.735A1.246,1.246,0,0,1,5.49,54.53V7.224c0-2.158,1.76-3.735,2.677-3.735H45.03A5.568,5.568,0,0,0,44.081,6.6ZM52.8,19.673H46.571V6.6a3.112,3.112,0,0,1,6.224,0Z" transform="translate(0)" fill="#231f20"/>
    </g>
  </g>
</svg>
