<svg xmlns="http://www.w3.org/2000/svg" width="91" height="89" viewBox="0 0 91 89">
  <g id="_19" data-name="19" transform="translate(-426 -5107)">
    <rect id="Rect치ngulo_404835" data-name="Rect치ngulo 404835" width="91" height="89" rx="8" transform="translate(426 5107)" fill="#fff"/>
    <g id="reshot-icon-data-storage-DQ9KTU5FZE" transform="translate(444.621 5090.707)">
      <path id="Trazado_889567" data-name="Trazado 889567" d="M8.017,76.426v25.628c0,2.265,5.967,4.1,13.327,4.1s13.327-1.836,13.327-4.1V76.426Z" transform="translate(-7.056 -37.16)" fill="#d5dced"/>
      <path id="Trazado_889568" data-name="Trazado 889568" d="M246.048,270h-32.8V249.5a2.05,2.05,0,0,1,2.05-2.05H244a2.05,2.05,0,0,1,2.05,2.05V270Z" transform="translate(-187.68 -187.681)" fill="#5b5d6e"/>
      <path id="Trazado_889569" data-name="Trazado 889569" d="M232.021,439.675H197.167a1.025,1.025,0,0,1-1.025-1.025V436.6a1.025,1.025,0,0,1,1.025-1.025h34.854a1.025,1.025,0,0,1,1.025,1.025v2.05A1.025,1.025,0,0,1,232.021,439.675Z" transform="translate(-172.628 -353.254)" fill="#e4eaf8"/>
      <rect id="Rect치ngulo_404834" data-name="Rect치ngulo 404834" width="24.603" height="14.352" transform="translate(29.664 63.868)" fill="#00c3ff"/>
      <path id="Trazado_889570" data-name="Trazado 889570" d="M21.344,88.663a34.372,34.372,0,0,0,9.706-1.244,12.068,12.068,0,0,0,2.724-1.172V83.259a.957.957,0,0,0-.064.343c0,.342-.674,1.2-3.225,1.981a32.437,32.437,0,0,1-9.141,1.159c-1.165,0-2.3-.047-3.4-.137a.769.769,0,0,1-.705-.767V76.426H8.017v25.628c0,1.824,3.874,3.368,9.226,3.9v-4.346a.768.768,0,0,1,.828-.766c1.06.08,2.156.122,3.272.122a34.373,34.373,0,0,0,9.706-1.244,12.068,12.068,0,0,0,2.724-1.172V95.56a.957.957,0,0,0-.064.343c0,.342-.674,1.2-3.225,1.981a32.437,32.437,0,0,1-9.141,1.159c-1.165,0-2.3-.047-3.4-.137a.769.769,0,0,1-.705-.767v-2.68a.768.768,0,0,1,.828-.766c1.06.08,2.156.122,3.272.122a34.372,34.372,0,0,0,9.706-1.244A12.068,12.068,0,0,0,33.773,92.4V89.41a.957.957,0,0,0-.064.343c0,.342-.674,1.2-3.225,1.981a32.437,32.437,0,0,1-9.141,1.159c-1.165,0-2.3-.047-3.4-.137a.769.769,0,0,1-.705-.767v-2.68a.768.768,0,0,1,.828-.766C19.13,88.622,20.227,88.663,21.344,88.663Z" transform="translate(-7.056 -37.16)" fill="#c7cfe2"/>
      <ellipse id="Elipse_11434" data-name="Elipse 11434" cx="13.327" cy="4.101" rx="13.327" ry="4.101" transform="translate(0.961 35.165)" fill="#e4eaf8"/>
      <path id="Trazado_889571" data-name="Trazado 889571" d="M157.869,209.176a.961.961,0,0,0-1.129-.757c-.629.124-1.3.232-1.987.32a.961.961,0,0,0,.121,1.914.974.974,0,0,0,.123-.008c.732-.094,1.443-.208,2.114-.341A.961.961,0,0,0,157.869,209.176Z" transform="translate(-135.463 -153.314)"/>
      <path id="Trazado_889572" data-name="Trazado 889572" d="M157.869,157.869a.961.961,0,0,0-1.129-.757c-.629.124-1.3.232-1.987.32a.961.961,0,0,0,.121,1.914.977.977,0,0,0,.123-.008c.732-.094,1.443-.208,2.114-.341A.961.961,0,0,0,157.869,157.869Z" transform="translate(-135.463 -108.157)"/>
      <path id="Trazado_889573" data-name="Trazado 889573" d="M21.278,67.406a36.926,36.926,0,0,1-6.991.627,32.436,32.436,0,0,1-9.141-1.159C2.6,66.09,1.922,65.235,1.922,64.894V61.427a12.228,12.228,0,0,0,2.66,1.134A34.377,34.377,0,0,0,14.287,63.8c.35,0,.7,0,1.048-.012a.961.961,0,1,0-.045-1.922c-.33.008-.667.012-1,.012a32.436,32.436,0,0,1-9.141-1.159c-2.551-.785-3.225-1.639-3.225-1.981V55.276a12.228,12.228,0,0,0,2.66,1.134,34.377,34.377,0,0,0,9.706,1.244c.35,0,.7,0,1.048-.012a.961.961,0,0,0-.045-1.922c-.33.008-.667.012-1,.012a32.436,32.436,0,0,1-9.141-1.159c-2.551-.785-3.225-1.639-3.225-1.981V49.125a12.228,12.228,0,0,0,2.66,1.134A34.377,34.377,0,0,0,14.287,51.5c.35,0,.7,0,1.048-.012a.961.961,0,0,0-.045-1.922c-.33.008-.667.012-1,.012a32.436,32.436,0,0,1-9.141-1.159c-2.551-.785-3.225-1.639-3.225-1.981V41.95a12.227,12.227,0,0,0,2.66,1.134,34.377,34.377,0,0,0,9.706,1.244,34.372,34.372,0,0,0,9.706-1.244,12.216,12.216,0,0,0,2.66-1.134v4.492c0,.27-.4.779-1.51,1.322a.961.961,0,1,0,.842,1.728c.245-.119.466-.24.668-.363v3.463c0,.27-.4.779-1.51,1.322a.961.961,0,1,0,.842,1.728c.245-.119.466-.24.668-.363v.387a.961.961,0,0,0,1.922,0v-16.4c0-1.99-2.492-3.175-4.582-3.818A34.377,34.377,0,0,0,14.287,34.2a34.372,34.372,0,0,0-9.706,1.244C2.492,36.091,0,37.275,0,39.266V64.894c0,1.1.795,2.653,4.582,3.818a34.377,34.377,0,0,0,9.706,1.244,38.867,38.867,0,0,0,7.362-.663.961.961,0,0,0-.371-1.886ZM5.147,37.285a32.437,32.437,0,0,1,9.141-1.159,32.437,32.437,0,0,1,9.141,1.159c2.551.785,3.225,1.639,3.225,1.981s-.674,1.2-3.225,1.981a32.437,32.437,0,0,1-9.141,1.159,32.437,32.437,0,0,1-9.141-1.159c-2.551-.785-3.225-1.639-3.225-1.981S2.6,38.07,5.147,37.285Z"/>
      <path id="Trazado_889574" data-name="Trazado 889574" d="M156.74,259.726c-.629.124-1.3.232-1.987.32a.961.961,0,0,0,.121,1.914.981.981,0,0,0,.123-.008c.732-.094,1.443-.208,2.114-.341a.961.961,0,1,0-.372-1.886Z" transform="translate(-135.463 -198.47)"/>
      <path id="Trazado_889575" data-name="Trazado 889575" d="M224.966,261.984H224.9V242.443a3.015,3.015,0,0,0-3.011-3.011h-28.7a3.015,3.015,0,0,0-3.011,3.011v19.541h-.064a1.988,1.988,0,0,0-1.986,1.986v2.05a1.988,1.988,0,0,0,1.986,1.986h34.854a1.988,1.988,0,0,0,1.986-1.986v-2.05A1.989,1.989,0,0,0,224.966,261.984ZM192.1,242.443a1.09,1.09,0,0,1,1.089-1.089h28.7a1.09,1.09,0,0,1,1.089,1.089v19.541H192.1Zm32.932,23.578a.064.064,0,0,1-.064.064H190.112a.064.064,0,0,1-.064-.064v-2.05a.064.064,0,0,1,.064-.064h34.854a.064.064,0,0,1,.064.064v2.05Z" transform="translate(-165.573 -180.625)"/>
      <path id="Trazado_889576" data-name="Trazado 889576" d="M243.469,287.988h-2.114v-12.43H257.82a.961.961,0,1,0,0-1.922H240.393a.961.961,0,0,0-.961.961v14.352a.961.961,0,0,0,.961.961h3.076a.961.961,0,1,0,0-1.922Z" transform="translate(-210.729 -210.729)"/>
      <path id="Trazado_889577" data-name="Trazado 889577" d="M317.674,273.637H314.6a.961.961,0,1,0,0,1.922h2.114v12.43H300.247a.961.961,0,1,0,0,1.922h17.427a.961.961,0,0,0,.961-.961V274.6A.961.961,0,0,0,317.674,273.637Z" transform="translate(-263.407 -210.73)"/>
      <path id="Trazado_889578" data-name="Trazado 889578" d="M257.5,130.19a8.274,8.274,0,0,1,8.265,8.265.961.961,0,1,0,1.922,0A10.2,10.2,0,0,0,257.5,128.268a.961.961,0,1,0,0,1.922Z" transform="translate(-225.781 -82.788)"/>
      <path id="Trazado_889579" data-name="Trazado 889579" d="M87.146,359.822a8.274,8.274,0,0,1-8.265-8.265.961.961,0,0,0-1.922,0,10.2,10.2,0,0,0,10.187,10.187.961.961,0,1,0,0-1.922Z" transform="translate(-67.733 -278.463)"/>
    </g>
  </g>
</svg>
