<svg xmlns="http://www.w3.org/2000/svg" width="91" height="89" viewBox="0 0 91 89">
  <g id="_20" data-name="20" transform="translate(-846 -5107)">
    <rect id="Rectángulo_404836" data-name="Rectángulo 404836" width="91" height="89" rx="8" transform="translate(846 5107)" fill="#fff"/>
    <g id="reshot-icon-time-management-QP2JE6RXTS" transform="translate(839.841 5105.7)">
      <g id="Grupo_1103769" data-name="Grupo 1103769" transform="translate(28.782 21.95)">
        <g id="Grupo_1103768" data-name="Grupo 1103768" transform="translate(0 0)">
          <g id="Grupo_1103767" data-name="Grupo 1103767">
            <path id="Trazado_889580" data-name="Trazado 889580" d="M71.34,40.33a6.555,6.555,0,0,0-3.292,4.877,13.418,13.418,0,0,0-5.121-.975,14.832,14.832,0,0,0-2.317.183A13.987,13.987,0,0,0,49.15,60.447a13.637,13.637,0,0,0,5.243,8.718c-.244.061-.427.122-.671.183a23.966,23.966,0,0,1-5.121,0,2.852,2.852,0,0,1-2.56-2.865,6.639,6.639,0,0,0-6.4-6.767,6.885,6.885,0,0,0-3.475.914,2.878,2.878,0,0,1-3.841-.793c-.488-.671-.975-1.4-1.4-2.134a16.429,16.429,0,0,1-1.158-2.317,2.912,2.912,0,0,1,1.28-3.658,6.583,6.583,0,0,0,2.5-8.961,7.014,7.014,0,0,0-2.5-2.5,2.958,2.958,0,0,1-1.28-3.658,21.6,21.6,0,0,1,2.56-4.45,2.891,2.891,0,0,1,3.841-.793,6.64,6.64,0,0,0,9.022-2.317,6.885,6.885,0,0,0,.914-3.475,2.9,2.9,0,0,1,2.56-2.865,23.966,23.966,0,0,1,5.121,0,2.852,2.852,0,0,1,2.56,2.865,6.547,6.547,0,0,0,6.4,6.706,6.885,6.885,0,0,0,3.475-.914,2.878,2.878,0,0,1,3.841.793c.488.671.975,1.4,1.4,2.134a16.428,16.428,0,0,1,1.158,2.317A2.886,2.886,0,0,1,71.34,40.33Z" transform="translate(-29.552 -22.575)" fill="#f0c518"/>
            <path id="Trazado_889581" data-name="Trazado 889581" d="M68.4,53.018A13.923,13.923,0,0,0,57.186,63.381,9.542,9.542,0,1,1,60.6,44.605,9.45,9.45,0,0,1,68.4,53.018Z" transform="translate(-37.284 -31.117)" fill="#fff"/>
          </g>
          <path id="Trazado_889582" data-name="Trazado 889582" d="M89.359,72.1A13.93,13.93,0,1,1,73.144,58.383,14.266,14.266,0,0,1,75.46,58.2,13.893,13.893,0,0,1,89.359,72.1Z" transform="translate(-42.024 -36.482)" fill="#00ffdf"/>
        </g>
      </g>
      <path id="Trazado_889583" data-name="Trazado 889583" d="M74.594,65.919a10.341,10.341,0,0,1-.61.853,1.085,1.085,0,1,1-1.707-1.341h0l.549-.732a1.068,1.068,0,0,1,1.463-.3,1.1,1.1,0,0,1,.3,1.524ZM70.753,51.837a1.068,1.068,0,0,0-1.463-.3l-7.072,4.694-5.548-3.841a1.057,1.057,0,0,0-1.158,1.768l4.816,3.353-1.219.853a1.057,1.057,0,1,0,1.158,1.768l1.951-1.28,1.951,1.341a1,1,0,0,0,1.463-.244,1.047,1.047,0,0,0-.3-1.524l-1.219-.853,6.34-4.206A1.155,1.155,0,0,0,70.753,51.837Zm6.4,5.73a14.9,14.9,0,0,1-.549,4.023,1.065,1.065,0,1,1-2.073-.488,12.766,12.766,0,0,0,.427-2.378h-.792a1.1,1.1,0,1,1,0-2.195h.792A12.854,12.854,0,0,0,63.194,44.765v.792a1.1,1.1,0,0,1-2.195,0v-.792A12.7,12.7,0,0,0,49.234,56.531h.792a1.1,1.1,0,0,1,0,2.195h-.792A12.907,12.907,0,0,0,61,70.491V69.7a1.1,1.1,0,1,1,2.195,0v.793a12.276,12.276,0,0,0,6.4-2.378,1,1,0,0,1,1.463.244,1.055,1.055,0,0,1-.244,1.463,14.952,14.952,0,0,1-17.435,0,23.828,23.828,0,0,1-5.73.061,3.909,3.909,0,0,1-3.536-3.9A5.5,5.5,0,0,0,35.822,61.1a3.991,3.991,0,0,1-5.243-1.036A26.946,26.946,0,0,1,27.9,55.434a3.991,3.991,0,0,1,1.768-5.06,5.305,5.305,0,0,0,1.28-1.036A1.079,1.079,0,0,1,32.53,50.8h0A8.112,8.112,0,0,1,30.7,52.2a1.815,1.815,0,0,0-.853,2.317,24.825,24.825,0,0,0,2.438,4.267,1.826,1.826,0,0,0,2.438.488,7.656,7.656,0,0,1,11.522,6.767,1.835,1.835,0,0,0,1.646,1.768c1.1.122,2.682.122,3.292.122a14.062,14.062,0,0,1-2.012-2.8,19.331,19.331,0,0,1-2.012-7.437,12.145,12.145,0,0,1,.244-2.56,10.879,10.879,0,0,1-7.193-13.351,10.632,10.632,0,0,1,20.605.853c.122,0,.732-.061,1.219-.061a14.866,14.866,0,0,1,4.511.61,7.574,7.574,0,0,1,3.536-4.45,1.815,1.815,0,0,0,.853-2.317A22.724,22.724,0,0,0,68.5,32.146a1.826,1.826,0,0,0-2.438-.488,7.668,7.668,0,0,1-11.522-6.767,1.835,1.835,0,0,0-1.646-1.768,21.742,21.742,0,0,0-4.877,0,1.789,1.789,0,0,0-1.646,1.768,7.641,7.641,0,0,1-11.522,6.767,1.826,1.826,0,0,0-2.438.488,22.724,22.724,0,0,0-2.438,4.267,1.815,1.815,0,0,0,.853,2.317,7.6,7.6,0,0,1,3.841,7.193,1.024,1.024,0,0,1-1.1.975,1.067,1.067,0,0,1-.975-1.1,5.456,5.456,0,0,0-2.8-5.182,3.891,3.891,0,0,1-1.707-5,24.823,24.823,0,0,1,2.682-4.633A4.006,4.006,0,0,1,36,29.891,5.512,5.512,0,0,0,44.3,25.014a3.909,3.909,0,0,1,3.536-3.9,26.3,26.3,0,0,1,5.365,0,3.924,3.924,0,0,1,3.536,3.963,5.523,5.523,0,0,0,8.291,4.877,3.991,3.991,0,0,1,5.243,1.036,26.945,26.945,0,0,1,2.682,4.633,3.991,3.991,0,0,1-1.768,5.06,5.445,5.445,0,0,0-2.56,3.353A14.514,14.514,0,0,1,77.154,57.567Zm-29.2-4.694a14.82,14.82,0,0,1,10.729-9.937,8.49,8.49,0,1,0-10.729,9.937Z" fill="#172956"/>
    </g>
  </g>
</svg>
