<svg xmlns="http://www.w3.org/2000/svg" xmlns:xlink="http://www.w3.org/1999/xlink" width="91" height="89" viewBox="0 0 91 89">
  <defs>
    <clipPath id="clip-path">
      <rect id="Rect치ngulo_404861" data-name="Rect치ngulo 404861" width="58.896" height="58.966" fill="none"/>
    </clipPath>
  </defs>
  <g id="_32" data-name="32" transform="translate(-216 -12446)">
    <g id="Grupo_1103790" data-name="Grupo 1103790" transform="translate(-210 7339)">
      <rect id="Rect치ngulo_404835" data-name="Rect치ngulo 404835" width="91" height="89" rx="8" transform="translate(426 5107)" fill="#fff"/>
    </g>
    <g id="Grupo_1103793" data-name="Grupo 1103793" transform="translate(233.156 12461)">
      <g id="Grupo_1103792" data-name="Grupo 1103792" clip-path="url(#clip-path)">
        <path id="Trazado_889589" data-name="Trazado 889589" d="M22.108,69.362C11.935,69.362,3.7,66.283,3.7,62.467V26.391H40.448V62.467c0,3.815-8.233,6.894-18.34,6.894" transform="translate(-2.566 -18.293)" fill="#e4e7e7" fill-rule="evenodd"/>
        <path id="Trazado_889590" data-name="Trazado 889590" d="M22.108,17.562C11.935,17.562,3.7,14.483,3.7,10.668c0-3.882,8.233-6.961,18.406-6.961,10.107,0,18.34,3.079,18.34,6.961,0,3.815-8.233,6.894-18.34,6.894" transform="translate(-2.566 -2.569)" fill="#f6f7f7" fill-rule="evenodd"/>
        <path id="Trazado_889591" data-name="Trazado 889591" d="M98.491,82.231A16.3,16.3,0,1,1,82.226,98.562,16.254,16.254,0,0,1,98.491,82.231" transform="translate(-56.994 -56.998)" fill="#41ceb3" fill-rule="evenodd"/>
        <path id="Trazado_889592" data-name="Trazado 889592" d="M125.034,116.719l-3.079-3.079-7.162,7.162-2.878-2.878L108.836,121c2.477,2.477,3.548,3.48,5.957,5.957Z" transform="translate(-75.439 -78.769)" fill="#fff" fill-rule="evenodd"/>
        <path id="Trazado_889593" data-name="Trazado 889593" d="M19.542,61.151C10.067,61.151,0,58.314,0,53.055a1.137,1.137,0,1,1,2.273,0c0,2.753,7.093,5.822,17.269,5.822,10.137,0,17.2-3.069,17.2-5.822a1.137,1.137,0,1,1,2.274,0c0,5.26-10.033,8.1-19.475,8.1" transform="translate(0 -35.987)" fill="#434a53"/>
        <path id="Trazado_889594" data-name="Trazado 889594" d="M19.542,90.594C10.067,90.594,0,87.756,0,82.5a1.137,1.137,0,1,1,2.273,0c0,2.749,7.386,5.825,17.269,5.825.987,0,1.918-.06,2.9-.122l.245,1.125.071,1.135c-1.2.076-2.181.136-3.217.136" transform="translate(0 -56.393)" fill="#434a53"/>
        <path id="Trazado_889595" data-name="Trazado 889595" d="M1.137,74.187A1.135,1.135,0,0,1,0,73.051V42.8a1.137,1.137,0,0,1,2.274,0V73.051a1.135,1.135,0,0,1-1.137,1.137" transform="translate(0 -28.877)" fill="#434a53"/>
        <path id="Trazado_889596" data-name="Trazado 889596" d="M120.88,38.012a1.135,1.135,0,0,1-1.137-1.137V23.824a1.137,1.137,0,0,1,2.274,0V36.875a1.135,1.135,0,0,1-1.137,1.137" transform="translate(-82.999 -15.725)" fill="#434a53"/>
        <path id="Trazado_889597" data-name="Trazado 889597" d="M19.542,16.131C10.067,16.131,0,13.317,0,8.1,0,2.839,10.067,0,19.542,0c9.443,0,19.475,2.838,19.475,8.1,0,5.218-10.033,8.031-19.475,8.031m0-13.856C9.366,2.274,2.273,5.344,2.273,8.1c0,2.716,7.386,5.758,17.269,5.758,9.844,0,17.2-3.041,17.2-5.758,0-2.756-7.065-5.825-17.2-5.825" transform="translate(0 -0.001)" fill="#434a53"/>
        <path id="Trazado_889598" data-name="Trazado 889598" d="M20.815,119.977H19.542C10.067,119.977,0,117.164,0,111.946a1.137,1.137,0,1,1,2.273,0c0,2.716,7.386,5.758,17.269,5.758h1.273a1.137,1.137,0,1,1,0,2.273" transform="translate(0 -76.807)" fill="#434a53"/>
        <path id="Trazado_889599" data-name="Trazado 889599" d="M19.542,149.418C10.067,149.418,0,146.6,0,141.387a1.137,1.137,0,1,1,2.273,0c0,2.716,7.386,5.758,17.269,5.758a29.525,29.525,0,0,0,3.413-.127,1.151,1.151,0,0,1,1.263,1,1.138,1.138,0,0,1-1,1.264,32.1,32.1,0,0,1-3.68.141" transform="translate(0 -97.213)" fill="#434a53"/>
        <path id="Trazado_889600" data-name="Trazado 889600" d="M95.921,113.4a17.435,17.435,0,1,1,17.4-17.4,17.421,17.421,0,0,1-17.4,17.4m0-32.6a15.161,15.161,0,1,0,15.126,15.193A15.179,15.179,0,0,0,95.921,80.8" transform="translate(-54.425 -54.43)" fill="#434a53"/>
        <path id="Trazado_889601" data-name="Trazado 889601" d="M112.224,125.529h-.007a1.129,1.129,0,0,1-.809-.344c-1.538-1.579-2.527-2.559-3.689-3.705l-2.255-2.239a1.137,1.137,0,0,1,0-1.609l3.078-3.081a1.177,1.177,0,0,1,1.609,0l2.073,2.076,6.357-6.357a1.141,1.141,0,0,1,1.61,0l3.078,3.078a1.137,1.137,0,0,1,0,1.609l-1.941,1.941a1.138,1.138,0,0,1-1.609-1.609l1.137-1.137-1.469-1.469-6.357,6.357a1.142,1.142,0,0,1-1.61,0l-2.073-2.075-1.466,1.469,1.436,1.425c.957.945,1.8,1.775,2.917,2.915l5.075-5.075a1.138,1.138,0,0,1,1.61,1.609l-5.889,5.889a1.145,1.145,0,0,1-.8.332" transform="translate(-72.87 -76.202)" fill="#434a53"/>
      </g>
    </g>
  </g>
</svg>
