<svg xmlns="http://www.w3.org/2000/svg" xmlns:xlink="http://www.w3.org/1999/xlink" width="91" height="89" viewBox="0 0 91 89">
  <defs>
    <clipPath id="clip-path">
      <rect id="Rect치ngulo_404862" data-name="Rect치ngulo 404862" width="63.119" height="63.188" fill="none"/>
    </clipPath>
  </defs>
  <g id="_33" data-name="33" transform="translate(-846 -5107)">
    <rect id="Rect치ngulo_404836" data-name="Rect치ngulo 404836" width="91" height="89" rx="8" transform="translate(846 5107)" fill="#fff"/>
    <g id="Grupo_1103795" data-name="Grupo 1103795" transform="translate(864.881 5120.973)">
      <g id="Grupo_1103794" data-name="Grupo 1103794" clip-path="url(#clip-path)">
        <path id="Trazado_889602" data-name="Trazado 889602" d="M23.434,72.439c-10.9,0-19.725-3.3-19.725-7.388V26.391H43.086v38.66c0,4.088-8.822,7.388-19.653,7.388" transform="translate(-2.489 -17.713)" fill="#e4e7e7" fill-rule="evenodd"/>
        <path id="Trazado_889603" data-name="Trazado 889603" d="M23.434,18.554c-10.9,0-19.725-3.3-19.725-7.387,0-4.16,8.823-7.46,19.725-7.46,10.83,0,19.653,3.3,19.653,7.46,0,4.088-8.822,7.387-19.653,7.387" transform="translate(-2.489 -2.488)" fill="#f6f7f7" fill-rule="evenodd"/>
        <path id="Trazado_889604" data-name="Trazado 889604" d="M99.663,82.231a17.465,17.465,0,1,1-17.429,17.5,17.418,17.418,0,0,1,17.429-17.5" transform="translate(-55.193 -55.191)" fill="#c1e8ff" fill-rule="evenodd"/>
        <path id="Trazado_889605" data-name="Trazado 889605" d="M112.31,138.185h12.767a1.761,1.761,0,0,0,1.721-1.793v-9.253a1.746,1.746,0,0,0-1.721-1.721H112.31a1.745,1.745,0,0,0-1.721,1.721v9.253a1.761,1.761,0,0,0,1.721,1.793" transform="translate(-74.224 -84.177)" fill="#b9bbbb" fill-rule="evenodd"/>
        <path id="Trazado_889606" data-name="Trazado 889606" d="M129.786,110.047v-3.8a3.766,3.766,0,0,0-3.8-3.73h-2.869a3.766,3.766,0,0,0-3.8,3.73v3.8Z" transform="translate(-80.08 -68.806)" fill="#fff" fill-rule="evenodd"/>
        <path id="Trazado_889607" data-name="Trazado 889607" d="M130.992,140.266a2.08,2.08,0,1,0-2.08-2.08,2.082,2.082,0,0,0,2.08,2.08" transform="translate(-86.522 -91.35)" fill="#fff" fill-rule="evenodd"/>
        <path id="Trazado_889608" data-name="Trazado 889608" d="M20.944,61.812C10.791,61.812,0,58.772,0,53.136a1.219,1.219,0,0,1,2.439,0c0,2.95,7.6,6.239,18.505,6.239,10.864,0,18.434-3.289,18.434-6.239a1.219,1.219,0,0,1,2.439,0c0,5.636-10.754,8.676-20.872,8.676" transform="translate(0 -34.846)" fill="#434a53"/>
        <path id="Trazado_889609" data-name="Trazado 889609" d="M20.944,91.255C10.791,91.255,0,88.214,0,82.577a1.219,1.219,0,0,1,2.439,0c0,2.945,7.913,6.242,18.505,6.242,1.058,0,2.054-.064,3.1-.131l.267,1.206.075,1.218c-1.292.079-2.338.143-3.447.143" transform="translate(0 -54.606)" fill="#434a53"/>
        <path id="Trazado_889610" data-name="Trazado 889610" d="M1.219,76.517A1.218,1.218,0,0,1,0,75.3V42.879a1.219,1.219,0,0,1,2.439,0V75.3a1.218,1.218,0,0,1-1.219,1.218" transform="translate(0 -27.962)" fill="#434a53"/>
        <path id="Trazado_889611" data-name="Trazado 889611" d="M120.97,39.109a1.218,1.218,0,0,1-1.219-1.218V23.9a1.219,1.219,0,0,1,2.439,0V37.891a1.218,1.218,0,0,1-1.219,1.218" transform="translate(-80.373 -15.227)" fill="#434a53"/>
        <path id="Trazado_889612" data-name="Trazado 889612" d="M20.944,17.286C10.791,17.286,0,14.271,0,8.679,0,3.043,10.791,0,20.944,0,31.063,0,41.817,3.043,41.817,8.679c0,5.592-10.754,8.606-20.872,8.606m0-14.848c-10.906,0-18.505,3.289-18.505,6.242,0,2.911,7.913,6.17,18.505,6.17,10.55,0,18.434-3.259,18.434-6.17,0-2.953-7.57-6.242-18.434-6.242" transform="translate(0 -0.001)" fill="#434a53"/>
        <path id="Trazado_889613" data-name="Trazado 889613" d="M22.307,120.634H20.944C10.791,120.634,0,117.619,0,112.027a1.219,1.219,0,0,1,2.439,0c0,2.911,7.913,6.17,18.505,6.17h1.363a1.218,1.218,0,1,1,0,2.436" transform="translate(0 -74.372)" fill="#434a53"/>
        <path id="Trazado_889614" data-name="Trazado 889614" d="M20.944,150.075C10.791,150.075,0,147.06,0,141.468a1.219,1.219,0,0,1,2.439,0c0,2.911,7.913,6.17,18.505,6.17a32.815,32.815,0,0,0,3.667-.136,1.218,1.218,0,1,1,.269,2.422,34.681,34.681,0,0,1-3.936.151" transform="translate(0 -94.132)" fill="#434a53"/>
        <path id="Trazado_889615" data-name="Trazado 889615" d="M97.175,115.893a18.683,18.683,0,1,1,18.649-18.649,18.669,18.669,0,0,1-18.649,18.649m0-34.93a16.247,16.247,0,1,0,16.21,16.281,16.265,16.265,0,0,0-16.21-16.281" transform="translate(-52.704 -52.705)" fill="#434a53"/>
        <path id="Trazado_889616" data-name="Trazado 889616" d="M122.59,136.917H109.823a2.981,2.981,0,0,1-2.94-3.012v-9.251a2.98,2.98,0,0,1,2.94-2.94H122.59a2.98,2.98,0,0,1,2.942,2.94V133.9a2.981,2.981,0,0,1-2.942,3.012m-12.767-12.768a.529.529,0,0,0-.5.5V133.9a.549.549,0,0,0,.5.576H122.59a.549.549,0,0,0,.5-.576v-9.251a.53.53,0,0,0-.5-.5Z" transform="translate(-71.737 -81.69)" fill="#434a53"/>
        <path id="Trazado_889617" data-name="Trazado 889617" d="M127.3,108.777a1.218,1.218,0,0,1-1.219-1.218v-3.8a2.551,2.551,0,0,0-2.582-2.513h-2.869a2.551,2.551,0,0,0-2.582,2.513v3.8a1.219,1.219,0,0,1-2.439,0v-3.8a4.99,4.99,0,0,1,5.021-4.949H123.5a4.99,4.99,0,0,1,5.021,4.949v3.8a1.218,1.218,0,0,1-1.219,1.218" transform="translate(-77.592 -66.318)" fill="#434a53"/>
        <path id="Trazado_889618" data-name="Trazado 889618" d="M132.749,149a1.218,1.218,0,0,1-1.219-1.218v-1.507a1.219,1.219,0,0,1,2.439,0v1.507A1.218,1.218,0,0,1,132.749,149" transform="translate(-88.279 -97.355)" fill="#434a53"/>
        <path id="Trazado_889619" data-name="Trazado 889619" d="M128.5,139a3.3,3.3,0,1,1,0-6.6,1.218,1.218,0,1,1,0,2.437.862.862,0,1,0,.86.862,1.219,1.219,0,0,1,2.439,0,3.3,3.3,0,0,1-3.3,3.3" transform="translate(-84.032 -88.862)" fill="#434a53"/>
      </g>
    </g>
  </g>
</svg>
