<svg xmlns="http://www.w3.org/2000/svg" xmlns:xlink="http://www.w3.org/1999/xlink" width="107" height="107" viewBox="0 0 107 107">
  <defs>
    <clipPath id="clip-path">
      <rect id="Rectángulo_404910" data-name="Rectángulo 404910" width="63" height="76" transform="translate(-0.297 0.276)" fill="none"/>
    </clipPath>
  </defs>
  <g id="_35" data-name="35" transform="translate(-338 -16281)">
    <circle id="Elipse_11739" data-name="Elipse 11739" cx="53.5" cy="53.5" r="53.5" transform="translate(338 16281)" fill="#f2e5fd"/>
    <g id="Grupo_1103817" data-name="Grupo 1103817" transform="translate(359.482 16295.616)">
      <g id="Grupo_1103816" data-name="Grupo 1103816" transform="translate(-0.185 0.108)" clip-path="url(#clip-path)">
        <path id="Trazado_889673" data-name="Trazado 889673" d="M90.048,1426.977H53.8V1406H88.035v16.307a6.375,6.375,0,0,0,1.284,3.823c.078.108.155.209.245.311s.161.191.245.287.161.167.239.251" transform="translate(-52.089 -1363.914)" fill="#81d9e3"/>
        <path id="Trazado_889674" data-name="Trazado 889674" d="M275.161,69.108a2.378,2.378,0,0,1,1.133.3c2.491-2.8,8.081-3.88,13.4-3.88a31.527,31.527,0,0,1,5.7.475V46.409l-14.387-14.58H249.286a3.915,3.915,0,0,0-2.8,3.715V69.108Z" transform="translate(-239.014 -30.787)" fill="#e1ebf4"/>
        <path id="Trazado_889675" data-name="Trazado 889675" d="M289.693,2195.557a24.434,24.434,0,0,1-8.543-1.368,2.388,2.388,0,0,1-2.159,1.368H246.48v6.722l2.272,1.637h45.261l1.383-1.2v-7.755a25.423,25.423,0,0,1-5.7.6" transform="translate(-239.013 -2128.563)" fill="#e1ebf4"/>
        <path id="Trazado_889676" data-name="Trazado 889676" d="M934.731,1540a1.2,1.2,0,0,0-1.195,1.195v9.1a1.2,1.2,0,0,0,1.195,1.195H939.7a1.195,1.195,0,0,0,0-2.389h-3.777v-7.9a1.2,1.2,0,0,0-1.195-1.195" transform="translate(-905.548 -1493.912)" fill="#2d4356"/>
        <path id="Trazado_889677" data-name="Trazado 889677" d="M204.7,1549.133h-3.189a1.195,1.195,0,0,0,0,2.389H204.7a3.519,3.519,0,0,0,3.682-3.508,3.451,3.451,0,0,0-3.682-3.45h-1.027a1.127,1.127,0,0,1-1.287-1.112c0-.728.635-1.064,1.287-1.064h3.189a1.195,1.195,0,0,0,0-2.39h-3.189a3.664,3.664,0,0,0-2.721,1.065,3.4,3.4,0,0,0-.955,2.388,3.513,3.513,0,0,0,3.676,3.5H204.7c1.2,0,1.293.812,1.293,1.06a1.167,1.167,0,0,1-1.293,1.118" transform="translate(-193.922 -1493.912)" fill="#2d4356"/>
        <path id="Trazado_889678" data-name="Trazado 889678" d="M568.971,1547.719v-3.914A3.7,3.7,0,0,0,565.39,1540H564.2a3.7,3.7,0,0,0-3.581,3.805v3.914a3.7,3.7,0,0,0,3.581,3.8h.558l1.546,1.329a1.195,1.195,0,0,0,1.558-1.812l-.326-.281a3.88,3.88,0,0,0,1.439-3.042m-5.966,0v-3.914a1.32,1.32,0,0,1,1.192-1.416h1.193a1.32,1.32,0,0,1,1.192,1.416v3.914a1.319,1.319,0,0,1-1.192,1.415H564.2a1.319,1.319,0,0,1-1.192-1.415" transform="translate(-543.766 -1493.913)" fill="#2d4356"/>
        <path id="Trazado_889679" data-name="Trazado 889679" d="M501.195,682.388h17.92a1.195,1.195,0,0,0,0-2.389h-17.92a1.195,1.195,0,0,0,0,2.389" transform="translate(-484.961 -659.598)" fill="#2d4356"/>
        <path id="Trazado_889680" data-name="Trazado 889680" d="M501.195,882.388h31.062a1.195,1.195,0,1,0,0-2.389H501.195a1.195,1.195,0,1,0,0,2.389" transform="translate(-484.961 -853.625)" fill="#2d4356"/>
        <path id="Trazado_889681" data-name="Trazado 889681" d="M37.123,1381.5H3.549a1.258,1.258,0,0,1-1.159-1.335v-16.444a1.258,1.258,0,0,1,1.159-1.335H35.841v-1.015a3.641,3.641,0,0,1,.037-.49,5.17,5.17,0,0,1,.163-.884H3.549A3.644,3.644,0,0,0,0,1363.725v16.444a3.644,3.644,0,0,0,3.549,3.725H39.874a9.139,9.139,0,0,1-2.751-2.389" transform="translate(0.106 -1319.289)" fill="#2d4356"/>
        <path id="Trazado_889682" data-name="Trazado 889682" d="M251.023,15.439,236.717.38A2.718,2.718,0,0,0,235.289,0H203.582A3.572,3.572,0,0,0,200,3.546V38.228h2.389V3.546a1.18,1.18,0,0,1,1.195-1.159h31.062V14.394a3.469,3.469,0,0,0,3.4,3.524H248.98V34.9a21.562,21.562,0,0,1,2.389.424V16.276a1.19,1.19,0,0,0-.346-.836m-12.974.09a1.08,1.08,0,0,1-1.015-1.135V4.663l10.412,10.866h-9.4" transform="translate(-193.919 0.093)" fill="#2d4356"/>
        <path id="Trazado_889683" data-name="Trazado 889683" d="M1450.414,167.064h-9.4a1.08,1.08,0,0,1-1.015-1.135V156.2Z" transform="translate(-1396.887 -151.442)" fill="#81d9e3"/>
        <path id="Trazado_889684" data-name="Trazado 889684" d="M248.98,2218.02a1.179,1.179,0,0,1-1.194,1.16h-44.2a1.179,1.179,0,0,1-1.194-1.16v-6.008H200v6.008a3.571,3.571,0,0,0,3.584,3.55h44.2a3.571,3.571,0,0,0,3.583-3.55v-6.869a19.275,19.275,0,0,1-2.389.537Z" transform="translate(-193.919 -2145.019)" fill="#2d4356"/>
        <path id="Trazado_889685" data-name="Trazado 889685" d="M1292.347,1240c-6.147,0-12.347,1.535-12.347,4.958v16.307c0,3.656,5.077,6.212,12.347,6.212,7.013,0,11.547-2.437,11.547-6.212v-16.307c0-3.058-4.426-4.958-11.547-4.958m9.157,21.266c0,1.9-3.148,3.823-9.157,3.823-5.955,0-9.958-1.977-9.958-3.823v-2.007c2.168,1.475,5.681,2.365,9.958,2.365,3.972,0,7.15-.782,9.157-2.15v1.792m0-5.854c0,1.9-3.148,3.823-9.157,3.823-5.955,0-9.958-1.977-9.958-3.823V1253.4c2.168,1.475,5.681,2.366,9.958,2.366,3.972,0,7.15-.783,9.157-2.151v1.792m0-5.854c0,1.9-3.148,3.823-9.157,3.823-5.955,0-9.958-1.977-9.958-3.823v-1.469c2.365,1.242,6.171,1.828,9.958,1.828,4.008,0,7.168-.6,9.157-1.679v1.32m-9.157-2.031c-6.995,0-9.958-1.84-9.958-2.569s2.963-2.569,9.958-2.569c6.469,0,9.157,1.672,9.157,2.569s-2.688,2.569-9.157,2.569" transform="translate(-1241.664 -1202.871)" fill="#2d4356"/>
        <path id="Trazado_889686" data-name="Trazado 889686" d="M1379.114,1885.014v1.792c0,1.9-3.148,3.823-9.157,3.823-5.956,0-9.958-1.977-9.958-3.823V1884.8c2.168,1.476,5.681,2.365,9.958,2.365,3.972,0,7.15-.782,9.157-2.15" transform="translate(-1319.274 -1828.414)" fill="#ffdb80"/>
        <path id="Trazado_889687" data-name="Trazado 889687" d="M1379.114,1689.014v1.792c0,1.9-3.148,3.823-9.157,3.823-5.956,0-9.958-1.977-9.958-3.823V1688.8c2.168,1.475,5.681,2.366,9.958,2.366,3.972,0,7.15-.783,9.157-2.15" transform="translate(-1319.274 -1638.268)" fill="#ffdb80"/>
        <path id="Trazado_889688" data-name="Trazado 889688" d="M1379.114,1510.947v1.32c0,1.9-3.148,3.823-9.157,3.823-5.956,0-9.958-1.977-9.958-3.823V1510.8c2.365,1.242,6.171,1.828,9.958,1.828,4.008,0,7.168-.6,9.157-1.679" transform="translate(-1319.274 -1465.584)" fill="#ffdb80"/>
        <path id="Trazado_889689" data-name="Trazado 889689" d="M1379.114,1322.569c0,.9-2.688,2.568-9.157,2.568-6.995,0-9.958-1.84-9.958-2.568s2.963-2.569,9.958-2.569c6.469,0,9.157,1.672,9.157,2.569" transform="translate(-1319.274 -1280.484)" fill="#ffdb80"/>
        <path id="Trazado_889690" data-name="Trazado 889690" d="M80,1995.2v1.195a1.5,1.5,0,0,0,.127.611,1.155,1.155,0,0,0,1.032.727h33.576a6.235,6.235,0,0,1-.711-1.195H81.159A1.258,1.258,0,0,1,80,1995.2" transform="translate(-77.505 -1935.515)" fill="#5fabb1"/>
        <path id="Trazado_889691" data-name="Trazado 889691" d="M84.264,2055.65a1.153,1.153,0,0,0,1.032.727,1.155,1.155,0,0,1-1.032-.727" transform="translate(-81.642 -1994.162)" fill="#24434e"/>
        <path id="Trazado_889692" data-name="Trazado 889692" d="M1440,442v1.195a1.08,1.08,0,0,0,1.015,1.135h9.4l-1.147-1.195h-8.249A1.08,1.08,0,0,1,1440,442" transform="translate(-1396.887 -428.706)" fill="#5fabb1"/>
        <path id="Trazado_889693" data-name="Trazado 889693" d="M326.595,2401.2a1.18,1.18,0,0,1-1.195,1.159H281.2A1.18,1.18,0,0,1,280,2401.2v1.193a1.127,1.127,0,0,0,.147.558h0v0a1.2,1.2,0,0,0,1.046.6h44.2a1.2,1.2,0,0,0,1.035-.58,1.129,1.129,0,0,0,.16-.58Z" transform="translate(-271.534 -2329.391)" fill="#c0c8cf"/>
        <path id="Trazado_889694" data-name="Trazado 889694" d="M280.15,2402.951v0m-.148-.559h0a1.123,1.123,0,0,0,.147.557,1.127,1.127,0,0,1-.147-.558m46.593-1.193h0v1.193a1.129,1.129,0,0,1-.16.58,1.125,1.125,0,0,0,.16-.579V2401.2" transform="translate(-271.534 -2329.391)" fill="#667480"/>
        <path id="Trazado_889695" data-name="Trazado 889695" d="M113.451,1440H81.159a1.151,1.151,0,0,0-1.025.712,1.5,1.5,0,0,0-.134.626v1.195a1.258,1.258,0,0,1,1.159-1.338h32.292Z" transform="translate(-77.505 -1396.899)" fill="#aae7ed"/>
        <path id="Trazado_889696" data-name="Trazado 889696" d="M117.811,1440H85.519a1.15,1.15,0,0,0-1.025.712,1.151,1.151,0,0,1,1.025-.712Z" transform="translate(-81.865 -1396.899)" fill="#788d98"/>
        <path id="Trazado_889697" data-name="Trazado 889697" d="M312.259,80H281.2A1.18,1.18,0,0,0,280,81.156v1.195a1.179,1.179,0,0,1,1.195-1.159h31.062Z" transform="translate(-271.534 -77.517)" fill="#f0f5fa"/>
        <path id="Trazado_889698" data-name="Trazado 889698" d="M1702.541,1959.079c-.224,1.828-3.358,3.612-9.144,3.612h0c5.786,0,8.92-1.783,9.144-3.612" transform="translate(-1642.714 -1900.475)" fill="#676757"/>
        <path id="Trazado_889699" data-name="Trazado 889699" d="M1379.114,1912c0,1.9-3.148,3.823-9.157,3.823-5.956,0-9.958-1.977-9.958-3.823v1.195c0,1.846,4,3.823,9.958,3.823,5.786,0,8.92-1.783,9.144-3.611a1.759,1.759,0,0,0,.013-.212Z" transform="translate(-1319.274 -1854.802)" fill="#dabb6e"/>
        <path id="Trazado_889700" data-name="Trazado 889700" d="M1702.541,1763.079c-.224,1.828-3.358,3.612-9.144,3.612h0c5.786,0,8.92-1.783,9.144-3.612" transform="translate(-1642.714 -1710.329)" fill="#676757"/>
        <path id="Trazado_889701" data-name="Trazado 889701" d="M1379.114,1716c0,1.9-3.148,3.823-9.157,3.823-5.956,0-9.958-1.977-9.958-3.823v1.195c0,1.846,4,3.823,9.958,3.823,5.786,0,8.92-1.783,9.144-3.612a1.752,1.752,0,0,0,.013-.211Z" transform="translate(-1319.274 -1664.656)" fill="#dabb6e"/>
        <path id="Trazado_889702" data-name="Trazado 889702" d="M1702.541,1567.079c-.224,1.828-3.358,3.612-9.144,3.612h0c5.786,0,8.92-1.783,9.144-3.612" transform="translate(-1642.714 -1520.184)" fill="#676757"/>
        <path id="Trazado_889703" data-name="Trazado 889703" d="M1379.114,1520c0,1.9-3.148,3.823-9.157,3.823-5.956,0-9.958-1.977-9.958-3.823v1.195c0,1.846,4,3.823,9.958,3.823,5.786,0,8.92-1.783,9.144-3.612a1.755,1.755,0,0,0,.013-.211Z" transform="translate(-1319.274 -1474.509)" fill="#dabb6e"/>
        <path id="Trazado_889704" data-name="Trazado 889704" d="M1360.065,1322.779a.937.937,0,0,0,.1.135.968.968,0,0,1-.1-.135m19.048-.182h0m0,0h0m0-.007v0m-19.114,0h0m19.115,0v0m-19.115,0h0m19.115,0v0m-19.115,0v0m0-.005v0m19.115,0v0m-9.157-2.569h0c6.469,0,9.157,1.672,9.157,2.569,0-.9-2.688-2.569-9.157-2.569" transform="translate(-1319.274 -1280.484)" fill="#939894"/>
        <path id="Trazado_889705" data-name="Trazado 889705" d="M1369.957,1320c-5.97,0-9,1.34-9.764,2.186a.623.623,0,0,0-.194.383v.01h0a.023.023,0,0,1,0,0h0a.452.452,0,0,0,.066.2.968.968,0,0,0,.1.135,1.733,1.733,0,0,0,.268.251c1.045-.842,4.05-1.971,9.528-1.971,5.2,0,7.957,1.081,8.835,1.971a.928.928,0,0,0,.322-.568h0s0,0,0,0h0v-.007a.013.013,0,0,1,0,0v-.008a.006.006,0,0,0,0,0v0c0-.9-2.688-2.569-9.157-2.569" transform="translate(-1319.274 -1280.484)" fill="#fce4a9"/>
      </g>
    </g>
  </g>
</svg>
