<svg id="_49" data-name="49" xmlns="http://www.w3.org/2000/svg" width="72.727" height="72.727" viewBox="0 0 72.727 72.727">
  <path id="Trazado_889792" data-name="Trazado 889792" d="M71.454,11V67.818a2.28,2.28,0,0,1-2.273,2.273H3.273A2.28,2.28,0,0,1,1,67.818V11Z" transform="translate(0.136 1.5)" fill="#dfe1ea"/>
  <path id="Trazado_889793" data-name="Trazado 889793" d="M69.181,1a2.28,2.28,0,0,1,2.273,2.273v9.091H1V3.273A2.28,2.28,0,0,1,3.273,1Z" transform="translate(0.136 0.136)" fill="#adb2c7"/>
  <path id="Trazado_889794" data-name="Trazado 889794" d="M44.863,21.273C36.227,21.273,36.227,19,27.591,19s-8.636,2.273-17.273,2.273A30.389,30.389,0,0,1,1,19.959V29.05a30.389,30.389,0,0,0,9.318,1.314c8.636,0,8.636-2.273,17.273-2.273s8.636,2.273,17.273,2.273,8.636-2.273,17.273-2.273a30.44,30.44,0,0,1,9.318,1.315V20.315A30.44,30.44,0,0,0,62.136,19C53.5,19,53.5,21.273,44.863,21.273Z" transform="translate(0.136 2.59)" fill="#cdd2e1"/>
  <path id="Trazado_889795" data-name="Trazado 889795" d="M1,11V21.05a30.39,30.39,0,0,0,9.318,1.314c8.636,0,8.636-2.273,17.273-2.273s8.636,2.273,17.273,2.273,8.636-2.273,17.273-2.273a30.44,30.44,0,0,1,9.318,1.315V11Z" transform="translate(0.136 1.5)" fill="#f6fafd"/>
  <path id="Trazado_889796" data-name="Trazado 889796" d="M54.227,43.909l1.136,2.273-1.136,2.273-4.909.659a12.273,12.273,0,0,1-1.477,3.58l3,3.932-.807,2.409-2.409.807-3.932-3a12.273,12.273,0,0,1-3.58,1.477l-.659,4.909-2.273,1.136-2.273-1.136-.659-4.909a12.272,12.272,0,0,1-3.58-1.477l-3.932,3-2.409-.807-.807-2.409,3-3.932a12.273,12.273,0,0,1-1.477-3.58l-4.909-.659L19,46.182l1.136-2.273,4.909-.659a12.273,12.273,0,0,1,1.477-3.58l-3-3.932.807-2.409,2.409-.807,3.932,3a12.273,12.273,0,0,1,3.58-1.477l.659-4.909L37.182,28l2.273,1.136.659,4.909a12.272,12.272,0,0,1,3.58,1.477l3.932-3,2.409.807.807,2.409-3,3.932a12.272,12.272,0,0,1,1.477,3.58ZM44,46.182A6.818,6.818,0,1,0,37.182,53,6.818,6.818,0,0,0,44,46.182Z" transform="translate(2.591 3.818)" fill="#adb2c7"/>
  <rect id="Rectángulo_404969" data-name="Rectángulo 404969" width="23" height="16" transform="translate(25 26)" fill="#fff"/>
  <rect id="Rectángulo_404970" data-name="Rectángulo 404970" width="19" height="11" transform="translate(48 30)" fill="#fff"/>
  <rect id="Rectángulo_404971" data-name="Rectángulo 404971" width="23" height="9" transform="translate(25 17)" fill="#73c6b2"/>
  <rect id="Rectángulo_404972" data-name="Rectángulo 404972" width="19" height="10" transform="translate(48 20)" fill="#ffc247"/>
  <rect id="Rectángulo_404973" data-name="Rectángulo 404973" width="19" height="11" transform="translate(6 30)" fill="#fff"/>
  <rect id="Rectángulo_404974" data-name="Rectángulo 404974" width="19" height="10" transform="translate(6 20)" fill="#ffc247"/>
  <rect id="Rectángulo_404975" data-name="Rectángulo 404975" width="16" height="9" transform="translate(28 30)" fill="#dfe1ea"/>
  <rect id="Rectángulo_404976" data-name="Rectángulo 404976" width="5" height="10" transform="translate(20 20)" fill="#ffa426"/>
  <rect id="Rectángulo_404977" data-name="Rectángulo 404977" width="4" height="10" transform="translate(48 20)" fill="#ffa426"/>
  <path id="Trazado_889797" data-name="Trazado 889797" d="M51.227,42.909l1.136,2.273-1.136,2.273-4.909.659a12.273,12.273,0,0,1-1.477,3.58l3,3.932-.807,2.409-2.409.807-3.932-3a12.273,12.273,0,0,1-3.58,1.477l-.659,4.909-2.273,1.136-2.273-1.136-.659-4.909a12.273,12.273,0,0,1-3.58-1.477l-3.932,3-2.409-.807-.807-2.409,3-3.932a12.273,12.273,0,0,1-1.477-3.58l-4.909-.659L16,45.182l1.136-2.273,4.909-.659a12.273,12.273,0,0,1,1.477-3.58l-3-3.932.807-2.409,2.409-.807,3.932,3a12.272,12.272,0,0,1,3.58-1.477l.659-4.909L34.182,27l2.273,1.136.659,4.909a12.273,12.273,0,0,1,3.58,1.477l3.932-3,2.409.807.807,2.409-3,3.932a12.273,12.273,0,0,1,1.477,3.58ZM41,45.182A6.818,6.818,0,1,0,34.182,52,6.818,6.818,0,0,0,41,45.182Z" transform="translate(2.182 3.682)" fill="#fff"/>
  <rect id="Rectángulo_404978" data-name="Rectángulo 404978" width="2" height="2" transform="translate(6 6)" fill="#fff"/>
  <rect id="Rectángulo_404979" data-name="Rectángulo 404979" width="51" height="2" transform="translate(16 6)" fill="#fff"/>
  <rect id="Rectángulo_404980" data-name="Rectángulo 404980" width="3" height="3" transform="translate(28 20)" fill="#fff"/>
  <rect id="Rectángulo_404981" data-name="Rectángulo 404981" width="3" height="2" transform="translate(52 24)" fill="#fff"/>
  <rect id="Rectángulo_404982" data-name="Rectángulo 404982" width="2" height="2" transform="translate(9 24)" fill="#fff"/>
  <path id="Trazado_889798" data-name="Trazado 889798" d="M69.318,0H3.409A3.409,3.409,0,0,0,0,3.409V69.318a3.409,3.409,0,0,0,3.409,3.409H69.318a3.409,3.409,0,0,0,3.409-3.409V3.409A3.409,3.409,0,0,0,69.318,0ZM3.409,2.273H69.318a1.136,1.136,0,0,1,1.136,1.136v7.954H2.273V3.409A1.136,1.136,0,0,1,3.409,2.273ZM69.318,70.454H3.409a1.136,1.136,0,0,1-1.136-1.136V13.636H70.454V69.318A1.136,1.136,0,0,1,69.318,70.454Z"/>
  <rect id="Rectángulo_404983" data-name="Rectángulo 404983" width="2" height="2" transform="translate(10 6)"/>
  <path id="Trazado_889799" data-name="Trazado 889799" d="M52.385,42.537a1.136,1.136,0,0,0-.867-.618l-4.156-.555a13.584,13.584,0,0,0-1.023-2.47l2.548-3.332a1.136,1.136,0,0,0,.176-1.05l-.8-2.41a1.136,1.136,0,0,0-.718-.718l-2.41-.8a1.136,1.136,0,0,0-1.05.176L40.749,33.3a13.584,13.584,0,0,0-2.47-1.023l-.555-4.156a1.136,1.136,0,0,0-.618-.867l-2.273-1.136a1.136,1.136,0,0,0-1.016,0l-2.273,1.136a1.136,1.136,0,0,0-.618.867l-.555,4.156A13.584,13.584,0,0,0,27.9,33.3l-3.332-2.548a1.136,1.136,0,0,0-1.05-.176l-2.41.8a1.136,1.136,0,0,0-.718.718l-.8,2.41a1.136,1.136,0,0,0,.176,1.05l2.548,3.332a13.584,13.584,0,0,0-1.023,2.47l-4.156.555a1.136,1.136,0,0,0-.867.618L15.128,44.81a1.136,1.136,0,0,0,0,1.016L16.265,48.1a1.136,1.136,0,0,0,.867.618l4.156.555a13.584,13.584,0,0,0,1.023,2.47l-2.548,3.332a1.136,1.136,0,0,0-.176,1.05l.8,2.41a1.136,1.136,0,0,0,.718.718l2.41.8a1.145,1.145,0,0,0,1.05-.176L27.9,57.332a13.584,13.584,0,0,0,2.47,1.023l.555,4.156a1.136,1.136,0,0,0,.618.867l2.273,1.136a1.136,1.136,0,0,0,1.016,0l2.273-1.136a1.136,1.136,0,0,0,.618-.867l.555-4.156a13.584,13.584,0,0,0,2.47-1.023L44.08,59.88a1.144,1.144,0,0,0,1.05.176l2.41-.8a1.136,1.136,0,0,0,.718-.718l.8-2.41a1.136,1.136,0,0,0-.176-1.05l-2.548-3.332a13.584,13.584,0,0,0,1.023-2.47l4.156-.555a1.136,1.136,0,0,0,.867-.618l1.136-2.273a1.136,1.136,0,0,0,0-1.016Zm-1.764,4.007-4.308.574a1.136,1.136,0,0,0-.955.86,11.288,11.288,0,0,1-1.352,3.26,1.136,1.136,0,0,0,.067,1.284l2.641,3.453-.434,1.3-1.3.434-3.459-2.641A1.136,1.136,0,0,0,40.237,55a11.289,11.289,0,0,1-3.26,1.352,1.136,1.136,0,0,0-.86.955l-.574,4.308-1.226.612-1.226-.612-.568-4.308a1.136,1.136,0,0,0-.86-.955A11.288,11.288,0,0,1,28.4,55a1.136,1.136,0,0,0-1.284.067L23.665,57.71l-1.3-.434-.434-1.3,2.641-3.453a1.136,1.136,0,0,0,.067-1.284,11.288,11.288,0,0,1-1.352-3.26,1.136,1.136,0,0,0-.955-.86l-4.308-.574-.618-1.226.612-1.226,4.308-.574a1.136,1.136,0,0,0,.955-.86,11.289,11.289,0,0,1,1.352-3.26,1.136,1.136,0,0,0-.067-1.284L21.931,34.66l.434-1.3,1.3-.434,3.453,2.641a1.136,1.136,0,0,0,1.284.067,11.288,11.288,0,0,1,3.26-1.352,1.136,1.136,0,0,0,.86-.955l.568-4.308,1.226-.612,1.226.612.574,4.308a1.136,1.136,0,0,0,.86.955,11.288,11.288,0,0,1,3.26,1.352,1.136,1.136,0,0,0,1.284-.067l3.453-2.635,1.3.434.434,1.3-2.641,3.448A1.136,1.136,0,0,0,44,39.4a11.288,11.288,0,0,1,1.352,3.26,1.136,1.136,0,0,0,.955.86l4.308.574.612,1.226Z" transform="translate(2.046 3.545)"/>
  <path id="Trazado_889800" data-name="Trazado 889800" d="M32.954,36a7.954,7.954,0,1,0,7.954,7.954A7.954,7.954,0,0,0,32.954,36Zm0,13.636a5.682,5.682,0,1,1,5.682-5.682,5.682,5.682,0,0,1-5.682,5.682Z" transform="translate(3.409 4.909)"/>
  <rect id="Rectángulo_404984" data-name="Rectángulo 404984" width="2" height="3" transform="translate(33 20)"/>
  <path id="Trazado_889801" data-name="Trazado 889801" d="M66.5,17.409H48.318V15.136A1.136,1.136,0,0,0,47.181,14H24.454a1.136,1.136,0,0,0-1.136,1.136v2.273H5.136A1.136,1.136,0,0,0,4,18.545V39a1.136,1.136,0,0,0,1.136,1.136H18.773V37.863H6.273V28.773H23.318v1.136h2.273V25.364H46.045v4.545h2.273V28.773H65.363v9.091h-12.5v2.273H66.5A1.136,1.136,0,0,0,67.636,39V18.545A1.136,1.136,0,0,0,66.5,17.409ZM6.273,26.5V19.682H23.318V26.5Zm19.318-3.409V16.273H46.045v6.818ZM48.318,26.5V19.682H65.363V26.5Z" transform="translate(0.545 1.909)"/>
  <rect id="Rectángulo_404985" data-name="Rectángulo 404985" width="2" height="2" transform="translate(14 24)"/>
  <path id="Trazado_889802" data-name="Trazado 889802" d="M57.545,47.682a.92.92,0,0,1-.807-.331c-.694-.843-.536-3.055-.351-3.993A1.136,1.136,0,0,0,55.273,42H53v2.273h.983a6.671,6.671,0,0,0,1,4.519,3.085,3.085,0,0,0,1.43.986v.352a3.085,3.085,0,0,0-1.43.986,6.672,6.672,0,0,0-1,4.519H53v2.273h2.273a1.136,1.136,0,0,0,1.115-1.364c-.185-.939-.341-3.15.351-3.993a.92.92,0,0,1,.807-.325,1.136,1.136,0,0,0,1.136-1.136V48.818A1.136,1.136,0,0,0,57.545,47.682Z" transform="translate(7.227 5.727)"/>
  <path id="Trazado_889803" data-name="Trazado 889803" d="M8.532,42.416a1.136,1.136,0,0,0-.237.942c.185.939.341,3.15-.351,3.993a.92.92,0,0,1-.807.331A1.136,1.136,0,0,0,6,48.818v2.273a1.136,1.136,0,0,0,1.136,1.136.92.92,0,0,1,.807.331c.694.843.536,3.055.351,3.993a1.136,1.136,0,0,0,1.115,1.358h2.273V55.636H10.7a6.672,6.672,0,0,0-1-4.519,3.085,3.085,0,0,0-1.43-.986v-.352a3.085,3.085,0,0,0,1.43-.986,6.672,6.672,0,0,0,1-4.519h.983V42H9.409a1.136,1.136,0,0,0-.877.416Z" transform="translate(0.818 5.727)"/>
</svg>
