<svg xmlns="http://www.w3.org/2000/svg" width="74.566" height="72.236" viewBox="0 0 74.566 72.236">
  <g id="_50" data-name="50" transform="translate(0 -1)">
    <rect id="Rectángulo_404960" data-name="Rectángulo 404960" width="30" height="4" transform="translate(22 68.236)" fill="#979faf"/>
    <path id="Trazado_889777" data-name="Trazado 889777" d="M43.467,50l5.826,10.486H19L24.826,50Z" transform="translate(3.137 8.09)" fill="#adb2c7"/>
    <path id="Trazado_889778" data-name="Trazado 889778" d="M73.236,4.33V48.6H1V4.33A2.337,2.337,0,0,1,3.33,2H70.906A2.337,2.337,0,0,1,73.236,4.33Z" transform="translate(0.165 0.165)" fill="#8dd5f6"/>
    <path id="Trazado_889779" data-name="Trazado 889779" d="M73.236,42v6.991a2.337,2.337,0,0,1-2.33,2.33H3.33A2.337,2.337,0,0,1,1,48.991V42Z" transform="translate(0.165 6.769)" fill="#dfe1ea"/>
    <path id="Trazado_889780" data-name="Trazado 889780" d="M70.906,2H3.33A2.337,2.337,0,0,0,1,4.33V21.625a31.158,31.158,0,0,0,9.554,1.347c8.855,0,8.855-2.33,17.71-2.33s8.855,2.33,17.71,2.33,8.855-2.33,17.71-2.33a31.21,31.21,0,0,1,9.554,1.348V4.33A2.337,2.337,0,0,0,70.906,2Z" transform="translate(0.165 0.165)" fill="#aedff7"/>
    <path id="Trazado_889781" data-name="Trazado 889781" d="M70.906,2H3.33A2.337,2.337,0,0,0,1,4.33v9.139a31.158,31.158,0,0,0,9.554,1.347c8.855,0,8.855-2.33,17.71-2.33s8.855,2.33,17.71,2.33,8.855-2.33,17.71-2.33a31.21,31.21,0,0,1,9.554,1.348V4.33A2.337,2.337,0,0,0,70.906,2Z" transform="translate(0.165 0.165)" fill="#f6fafd"/>
    <path id="Trazado_889782" data-name="Trazado 889782" d="M24.3,50l-2.134,3.845a29.464,29.464,0,0,0,7.494.816c7.69,0,8.709-1.756,14.645-2.214L42.944,50Z" transform="translate(3.66 8.09)" fill="#7e8596"/>
    <rect id="Rectángulo_404961" data-name="Rectángulo 404961" width="23" height="26" rx="0.99" transform="translate(49 23.236)" fill="#0096cf"/>
    <rect id="Rectángulo_404962" data-name="Rectángulo 404962" width="18" height="18" rx="0.99" transform="translate(8 25.236)" fill="#0096cf"/>
    <rect id="Rectángulo_404963" data-name="Rectángulo 404963" width="20" height="17" rx="0.99" transform="translate(22 9.236)" fill="#0096cf"/>
    <rect id="Rectángulo_404964" data-name="Rectángulo 404964" width="24" height="16" transform="translate(45 28.236)" fill="#fff"/>
    <rect id="Rectángulo_404965" data-name="Rectángulo 404965" width="24" height="10" transform="translate(45 18.236)" fill="#73c6b2"/>
    <path id="Trazado_889783" data-name="Trazado 889783" d="M34.729,7.165,19,22.311V6H35.311V7.165Z" transform="translate(3.137 0.826)" fill="#e9edf5"/>
    <path id="Trazado_889784" data-name="Trazado 889784" d="M35.4,6V22.311H18.481L34.792,6Z" transform="translate(3.051 0.826)" fill="#fff"/>
    <path id="Trazado_889785" data-name="Trazado 889785" d="M21.4,20V36.311H4.481L20.792,20Z" transform="translate(0.74 3.137)" fill="#e9edf5"/>
    <path id="Trazado_889786" data-name="Trazado 889786" d="M21.311,20v1.165h-.583L5,36.311V20Z" transform="translate(0.826 3.137)" fill="#fff"/>
    <path id="Trazado_889787" data-name="Trazado 889787" d="M71.071,1H3.5A3.5,3.5,0,0,0,0,4.5V55.76a3.5,3.5,0,0,0,3.5,3.5H25.982L21.117,68.01a1.165,1.165,0,0,0-.146.566v2.33h-2.33v2.33H55.925v-2.33h-2.33v-2.33a1.165,1.165,0,0,0-.147-.566l-4.863-8.754H71.071a3.5,3.5,0,0,0,3.5-3.5V4.5A3.5,3.5,0,0,0,71.071,1ZM3.5,3.33H71.071A1.165,1.165,0,0,1,72.236,4.5V47.6H2.33V4.5A1.165,1.165,0,0,1,3.5,3.33ZM23.3,70.906V69.741H51.264v1.165Zm27.147-3.5H24.118l4.53-8.156H45.919ZM71.071,56.925H3.5A1.165,1.165,0,0,1,2.33,55.76V49.934H72.236V55.76A1.165,1.165,0,0,1,71.071,56.925Z"/>
    <path id="Trazado_889788" data-name="Trazado 889788" d="M5.165,39.953H21.477a1.165,1.165,0,0,0,1.165-1.165V23.642H37.788a1.165,1.165,0,0,0,1.165-1.165V6.165A1.165,1.165,0,0,0,37.788,5H21.477a1.165,1.165,0,0,0-1.165,1.165V21.311H5.165A1.165,1.165,0,0,0,4,22.477V38.788A1.165,1.165,0,0,0,5.165,39.953Zm2.813-2.33L20.311,25.289V37.623ZM24.289,21.311,36.623,8.978V21.311ZM34.975,7.33,22.642,19.664V7.33ZM18.664,23.642,6.33,35.975V23.642Z" transform="translate(0.66 0.66)"/>
    <path id="Trazado_889789" data-name="Trazado 889789" d="M39.165,42.962h23.3A1.165,1.165,0,0,0,63.632,41.8V16.165A1.165,1.165,0,0,0,62.467,15h-23.3A1.165,1.165,0,0,0,38,16.165V41.8A1.165,1.165,0,0,0,39.165,42.962Zm1.165-2.33V26.651H61.3V40.632ZM61.3,17.33v6.991H40.33V17.33Z" transform="translate(6.274 2.311)"/>
    <path id="Trazado_889790" data-name="Trazado 889790" d="M31.814,31.293,30.167,32.94l1.506,1.506H24v2.33h7.673l-1.506,1.506,1.647,1.647,3.5-3.5a1.165,1.165,0,0,0,0-1.647Z" transform="translate(3.962 5.001)"/>
    <path id="Trazado_889791" data-name="Trazado 889791" d="M31.814,22.293,30.167,23.94l1.506,1.506H24v2.33h7.673l-1.506,1.506,1.647,1.647,3.5-3.5a1.165,1.165,0,0,0,0-1.647Z" transform="translate(3.962 3.515)"/>
    <rect id="Rectángulo_404966" data-name="Rectángulo 404966" width="2" height="2" transform="translate(49 22.236)" fill="#fff"/>
    <rect id="Rectángulo_404967" data-name="Rectángulo 404967" width="2" height="2" transform="translate(54 22.236)" fill="#fff"/>
    <rect id="Rectángulo_404968" data-name="Rectángulo 404968" width="16" height="9" transform="translate(49 31.236)" fill="#dfe1ea"/>
  </g>
</svg>
