<svg id="_55" data-name="55" xmlns="http://www.w3.org/2000/svg" xmlns:xlink="http://www.w3.org/1999/xlink" width="266.803" height="189.467" viewBox="0 0 266.803 189.467">
  <defs>
    <clipPath id="clip-path">
      <rect id="Rectángulo_405064" data-name="Rectángulo 405064" width="266.803" height="189.466" fill="none"/>
    </clipPath>
  </defs>
  <g id="Grupo_1103948" data-name="Grupo 1103948" clip-path="url(#clip-path)">
    <path id="Trazado_889853" data-name="Trazado 889853" d="M4.033,121.255c9.5,28.53,38.36,49.575,69.163,46.5,41.5-1.975,81.435-40.159,123.1-21.41,30.719,16.61,64.506,9.408,69.361-28.773,6.859-31.221-18.314-75.2-44.766-91.749C190.435,7.569,153.685.476,118.373.1,54.318-2.707-17.977,53.276,4.033,121.255" transform="translate(0 0)" fill="#f7eefe"/>
    <path id="Trazado_889854" data-name="Trazado 889854" d="M147.525,333.522v19.919c0,2.85-17.115,5.159-38.225,5.159s-38.225-2.309-38.225-5.159V333.522c0,2.85,17.115,5.159,38.225,5.159s38.225-2.309,38.225-5.159" transform="translate(-40.147 -188.395)" fill="#beb4d0"/>
    <path id="Trazado_889855" data-name="Trazado 889855" d="M147.525,326.825c0,2.85-17.115,5.159-38.225,5.159s-38.225-2.309-38.225-5.159,17.115-5.159,38.225-5.159,38.225,2.309,38.225,5.159" transform="translate(-40.147 -181.698)" fill="#f2e9da"/>
    <path id="Trazado_889856" data-name="Trazado 889856" d="M149.738,307.42v9.591c0,1.372-13.79,2.484-30.8,2.484s-30.8-1.112-30.8-2.484V307.42c0-1.372,13.79-2.484,30.8-2.484s30.8,1.112,30.8,2.484" transform="translate(-49.786 -172.248)" fill="#3a1d71"/>
    <path id="Trazado_889857" data-name="Trazado 889857" d="M147.525,270.183V290.1c0,2.85-17.115,5.159-38.225,5.159s-38.225-2.309-38.225-5.159V270.183c0,2.85,17.115,5.159,38.225,5.159s38.225-2.309,38.225-5.159" transform="translate(-40.147 -152.617)" fill="#beb4d0"/>
    <path id="Trazado_889858" data-name="Trazado 889858" d="M147.525,263.486c0,2.85-17.115,5.159-38.225,5.159s-38.225-2.309-38.225-5.159,17.115-5.159,38.225-5.159,38.225,2.309,38.225,5.159" transform="translate(-40.147 -145.92)" fill="#f2e9da"/>
    <path id="Trazado_889859" data-name="Trazado 889859" d="M149.738,244.081v9.591c0,1.372-13.79,2.484-30.8,2.484s-30.8-1.112-30.8-2.484v-9.591c0-1.372,13.79-2.484,30.8-2.484s30.8,1.112,30.8,2.484" transform="translate(-49.786 -136.47)" fill="#3a1d71"/>
    <path id="Trazado_889860" data-name="Trazado 889860" d="M147.525,198.995v19.919c0,2.85-17.115,5.159-38.225,5.159s-38.225-2.309-38.225-5.159V198.995c0,2.85,17.115,5.159,38.225,5.159s38.225-2.309,38.225-5.159" transform="translate(-40.147 -112.405)" fill="#beb4d0"/>
    <path id="Trazado_889861" data-name="Trazado 889861" d="M147.525,192.3c0,2.85-17.115,5.159-38.225,5.159s-38.225-2.309-38.225-5.159,17.115-5.159,38.225-5.159,38.225,2.309,38.225,5.159" transform="translate(-40.147 -105.708)" fill="#f2e9da"/>
    <path id="Trazado_889862" data-name="Trazado 889862" d="M82.091,225.509a4.9,4.9,0,1,1,4.9-4.9,4.9,4.9,0,0,1-4.9,4.9m0-9.357a4.461,4.461,0,1,0,4.461,4.461,4.466,4.466,0,0,0-4.461-4.461" transform="translate(-43.605 -121.851)" fill="#25292b"/>
    <path id="Trazado_889863" data-name="Trazado 889863" d="M86.743,292.927a4.679,4.679,0,1,1-4.679-4.679,4.679,4.679,0,0,1,4.679,4.679" transform="translate(-43.713 -162.821)" fill="#4888a3"/>
    <path id="Trazado_889864" data-name="Trazado 889864" d="M81.782,360.879a4.9,4.9,0,1,1,4.9-4.9,4.9,4.9,0,0,1-4.9,4.9m0-9.358a4.461,4.461,0,1,0,4.461,4.461,4.466,4.466,0,0,0-4.461-4.461" transform="translate(-43.43 -198.316)" fill="#25292b"/>
    <path id="Trazado_889865" data-name="Trazado 889865" d="M160.088,225.809h-41.2a.771.771,0,1,1,0-1.542h41.2a.771.771,0,0,1,0,1.542" transform="translate(-66.721 -126.681)" fill="#f2e9da"/>
    <path id="Trazado_889866" data-name="Trazado 889866" d="M160.088,235.719h-41.2a.771.771,0,1,1,0-1.542h41.2a.771.771,0,0,1,0,1.542" transform="translate(-66.721 -132.278)" fill="#f2e9da"/>
    <path id="Trazado_889867" data-name="Trazado 889867" d="M158.837,297.84h-41.2a.771.771,0,0,1,0-1.542h41.2a.771.771,0,1,1,0,1.542" transform="translate(-66.014 -167.368)" fill="#f2e9da"/>
    <path id="Trazado_889868" data-name="Trazado 889868" d="M158.837,307.75h-41.2a.771.771,0,0,1,0-1.542h41.2a.771.771,0,1,1,0,1.542" transform="translate(-66.014 -172.966)" fill="#f2e9da"/>
    <path id="Trazado_889869" data-name="Trazado 889869" d="M158.837,360.518h-41.2a.771.771,0,1,1,0-1.542h41.2a.771.771,0,1,1,0,1.542" transform="translate(-66.014 -202.773)" fill="#f2e9da"/>
    <path id="Trazado_889870" data-name="Trazado 889870" d="M158.837,370.427h-41.2a.771.771,0,0,1,0-1.542h41.2a.771.771,0,1,1,0,1.542" transform="translate(-66.014 -208.37)" fill="#f2e9da"/>
    <path id="Trazado_889871" data-name="Trazado 889871" d="M497.505,352.246v13.727c0,1.964-11.794,3.556-26.343,3.556s-26.343-1.591-26.343-3.556V352.246c0,1.964,11.794,3.555,26.343,3.555s26.343-1.591,26.343-3.555" transform="translate(-251.263 -198.971)" fill="#beb4d0"/>
    <path id="Trazado_889872" data-name="Trazado 889872" d="M497.505,347.631c0,1.964-11.794,3.555-26.343,3.555s-26.343-1.591-26.343-3.555,11.794-3.556,26.343-3.556,26.343,1.591,26.343,3.556" transform="translate(-251.263 -194.356)" fill="#f2e9da"/>
    <path id="Trazado_889873" data-name="Trazado 889873" d="M499.031,334.259v6.61c0,.946-9.5,1.712-21.226,1.712s-21.225-.766-21.225-1.712v-6.61c0-.946,9.5-1.712,21.225-1.712s21.226.766,21.226,1.712" transform="translate(-257.906 -187.844)" fill="#3a1d71"/>
    <path id="Trazado_889874" data-name="Trazado 889874" d="M497.505,308.6v13.727c0,1.964-11.794,3.555-26.343,3.555s-26.343-1.591-26.343-3.555V308.6c0,1.964,11.794,3.555,26.343,3.555s26.343-1.591,26.343-3.555" transform="translate(-251.263 -174.316)" fill="#beb4d0"/>
    <path id="Trazado_889875" data-name="Trazado 889875" d="M497.505,303.981c0,1.964-11.794,3.556-26.343,3.556s-26.343-1.591-26.343-3.556,11.794-3.555,26.343-3.555,26.343,1.591,26.343,3.555" transform="translate(-251.263 -169.7)" fill="#f2e9da"/>
    <path id="Trazado_889876" data-name="Trazado 889876" d="M499.031,290.609v6.61c0,.946-9.5,1.712-21.226,1.712s-21.225-.766-21.225-1.712v-6.61c0-.946,9.5-1.712,21.225-1.712s21.226.766,21.226,1.712" transform="translate(-257.906 -163.188)" fill="#3a1d71"/>
    <path id="Trazado_889877" data-name="Trazado 889877" d="M497.505,259.538v13.727c0,1.964-11.794,3.556-26.343,3.556s-26.343-1.591-26.343-3.556V259.538c0,1.964,11.794,3.555,26.343,3.555s26.343-1.591,26.343-3.555" transform="translate(-251.263 -146.604)" fill="#beb4d0"/>
    <path id="Trazado_889878" data-name="Trazado 889878" d="M497.505,254.922c0,1.964-11.794,3.556-26.343,3.556s-26.343-1.591-26.343-3.556,11.794-3.555,26.343-3.555,26.343,1.591,26.343,3.555" transform="translate(-251.263 -141.988)" fill="#f2e9da"/>
    <path id="Trazado_889879" data-name="Trazado 889879" d="M452.324,277.789a3.442,3.442,0,1,1,3.442-3.441,3.445,3.445,0,0,1-3.442,3.441m0-6.448a3.007,3.007,0,1,0,3.007,3.007,3.01,3.01,0,0,0-3.007-3.007" transform="translate(-253.558 -153.025)" fill="#25292b"/>
    <path id="Trazado_889880" data-name="Trazado 889880" d="M455.618,324.27a3.225,3.225,0,1,1-3.225-3.224,3.224,3.224,0,0,1,3.225,3.224" transform="translate(-253.72 -181.348)" fill="#4888a3"/>
    <path id="Trazado_889881" data-name="Trazado 889881" d="M452.112,371.078a3.442,3.442,0,1,1,3.442-3.441,3.445,3.445,0,0,1-3.442,3.441m0-6.448a3.007,3.007,0,1,0,3.007,3.007,3.01,3.01,0,0,0-3.007-3.007" transform="translate(-253.439 -205.721)" fill="#25292b"/>
    <path id="Trazado_889882" data-name="Trazado 889882" d="M261.744,45.413h0a.2.2,0,0,1-.176-.1l-3.106-5.377a.2.2,0,0,1,0-.2l3.106-5.377a.2.2,0,0,1,.352,0l3.113,5.377a.2.2,0,0,1,0,.2l-3.113,5.377a.2.2,0,0,1-.176.1m-2.872-5.58,2.872,4.972,2.878-4.972-2.878-4.972Z" transform="translate(-145.981 -19.348)" fill="#f2e9da"/>
    <path id="Trazado_889883" data-name="Trazado 889883" d="M247.588,39.155a1.75,1.75,0,1,1,1.75-1.75,1.752,1.752,0,0,1-1.75,1.75m0-3.093a1.344,1.344,0,1,0,1.344,1.344,1.345,1.345,0,0,0-1.344-1.344" transform="translate(-138.865 -20.141)" fill="#f2e9da"/>
    <path id="Trazado_889884" data-name="Trazado 889884" d="M260.609,23.915a1.512,1.512,0,1,1,1.512-1.512,1.514,1.514,0,0,1-1.512,1.512m0-2.619a1.106,1.106,0,1,0,1.107,1.107,1.108,1.108,0,0,0-1.107-1.107" transform="translate(-146.355 -11.8)" fill="#f2e9da"/>
    <path id="Trazado_889885" data-name="Trazado 889885" d="M244.895,26.753a1.087,1.087,0,1,1,1.087-1.087,1.088,1.088,0,0,1-1.087,1.087m0-1.768a.681.681,0,1,0,.681.681.682.682,0,0,0-.681-.681" transform="translate(-137.719 -13.884)" fill="#f2e9da"/>
    <path id="Trazado_889886" data-name="Trazado 889886" d="M385.171,70.927h0a.2.2,0,0,1-.175-.1l-2.377-4.115a.2.2,0,0,1,0-.2L385,62.393a.2.2,0,0,1,.351,0l2.382,4.114a.2.2,0,0,1,0,.2l-2.382,4.114a.2.2,0,0,1-.176.1m-2.142-4.317,2.143,3.709,2.147-3.709L385.172,62.9Z" transform="translate(-216.113 -35.187)" fill="#f2e9da"/>
    <path id="Trazado_889887" data-name="Trazado 889887" d="M373.326,63.4a1.75,1.75,0,1,1,1.75-1.75,1.752,1.752,0,0,1-1.75,1.75m0-3.093a1.344,1.344,0,1,0,1.344,1.344,1.345,1.345,0,0,0-1.344-1.344" transform="translate(-209.89 -33.835)" fill="#f2e9da"/>
    <path id="Trazado_889888" data-name="Trazado 889888" d="M386.346,53.353a1.512,1.512,0,1,1,1.512-1.512,1.514,1.514,0,0,1-1.512,1.512m0-2.619a1.106,1.106,0,1,0,1.107,1.107,1.108,1.108,0,0,0-1.107-1.107" transform="translate(-217.379 -28.429)" fill="#f2e9da"/>
    <path id="Trazado_889889" data-name="Trazado 889889" d="M374.187,50.469a1.087,1.087,0,1,1,1.087-1.087,1.088,1.088,0,0,1-1.087,1.087m0-1.768a.681.681,0,1,0,.681.681.682.682,0,0,0-.681-.681" transform="translate(-210.751 -27.281)" fill="#f2e9da"/>
    <path id="Trazado_889890" data-name="Trazado 889890" d="M383.8,160.885h0a.2.2,0,0,1-.176-.1l-3.106-5.377a.2.2,0,0,1,0-.2l3.106-5.377a.2.2,0,0,1,.351,0l3.113,5.377a.2.2,0,0,1,0,.2l-3.113,5.377a.2.2,0,0,1-.175.1m-2.872-5.58,2.872,4.972,2.879-4.972-2.879-4.972Z" transform="translate(-214.926 -84.574)" fill="#f2e9da"/>
    <path id="Trazado_889891" data-name="Trazado 889891" d="M383.6,140.785a1.512,1.512,0,1,1,1.512-1.512,1.514,1.514,0,0,1-1.512,1.512m0-2.619a1.107,1.107,0,1,0,1.107,1.107,1.108,1.108,0,0,0-1.107-1.107" transform="translate(-215.827 -77.816)" fill="#f2e9da"/>
    <path id="Trazado_889892" data-name="Trazado 889892" d="M400.628,156.086A1.087,1.087,0,1,1,401.714,155a1.088,1.088,0,0,1-1.087,1.087m0-1.768a.681.681,0,1,0,.681.681.682.682,0,0,0-.681-.681" transform="translate(-225.687 -86.94)" fill="#f2e9da"/>
    <path id="Trazado_889893" data-name="Trazado 889893" d="M400.139,136.693h0a.2.2,0,0,1-.176-.1l-1.951-3.377a.2.2,0,0,1,0-.2l1.951-3.377a.2.2,0,0,1,.351,0l1.955,3.377a.2.2,0,0,1,0,.2l-1.955,3.377a.2.2,0,0,1-.175.1m-1.717-3.58,1.717,2.972,1.721-2.972-1.721-2.972Z" transform="translate(-224.808 -73.169)" fill="#f2e9da"/>
    <path id="Trazado_889894" data-name="Trazado 889894" d="M372.87,151.9a1.087,1.087,0,1,1,1.087-1.087,1.088,1.088,0,0,1-1.087,1.087m0-1.768a.681.681,0,1,0,.681.681.682.682,0,0,0-.681-.681" transform="translate(-210.008 -84.574)" fill="#f2e9da"/>
    <path id="Trazado_889895" data-name="Trazado 889895" d="M70.512,124.595h0a.2.2,0,0,1-.176-.1l-2.377-4.115a.2.2,0,0,1,0-.2l2.377-4.115a.2.2,0,0,1,.351,0l2.382,4.114a.2.2,0,0,1,0,.2l-2.382,4.114a.2.2,0,0,1-.175.1m-2.143-4.317,2.143,3.709,2.147-3.709-2.147-3.709Z" transform="translate(-38.372 -65.502)" fill="#f2e9da"/>
    <path id="Trazado_889896" data-name="Trazado 889896" d="M58.666,117.067a1.75,1.75,0,1,1,1.75-1.75,1.752,1.752,0,0,1-1.75,1.75m0-3.093a1.344,1.344,0,1,0,1.344,1.344,1.345,1.345,0,0,0-1.344-1.344" transform="translate(-32.15 -64.151)" fill="#f2e9da"/>
    <path id="Trazado_889897" data-name="Trazado 889897" d="M71.688,107.021a1.512,1.512,0,1,1,1.512-1.512,1.514,1.514,0,0,1-1.512,1.512m0-2.619a1.106,1.106,0,1,0,1.107,1.107,1.108,1.108,0,0,0-1.107-1.107" transform="translate(-39.639 -58.744)" fill="#f2e9da"/>
    <path id="Trazado_889898" data-name="Trazado 889898" d="M59.527,104.137a1.087,1.087,0,1,1,1.087-1.087,1.088,1.088,0,0,1-1.087,1.087m0-1.768a.681.681,0,1,0,.681.681.682.682,0,0,0-.681-.681" transform="translate(-33.011 -57.596)" fill="#f2e9da"/>
    <path id="Trazado_889899" data-name="Trazado 889899" d="M528.638,198.074h-2.611a.218.218,0,1,1,0-.435h2.611a.218.218,0,0,1,0,.435m-5.222,0h-2.611a.218.218,0,1,1,0-.435h2.611a.218.218,0,0,1,0,.435m-5.22-.043-.027,0a5.811,5.811,0,0,1-2.517-.939.217.217,0,0,1,.242-.361,5.382,5.382,0,0,0,2.328.869.217.217,0,0,1-.026.433m13.048-.024a.218.218,0,0,1-.035-.432,4.607,4.607,0,0,0,2.231-1.041.217.217,0,1,1,.282.331,5.04,5.04,0,0,1-2.442,1.14.2.2,0,0,1-.036,0m-27.9-.542a.217.217,0,0,1-.218-.218v-2.611a.218.218,0,0,1,.435,0v2.611a.217.217,0,0,1-.218.218m10.673-2.237a.218.218,0,0,1-.19-.111,5.822,5.822,0,0,1-.742-2.583.217.217,0,0,1,.208-.227.206.206,0,0,1,.227.207,5.307,5.307,0,0,0,.687,2.389.218.218,0,0,1-.19.325m21.011-.447a.217.217,0,0,1-.206-.287,4.6,4.6,0,0,0,.241-1.476v-1.038a.218.218,0,0,1,.435,0v1.038a5.054,5.054,0,0,1-.263,1.615.218.218,0,0,1-.206.148m-31.679-2.538h-.01a.217.217,0,0,1-.207-.227,5.184,5.184,0,0,1,.821-2.565.217.217,0,0,1,.366.235,4.762,4.762,0,0,0-.752,2.35.217.217,0,0,1-.217.207m9.405-2.025a.219.219,0,0,1-.194-.118,4.782,4.782,0,0,0-1.654-1.831.218.218,0,1,1,.237-.366,5.217,5.217,0,0,1,1.8,2,.217.217,0,0,1-.095.292.211.211,0,0,1-.1.024m22.526-.631a.218.218,0,0,1-.218-.218v-2.611a.218.218,0,0,1,.435,0v2.611a.217.217,0,0,1-.218.218m-29.232-1.534a.218.218,0,0,1-.1-.411,5.157,5.157,0,0,1,2.633-.566.217.217,0,0,1,.206.228.2.2,0,0,1-.228.206,4.74,4.74,0,0,0-2.412.518.214.214,0,0,1-.1.024m29.232-3.687a.218.218,0,0,1-.218-.218v-2.611a.218.218,0,0,1,.435,0v2.611a.217.217,0,0,1-.218.218m0-5.222a.218.218,0,0,1-.218-.218v-2.611a.218.218,0,0,1,.435,0v2.611a.217.217,0,0,1-.218.218m0-5.222a.218.218,0,0,1-.218-.218v-2.611a.218.218,0,0,1,.435,0V173.7a.217.217,0,0,1-.218.218m0-5.222a.218.218,0,0,1-.218-.218v-2.611a.218.218,0,0,1,.435,0v2.611a.217.217,0,0,1-.218.218m-.075-5.217a.217.217,0,0,1-.214-.182,5.341,5.341,0,0,0-.968-2.288.217.217,0,1,1,.35-.258,5.766,5.766,0,0,1,1.048,2.475.218.218,0,0,1-.179.25.2.2,0,0,1-.036,0m-2.985-4.05a.22.22,0,0,1-.1-.023,5.277,5.277,0,0,0-2.4-.567.228.228,0,0,1-.23-.218.208.208,0,0,1,.206-.218,5.741,5.741,0,0,1,2.615.613.218.218,0,0,1-.1.412" transform="translate(-284.198 -89.48)" fill="#25292b"/>
    <path id="Trazado_889900" data-name="Trazado 889900" d="M20.426,213.729h0c-.183,0-.365-.009-.543-.026a.218.218,0,0,1-.2-.238.223.223,0,0,1,.238-.2q.248.024.5.024h0a5.1,5.1,0,0,0,1.948-.383.217.217,0,1,1,.165.4,5.534,5.534,0,0,1-2.113.416m-2.961-.891a.218.218,0,0,1-.12-.037,5.617,5.617,0,0,1-1.817-1.983.217.217,0,1,1,.382-.208,5.181,5.181,0,0,0,1.676,1.829.218.218,0,0,1-.121.4m7.074-1.04a.218.218,0,0,1-.167-.357,5.134,5.134,0,0,0,1.078-2.232.218.218,0,1,1,.426.088,5.568,5.568,0,0,1-1.17,2.422.217.217,0,0,1-.167.078m-9.469-3.367a.217.217,0,0,1-.218-.215V205.6a.218.218,0,0,1,.435,0v2.608a.218.218,0,0,1-.215.22Zm10.705-1.563a.218.218,0,0,1-.218-.218V204.04a.218.218,0,1,1,.435,0v2.611a.218.218,0,0,1-.218.218M15.07,203.21a.218.218,0,0,1-.218-.218v-2.611a.218.218,0,0,1,.435,0v2.611a.217.217,0,0,1-.218.218m10.706-1.563a.218.218,0,0,1-.218-.218v-2.611a.218.218,0,0,1,.435,0v2.611a.218.218,0,0,1-.218.218M15.07,197.988a.218.218,0,0,1-.218-.218V195.16a.218.218,0,0,1,.435,0v2.611a.217.217,0,0,1-.218.218m10.706-1.563a.218.218,0,0,1-.218-.218V193.6a.218.218,0,0,1,.435,0v2.611a.218.218,0,0,1-.218.218M15.07,192.766a.218.218,0,0,1-.218-.218v-2.611a.218.218,0,0,1,.435,0v2.611a.217.217,0,0,1-.218.218M25.776,191.2a.218.218,0,0,1-.218-.218v-2.611a.218.218,0,1,1,.435,0v2.611a.218.218,0,0,1-.218.218M15.07,187.545a.218.218,0,0,1-.218-.218v-2.611a.218.218,0,0,1,.435,0v2.611a.217.217,0,0,1-.218.218m10.706-1.563a.218.218,0,0,1-.218-.218v-2.611a.218.218,0,1,1,.435,0v2.611a.218.218,0,0,1-.218.218M15.07,182.323a.218.218,0,0,1-.218-.218v-2.611a.218.218,0,1,1,.435,0v2.611a.217.217,0,0,1-.218.218m10.706-1.563a.218.218,0,0,1-.218-.218v-2.611a.218.218,0,1,1,.435,0v2.611a.218.218,0,0,1-.218.218M15.07,177.1a.218.218,0,0,1-.218-.218v-2.611a.218.218,0,1,1,.435,0v2.611a.217.217,0,0,1-.218.218m10.706-1.563a.218.218,0,0,1-.218-.218V172.71a.218.218,0,1,1,.435,0v2.611a.218.218,0,0,1-.218.218M15.07,171.88a.218.218,0,0,1-.218-.218v-2.611a.218.218,0,1,1,.435,0v2.611a.217.217,0,0,1-.218.218m10.706-1.563a.218.218,0,0,1-.218-.218v-2.611a.218.218,0,0,1,.435,0V170.1a.218.218,0,0,1-.218.218M15.07,166.658a.218.218,0,0,1-.218-.218v-.373a5.092,5.092,0,0,0-.441-2.085.218.218,0,0,1,.4-.177,5.526,5.526,0,0,1,.478,2.261v.373a.217.217,0,0,1-.218.218m10.8-1.556a.225.225,0,0,1-.042,0,.217.217,0,0,1-.172-.255,5.569,5.569,0,0,1,1.139-2.436.217.217,0,1,1,.338.274,5.133,5.133,0,0,0-1.05,2.245.217.217,0,0,1-.213.176m-12.854-3.028a.216.216,0,0,1-.134-.047,5.138,5.138,0,0,0-2.262-1.015.217.217,0,1,1,.077-.428,5.569,5.569,0,0,1,2.454,1.1.217.217,0,0,1-.134.389m16.011-.869a.218.218,0,0,1-.085-.418,5.528,5.528,0,0,1,2.181-.443q.221,0,.439-.018a.218.218,0,1,1,.035.434q-.234.019-.473.019a5.093,5.093,0,0,0-2.011.409.219.219,0,0,1-.085.017m-20.974-.272H5.448a.218.218,0,1,1,0-.435H8.058a.218.218,0,1,1,0,.435m25.988-.968a.218.218,0,0,1-.113-.4,5.461,5.461,0,0,0,1.776-1.742.217.217,0,0,1,.368.232,5.915,5.915,0,0,1-1.918,1.882.22.22,0,0,1-.113.031m2.688-4.258h-.021a.218.218,0,0,1-.2-.238q.027-.267.027-.541V152.88a.218.218,0,0,1,.435,0v2.047q0,.3-.028.584a.218.218,0,0,1-.217.2m.027-5.22a.218.218,0,0,1-.218-.218v-2.314q0-.155.008-.309a.218.218,0,0,1,.435.023q-.007.142-.008.286v2.313a.217.217,0,0,1-.218.218m.733-5.094a.218.218,0,0,1-.189-.325,5.909,5.909,0,0,1,1.827-1.97.217.217,0,1,1,.243.361,5.473,5.473,0,0,0-1.691,1.824.218.218,0,0,1-.189.11m4.18-2.808a.218.218,0,0,1-.027-.433,5.957,5.957,0,0,1,.748-.047h1.888a.218.218,0,1,1,0,.435H42.4a5.49,5.49,0,0,0-.693.044l-.028,0" transform="translate(-2.954 -80.27)" fill="#25292b"/>
    <rect id="Rectángulo_405024" data-name="Rectángulo 405024" width="38.648" height="16.875" transform="translate(126.435 146.355)" fill="#25292b"/>
    <path id="Trazado_889901" data-name="Trazado 889901" d="M242.883,172.653l-17.389,2.214a15.788,15.788,0,0,0-13.352,11.952l-2.564,21.115H227.6l-2.641,27.9,16.35,9.193H280.1l-4.435-30.967,2.5-9.838H292.6l-3.673-16.7A15.788,15.788,0,0,0,276.6,175.431l-13.908-2.778Z" transform="translate(-118.383 -97.526)" fill="#8722e2"/>
    <path id="Trazado_889902" data-name="Trazado 889902" d="M247.964,268.249v12.257H214.306a6.089,6.089,0,0,1-6.074-6.492l1.345-20.282H227.8l-1.288,10.321Z" transform="translate(-117.615 -143.324)" fill="#f2e9da"/>
    <path id="Trazado_889903" data-name="Trazado 889903" d="M246.821,240.03H236.357v-.435h10.1l1.9-10.505.428.077Z" transform="translate(-133.51 -129.405)" fill="#25292b"/>
    <rect id="Rectángulo_405025" data-name="Rectángulo 405025" width="18.044" height="0.435" transform="translate(157.077 116.489) rotate(-76.478)" fill="#25292b"/>
    <path id="Trazado_889904" data-name="Trazado 889904" d="M454.959,176.41h0a2.5,2.5,0,0,1-1.685-3.091l4.25-14.432a2.489,2.489,0,0,1,4.776,1.406l-4.25,14.432a2.5,2.5,0,0,1-3.091,1.685" transform="translate(-255.981 -88.741)" fill="#f2e9da"/>
    <path id="Trazado_889905" data-name="Trazado 889905" d="M461.573,191.573h0a2.5,2.5,0,0,1-1.444-3.211l2.586-6.813a2.489,2.489,0,1,1,4.655,1.767l-2.585,6.813a2.5,2.5,0,0,1-3.211,1.444" transform="translate(-259.82 -101.644)" fill="#f2e9da"/>
    <path id="Trazado_889906" data-name="Trazado 889906" d="M468.945,197.629h0a2.5,2.5,0,0,1-1.444-3.211l2.656-7a2.489,2.489,0,1,1,4.655,1.767l-2.656,7a2.5,2.5,0,0,1-3.211,1.444" transform="translate(-263.984 -104.959)" fill="#f2e9da"/>
    <path id="Trazado_889907" data-name="Trazado 889907" d="M477.131,201.471h0a2.5,2.5,0,0,1-.441-3.493l2.739-3.531a2.489,2.489,0,0,1,3.934,3.052l-2.739,3.531a2.5,2.5,0,0,1-3.493.441" transform="translate(-268.972 -109.294)" fill="#f2e9da"/>
    <path id="Trazado_889908" data-name="Trazado 889908" d="M459.931,191.207h0a2.5,2.5,0,0,1-2.954,1.915l-7.322-1.563a2.489,2.489,0,0,1,1.04-4.869l7.322,1.563a2.5,2.5,0,0,1,1.915,2.954" transform="translate(-252.882 -105.424)" fill="#f2e9da"/>
    <path id="Trazado_889909" data-name="Trazado 889909" d="M413.539,199.275c-1.14,5.648-7.715,9.012-7.715,9.012l-19.411,21.892a14.734,14.734,0,0,1-11.714,5.787l-12.732-.2-1.815-12.458,2.8-8.7h12.427l.487,1.606L395.5,201.568,398.3,191.16Z" transform="translate(-203.437 -107.98)" fill="#f2e9da"/>
    <path id="Trazado_889910" data-name="Trazado 889910" d="M468.375,204.644h-.008a.218.218,0,0,1-.209-.226,2.688,2.688,0,0,1,.173-.852l.576-1.751a.217.217,0,0,1,.413.136l-.578,1.761a2.272,2.272,0,0,0-.148.724.218.218,0,0,1-.218.209" transform="translate(-264.446 -113.913)" fill="#25292b"/>
    <path id="Trazado_889911" data-name="Trazado 889911" d="M469.973,211.662a2.677,2.677,0,0,1-.948-.173,2.708,2.708,0,0,1-1.378-1.173.218.218,0,0,1,.377-.218,2.267,2.267,0,0,0,1.156.984,2.292,2.292,0,0,0,2.608-.741.218.218,0,0,1,.345.265,2.732,2.732,0,0,1-2.16,1.056" transform="translate(-264.141 -118.616)" fill="#25292b"/>
    <path id="Trazado_889912" data-name="Trazado 889912" d="M479.172,211.718a2.681,2.681,0,0,1-1.651-.566,2.719,2.719,0,0,1-.37-.348.218.218,0,0,1,.326-.288,2.293,2.293,0,0,0,.311.292,2.28,2.28,0,0,0,3.188-.4.218.218,0,0,1,.344.267,2.689,2.689,0,0,1-1.8,1.023,2.748,2.748,0,0,1-.347.022" transform="translate(-269.495 -118.804)" fill="#25292b"/>
    <path id="Trazado_889913" data-name="Trazado 889913" d="M467.892,211.446h-.006a.218.218,0,0,1-.212-.223,6.311,6.311,0,0,0-.052-.989.217.217,0,1,1,.431-.058,6.721,6.721,0,0,1,.057,1.058.218.218,0,0,1-.218.212" transform="translate(-264.142 -118.614)" fill="#25292b"/>
    <path id="Trazado_889914" data-name="Trazado 889914" d="M460.2,197.021a.217.217,0,0,1-.215-.189,6.763,6.763,0,0,0-3.273-4.709.218.218,0,0,1-.1-.271.216.216,0,0,1,.257-.132l3.786.98a2.272,2.272,0,0,0,.94-4.445l-7.322-1.563a.218.218,0,1,1,.091-.426l7.322,1.563a2.707,2.707,0,0,1-1.13,5.295l-2.618-.678a6.824,6.824,0,0,1,2.479,4.329.217.217,0,0,1-.187.244.159.159,0,0,1-.029,0" transform="translate(-256.506 -105.212)" fill="#25292b"/>
    <path id="Trazado_889915" data-name="Trazado 889915" d="M466.523,184.227a.2.2,0,0,1-.062-.009.217.217,0,0,1-.147-.27l1.151-3.909a.217.217,0,0,1,.417.123l-1.151,3.909a.217.217,0,0,1-.208.156" transform="translate(-263.399 -101.61)" fill="#25292b"/>
    <path id="Trazado_889916" data-name="Trazado 889916" d="M474.718,188.754a.215.215,0,0,1-.077-.014.217.217,0,0,1-.127-.28l1.012-2.7a.218.218,0,0,1,.407.153l-1.012,2.7a.218.218,0,0,1-.2.141" transform="translate(-268.029 -104.851)" fill="#25292b"/>
    <path id="Trazado_889917" data-name="Trazado 889917" d="M477.315,202.335a.213.213,0,0,1-.08-.015.217.217,0,0,1-.123-.282l2.638-6.7a.217.217,0,1,1,.4.159l-2.638,6.7a.217.217,0,0,1-.2.138" transform="translate(-269.496 -110.26)" fill="#25292b"/>
    <path id="Trazado_889918" data-name="Trazado 889918" d="M310.612,83.357a10.511,10.511,0,0,1-9.805,5.426,11.306,11.306,0,0,1-.95,2.643,11.491,11.491,0,0,1-6.264,5.531c-2.478.895-5.467.923-7.493-.814a12.031,12.031,0,0,1-5.978-.487,11.473,11.473,0,0,1-7.589-10.7,10.007,10.007,0,0,1,2.231-6.651,6.349,6.349,0,0,1,5.33-2.22,6.076,6.076,0,0,1-.057-1.406,5.939,5.939,0,0,1,4.911-5.156,6.763,6.763,0,0,1,6.043,2.042,7.932,7.932,0,0,1,.7-1.249,7.2,7.2,0,0,1,12.975,3.154,6,6,0,0,1,2.784.29c3.851,1.325,4.863,6.26,3.166,9.6" transform="translate(-153.944 -38.031)" fill="#25292b"/>
    <path id="Trazado_889919" data-name="Trazado 889919" d="M275.14,119.423c1.182,2.989,3.358,4.669,6.174,3.918l-1.768,11.015,13.59,13.588,6.315-11.692-.253-4.975,2.12-1.955a15.877,15.877,0,0,0,5.072-12.772l-.731-10.477a.451.451,0,0,1-.076.024,15.471,15.471,0,0,1-5.675.329,19.212,19.212,0,0,1-6.376-1.57,2.659,2.659,0,0,1-.713,1.66,4.533,4.533,0,0,1-2.968,1.2,8.611,8.611,0,0,1-4.452-.865q-1.027,2.906-2.246,5.744l0,.048-.015-.013a5.978,5.978,0,0,0-3.737-1.46,5.354,5.354,0,0,0-2.085.377c-2.96,1.175-3.449,4.676-2.179,7.879" transform="translate(-155.046 -59.229)" fill="#f2e9da"/>
    <path id="Trazado_889920" data-name="Trazado 889920" d="M336.932,125.261a1.575,1.575,0,1,0,1.443-1.838,1.657,1.657,0,0,0-1.443,1.838" transform="translate(-190.318 -69.715)" fill="#25292b"/>
    <path id="Trazado_889921" data-name="Trazado 889921" d="M315.09,126.785a1.575,1.575,0,1,0,1.443-1.838,1.657,1.657,0,0,0-1.443,1.838" transform="translate(-177.981 -70.576)" fill="#25292b"/>
    <path id="Trazado_889922" data-name="Trazado 889922" d="M336.586,117.968a3.715,3.715,0,0,1,3.537.4.481.481,0,1,1-.51.815,3.1,3.1,0,0,0-.312-.2c-.053-.03-.107-.057-.161-.084l-.019-.008-.086-.036a3.13,3.13,0,0,0-.353-.116c-.06-.016-.121-.03-.181-.043l-.029-.006-.1-.014a3.317,3.317,0,0,0-.372-.025c-.062,0-.124,0-.186,0l-.093.006h-.01a3.486,3.486,0,0,0-.366.066c-.06.015-.12.031-.179.049l-.088.029-.015,0-.017.007a.494.494,0,0,1-.652-.195.486.486,0,0,1,.194-.652" transform="translate(-189.987 -66.482)" fill="#25292b"/>
    <path id="Trazado_889923" data-name="Trazado 889923" d="M316.591,119.907a.494.494,0,0,1-.619.283l-.017,0-.016,0-.092-.016c-.061-.01-.123-.018-.184-.024a3.538,3.538,0,0,0-.372-.014h-.01l-.093.007c-.062.006-.124.013-.185.023a3.259,3.259,0,0,0-.364.077l-.1.028-.028.01c-.058.022-.116.044-.174.067a3.206,3.206,0,0,0-.334.164l-.08.047-.017.01c-.05.034-.1.069-.148.106a3.13,3.13,0,0,0-.282.243.481.481,0,0,1-.618-.737,3.715,3.715,0,0,1,3.447-.886.487.487,0,0,1,.283.619" transform="translate(-176.628 -67.32)" fill="#25292b"/>
    <path id="Trazado_889924" data-name="Trazado 889924" d="M332.562,133.316l-5.173-.306.026-.434,4.545.268-2.28-7.307.416-.13Z" transform="translate(-184.93 -70.839)" fill="#25292b"/>
    <path id="Trazado_889925" data-name="Trazado 889925" d="M282.18,132.168a3.095,3.095,0,0,1-2.505-4.928,2.253,2.253,0,0,1,1.433-.942,1.617,1.617,0,0,1,1.142.243,5.438,5.438,0,0,0-.314-1.492,2.733,2.733,0,0,0-1.282-1.514,1.292,1.292,0,0,0-1.038-.1,2.049,2.049,0,0,0-.9,1.118l-.392-.188a2.415,2.415,0,0,1,1.13-1.333,1.722,1.722,0,0,1,1.393.111,3.166,3.166,0,0,1,1.5,1.749,6.816,6.816,0,0,1,.375,2.224l.032.936-.441-.825a1.1,1.1,0,0,0-1.134-.5,1.849,1.849,0,0,0-1.15.769,2.66,2.66,0,0,0,2.329,4.23l.03.434c-.068,0-.137.007-.2.007" transform="translate(-157.216 -69.441)" fill="#25292b"/>
    <path id="Trazado_889926" data-name="Trazado 889926" d="M316.516,165.55a5.9,5.9,0,0,1-2.588-.667,15.306,15.306,0,0,1-2.734-1.9l.274-.337a15,15,0,0,0,2.655,1.851,5.066,5.066,0,0,0,3.047.566A6.707,6.707,0,0,0,320,163.623l.261.349a7.263,7.263,0,0,1-3.012,1.518,4.258,4.258,0,0,1-.728.061" transform="translate(-175.783 -91.872)" fill="#25292b"/>
    <path id="Trazado_889927" data-name="Trazado 889927" d="M321.28,146.889a5.627,5.627,0,0,1-4.4-3.634l.411-.143a5.182,5.182,0,0,0,4.055,3.347Z" transform="translate(-178.993 -80.839)" fill="#25292b"/>
    <rect id="Rectángulo_405026" data-name="Rectángulo 405026" width="41.209" height="3.951" transform="translate(113.169 140.408)" fill="#3a1d71"/>
    <path id="Trazado_889928" data-name="Trazado 889928" d="M339.331,285.9h-58.9l8.7-35.322h58.9Z" transform="translate(-158.403 -141.546)" fill="#3a1d71"/>
    <rect id="Rectángulo_405027" data-name="Rectángulo 405027" width="68.611" height="0.435" transform="translate(113.169 140.19)" fill="#3a1d71"/>
    <path id="Trazado_889929" data-name="Trazado 889929" d="M396.94,376.479a11.073,11.073,0,0,1-8.207,4.772,11.189,11.189,0,0,1-1.4.025l-31.161-1.362-3.788-3.233,2.134-11.313,4.315-.358,26.477-5.78a11.065,11.065,0,0,1,10.767,3.613l.143.166a11.071,11.071,0,0,1,.724,13.47" transform="translate(-199.047 -202.773)" fill="#3a1d71"/>
    <path id="Trazado_889930" data-name="Trazado 889930" d="M434.423,381.71l-.3-.319a14.686,14.686,0,0,0,4.3-7.077,12.027,12.027,0,0,0-.792-8.159,10.162,10.162,0,0,0-6.177-5.244l.118-.419a10.607,10.607,0,0,1,6.449,5.469,12.471,12.471,0,0,1,.824,8.459,15.127,15.127,0,0,1-4.427,7.291" transform="translate(-243.716 -203.629)" fill="#f2e9da"/>
    <path id="Trazado_889931" data-name="Trazado 889931" d="M364.61,387.573l-.435-.013a92.7,92.7,0,0,1,.929-10.59l.431.063a92.142,92.142,0,0,0-.925,10.54" transform="translate(-205.71 -212.938)" fill="#25292b"/>
    <path id="Trazado_889932" data-name="Trazado 889932" d="M383.686,386.87a20.036,20.036,0,0,1,.1-10.093l.42.114a19.6,19.6,0,0,0-.1,9.875Z" transform="translate(-216.394 -212.828)" fill="#f2e9da"/>
    <path id="Trazado_889933" data-name="Trazado 889933" d="M390.494,386.951a16.963,16.963,0,0,1,.345-9.615l.412.14a16.525,16.525,0,0,0-.336,9.365Z" transform="translate(-220.274 -213.144)" fill="#f2e9da"/>
    <path id="Trazado_889934" data-name="Trazado 889934" d="M396.669,386.806a15.806,15.806,0,0,1,.962-9.4l.4.172a15.364,15.364,0,0,0-.936,9.143Z" transform="translate(-223.883 -213.181)" fill="#f2e9da"/>
    <path id="Trazado_889935" data-name="Trazado 889935" d="M419.726,383.888a13.041,13.041,0,0,1,.188-16.137l.339.273a12.607,12.607,0,0,0-.182,15.6Z" transform="translate(-235.562 -207.73)" fill="#25292b"/>
    <path id="Trazado_889936" data-name="Trazado 889936" d="M247.988,329.593l-6.545,21.141-57.906-15.159a15.39,15.39,0,1,1,9.9-29.061Z" transform="translate(-97.18 -172.449)" fill="#a854f3"/>
    <path id="Trazado_889937" data-name="Trazado 889937" d="M290.566,333.276l6.27,17.68,68.28-27.387a15.39,15.39,0,1,0-14.547-27.034Z" transform="translate(-164.131 -166.145)" fill="#a854f3"/>
    <rect id="Rectángulo_405028" data-name="Rectángulo 405028" width="46.6" height="0.435" transform="translate(127.686 166.85) rotate(-31.799)" fill="#f2e9da"/>
    <rect id="Rectángulo_405029" data-name="Rectángulo 405029" width="0.435" height="24.184" transform="translate(124.45 146.23) rotate(-66.725)" fill="#f2e9da"/>
    <path id="Trazado_889938" data-name="Trazado 889938" d="M202.324,403.033a11.027,11.027,0,0,0,10.271,3.148l30.511-6.476,3.2-3.813-3.969-10.807-4.315.358L210.958,384.1a11.066,11.066,0,0,0-10.026,5.338l-.114.187a11.071,11.071,0,0,0,1.505,13.4" transform="translate(-112.535 -216.959)" fill="#3a1d71"/>
    <path id="Trazado_889939" data-name="Trazado 889939" d="M215.679,407.041a15.123,15.123,0,0,1-5.568-6.462,12.472,12.472,0,0,1-.581-8.479,10.606,10.606,0,0,1,5.46-6.457l.186.393a10.163,10.163,0,0,0-5.229,6.19,12.026,12.026,0,0,0,.563,8.178,14.679,14.679,0,0,0,5.407,6.272Z" transform="translate(-118.081 -217.837)" fill="#f2e9da"/>
    <path id="Trazado_889940" data-name="Trazado 889940" d="M291.648,401.5A92.109,92.109,0,0,0,289,391.255l.414-.134a92.616,92.616,0,0,1,2.661,10.293Z" transform="translate(-163.245 -220.931)" fill="#25292b"/>
    <path id="Trazado_889941" data-name="Trazado 889941" d="M283.662,396.82a2.724,2.724,0,0,1-1.637-.627,6.35,6.35,0,0,1-2.018-4.283c-.064-.457-.111-.918-.158-1.379a13.85,13.85,0,0,0-.576-3.2l.111-.039c0-.014,0-.029-.007-.044l-.161-.129.117-.145a32.134,32.134,0,0,1-.541-9.465,3.034,3.034,0,0,1,1.219-2.356,2.111,2.111,0,0,1,2.327.322,3.623,3.623,0,0,1,1.124,2.048,8.362,8.362,0,0,1-.827,5.383,22.739,22.739,0,0,1-2.841,4.189l.021.133a9.669,9.669,0,0,1,5.462,6.6c.126.588.314,2.028-.671,2.707a1.639,1.639,0,0,1-.944.283m-3.811-9.092a17.018,17.018,0,0,1,.432,2.76c.046.455.091.91.155,1.361a5.951,5.951,0,0,0,1.86,4.005,1.826,1.826,0,0,0,2.061.324c.768-.529.6-1.754.493-2.256a9.215,9.215,0,0,0-5-6.194m1.039-12.358a1.363,1.363,0,0,0-.667.165,2.664,2.664,0,0,0-1,2.035,30.609,30.609,0,0,0,.477,8.948,20.957,20.957,0,0,0,2.544-3.8,7.94,7.94,0,0,0,.794-5.1,3.206,3.206,0,0,0-.979-1.81,1.844,1.844,0,0,0-1.168-.441" transform="translate(-157.384 -211.789)" fill="#f2e9da"/>
    <path id="Trazado_889942" data-name="Trazado 889942" d="M273.038,403.9l-.434-.035a19.593,19.593,0,0,0-1.723-9.723l.4-.182a20.04,20.04,0,0,1,1.761,9.939" transform="translate(-153.011 -222.533)" fill="#f2e9da"/>
    <path id="Trazado_889943" data-name="Trazado 889943" d="M266.12,405.136l-.433-.039a16.52,16.52,0,0,0-1.874-9.181l.383-.206a16.96,16.96,0,0,1,1.924,9.426" transform="translate(-149.018 -223.523)" fill="#f2e9da"/>
    <path id="Trazado_889944" data-name="Trazado 889944" d="M259.51,406.1l-.435-.017a15.366,15.366,0,0,0-2.429-8.864l.366-.236a15.8,15.8,0,0,1,2.5,9.117" transform="translate(-144.97 -224.241)" fill="#f2e9da"/>
    <path id="Trazado_889945" data-name="Trazado 889945" d="M234.329,407.361l-.384-.2A12.607,12.607,0,0,0,231.2,391.8l.289-.325a13.042,13.042,0,0,1,2.844,15.885" transform="translate(-130.595 -221.131)" fill="#25292b"/>
    <path id="Trazado_889946" data-name="Trazado 889946" d="M487.156,136.6H432.944V70.986h54.212Zm-53.777-.435h53.342V71.421H433.379Z" transform="translate(-244.555 -40.097)" fill="#25292b"/>
    <rect id="Rectángulo_405030" data-name="Rectángulo 405030" width="50.805" height="7.077" transform="translate(190.093 32.437)" fill="#8722e2"/>
    <path id="Trazado_889947" data-name="Trazado 889947" d="M528.5,81.959a.3.3,0,0,1-.19-.067l-2.645-2.113a.3.3,0,0,1,0-.476l2.611-2.086a.3.3,0,0,1,.38.476l-2.313,1.848,2.347,1.875a.3.3,0,0,1-.19.542" transform="translate(-296.863 -43.581)" fill="#f2e9da"/>
    <path id="Trazado_889948" data-name="Trazado 889948" d="M541.236,81.959a.3.3,0,0,1-.19-.542l2.347-1.875-2.313-1.848a.3.3,0,0,1,.38-.476L544.07,79.3a.3.3,0,0,1,0,.476l-2.645,2.113a.3.3,0,0,1-.19.067" transform="translate(-305.553 -43.581)" fill="#f2e9da"/>
    <path id="Trazado_889949" data-name="Trazado 889949" d="M535.163,81.788a.305.305,0,0,1-.332-.391l1.637-5.32a.3.3,0,0,1,.582.179l-1.636,5.32a.306.306,0,0,1-.251.212" transform="translate(-302.1 -42.852)" fill="#f2e9da"/>
    <rect id="Rectángulo_405031" data-name="Rectángulo 405031" width="27.312" height="2.238" transform="translate(190.093 44.412)" fill="#95bfce"/>
    <rect id="Rectángulo_405032" data-name="Rectángulo 405032" width="13.293" height="2.238" transform="translate(218.644 44.412)" fill="#366985"/>
    <rect id="Rectángulo_405033" data-name="Rectángulo 405033" width="7.595" height="2.238" transform="translate(233.303 44.412)" fill="#25292b"/>
    <path id="Trazado_889950" data-name="Trazado 889950" d="M529.617,115.979H511.008v-2.238h18.609" transform="translate(-288.651 -64.249)" fill="#95bfce"/>
    <rect id="Rectángulo_405034" data-name="Rectángulo 405034" width="13.293" height="2.238" transform="translate(207.824 49.493)" fill="#366985"/>
    <path id="Trazado_889951" data-name="Trazado 889951" d="M437.017,113.742h16.3v2.238h-16.3" transform="translate(-246.856 -64.249)" fill="#25292b"/>
    <rect id="Rectángulo_405035" data-name="Rectángulo 405035" width="9.906" height="2.238" transform="translate(190.162 54.996)" fill="#366985"/>
    <rect id="Rectángulo_405036" data-name="Rectángulo 405036" width="27.652" height="2.238" transform="translate(201.308 54.996)" fill="#95bfce"/>
    <rect id="Rectángulo_405037" data-name="Rectángulo 405037" width="10.641" height="2.238" transform="translate(230.326 54.996)" fill="#25292b"/>
    <path id="Trazado_889952" data-name="Trazado 889952" d="M543.332,140.3h-8.166v-2.238h8.166" transform="translate(-302.297 -77.988)" fill="#95bfce"/>
    <rect id="Rectángulo_405038" data-name="Rectángulo 405038" width="23.736" height="2.238" transform="translate(207.894 60.077)" fill="#366985"/>
    <path id="Trazado_889953" data-name="Trazado 889953" d="M437.176,138.066h16.3V140.3h-16.3" transform="translate(-246.945 -77.988)" fill="#25292b"/>
    <rect id="Rectángulo_405039" data-name="Rectángulo 405039" width="27.312" height="2.238" transform="translate(190.231 68.588)" fill="#95bfce"/>
    <rect id="Rectángulo_405040" data-name="Rectángulo 405040" width="13.293" height="2.238" transform="translate(218.782 68.588)" fill="#366985"/>
    <rect id="Rectángulo_405041" data-name="Rectángulo 405041" width="7.595" height="2.238" transform="translate(233.441 68.588)" fill="#25292b"/>
    <path id="Trazado_889954" data-name="Trazado 889954" d="M529.934,171.539H511.325V169.3h18.609" transform="translate(-288.83 -95.632)" fill="#95bfce"/>
    <rect id="Rectángulo_405042" data-name="Rectángulo 405042" width="13.293" height="2.238" transform="translate(207.962 73.669)" fill="#366985"/>
    <path id="Trazado_889955" data-name="Trazado 889955" d="M437.334,169.3h16.3v2.238h-16.3" transform="translate(-247.035 -95.632)" fill="#25292b"/>
    <rect id="Rectángulo_405043" data-name="Rectángulo 405043" width="9.906" height="2.238" transform="translate(190.3 79.172)" fill="#366985"/>
    <rect id="Rectángulo_405044" data-name="Rectángulo 405044" width="27.652" height="2.238" transform="translate(201.446 79.172)" fill="#95bfce"/>
    <rect id="Rectángulo_405045" data-name="Rectángulo 405045" width="10.641" height="2.238" transform="translate(230.464 79.172)" fill="#25292b"/>
    <path id="Trazado_889956" data-name="Trazado 889956" d="M543.649,195.863h-8.166v-2.238h8.166" transform="translate(-302.476 -109.372)" fill="#95bfce"/>
    <rect id="Rectángulo_405046" data-name="Rectángulo 405046" width="23.736" height="2.238" transform="translate(208.031 84.253)" fill="#366985"/>
    <path id="Trazado_889957" data-name="Trazado 889957" d="M437.493,193.625h16.3v2.238h-16.3" transform="translate(-247.124 -109.372)" fill="#25292b"/>
    <path id="Trazado_889958" data-name="Trazado 889958" d="M153.193,92.114H98.981V26.5h54.212Zm-53.777-.435h53.342V26.934H99.416Z" transform="translate(-55.911 -14.968)" fill="#25292b"/>
    <rect id="Rectángulo_405047" data-name="Rectángulo 405047" width="50.805" height="7.077" transform="translate(44.774 13.079)" fill="#8722e2"/>
    <path id="Trazado_889959" data-name="Trazado 889959" d="M194.533,37.472a.3.3,0,0,1-.19-.067L191.7,35.293a.3.3,0,0,1,0-.476l2.611-2.086a.3.3,0,0,1,.38.476l-2.313,1.848,2.347,1.875a.3.3,0,0,1-.19.542" transform="translate(-108.219 -18.452)" fill="#f2e9da"/>
    <path id="Trazado_889960" data-name="Trazado 889960" d="M207.274,37.472a.3.3,0,0,1-.19-.542l2.346-1.875-2.312-1.848a.3.3,0,0,1,.38-.476l2.61,2.086a.3.3,0,0,1,0,.476l-2.644,2.113a.3.3,0,0,1-.19.067" transform="translate(-116.91 -18.452)" fill="#f2e9da"/>
    <path id="Trazado_889961" data-name="Trazado 889961" d="M201.2,37.3a.3.3,0,0,1-.332-.391l1.637-5.32a.3.3,0,0,1,.582.179l-1.637,5.32a.305.305,0,0,1-.25.212" transform="translate(-113.456 -17.722)" fill="#f2e9da"/>
    <rect id="Rectángulo_405048" data-name="Rectángulo 405048" width="27.312" height="2.238" transform="translate(44.774 25.054)" fill="#95bfce"/>
    <rect id="Rectángulo_405049" data-name="Rectángulo 405049" width="13.293" height="2.238" transform="translate(73.325 25.054)" fill="#366985"/>
    <rect id="Rectángulo_405050" data-name="Rectángulo 405050" width="7.595" height="2.238" transform="translate(87.984 25.054)" fill="#f2e9da"/>
    <path id="Trazado_889962" data-name="Trazado 889962" d="M195.654,71.492H177.045V69.254h18.609" transform="translate(-100.007 -39.119)" fill="#95bfce"/>
    <rect id="Rectángulo_405051" data-name="Rectángulo 405051" width="13.293" height="2.238" transform="translate(62.506 30.135)" fill="#366985"/>
    <path id="Trazado_889963" data-name="Trazado 889963" d="M103.055,69.255h16.3v2.238h-16.3" transform="translate(-58.212 -39.119)" fill="#f2e9da"/>
    <rect id="Rectángulo_405052" data-name="Rectángulo 405052" width="9.906" height="2.238" transform="translate(44.843 35.638)" fill="#366985"/>
    <rect id="Rectángulo_405053" data-name="Rectángulo 405053" width="27.652" height="2.238" transform="translate(55.989 35.638)" fill="#95bfce"/>
    <rect id="Rectángulo_405054" data-name="Rectángulo 405054" width="10.641" height="2.238" transform="translate(85.007 35.638)" fill="#f2e9da"/>
    <path id="Trazado_889964" data-name="Trazado 889964" d="M209.37,95.816H201.2V93.578h8.166" transform="translate(-113.653 -52.859)" fill="#95bfce"/>
    <rect id="Rectángulo_405055" data-name="Rectángulo 405055" width="23.736" height="2.238" transform="translate(62.575 40.719)" fill="#366985"/>
    <path id="Trazado_889965" data-name="Trazado 889965" d="M103.213,93.579h16.3v2.238h-16.3" transform="translate(-58.302 -52.859)" fill="#f2e9da"/>
    <rect id="Rectángulo_405056" data-name="Rectángulo 405056" width="27.312" height="2.238" transform="translate(44.912 49.23)" fill="#95bfce"/>
    <rect id="Rectángulo_405057" data-name="Rectángulo 405057" width="13.293" height="2.238" transform="translate(73.463 49.23)" fill="#366985"/>
    <rect id="Rectángulo_405058" data-name="Rectángulo 405058" width="7.595" height="2.238" transform="translate(88.122 49.23)" fill="#f2e9da"/>
    <path id="Trazado_889966" data-name="Trazado 889966" d="M195.971,127.052H177.362v-2.238h18.609" transform="translate(-100.186 -70.503)" fill="#95bfce"/>
    <rect id="Rectángulo_405059" data-name="Rectángulo 405059" width="13.293" height="2.238" transform="translate(62.643 54.311)" fill="#366985"/>
    <path id="Trazado_889967" data-name="Trazado 889967" d="M103.372,124.814h16.3v2.238h-16.3" transform="translate(-58.391 -70.503)" fill="#f2e9da"/>
    <rect id="Rectángulo_405060" data-name="Rectángulo 405060" width="9.906" height="2.238" transform="translate(44.981 59.814)" fill="#366985"/>
    <rect id="Rectángulo_405061" data-name="Rectángulo 405061" width="27.652" height="2.238" transform="translate(56.127 59.814)" fill="#95bfce"/>
    <rect id="Rectángulo_405062" data-name="Rectángulo 405062" width="10.641" height="2.238" transform="translate(85.145 59.814)" fill="#f2e9da"/>
    <path id="Trazado_889968" data-name="Trazado 889968" d="M209.687,151.376h-8.166v-2.238h8.166" transform="translate(-113.832 -84.243)" fill="#95bfce"/>
    <rect id="Rectángulo_405063" data-name="Rectángulo 405063" width="23.736" height="2.238" transform="translate(62.713 64.895)" fill="#366985"/>
    <path id="Trazado_889969" data-name="Trazado 889969" d="M103.53,149.138h16.3v2.238h-16.3" transform="translate(-58.48 -84.243)" fill="#f2e9da"/>
    <path id="Trazado_889970" data-name="Trazado 889970" d="M486.481,10.267v9.882a5.237,5.237,0,0,1-5.222,5.222h-9.434l-7.758,7.3,1.117-7.3H438.53a5.237,5.237,0,0,1-5.222-5.222V10.267a5.237,5.237,0,0,1,5.222-5.222h42.73a5.237,5.237,0,0,1,5.222,5.222" transform="translate(-244.761 -2.85)" fill="#f0c518"/>
    <path id="Trazado_889971" data-name="Trazado 889971" d="M464.755,19.313a3.9,3.9,0,0,1-.624,2.186,4.093,4.093,0,0,1-1.8,1.485,6.673,6.673,0,0,1-2.761.53,11.182,11.182,0,0,1-2.218-.185,8.255,8.255,0,0,1-1.865-.647V19.494a10.628,10.628,0,0,0,2.127.819,7.9,7.9,0,0,0,2.027.295,1.97,1.97,0,0,0,1.168-.276.849.849,0,0,0,.371-.711.784.784,0,0,0-.149-.475,1.75,1.75,0,0,0-.48-.412q-.331-.208-1.76-.851a8.434,8.434,0,0,1-1.942-1.14,3.5,3.5,0,0,1-.959-1.268,4.2,4.2,0,0,1-.312-1.692,3.392,3.392,0,0,1,1.331-2.851,5.866,5.866,0,0,1,3.657-1.023,10.264,10.264,0,0,1,4.191.95l-1.1,2.761a7.941,7.941,0,0,0-3.2-.851,1.671,1.671,0,0,0-1.014.244.74.74,0,0,0-.317.607.876.876,0,0,0,.4.7,15.389,15.389,0,0,0,2.186,1.122,6.051,6.051,0,0,1,2.376,1.652,3.589,3.589,0,0,1,.665,2.222" transform="translate(-257.288 -5.597)" fill="#f2e9da"/>
    <path id="Trazado_889972" data-name="Trazado 889972" d="M493.238,16.674q0,4.5-2.86,6.065l3.231,3.72h-4.454l-2.335-2.942-.009-.009V23.5l-.009-.009a6.278,6.278,0,0,1-4.775-1.747,7.11,7.11,0,0,1-1.661-5.087,7.061,7.061,0,0,1,1.652-5.047,7.492,7.492,0,0,1,9.59-.013,7.144,7.144,0,0,1,1.629,5.078m-9.106,0q0,3.838,2.67,3.838a2.3,2.3,0,0,0,2.014-.932,5.105,5.105,0,0,0,.656-2.906,5.138,5.138,0,0,0-.665-2.928,2.268,2.268,0,0,0-1.987-.946q-2.688,0-2.688,3.874" transform="translate(-271.342 -5.574)" fill="#f2e9da"/>
    <path id="Trazado_889973" data-name="Trazado 889973" d="M515.439,23.579V10.345h3.576V20.691h5.1v2.888Z" transform="translate(-291.154 -5.844)" fill="#f2e9da"/>
  </g>
</svg>
