<svg xmlns="http://www.w3.org/2000/svg" width="47.127" height="100.088" viewBox="0 0 47.127 100.088">
  <g id="_60" data-name="60" transform="translate(-495 -2521.956)">
    <path id="Trazado_889994" data-name="Trazado 889994" d="M48.66,13.3H18.385A7.383,7.383,0,0,0,11,20.685V62.344a7.383,7.383,0,0,0,7.385,7.385h7.834a2.651,2.651,0,0,1,2.244,1.224l4.407,6.692a.74.74,0,0,0,1.061.2.492.492,0,0,0,.2-.2l4.407-6.692a2.651,2.651,0,0,1,2.244-1.224H48.62A7.383,7.383,0,0,0,56,62.344V20.685A7.323,7.323,0,0,0,48.66,13.3Z" transform="translate(485.02 2509.676)" fill="#caecfc"/>
    <ellipse id="Elipse_11825" data-name="Elipse 11825" cx="12.118" cy="12.118" rx="12.118" ry="12.118" transform="translate(506.425 2592.34)" fill="#6dcc6d"/>
    <path id="Trazado_889997" data-name="Trazado 889997" d="M14.014,224.331a1.449,1.449,0,0,0-.163-.367c-.041-.041-.082-.122-.122-.163a1.063,1.063,0,0,0-1.428,0,.563.563,0,0,0-.122.163.309.309,0,0,0-.082.163.368.368,0,0,0-.041.2.7.7,0,0,0,0,.408c0,.082.041.122.041.2.041.041.041.122.082.163s.082.122.122.163a.986.986,0,0,0,1.428,0h0a.563.563,0,0,0,.122-.163.309.309,0,0,0,.082-.163.306.306,0,0,0,.041-.2A1.531,1.531,0,0,0,14.014,224.331Z" transform="translate(484.413 2385.228)" fill="#6dcc6d"/>
    <path id="Trazado_890000" data-name="Trazado 890000" d="M31.373,242.646a4.139,4.139,0,0,1-3.264-3.264.088.088,0,0,0-.082-.082c-.041,0-.041.041-.082.082a4.139,4.139,0,0,1-3.264,3.264.088.088,0,0,0-.082.082c0,.041.041.041.082.082a4.139,4.139,0,0,1,3.264,3.264.088.088,0,0,0,.082.082c.041,0,.041-.041.082-.082a4.139,4.139,0,0,1,3.264-3.264.088.088,0,0,0,.082-.082C31.455,242.646,31.414,242.646,31.373,242.646Z" transform="translate(476.969 2375.89)" fill="#ffcd29"/>
    <path id="Trazado_890001" data-name="Trazado 890001" d="M47.181,10.8H16.905A8.393,8.393,0,0,0,8.5,19.205V60.864a8.393,8.393,0,0,0,8.405,8.405h7.834a1.711,1.711,0,0,1,1.428.775l4.407,6.692a1.773,1.773,0,0,0,2.489.49,1.861,1.861,0,0,0,.49-.49l4.407-6.692a1.711,1.711,0,0,1,1.428-.775h7.834a8.393,8.393,0,0,0,8.405-8.405V19.205A8.454,8.454,0,0,0,47.181,10.8Zm6.365,50.064a6.373,6.373,0,0,1-6.365,6.365H39.347a3.66,3.66,0,0,0-3.1,1.673l-4.2,6.365L27.84,68.9a3.713,3.713,0,0,0-3.1-1.673H16.905a6.373,6.373,0,0,1-6.365-6.365V19.205a6.373,6.373,0,0,1,6.365-6.365H47.181a6.373,6.373,0,0,1,6.365,6.365V60.864Z" transform="translate(486.5 2511.156)" fill="#231f20"/>
    <path id="Trazado_890002" data-name="Trazado 890002" d="M47.138,180.8a13.138,13.138,0,1,0,13.138,13.138h0A13.13,13.13,0,0,0,47.138,180.8Zm0,24.237a11.1,11.1,0,1,1,11.1-11.1A11.11,11.11,0,0,1,47.138,205.037Z" transform="translate(471.405 2410.52)" fill="#231f20"/>
    <path id="Trazado_890003" data-name="Trazado 890003" d="M63.431,202.856a.986.986,0,0,0-1.428,0l-6.569,6.569-2.489-2.734a1.011,1.011,0,0,0-1.51,1.346l3.223,3.509a1.022,1.022,0,0,0,.734.326h.041a1.173,1.173,0,0,0,.734-.286l7.3-7.3A1.023,1.023,0,0,0,63.431,202.856Z" transform="translate(461.233 2397.645)" fill="#231f20"/>
    <path id="Trazado_890008" data-name="Trazado 890008" d="M67.452,48.5H46.52a1.02,1.02,0,1,0,0,2.04H67.452a1.02,1.02,0,1,0,0-2.04Z" transform="translate(464.597 2488.839)" fill="#231f20"/>
    <path id="Trazado_890009" data-name="Trazado 890009" d="M67.452,62H46.52a1.02,1.02,0,1,0,0,2.04H67.452a1.02,1.02,0,0,0,0-2.04Z" transform="translate(464.597 2480.847)" fill="#231f20"/>
    <path id="Trazado_890010" data-name="Trazado 890010" d="M67.452,75.6H46.52a1.02,1.02,0,0,0,0,2.04H67.452a1.02,1.02,0,0,0,0-2.04Z" transform="translate(464.597 2472.796)" fill="#231f20"/>
    <path id="Trazado_890011" data-name="Trazado 890011" d="M67.452,89.1H46.52a1.02,1.02,0,1,0,0,2.04H67.452a1.02,1.02,0,1,0,0-2.04Z" transform="translate(464.597 2464.805)" fill="#231f20"/>
    <path id="Trazado_890012" data-name="Trazado 890012" d="M67.452,102.6H46.52a1.02,1.02,0,1,0,0,2.04H67.452a1.02,1.02,0,1,0,0-2.04Z" transform="translate(464.597 2456.813)" fill="#231f20"/>
    <path id="Trazado_890013" data-name="Trazado 890013" d="M67.452,116.2H46.52a1.02,1.02,0,1,0,0,2.04H67.452a1.02,1.02,0,1,0,0-2.04Z" transform="translate(464.597 2448.762)" fill="#231f20"/>
    <path id="Trazado_890014" data-name="Trazado 890014" d="M32.5,48.5H31.52a1.02,1.02,0,1,0,0,2.04H32.5a1.02,1.02,0,1,0,0-2.04Z" transform="translate(473.477 2488.839)" fill="#231f20"/>
    <path id="Trazado_890015" data-name="Trazado 890015" d="M32.5,75.6H31.52a1.02,1.02,0,0,0,0,2.04H32.5a1.02,1.02,0,0,0,0-2.04Z" transform="translate(473.477 2472.796)" fill="#231f20"/>
    <path id="Trazado_890016" data-name="Trazado 890016" d="M32.5,102.6H31.52a1.02,1.02,0,1,0,0,2.04H32.5a1.02,1.02,0,1,0,0-2.04Z" transform="translate(473.477 2456.813)" fill="#231f20"/>
  </g>
</svg>
