<svg xmlns="http://www.w3.org/2000/svg" width="46.602" height="94.658" viewBox="0 0 46.602 94.658">
  <g id="_61" data-name="61" transform="translate(-1356.5 -2480)">
    <path id="Trazado_889995" data-name="Trazado 889995" d="M171.933,92.332H164.18a2.624,2.624,0,0,1-2.221-1.212L157.6,84.5a.733.733,0,0,0-1.05-.2.487.487,0,0,0-.2.2l-4.361,6.623a2.624,2.624,0,0,1-2.221,1.212h-7.754a7.307,7.307,0,0,0-7.309,7.309v41.231a7.307,7.307,0,0,0,7.309,7.309h29.964a7.307,7.307,0,0,0,7.309-7.309V99.641A7.368,7.368,0,0,0,171.933,92.332Z" transform="translate(1222.89 2425.467)" fill="#caecfc"/>
    <path id="Trazado_889996" data-name="Trazado 889996" d="M234.383,16.936h-.727V16.21a1.01,1.01,0,0,0-2.019,0v.727h-.727a1.01,1.01,0,0,0,0,2.019h.727v.727a1.01,1.01,0,0,0,2.019,0v-.727h.727a1.01,1.01,0,1,0,0-2.019Z" transform="translate(1166.135 2466.577)" fill="#ffcd29"/>
    <path id="Trazado_889999" data-name="Trazado 889999" d="M229.294,62.823a1.434,1.434,0,0,0-.162-.363c-.04-.04-.081-.121-.121-.162a1.052,1.052,0,0,0-1.413,0,.557.557,0,0,0-.121.162.306.306,0,0,0-.081.162.364.364,0,0,0-.04.2.688.688,0,0,0,0,.4c0,.081.04.121.04.2.04.04.04.121.081.162s.081.121.121.162a.976.976,0,0,0,1.413,0h0a.557.557,0,0,0,.121-.162.306.306,0,0,0,.081-.162.3.3,0,0,0,.04-.2A.478.478,0,0,0,229.294,62.823Z" transform="translate(1167.67 2438.661)" fill="#ea4647"/>
    <path id="Trazado_890004" data-name="Trazado 890004" d="M170.324,89.82H162.57a1.694,1.694,0,0,1-1.413-.767L156.8,82.43a1.762,1.762,0,0,0-2.463-.485,1.392,1.392,0,0,0-.485.485l-4.361,6.623a1.694,1.694,0,0,1-1.413.767h-7.754A8.307,8.307,0,0,0,132,98.139V139.37a8.307,8.307,0,0,0,8.319,8.319h29.964a8.307,8.307,0,0,0,8.319-8.319V98.139A8.247,8.247,0,0,0,170.324,89.82Zm6.3,49.55a6.308,6.308,0,0,1-6.3,6.3H140.359a6.308,6.308,0,0,1-6.3-6.3V98.139a6.308,6.308,0,0,1,6.3-6.3h7.754a3.623,3.623,0,0,0,3.069-1.656l4.159-6.3,4.159,6.3a3.675,3.675,0,0,0,3.069,1.656h7.754a6.308,6.308,0,0,1,6.3,6.3Z" transform="translate(1224.5 2426.969)" fill="#231f20"/>
    <circle id="Elipse_11826" data-name="Elipse 11826" cx="11.994" cy="11.994" r="11.994" transform="translate(1367.848 2481.01)" fill="#ea4647"/>
    <path id="Trazado_890005" data-name="Trazado 890005" d="M170.6,10.8a13,13,0,1,0,13,13A12.995,12.995,0,0,0,170.6,10.8Zm0,23.988A10.984,10.984,0,1,1,181.588,23.8h0A11,11,0,0,1,170.6,34.788Z" transform="translate(1209.238 2469.2)" fill="#231f20"/>
    <path id="Trazado_890006" data-name="Trazado 890006" d="M187.34,39.11l-7.229-7.229a.976.976,0,0,0-1.413.04,1.052,1.052,0,0,0,0,1.413l7.229,7.188a1.013,1.013,0,0,0,1.413.04,1.023,1.023,0,0,0,0-1.454Z" transform="translate(1196.823 2456.801)" fill="#231f20"/>
    <path id="Trazado_890007" data-name="Trazado 890007" d="M187.287,31.853a.976.976,0,0,0-1.413,0l-7.229,7.229a1,1,0,1,0,1.373,1.454l.04-.04,7.229-7.229A.976.976,0,0,0,187.287,31.853Z" transform="translate(1196.875 2456.83)" fill="#231f20"/>
    <path id="Trazado_890017" data-name="Trazado 890017" d="M187.426,139.4H166.71a1.01,1.01,0,1,0,0,2.019h20.717a1.01,1.01,0,1,0,0-2.019Z" transform="translate(1204.409 2392.533)" fill="#231f20"/>
    <path id="Trazado_890018" data-name="Trazado 890018" d="M187.426,153H166.71a1.01,1.01,0,1,0,0,2.019h20.717a1.01,1.01,0,0,0,0-2.019Z" transform="translate(1204.409 2384.425)" fill="#231f20"/>
    <path id="Trazado_890019" data-name="Trazado 890019" d="M187.426,166.5H166.71a1.01,1.01,0,1,0,0,2.019h20.717a1.01,1.01,0,0,0,0-2.019Z" transform="translate(1204.409 2376.377)" fill="#231f20"/>
    <path id="Trazado_890020" data-name="Trazado 890020" d="M187.426,180H166.71a1.01,1.01,0,1,0,0,2.019h20.717a1.01,1.01,0,0,0,0-2.019Z" transform="translate(1204.409 2368.328)" fill="#231f20"/>
    <path id="Trazado_890021" data-name="Trazado 890021" d="M187.426,193.6H166.71a1.01,1.01,0,1,0,0,2.019h20.717a1.01,1.01,0,0,0,0-2.019Z" transform="translate(1204.409 2360.22)" fill="#231f20"/>
    <path id="Trazado_890022" data-name="Trazado 890022" d="M187.426,207.1H166.71a1.01,1.01,0,1,0,0,2.019h20.717a1.01,1.01,0,0,0,0-2.019Z" transform="translate(1204.409 2352.172)" fill="#231f20"/>
    <path id="Trazado_890023" data-name="Trazado 890023" d="M152.779,139.4h-.969a1.01,1.01,0,1,0,0,2.019h.969a1,1,0,0,0,1.01-1.01A1.026,1.026,0,0,0,152.779,139.4Z" transform="translate(1213.292 2392.533)" fill="#231f20"/>
    <path id="Trazado_890024" data-name="Trazado 890024" d="M152.779,166.5h-.969a1.01,1.01,0,1,0,0,2.019h.969a1,1,0,0,0,1.01-1.01A1.026,1.026,0,0,0,152.779,166.5Z" transform="translate(1213.292 2376.377)" fill="#231f20"/>
    <path id="Trazado_890025" data-name="Trazado 890025" d="M152.779,193.6h-.969a1.01,1.01,0,1,0,0,2.019h.969a1,1,0,0,0,1.01-1.01A1.026,1.026,0,0,0,152.779,193.6Z" transform="translate(1213.292 2360.22)" fill="#231f20"/>
  </g>
</svg>
