<svg xmlns="http://www.w3.org/2000/svg" width="79" height="74.063" viewBox="0 0 79 74.063">
  <g id="_64" data-name="64" transform="translate(0 -3)">
    <path id="Trazado_890124" data-name="Trazado 890124" d="M78.354,7.292V54.2H1V7.292A3.292,3.292,0,0,1,4.292,4H75.063A3.292,3.292,0,0,1,78.354,7.292Z" transform="translate(-0.177 -0.177)" fill="#96c0ff"/>
    <path id="Trazado_890125" data-name="Trazado 890125" d="M52.865,80l7.406,9.875H29L36.406,80Z" transform="translate(-5.135 -13.635)" fill="#fff"/>
    <path id="Trazado_890126" data-name="Trazado 890126" d="M78.354,65v9.052a3.292,3.292,0,0,1-3.292,3.292H4.292A3.292,3.292,0,0,1,1,74.052V65Z" transform="translate(-0.177 -10.979)" fill="#e5eefd"/>
    <path id="Trazado_890127" data-name="Trazado 890127" d="M53.927,80H37.469L35,83.292H56.4Z" transform="translate(-6.198 -13.635)" fill="#c3d4ef"/>
    <circle id="Elipse_11842" data-name="Elipse 11842" cx="20.5" cy="20.5" r="20.5" transform="translate(3 7.063)" fill="#b8d4ff"/>
    <path id="Trazado_890128" data-name="Trazado 890128" d="M36.219,56l2.469,3.292H14L16.469,56Z" transform="translate(-2.479 -9.385)" fill="#c3d4ef"/>
    <path id="Trazado_890129" data-name="Trazado 890129" d="M36.219,40l2.469,3.292H14L16.469,40Z" transform="translate(-2.479 -6.552)" fill="#c3d4ef"/>
    <path id="Trazado_890130" data-name="Trazado 890130" d="M36.219,24l2.469,3.292H14L16.469,24Z" transform="translate(-2.479 -3.719)" fill="#c3d4ef"/>
    <path id="Trazado_890131" data-name="Trazado 890131" d="M41.271,46.469v4.938A2.469,2.469,0,0,1,38.8,53.875H12.469A2.469,2.469,0,0,1,10,51.406V46.469A2.469,2.469,0,0,1,12.469,44H38.8A2.469,2.469,0,0,1,41.271,46.469Z" transform="translate(-1.771 -7.26)" fill="#e5eefd"/>
    <path id="Trazado_890132" data-name="Trazado 890132" d="M41.271,30.469v4.937A2.469,2.469,0,0,1,38.8,37.875H12.469A2.469,2.469,0,0,1,10,35.406V30.469A2.469,2.469,0,0,1,12.469,28H38.8A2.469,2.469,0,0,1,41.271,30.469Z" transform="translate(-1.771 -4.427)" fill="#e5eefd"/>
    <path id="Trazado_890133" data-name="Trazado 890133" d="M41.271,14.469v4.938A2.469,2.469,0,0,1,38.8,21.875H12.469A2.469,2.469,0,0,1,10,19.406V14.469A2.469,2.469,0,0,1,12.469,12H38.8A2.469,2.469,0,0,1,41.271,14.469Z" transform="translate(-1.771 -1.594)" fill="#e5eefd"/>
    <rect id="Rectángulo_405113" data-name="Rectángulo 405113" width="25" height="7" rx="2" transform="translate(47 30.063)" fill="#fff"/>
    <rect id="Rectángulo_405114" data-name="Rectángulo 405114" width="8" height="5" rx="2" transform="translate(62 41.063)" fill="#fff"/>
    <rect id="Rectángulo_405115" data-name="Rectángulo 405115" width="8" height="5" rx="2" transform="translate(49 41.063)" fill="#fff"/>
    <circle id="Elipse_11843" data-name="Elipse 11843" cx="6.5" cy="6.5" r="6.5" transform="translate(53 13.063)" fill="#d3bcfb"/>
    <path id="Trazado_890134" data-name="Trazado 890134" d="M74.885,3H4.115A4.12,4.12,0,0,0,0,7.115V63.073a4.12,4.12,0,0,0,4.115,4.115.823.823,0,1,0,0-1.646,2.469,2.469,0,0,1-2.469-2.469V54.844H77.354v8.229a2.469,2.469,0,0,1-2.469,2.469H9.052a.823.823,0,1,0,0,1.646H29.625l-6.172,8.229h-2.88a.823.823,0,1,0,0,1.646H58.427a.823.823,0,1,0,0-1.646h-2.88l-6.172-8.229h25.51A4.12,4.12,0,0,0,79,63.073V7.115A4.12,4.12,0,0,0,74.885,3ZM53.49,75.417H25.51l6.172-8.229H47.318ZM1.646,53.2V7.115A2.469,2.469,0,0,1,4.115,4.646H74.885a2.469,2.469,0,0,1,2.469,2.469V53.2Z" fill="#283d54"/>
    <path id="Trazado_890135" data-name="Trazado 890135" d="M49.115,72.646a.823.823,0,0,0,0-1.646H45.823a.823.823,0,1,0,0,1.646Z" transform="translate(-7.969 -12.042)" fill="#283d54"/>
    <path id="Trazado_890136" data-name="Trazado 890136" d="M38.625,11H16.406a.823.823,0,0,0,0,1.646H38.625a1.646,1.646,0,0,1,1.646,1.646v4.937a1.646,1.646,0,0,1-1.646,1.646H12.292a1.646,1.646,0,0,1-1.646-1.646V14.292a1.646,1.646,0,0,1,1.646-1.646.823.823,0,1,0,0-1.646A3.292,3.292,0,0,0,9,14.292v4.937a3.292,3.292,0,0,0,3.292,3.292h1.646L12.7,24.167h-.411A3.292,3.292,0,0,0,9,27.458V32.4a3.292,3.292,0,0,0,3.292,3.292h1.646L12.7,37.333h-.411A3.292,3.292,0,0,0,9,40.625v4.938a3.292,3.292,0,0,0,3.292,3.292h1.646L12.7,50.5H9.823a.823.823,0,1,0,0,1.646H41.094a.823.823,0,1,0,0-1.646h-2.88l-1.234-1.646h1.646a3.292,3.292,0,0,0,3.292-3.292V40.625a3.292,3.292,0,0,0-3.292-3.292h-.411l-1.234-1.646h1.646A3.292,3.292,0,0,0,41.917,32.4V27.458a3.292,3.292,0,0,0-3.292-3.292h-.411l-1.234-1.646h1.646a3.292,3.292,0,0,0,3.292-3.292V14.292A3.292,3.292,0,0,0,38.625,11ZM36.156,50.5H14.76l1.234-1.646H34.922Zm4.115-9.875v4.938a1.646,1.646,0,0,1-1.646,1.646H12.292a1.646,1.646,0,0,1-1.646-1.646V40.625a1.646,1.646,0,0,1,1.646-1.646H38.625A1.646,1.646,0,0,1,40.271,40.625Zm-4.115-3.292H14.76l1.234-1.646H34.922Zm4.115-9.875V32.4a1.646,1.646,0,0,1-1.646,1.646H12.292A1.646,1.646,0,0,1,10.646,32.4V27.458a1.646,1.646,0,0,1,1.646-1.646H38.625A1.646,1.646,0,0,1,40.271,27.458Zm-4.115-3.292H14.76l1.234-1.646H34.922Z" transform="translate(-1.594 -1.417)" fill="#283d54"/>
    <path id="Trazado_890137" data-name="Trazado 890137" d="M14,18.469a.823.823,0,1,0,1.646,0V16.823a.823.823,0,1,0-1.646,0Z" transform="translate(-2.479 -2.302)" fill="#283d54"/>
    <path id="Trazado_890138" data-name="Trazado 890138" d="M20.646,18.469V16.823a.823.823,0,1,0-1.646,0v1.646a.823.823,0,1,0,1.646,0Z" transform="translate(-3.365 -2.302)" fill="#283d54"/>
    <path id="Trazado_890139" data-name="Trazado 890139" d="M25.646,18.469V16.823a.823.823,0,1,0-1.646,0v1.646a.823.823,0,1,0,1.646,0Z" transform="translate(-4.25 -2.302)" fill="#283d54"/>
    <path id="Trazado_890140" data-name="Trazado 890140" d="M40.7,18.646A.823.823,0,1,0,40.7,17H30.823a.823.823,0,1,0,0,1.646Z" transform="translate(-5.313 -2.479)" fill="#283d54"/>
    <path id="Trazado_890141" data-name="Trazado 890141" d="M14.823,32a.823.823,0,0,0-.823.823v1.646a.823.823,0,1,0,1.646,0V32.823A.823.823,0,0,0,14.823,32Z" transform="translate(-2.479 -5.135)" fill="#283d54"/>
    <path id="Trazado_890142" data-name="Trazado 890142" d="M19.823,32a.823.823,0,0,0-.823.823v1.646a.823.823,0,1,0,1.646,0V32.823A.823.823,0,0,0,19.823,32Z" transform="translate(-3.365 -5.135)" fill="#283d54"/>
    <path id="Trazado_890143" data-name="Trazado 890143" d="M24.823,32a.823.823,0,0,0-.823.823v1.646a.823.823,0,1,0,1.646,0V32.823A.823.823,0,0,0,24.823,32Z" transform="translate(-4.25 -5.135)" fill="#283d54"/>
    <path id="Trazado_890144" data-name="Trazado 890144" d="M40.7,33H30.823a.823.823,0,1,0,0,1.646H40.7A.823.823,0,1,0,40.7,33Z" transform="translate(-5.313 -5.313)" fill="#283d54"/>
    <path id="Trazado_890145" data-name="Trazado 890145" d="M14.823,48a.823.823,0,0,0-.823.823v1.646a.823.823,0,1,0,1.646,0V48.823A.823.823,0,0,0,14.823,48Z" transform="translate(-2.479 -7.969)" fill="#283d54"/>
    <path id="Trazado_890146" data-name="Trazado 890146" d="M19.823,48a.823.823,0,0,0-.823.823v1.646a.823.823,0,1,0,1.646,0V48.823A.823.823,0,0,0,19.823,48Z" transform="translate(-3.365 -7.969)" fill="#283d54"/>
    <path id="Trazado_890147" data-name="Trazado 890147" d="M24.823,48a.823.823,0,0,0-.823.823v1.646a.823.823,0,1,0,1.646,0V48.823A.823.823,0,0,0,24.823,48Z" transform="translate(-4.25 -7.969)" fill="#283d54"/>
    <path id="Trazado_890148" data-name="Trazado 890148" d="M40.7,49H30.823a.823.823,0,1,0,0,1.646H40.7A.823.823,0,1,0,40.7,49Z" transform="translate(-5.313 -8.146)" fill="#283d54"/>
    <path id="Trazado_890149" data-name="Trazado 890149" d="M79.865,35a.823.823,0,1,0,0,1.646.823.823,0,0,1,.823.823V40.76a.823.823,0,0,1-.823.823h-21.4a.823.823,0,0,1-.823-.823V37.469a.823.823,0,0,1,.823-.823h18.1a.823.823,0,1,0,0-1.646h-18.1A2.469,2.469,0,0,0,56,37.469V40.76a2.469,2.469,0,0,0,2.469,2.469h21.4a2.469,2.469,0,0,0,2.469-2.469V37.469A2.469,2.469,0,0,0,79.865,35Z" transform="translate(-9.917 -5.667)" fill="#283d54"/>
    <path id="Trazado_890150" data-name="Trazado 890150" d="M81.406,48H76.469A2.469,2.469,0,0,0,74,50.469v1.646a2.469,2.469,0,0,0,2.469,2.469h4.938a2.469,2.469,0,0,0,2.469-2.469V50.469A2.469,2.469,0,0,0,81.406,48Zm.823,4.115a.823.823,0,0,1-.823.823H76.469a.823.823,0,0,1-.823-.823V50.469a.823.823,0,0,1,.823-.823h4.938a.823.823,0,0,1,.823.823Z" transform="translate(-13.104 -7.969)" fill="#283d54"/>
    <path id="Trazado_890151" data-name="Trazado 890151" d="M65.406,48H60.469A2.469,2.469,0,0,0,58,50.469v1.646a2.469,2.469,0,0,0,2.469,2.469h4.938a2.469,2.469,0,0,0,2.469-2.469V50.469A2.469,2.469,0,0,0,65.406,48Zm.823,4.115a.823.823,0,0,1-.823.823H60.469a.823.823,0,0,1-.823-.823V50.469a.823.823,0,0,1,.823-.823h4.938a.823.823,0,0,1,.823.823Z" transform="translate(-10.271 -7.969)" fill="#283d54"/>
    <path id="Trazado_890152" data-name="Trazado 890152" d="M70.406,28.813A7.406,7.406,0,1,0,63,21.406,7.406,7.406,0,0,0,70.406,28.813Zm0-13.167a5.76,5.76,0,1,1-5.76,5.76,5.76,5.76,0,0,1,5.76-5.76Z" transform="translate(-11.156 -1.948)" fill="#283d54"/>
    <path id="Trazado_890153" data-name="Trazado 890153" d="M70.4,23.051l1.064-1.064,1.064,1.064A.823.823,0,1,0,73.7,21.887l-1.646-1.646a.823.823,0,0,0-1.164,0l-1.646,1.646A.823.823,0,1,0,70.4,23.051Z" transform="translate(-12.219 -3.01)" fill="#283d54"/>
  </g>
</svg>
