<svg xmlns="http://www.w3.org/2000/svg" xmlns:xlink="http://www.w3.org/1999/xlink" width="85" height="94" viewBox="0 0 85 94">
  <defs>
    <clipPath id="clip-path">
      <rect id="Rect치ngulo_405088" data-name="Rect치ngulo 405088" width="66.493" height="60.53" fill="none"/>
    </clipPath>
  </defs>
  <g id="_65" data-name="65" transform="translate(-180 -5359)">
    <rect id="Rect치ngulo_405087" data-name="Rect치ngulo 405087" width="85" height="94" rx="8" transform="translate(180 5359)" fill="#debefb"/>
    <g id="Grupo_1103975" data-name="Grupo 1103975" transform="translate(188.26 5376)">
      <g id="Grupo_1103974" data-name="Grupo 1103974" clip-path="url(#clip-path)">
        <path id="Trazado_890046" data-name="Trazado 890046" d="M82.781,103.073H76.369v-.036l-8.786.036a1.189,1.189,0,0,0-1.189,1.186v10.4a1.189,1.189,0,0,0,1.189,1.186h15.2a1.184,1.184,0,0,0,1.186-1.186v-10.4a1.184,1.184,0,0,0-1.186-1.186" transform="translate(-41.458 -64.339)" fill="#f0c518"/>
        <path id="Trazado_890047" data-name="Trazado 890047" d="M145.382,123.939h-6.412V123.9l-8.786.037A1.184,1.184,0,0,0,129,125.125v10.4a1.191,1.191,0,0,0,.347.839,1.2,1.2,0,0,0,.839.347h15.2a1.184,1.184,0,0,0,1.186-1.186v-10.4a1.184,1.184,0,0,0-1.186-1.186" transform="translate(-80.55 -77.368)" fill="#f0c518"/>
        <path id="Trazado_890048" data-name="Trazado 890048" d="M19.551,110.026H13.142v-.039l-8.788.039a1.184,1.184,0,0,0-1.186,1.187v10.4a1.189,1.189,0,0,0,1.186,1.19h15.2a1.194,1.194,0,0,0,1.189-1.19v-10.4a1.189,1.189,0,0,0-1.189-1.187" transform="translate(-1.978 -68.679)" fill="#f0c518"/>
        <path id="Trazado_890049" data-name="Trazado 890049" d="M125.789,159.318h0v0Z" transform="translate(-78.547 -99.481)" fill="#34456b"/>
        <path id="Trazado_890050" data-name="Trazado 890050" d="M125.789,122.687" transform="translate(-78.547 -76.61)" fill="#34456b"/>
        <path id="Trazado_890051" data-name="Trazado 890051" d="M175.2,159.315h0v0Z" transform="translate(-109.4 -99.481)" fill="#34456b"/>
        <path id="Trazado_890052" data-name="Trazado 890052" d="M64.117,47.757h0v10.4l0,0h-15.2v-10.4h6.41a1.349,1.349,0,0,0,.186-.036l8.6.036ZM41.32,39.92l0,0V50.318h-15.2V39.92h0l8.6-.036a1.236,1.236,0,0,0,.183.036ZM17.571,42.534h0v10.4H2.375v-10.4h.006l8.6-.037a1.343,1.343,0,0,0,.183.037Zm46.549,2.85h0l-7.6-.033V35.385A1.194,1.194,0,0,0,55.331,34.2H44.648V26.113l6.6.009h0a2.649,2.649,0,0,0,2.653-2.653V2.652A2.649,2.649,0,0,0,51.255,0H34.436a1.188,1.188,0,1,0,0,2.376H51.255a.269.269,0,0,1,.277.276V23.469a.27.27,0,0,1-.277.277l-7.793-.012a.357.357,0,0,0-.064.015H34.971a.4.4,0,0,0-.061-.015l-1.183,0,0,0a.012.012,0,0,0-.006,0l-11.809.012a.39.39,0,0,0-.061-.015l-5.658.012a.27.27,0,0,1-.277-.277V2.652a.269.269,0,0,1,.277-.276h8.746a1.188,1.188,0,1,0,0-2.376H16.19a2.649,2.649,0,0,0-2.653,2.652V23.469a2.649,2.649,0,0,0,2.653,2.653h0l4.469-.009v7.134h-9.5a1.184,1.184,0,0,0-1.186,1.186v5.695l-7.6.03h.006A2.377,2.377,0,0,0,0,42.534v10.4a2.378,2.378,0,0,0,2.375,2.376h15.2a2.379,2.379,0,0,0,2.376-2.376v-10.4a2.378,2.378,0,0,0-2.376-2.376H12.351V35.622h8.311a2.378,2.378,0,0,0,2.376-2.376V26.122l9.5-.009v11.4l-6.415.027h.006a2.379,2.379,0,0,0-2.376,2.376v10.4a2.38,2.38,0,0,0,2.376,2.376h15.2A2.374,2.374,0,0,0,43.7,50.318V39.92a2.373,2.373,0,0,0-2.373-2.376H35.1a1.353,1.353,0,0,0-.186-.036V26.122h7.362V34.2a2.379,2.379,0,0,0,2.376,2.376h9.5v8.813H48.922a2.373,2.373,0,0,0-2.375,2.373v10.4a2.373,2.373,0,0,0,2.375,2.373h15.2a2.374,2.374,0,0,0,2.373-2.373v-10.4a2.368,2.368,0,0,0-2.373-2.373" fill="#34456b"/>
        <path id="Trazado_890053" data-name="Trazado 890053" d="M175.2,122.687" transform="translate(-109.4 -76.61)" fill="#34456b"/>
        <path id="Trazado_890054" data-name="Trazado 890054" d="M65.082,101.822h0Z" transform="translate(-40.639 -63.581)" fill="#34456b"/>
        <path id="Trazado_890055" data-name="Trazado 890055" d="M65.085,138.452v0h0Z" transform="translate(-40.639 -86.452)" fill="#34456b"/>
        <path id="Trazado_890056" data-name="Trazado 890056" d="M114.494,138.449h0a0,0,0,0,1,0,0Z" transform="translate(-71.492 -86.452)" fill="#34456b"/>
        <path id="Trazado_890057" data-name="Trazado 890057" d="M114.49,101.822h0Z" transform="translate(-71.491 -63.581)" fill="#34456b"/>
        <path id="Trazado_890058" data-name="Trazado 890058" d="M1.854,108.78" transform="translate(-1.158 -67.926)" fill="#34456b"/>
        <path id="Trazado_890059" data-name="Trazado 890059" d="M51.264,108.78" transform="translate(-32.011 -67.926)" fill="#34456b"/>
        <path id="Trazado_890060" data-name="Trazado 890060" d="M1.854,145.407" transform="translate(-1.158 -90.797)" fill="#34456b"/>
        <path id="Trazado_890061" data-name="Trazado 890061" d="M51.264,145.407" transform="translate(-32.011 -90.797)" fill="#34456b"/>
      </g>
    </g>
  </g>
</svg>
