<svg xmlns="http://www.w3.org/2000/svg" xmlns:xlink="http://www.w3.org/1999/xlink" width="85" height="94" viewBox="0 0 85 94">
  <defs>
    <clipPath id="clip-path">
      <rect id="Rect치ngulo_405089" data-name="Rect치ngulo 405089" width="43.967" height="59.313" fill="none"/>
    </clipPath>
  </defs>
  <g id="_66" data-name="66" transform="translate(-1335 -5534)">
    <g id="_66-2" data-name="66" transform="translate(1155 175)">
      <rect id="Rect치ngulo_405087" data-name="Rect치ngulo 405087" width="85" height="94" rx="8" transform="translate(180 5359)" fill="#debefb"/>
    </g>
    <g id="Grupo_1103979" data-name="Grupo 1103979" transform="translate(1359.787 5551.873)">
      <g id="Grupo_1103978" data-name="Grupo 1103978" clip-path="url(#clip-path)">
        <path id="Trazado_890062" data-name="Trazado 890062" d="M77.3,21.86H93.849L74.538,3.273V19.094A2.765,2.765,0,0,0,77.3,21.86" transform="translate(-50.919 -2.236)" fill="#f0c518"/>
        <path id="Trazado_890063" data-name="Trazado 890063" d="M10.3,44.976h0l4.175,6.314a1.036,1.036,0,0,0,1.729-1.144l-4.173-6.313a.329.329,0,0,1-.05-.176.325.325,0,0,1,.05-.174v0l4.173-6.509a1.038,1.038,0,1,0-1.747-1.12l-4.173,6.51h0a2.413,2.413,0,0,0-.375,1.3,2.386,2.386,0,0,0,.391,1.319" transform="translate(-6.772 -24.166)" fill="#34456b"/>
        <path id="Trazado_890064" data-name="Trazado 890064" d="M42.183,23.547l-4.173,6.311A1.038,1.038,0,0,0,39.742,31l4.17-6.313h0a2.423,2.423,0,0,0,.019-2.61v0l-4.175-6.51a1.036,1.036,0,0,0-1.745,1.119l4.17,6.507a.339.339,0,0,1,0,.356" transform="translate(-25.849 -10.307)" fill="#34456b"/>
        <path id="Trazado_890065" data-name="Trazado 890065" d="M2.582,2.581a1.715,1.715,0,0,1,1.223-.506H22.579V16.859a3.807,3.807,0,0,0,3.806,3.8H41.892V31.938H2.075V3.8a1.711,1.711,0,0,1,.508-1.223m22.071.894,15.7,15.114H26.385a1.732,1.732,0,0,1-1.731-1.73ZM41.387,56.732a1.715,1.715,0,0,1-1.223.506H3.806a1.732,1.732,0,0,1-1.731-1.73V52.676H41.892v2.832a1.72,1.72,0,0,1-.506,1.223M3.806,59.313H40.164a3.8,3.8,0,0,0,3.8-3.8V45.625a1.037,1.037,0,0,0-2.074,0V50.6H2.075V34.012H41.892v.6s0,.007,0,.011,0,.007,0,.011v2.7a1.037,1.037,0,1,0,2.074,0V19.7a1.186,1.186,0,0,0-.032-.169,1.084,1.084,0,0,0-.048-.228c-.005-.012-.01-.02-.016-.032a.968.968,0,0,0-.223-.4L24.425.375a1.008,1.008,0,0,0-.569-.331.777.777,0,0,0-.1-.022A1.027,1.027,0,0,0,23.643,0H3.806A3.8,3.8,0,0,0,0,3.8V50.809c0,.016.011.029.011.045S0,50.884,0,50.9v4.61a3.8,3.8,0,0,0,3.806,3.8" fill="#34456b"/>
        <path id="Trazado_890066" data-name="Trazado 890066" d="M94.82,114.77a.949.949,0,0,0-1.069,1.078V125.3a1.062,1.062,0,0,0,.3.767,1.024,1.024,0,0,0,.771.311h4.213a1.072,1.072,0,0,0,.777-.309,1.008,1.008,0,0,0,.322-.762,1.089,1.089,0,0,0-1.1-1.1H95.908v-8.336a.967.967,0,0,0-1.088-1.1" transform="translate(-64.044 -78.403)" fill="#34456b"/>
        <path id="Trazado_890067" data-name="Trazado 890067" d="M64.611,126.38q1.089,0,1.088-1.134v-9.178c0-.866-.362-1.3-1.08-1.3a1.34,1.34,0,0,0-1.375.767l-3.186,7.075-3.186-7.038a1.21,1.21,0,0,0-1.154-.8,1.124,1.124,0,0,0-1.263,1.281v9.2q0,1.135,1.088,1.134c.713,0,1.072-.377,1.072-1.134v-5.137l2.5,5.595a.975.975,0,0,0,1.457.521,1.021,1.021,0,0,0,.4-.5l2.572-5.686v5.21q0,1.135,1.069,1.134" transform="translate(-37.199 -78.403)" fill="#34456b"/>
        <path id="Trazado_890068" data-name="Trazado 890068" d="M28.033,125.319a.98.98,0,0,0,.33.759,1.107,1.107,0,0,0,1.755-.32l1.606-3.181,1.59,3.181a1.118,1.118,0,0,0,1.766.32,1,1,0,0,0,.319-.759,1.041,1.041,0,0,0-.037-.319,2.113,2.113,0,0,0-.09-.247l-2.322-4.589,1.992-3.858c.037-.1.069-.182.09-.255a.748.748,0,0,0,.037-.257.9.9,0,0,0-.346-.759,1.248,1.248,0,0,0-.769-.265,1.227,1.227,0,0,0-.54.128.981.981,0,0,0-.431.457l-1.261,2.487-1.3-2.487A1.108,1.108,0,0,0,30,114.9a1.086,1.086,0,0,0-.5-.128,1.276,1.276,0,0,0-.777.265.884.884,0,0,0-.356.759,1.113,1.113,0,0,0,.109.512l2.011,3.949-2.34,4.516a1.166,1.166,0,0,0-.109.548" transform="translate(-19.15 -78.403)" fill="#34456b"/>
      </g>
    </g>
  </g>
</svg>
