<svg xmlns="http://www.w3.org/2000/svg" width="85" height="94" viewBox="0 0 85 94">
  <g id="_69" data-name="69" transform="translate(-1335 -10632)">
    <g id="Grupo_1103990" data-name="Grupo 1103990" transform="translate(1155 5273)">
      <rect id="Rectángulo_405087" data-name="Rectángulo 405087" width="85" height="94" rx="8" transform="translate(180 5359)" fill="#debefb"/>
    </g>
    <g id="_8.Sync" data-name="8.Sync" transform="translate(1348.328 10645.931)">
      <path id="Trazado_890083" data-name="Trazado 890083" d="M52.4,13.306v1.958H40V12H51.1A1.279,1.279,0,0,1,52.4,13.306Z" transform="translate(-13.887 -2.431)" fill="#e5eefd"/>
      <path id="Trazado_890084" data-name="Trazado 890084" d="M7.528,13.181V8.6a2.545,2.545,0,0,1,2.6-2.6H25.814a.633.633,0,0,1,.646.646v6.535H44.087A2.611,2.611,0,0,1,46.7,15.792L44.087,48.434a2.611,2.611,0,0,1-2.611,2.611H6.223a2.611,2.611,0,0,1-2.611-2.611l-1.1-13.729L1,15.792a2.611,2.611,0,0,1,2.611-2.611Z" transform="translate(-0.347 -0.348)" fill="#f0c518"/>
      <path id="Trazado_890085" data-name="Trazado 890085" d="M78.627,86l1.958,2.611H61L62.959,86Z" transform="translate(-21.177 -28.122)" fill="#c3d4ef"/>
      <path id="Trazado_890086" data-name="Trazado 890086" d="M78.627,70l1.958,2.611H61L62.959,70Z" transform="translate(-21.177 -22.567)" fill="#c3d4ef"/>
      <path id="Trazado_890087" data-name="Trazado 890087" d="M78.627,54l1.958,2.611H61L62.959,54Z" transform="translate(-21.177 -17.012)" fill="#c3d4ef"/>
      <path id="Trazado_890088" data-name="Trazado 890088" d="M81.808,75.958v3.917a1.958,1.958,0,0,1-1.959,1.958H58.959A1.958,1.958,0,0,1,57,79.876V75.958A1.959,1.959,0,0,1,58.959,74H79.849A1.959,1.959,0,0,1,81.808,75.958Z" transform="translate(-19.789 -23.956)" fill="#e5eefd"/>
      <path id="Trazado_890089" data-name="Trazado 890089" d="M81.808,59.959v3.917a1.958,1.958,0,0,1-1.959,1.958H58.959A1.958,1.958,0,0,1,57,63.876V59.959A1.959,1.959,0,0,1,58.959,58H79.849A1.959,1.959,0,0,1,81.808,59.959Z" transform="translate(-19.789 -18.401)" fill="#e5eefd"/>
      <path id="Trazado_890090" data-name="Trazado 890090" d="M81.808,43.958v3.917a1.959,1.959,0,0,1-1.959,1.958H58.959A1.959,1.959,0,0,1,57,47.876V43.958A1.959,1.959,0,0,1,58.959,42H79.849A1.959,1.959,0,0,1,81.808,43.958Z" transform="translate(-19.789 -12.846)" fill="#e5eefd"/>
      <circle id="Elipse_11841" data-name="Elipse 11841" cx="11" cy="11" r="11" transform="translate(9.671 20.139)" fill="#e5eefd"/>
      <path id="Trazado_890091" data-name="Trazado 890091" d="M23.653,6.306l9.793.012v6.516a.653.653,0,0,0,.653.653h9.14a.653.653,0,0,0,0-1.306H34.751V10.223H45.188a.6.6,0,0,1,.661.653v1.958a.653.653,0,0,0,.653.653h5.223a1.954,1.954,0,0,1,1.958,1.906l-.892,11.174a.653.653,0,0,0,.6.7h.053a.653.653,0,0,0,.653-.6l.893-11.224a3.268,3.268,0,0,0-3.264-3.264h-4.57V10.875A1.9,1.9,0,0,0,45.2,8.917H34.751V6.3a1.272,1.272,0,0,0-1.3-1.3h-9.8a.653.653,0,1,0,0,1.306Z" transform="translate(-7.985 -0.001)" fill="#283d54"/>
      <path id="Trazado_890092" data-name="Trazado 890092" d="M60.061,37.64a2.611,2.611,0,0,0,2.611-2.611V31.112A2.611,2.611,0,0,0,60.061,28.5H39.17a2.611,2.611,0,0,0-2.611,2.611v3.917A2.611,2.611,0,0,0,39.17,37.64h1.306L39.5,38.946H39.17a2.611,2.611,0,0,0-2.611,2.611v3.917a2.611,2.611,0,0,0,2.611,2.611h1.306L39.5,49.391H39.17a2.589,2.589,0,0,0-1.709.653H5.875a1.975,1.975,0,0,1-1.958-2.011L1.306,15.444a1.959,1.959,0,0,1,1.959-1.958H17.626a.653.653,0,0,0,0-1.306H7.834V8.25A1.857,1.857,0,0,1,9.779,6.3h1.972a.653.653,0,0,0,0-1.306H9.779A3.134,3.134,0,0,0,6.528,8.25v3.93H3.264A3.277,3.277,0,0,0,0,15.5L2.611,48.086A3.268,3.268,0,0,0,5.875,51.35H36.651a2.572,2.572,0,0,0-.093.653V55.92a2.611,2.611,0,0,0,2.611,2.611h1.306L39.5,59.837H37.211a.653.653,0,1,0,0,1.306H53.532a.653.653,0,1,0,0-1.306h-12.4l.979-1.306H57.123l.979,1.306H56.8a.653.653,0,0,0,0,1.306h5.223a.653.653,0,1,0,0-1.306H59.734l-.979-1.306h1.306a2.611,2.611,0,0,0,2.611-2.611V52a2.611,2.611,0,0,0-2.611-2.611h-.326l-.979-1.306h1.306a2.611,2.611,0,0,0,2.611-2.611V41.557a2.611,2.611,0,0,0-2.611-2.611h-.326l-.979-1.306Zm-22.2-2.611V31.112a1.306,1.306,0,0,1,1.306-1.306H60.061a1.306,1.306,0,0,1,1.306,1.306v3.917a1.306,1.306,0,0,1-1.306,1.306H39.17A1.306,1.306,0,0,1,37.864,35.029ZM61.366,52V55.92a1.306,1.306,0,0,1-1.306,1.306H39.17a1.306,1.306,0,0,1-1.306-1.306V52a1.3,1.3,0,0,1,.2-.694.638.638,0,0,0,.408-.408,1.3,1.3,0,0,1,.694-.2H60.061A1.306,1.306,0,0,1,61.366,52ZM58.1,49.391H41.128l.979-1.306H57.123Zm3.264-7.834v3.917a1.306,1.306,0,0,1-1.306,1.306H39.17a1.306,1.306,0,0,1-1.306-1.306V41.557a1.306,1.306,0,0,1,1.306-1.306H60.061A1.306,1.306,0,0,1,61.366,41.557ZM58.1,38.946H41.128l.979-1.306H57.123Z" transform="translate(0)" fill="#283d54"/>
      <path id="Trazado_890093" data-name="Trazado 890093" d="M61.653,46a.653.653,0,0,0-.653.653v1.306a.653.653,0,0,0,1.306,0V46.653A.653.653,0,0,0,61.653,46Z" transform="translate(-21.177 -14.235)" fill="#283d54"/>
      <path id="Trazado_890094" data-name="Trazado 890094" d="M66.653,46a.653.653,0,0,0-.653.653v1.306a.653.653,0,0,0,1.306,0V46.653A.653.653,0,0,0,66.653,46Z" transform="translate(-22.913 -14.235)" fill="#283d54"/>
      <path id="Trazado_890095" data-name="Trazado 890095" d="M71.653,46a.653.653,0,0,0-.653.653v1.306a.653.653,0,0,0,1.306,0V46.653A.653.653,0,0,0,71.653,46Z" transform="translate(-24.649 -14.235)" fill="#283d54"/>
      <path id="Trazado_890096" data-name="Trazado 890096" d="M85.487,47H77.653a.653.653,0,0,0,0,1.306h7.834a.653.653,0,0,0,0-1.306Z" transform="translate(-26.732 -14.582)" fill="#283d54"/>
      <path id="Trazado_890097" data-name="Trazado 890097" d="M61.653,62a.653.653,0,0,0-.653.653v1.306a.653.653,0,1,0,1.306,0V62.653A.653.653,0,0,0,61.653,62Z" transform="translate(-21.177 -19.79)" fill="#283d54"/>
      <path id="Trazado_890098" data-name="Trazado 890098" d="M66.653,62a.653.653,0,0,0-.653.653v1.306a.653.653,0,1,0,1.306,0V62.653A.653.653,0,0,0,66.653,62Z" transform="translate(-22.913 -19.79)" fill="#283d54"/>
      <path id="Trazado_890099" data-name="Trazado 890099" d="M71.653,62a.653.653,0,0,0-.653.653v1.306a.653.653,0,1,0,1.306,0V62.653A.653.653,0,0,0,71.653,62Z" transform="translate(-24.649 -19.79)" fill="#283d54"/>
      <path id="Trazado_890100" data-name="Trazado 890100" d="M85.487,63H77.653a.653.653,0,0,0,0,1.306h7.834a.653.653,0,0,0,0-1.306Z" transform="translate(-26.732 -20.137)" fill="#283d54"/>
      <path id="Trazado_890101" data-name="Trazado 890101" d="M61.653,78a.653.653,0,0,0-.653.653v1.306a.653.653,0,0,0,1.306,0V78.653A.653.653,0,0,0,61.653,78Z" transform="translate(-21.177 -25.344)" fill="#283d54"/>
      <path id="Trazado_890102" data-name="Trazado 890102" d="M66.653,78a.653.653,0,0,0-.653.653v1.306a.653.653,0,0,0,1.306,0V78.653A.653.653,0,0,0,66.653,78Z" transform="translate(-22.913 -25.344)" fill="#283d54"/>
      <path id="Trazado_890103" data-name="Trazado 890103" d="M71.653,78a.653.653,0,0,0-.653.653v1.306a.653.653,0,0,0,1.306,0V78.653A.653.653,0,0,0,71.653,78Z" transform="translate(-24.649 -25.344)" fill="#283d54"/>
      <path id="Trazado_890104" data-name="Trazado 890104" d="M85.487,79H77.653a.653.653,0,0,0,0,1.306h7.834a.653.653,0,0,0,0-1.306Z" transform="translate(-26.732 -25.692)" fill="#283d54"/>
      <path id="Trazado_890105" data-name="Trazado 890105" d="M14,38.751A11.751,11.751,0,1,0,25.751,27,11.751,11.751,0,0,0,14,38.751Zm22.2,0A10.445,10.445,0,1,1,25.751,28.306,10.445,10.445,0,0,1,36.2,38.751Z" transform="translate(-4.86 -7.639)" fill="#283d54"/>
      <path id="Trazado_890106" data-name="Trazado 890106" d="M31.653,36a.653.653,0,1,0,0,1.306,4.252,4.252,0,0,1,3.3,1.268,5.748,5.748,0,0,1,1.26,3.383l-.936-.624a.653.653,0,1,0-.725,1.086l1.958,1.306c.01.007.023.009.034.016s.036.017.055.026a.634.634,0,0,0,.176.054c.012,0,.022.009.034.01h.056l.008,0,.052-.01a.653.653,0,0,0,.189-.037c.02-.008.037-.025.056-.035a.675.675,0,0,0,.151-.1s.01-.005.014-.009L39.3,41.68a.653.653,0,1,0-.923-.923l-.871.872A6.894,6.894,0,0,0,35.928,37.7,5.5,5.5,0,0,0,31.653,36Z" transform="translate(-10.762 -10.759)" fill="#283d54"/>
      <path id="Trazado_890107" data-name="Trazado 890107" d="M27.834,48.53a4.252,4.252,0,0,1-3.3-1.268,5.748,5.748,0,0,1-1.26-3.383l.936.624a.653.653,0,1,0,.725-1.086l-1.958-1.306c-.01-.007-.021-.008-.031-.014a.626.626,0,0,0-.077-.034.637.637,0,0,0-.155-.048c-.012,0-.022-.009-.035-.01s-.033.005-.05,0a.616.616,0,0,0-.151.014.557.557,0,0,0-.1.027.588.588,0,0,0-.107.057.625.625,0,0,0-.1.065c-.007.007-.016.009-.024.016L20.191,44.15a.653.653,0,1,0,.923.923l.871-.872a6.894,6.894,0,0,0,1.573,3.931,5.5,5.5,0,0,0,4.275,1.7.653.653,0,0,0,0-1.306Z" transform="translate(-6.943 -12.848)" fill="#283d54"/>
    </g>
  </g>
</svg>
