<svg xmlns="http://www.w3.org/2000/svg" width="104" height="104" viewBox="0 0 104 104">
  <g id="_79" data-name="79" transform="translate(-317 -941)">
    <circle id="Elipse_11846" data-name="Elipse 11846" cx="52" cy="52" r="52" transform="translate(317 941)" fill="#f0c518"/>
    <g id="_14.Web_Server" data-name="14.Web Server" transform="translate(337 960)">
      <path id="Trazado_890213" data-name="Trazado 890213" d="M63.58,6.663V44.61H1V6.663A2.663,2.663,0,0,1,3.663,4H60.917A2.663,2.663,0,0,1,63.58,6.663Z" transform="translate(-0.334 -0.334)" fill="#96c0ff"/>
      <path id="Trazado_890214" data-name="Trazado 890214" d="M48.307,80,54.3,87.989H29L34.992,80Z" transform="translate(-9.693 -25.738)" fill="#fff"/>
      <path id="Trazado_890215" data-name="Trazado 890215" d="M63.58,65v7.323a2.663,2.663,0,0,1-2.663,2.663H3.663A2.663,2.663,0,0,1,1,72.323V65Z" transform="translate(-0.334 -20.724)" fill="#ebf4ff"/>
      <path id="Trazado_890216" data-name="Trazado 890216" d="M50.312,80H37l-2,2.663H52.309Z" transform="translate(-11.699 -25.738)" fill="#c3d4ef"/>
      <ellipse id="Elipse_11844" data-name="Elipse 11844" cx="16.5" cy="17" rx="16.5" ry="17" transform="translate(3 5.917)" fill="#b8d4ff"/>
      <path id="Trazado_890217" data-name="Trazado 890217" d="M31.975,56l2,2.663H14L16,56Z" transform="translate(-4.68 -17.716)" fill="#c3d4ef"/>
      <path id="Trazado_890218" data-name="Trazado 890218" d="M31.975,40l2,2.663H14L16,40Z" transform="translate(-4.68 -12.367)" fill="#c3d4ef"/>
      <path id="Trazado_890219" data-name="Trazado 890219" d="M31.975,24l2,2.663H14L16,24Z" transform="translate(-4.68 -7.019)" fill="#c3d4ef"/>
      <path id="Trazado_890220" data-name="Trazado 890220" d="M35.3,46v3.994a2,2,0,0,1-2,2H12a2,2,0,0,1-2-2V46a2,2,0,0,1,2-2H33.3A2,2,0,0,1,35.3,46Z" transform="translate(-3.343 -13.705)" fill="#e5eefd"/>
      <path id="Trazado_890221" data-name="Trazado 890221" d="M35.3,30v3.994a2,2,0,0,1-2,2H12a2,2,0,0,1-2-2V30a2,2,0,0,1,2-2H33.3A2,2,0,0,1,35.3,30Z" transform="translate(-3.343 -8.356)" fill="#e5eefd"/>
      <path id="Trazado_890222" data-name="Trazado 890222" d="M35.3,14v3.994a2,2,0,0,1-2,2H12a2,2,0,0,1-2-2V14a2,2,0,0,1,2-2H33.3A2,2,0,0,1,35.3,14Z" transform="translate(-3.343 -3.008)" fill="#e5eefd"/>
      <ellipse id="Elipse_11845" data-name="Elipse 11845" cx="11" cy="11.5" rx="11" ry="11.5" transform="translate(37 12.917)" fill="#fc9a9a"/>
      <path id="Trazado_890223" data-name="Trazado 890223" d="M60.583,3H3.329A3.333,3.333,0,0,0,0,6.329V51.6a3.333,3.333,0,0,0,3.329,3.329.666.666,0,0,0,0-1.331,2,2,0,0,1-2-2V44.942H62.58V51.6a2,2,0,0,1-2,2H6.657a.666.666,0,1,0,0,1.331H23.967l-4.993,6.657h-2.33a.666.666,0,1,0,0,1.331H47.268a.666.666,0,0,0,0-1.331h-2.33l-4.993-6.657H60.583A3.333,3.333,0,0,0,63.911,51.6V6.329A3.333,3.333,0,0,0,60.583,3ZM43.273,61.585H20.638l4.993-6.657H38.28ZM1.331,43.61V6.329a2,2,0,0,1,2-2H60.583a2,2,0,0,1,2,2V43.61Z" fill="#283d54"/>
      <path id="Trazado_890224" data-name="Trazado 890224" d="M48.329,72.331a.666.666,0,0,0,0-1.331H45.666a.666.666,0,1,0,0,1.331Z" transform="translate(-15.042 -22.729)" fill="#283d54"/>
      <path id="Trazado_890225" data-name="Trazado 890225" d="M32.967,11H14.992a.666.666,0,0,0,0,1.331H32.967A1.331,1.331,0,0,1,34.3,13.663v3.994a1.331,1.331,0,0,1-1.331,1.331h-21.3a1.331,1.331,0,0,1-1.331-1.331V13.663a1.331,1.331,0,0,1,1.331-1.331.666.666,0,0,0,0-1.331A2.663,2.663,0,0,0,9,13.663v3.994a2.663,2.663,0,0,0,2.663,2.663h1.331l-1,1.331h-.333A2.663,2.663,0,0,0,9,24.315v3.994a2.663,2.663,0,0,0,2.663,2.663h1.331L12,32.3h-.333A2.663,2.663,0,0,0,9,34.967v3.994a2.663,2.663,0,0,0,2.663,2.663h1.331l-1,1.331H9.666a.666.666,0,1,0,0,1.331h25.3a.666.666,0,1,0,0-1.331h-2.33l-1-1.331h1.331a2.663,2.663,0,0,0,2.663-2.663V34.967A2.663,2.663,0,0,0,32.967,32.3h-.333l-1-1.331h1.331a2.663,2.663,0,0,0,2.663-2.663V24.315a2.663,2.663,0,0,0-2.663-2.663h-.333l-1-1.331h1.331a2.663,2.663,0,0,0,2.663-2.663V13.663A2.663,2.663,0,0,0,32.967,11Zm-2,31.956H13.66l1-1.331H29.971ZM34.3,34.967v3.994a1.331,1.331,0,0,1-1.331,1.331h-21.3a1.331,1.331,0,0,1-1.331-1.331V34.967a1.331,1.331,0,0,1,1.331-1.331h21.3A1.331,1.331,0,0,1,34.3,34.967ZM30.97,32.3H13.66l1-1.331H29.971ZM34.3,24.315v3.994a1.331,1.331,0,0,1-1.331,1.331h-21.3a1.331,1.331,0,0,1-1.331-1.331V24.315a1.331,1.331,0,0,1,1.331-1.331h21.3A1.331,1.331,0,0,1,34.3,24.315ZM30.97,21.652H13.66l1-1.331H29.971Z" transform="translate(-3.008 -2.674)" fill="#283d54"/>
      <path id="Trazado_890226" data-name="Trazado 890226" d="M14,18a.666.666,0,1,0,1.331,0V16.666a.666.666,0,1,0-1.331,0Z" transform="translate(-4.68 -4.345)" fill="#283d54"/>
      <path id="Trazado_890227" data-name="Trazado 890227" d="M20.331,18V16.666a.666.666,0,1,0-1.331,0V18a.666.666,0,1,0,1.331,0Z" transform="translate(-6.351 -4.345)" fill="#283d54"/>
      <path id="Trazado_890228" data-name="Trazado 890228" d="M25.331,18V16.666a.666.666,0,1,0-1.331,0V18a.666.666,0,1,0,1.331,0Z" transform="translate(-8.022 -4.345)" fill="#283d54"/>
      <path id="Trazado_890229" data-name="Trazado 890229" d="M38.655,18.331a.666.666,0,1,0,0-1.331H30.666a.666.666,0,1,0,0,1.331Z" transform="translate(-10.028 -4.68)" fill="#283d54"/>
      <path id="Trazado_890230" data-name="Trazado 890230" d="M14.666,32a.666.666,0,0,0-.666.666V34a.666.666,0,1,0,1.331,0V32.666A.666.666,0,0,0,14.666,32Z" transform="translate(-4.68 -9.693)" fill="#283d54"/>
      <path id="Trazado_890231" data-name="Trazado 890231" d="M19.666,32a.666.666,0,0,0-.666.666V34a.666.666,0,1,0,1.331,0V32.666A.666.666,0,0,0,19.666,32Z" transform="translate(-6.351 -9.693)" fill="#283d54"/>
      <path id="Trazado_890232" data-name="Trazado 890232" d="M24.666,32a.666.666,0,0,0-.666.666V34a.666.666,0,1,0,1.331,0V32.666A.666.666,0,0,0,24.666,32Z" transform="translate(-8.022 -9.693)" fill="#283d54"/>
      <path id="Trazado_890233" data-name="Trazado 890233" d="M38.655,33H30.666a.666.666,0,0,0,0,1.331h7.989a.666.666,0,0,0,0-1.331Z" transform="translate(-10.028 -10.028)" fill="#283d54"/>
      <path id="Trazado_890234" data-name="Trazado 890234" d="M14.666,48a.666.666,0,0,0-.666.666V50a.666.666,0,1,0,1.331,0V48.666A.666.666,0,0,0,14.666,48Z" transform="translate(-4.68 -15.042)" fill="#283d54"/>
      <path id="Trazado_890235" data-name="Trazado 890235" d="M19.666,48a.666.666,0,0,0-.666.666V50a.666.666,0,1,0,1.331,0V48.666A.666.666,0,0,0,19.666,48Z" transform="translate(-6.351 -15.042)" fill="#283d54"/>
      <path id="Trazado_890236" data-name="Trazado 890236" d="M24.666,48a.666.666,0,0,0-.666.666V50a.666.666,0,1,0,1.331,0V48.666A.666.666,0,0,0,24.666,48Z" transform="translate(-8.022 -15.042)" fill="#283d54"/>
      <path id="Trazado_890237" data-name="Trazado 890237" d="M38.655,49H30.666a.666.666,0,1,0,0,1.331h7.989a.666.666,0,1,0,0-1.331Z" transform="translate(-10.028 -15.376)" fill="#283d54"/>
      <path id="Trazado_890238" data-name="Trazado 890238" d="M65.983,17A11.983,11.983,0,1,0,77.967,28.983,11.983,11.983,0,0,0,65.983,17Zm0,22.635A10.652,10.652,0,1,1,76.635,28.983,10.652,10.652,0,0,1,65.983,39.635Z" transform="translate(-18.05 -4.68)" fill="#283d54"/>
      <path id="Trazado_890239" data-name="Trazado 890239" d="M78.518,30.851l-.889.889a7.03,7.03,0,0,0-1.6-4.008A5.6,5.6,0,0,0,71.666,26a.666.666,0,0,0,0,1.331,4.335,4.335,0,0,1,3.368,1.293,5.859,5.859,0,0,1,1.285,3.45l-.955-.636a.666.666,0,1,0-.739,1.108l2,1.331c.011.007.023.009.035.016s.037.017.056.027a.666.666,0,0,0,.179.055c.013,0,.022.009.035.011h.058l.007,0c.023,0,.043-.011.067-.013a.7.7,0,0,0,.179-.035.686.686,0,0,0,.06-.037.666.666,0,0,0,.152-.1s.01-.005.014-.009l2-2a.666.666,0,1,0-.941-.941Z" transform="translate(-23.732 -7.684)" fill="#283d54"/>
      <path id="Trazado_890240" data-name="Trazado 890240" d="M67.989,38.659a4.335,4.335,0,0,1-3.368-1.293,5.859,5.859,0,0,1-1.285-3.45l.955.636a.666.666,0,0,0,.739-1.108l-2-1.331c-.01-.007-.022-.008-.032-.014a.749.749,0,0,0-.078-.035.685.685,0,0,0-.159-.049c-.013,0-.023-.009-.035-.011s-.034.005-.051,0a.647.647,0,0,0-.152.014.689.689,0,0,0-.106.029.657.657,0,0,0-.1.054.634.634,0,0,0-.107.075c-.006.005-.014.008-.02.014l-2,2a.666.666,0,1,0,.941.941l.889-.889a7.03,7.03,0,0,0,1.6,4.008,5.6,5.6,0,0,0,4.359,1.736.666.666,0,0,0,0-1.331Z" transform="translate(-20.055 -9.695)" fill="#283d54"/>
    </g>
  </g>
</svg>
