<svg xmlns="http://www.w3.org/2000/svg" width="104" height="104" viewBox="0 0 104 104">
  <g id="_80" data-name="80" transform="translate(-748 -941)">
    <circle id="Elipse_11847" data-name="Elipse 11847" cx="52" cy="52" r="52" transform="translate(748 941)" fill="#f0c518"/>
    <g id="_12.Network" data-name="12.Network" transform="translate(761.5 958)">
      <path id="Trazado_890154" data-name="Trazado 890154" d="M52.664,45l2.185,2.913H33L35.185,45Z" transform="translate(-5.706 -12.226)" fill="#c3d4ef"/>
      <path id="Trazado_890155" data-name="Trazado 890155" d="M52.664,29l2.185,2.913H33L35.185,29Z" transform="translate(-5.706 -7.879)" fill="#c3d4ef"/>
      <path id="Trazado_890156" data-name="Trazado 890156" d="M52.664,13l2.185,2.913H33L35.185,13Z" transform="translate(-5.706 -3.532)" fill="#c3d4ef"/>
      <path id="Trazado_890157" data-name="Trazado 890157" d="M56.675,35.185v4.37a2.185,2.185,0,0,1-2.185,2.185H31.185A2.185,2.185,0,0,1,29,39.555v-4.37A2.185,2.185,0,0,1,31.185,33H54.491A2.185,2.185,0,0,1,56.675,35.185Z" transform="translate(-4.619 -8.966)" fill="#e5eefd"/>
      <path id="Trazado_890158" data-name="Trazado 890158" d="M56.675,19.185v4.37a2.185,2.185,0,0,1-2.185,2.185H31.185A2.185,2.185,0,0,1,29,23.555v-4.37A2.185,2.185,0,0,1,31.185,17H54.491A2.185,2.185,0,0,1,56.675,19.185Z" transform="translate(-4.619 -4.619)" fill="#e5eefd"/>
      <path id="Trazado_890159" data-name="Trazado 890159" d="M56.675,3.185v4.37A2.185,2.185,0,0,1,54.491,9.74H31.185A2.185,2.185,0,0,1,29,7.555V3.185A2.185,2.185,0,0,1,31.185,1H54.491A2.185,2.185,0,0,1,56.675,3.185Z" transform="translate(-4.619 -0.272)" fill="#e5eefd"/>
      <path id="Trazado_890160" data-name="Trazado 890160" d="M19.555,85.185H21.74a.728.728,0,0,1,.728.728v5.1a.728.728,0,0,1-.728.728H13.728A.728.728,0,0,1,13,91.011v-5.1a.728.728,0,0,1,.728-.728l1.457-.728v-.728A.728.728,0,0,1,15.913,83h2.913a.728.728,0,0,1,.728.728Z" transform="translate(-0.272 -22.551)" fill="#96c0ff"/>
      <path id="Trazado_890161" data-name="Trazado 890161" d="M48.555,85.185H50.74a.728.728,0,0,1,.728.728v5.1a.728.728,0,0,1-.728.728H42.728A.728.728,0,0,1,42,91.011v-5.1a.728.728,0,0,1,.728-.728l1.457-.728v-.728A.728.728,0,0,1,44.913,83h2.913a.728.728,0,0,1,.728.728Z" transform="translate(-8.151 -22.551)" fill="#a9ebc8"/>
      <g id="_Group_" data-name="&lt;Group&gt;" transform="translate(12)">
        <path id="Trazado_890162" data-name="Trazado 890162" d="M76.555,85.185H78.74a.728.728,0,0,1,.728.728v5.1a.728.728,0,0,1-.728.728H70.728A.728.728,0,0,1,70,91.011v-5.1a.728.728,0,0,1,.728-.728l1.457-.728v-.728A.728.728,0,0,1,72.913,83h2.913a.728.728,0,0,1,.728.728Z" transform="translate(-27.758 -22.551)" fill="#96c0ff"/>
        <path id="Trazado_890163" data-name="Trazado 890163" d="M56.4,36.415a.728.728,0,1,0,0-1.457H53.855L52.762,33.5h1.457a2.913,2.913,0,0,0,2.913-2.913v-4.37a2.913,2.913,0,0,0-2.913-2.913h-.364l-1.092-1.457h1.457a2.913,2.913,0,0,0,2.913-2.913v-4.37a2.913,2.913,0,0,0-2.913-2.913h-.364L52.762,10.2h1.457a2.913,2.913,0,0,0,2.913-2.913V2.913A2.913,2.913,0,0,0,54.219,0H35.283a.728.728,0,0,0,0,1.457H54.219a1.457,1.457,0,0,1,1.457,1.457v4.37A1.457,1.457,0,0,1,54.219,8.74H30.913a1.457,1.457,0,0,1-1.457-1.457V2.913a1.457,1.457,0,0,1,1.457-1.457.728.728,0,1,0,0-1.457A2.913,2.913,0,0,0,28,2.913v4.37A2.913,2.913,0,0,0,30.913,10.2H32.37l-1.092,1.457h-.364A2.913,2.913,0,0,0,28,14.566v4.37a2.913,2.913,0,0,0,2.913,2.913H32.37l-1.092,1.457h-.364A2.913,2.913,0,0,0,28,26.219v4.37A2.913,2.913,0,0,0,30.913,33.5H32.37l-1.092,1.457H28.728a.728.728,0,1,0,0,1.457ZM34.191,10.2H50.942l1.092,1.457H33.1Zm-4.734,8.74v-4.37a1.457,1.457,0,0,1,1.457-1.457H54.219a1.457,1.457,0,0,1,1.457,1.457v4.37a1.457,1.457,0,0,1-1.457,1.457H30.913A1.457,1.457,0,0,1,29.457,18.936Zm4.734,2.913H50.942l1.092,1.457H33.1Zm-4.734,8.74v-4.37a1.457,1.457,0,0,1,1.457-1.457H54.219a1.457,1.457,0,0,1,1.457,1.457v4.37a1.457,1.457,0,0,1-1.457,1.457H30.913A1.457,1.457,0,0,1,29.457,30.589ZM34.191,33.5H50.942l1.092,1.457H33.1Z" transform="translate(-16.347)" fill="#283d54"/>
        <path id="Trazado_890164" data-name="Trazado 890164" d="M33,7.185a.728.728,0,0,0,1.457,0V5.728a.728.728,0,0,0-1.457,0Z" transform="translate(-17.706 -1.358)" fill="#283d54"/>
        <path id="Trazado_890165" data-name="Trazado 890165" d="M39.457,7.185V5.728a.728.728,0,0,0-1.457,0V7.185a.728.728,0,0,0,1.457,0Z" transform="translate(-19.064 -1.358)" fill="#283d54"/>
        <path id="Trazado_890166" data-name="Trazado 890166" d="M44.457,7.185V5.728a.728.728,0,0,0-1.457,0V7.185a.728.728,0,0,0,1.457,0Z" transform="translate(-20.423 -1.358)" fill="#283d54"/>
        <path id="Trazado_890167" data-name="Trazado 890167" d="M58.468,7.457a.728.728,0,0,0,0-1.457h-8.74a.728.728,0,1,0,0,1.457Z" transform="translate(-22.053 -1.63)" fill="#283d54"/>
        <path id="Trazado_890168" data-name="Trazado 890168" d="M33.728,21a.728.728,0,0,0-.728.728v1.457a.728.728,0,1,0,1.457,0V21.728A.728.728,0,0,0,33.728,21Z" transform="translate(-17.706 -5.706)" fill="#283d54"/>
        <path id="Trazado_890169" data-name="Trazado 890169" d="M38.728,21a.728.728,0,0,0-.728.728v1.457a.728.728,0,1,0,1.457,0V21.728A.728.728,0,0,0,38.728,21Z" transform="translate(-19.064 -5.706)" fill="#283d54"/>
        <path id="Trazado_890170" data-name="Trazado 890170" d="M43.728,21a.728.728,0,0,0-.728.728v1.457a.728.728,0,0,0,1.457,0V21.728A.728.728,0,0,0,43.728,21Z" transform="translate(-20.423 -5.706)" fill="#283d54"/>
        <path id="Trazado_890171" data-name="Trazado 890171" d="M58.468,22h-8.74a.728.728,0,1,0,0,1.457h8.74a.728.728,0,0,0,0-1.457Z" transform="translate(-22.053 -5.977)" fill="#283d54"/>
        <path id="Trazado_890172" data-name="Trazado 890172" d="M33.728,37a.728.728,0,0,0-.728.728v1.457a.728.728,0,0,0,1.457,0V37.728A.728.728,0,0,0,33.728,37Z" transform="translate(-17.706 -10.053)" fill="#283d54"/>
        <path id="Trazado_890173" data-name="Trazado 890173" d="M38.728,37a.728.728,0,0,0-.728.728v1.457a.728.728,0,0,0,1.457,0V37.728A.728.728,0,0,0,38.728,37Z" transform="translate(-19.064 -10.053)" fill="#283d54"/>
        <path id="Trazado_890174" data-name="Trazado 890174" d="M43.728,37a.728.728,0,0,0-.728.728v1.457a.728.728,0,0,0,1.457,0V37.728A.728.728,0,0,0,43.728,37Z" transform="translate(-20.423 -10.053)" fill="#283d54"/>
        <path id="Trazado_890175" data-name="Trazado 890175" d="M58.468,38h-8.74a.728.728,0,1,0,0,1.457h8.74a.728.728,0,1,0,0-1.457Z" transform="translate(-22.053 -10.325)" fill="#283d54"/>
        <path id="Trazado_890176" data-name="Trazado 890176" d="M18.728,73.838a.728.728,0,0,0,.728-.728V65.1A3.5,3.5,0,0,1,23.1,61.457.728.728,0,1,0,23.1,60,4.916,4.916,0,0,0,18,65.1v8.011A.728.728,0,0,0,18.728,73.838Z" transform="translate(-13.63 -16.302)" fill="#283d54"/>
        <path id="Trazado_890177" data-name="Trazado 890177" d="M42.838,58.34a2.744,2.744,0,0,0,2.185.943H59.589a3.533,3.533,0,0,1,3.642,3.642v8.011a.728.728,0,0,0,1.457,0V62.925a4.916,4.916,0,0,0-5.1-5.1H45.023a1.373,1.373,0,0,1-1.457-1.461V52.728a.728.728,0,0,0-1.457,0V56.37a1.371,1.371,0,0,1-1.457,1.457H29.728a.728.728,0,0,0,0,1.457H40.653A2.744,2.744,0,0,0,42.838,58.34Z" transform="translate(-16.619 -14.128)" fill="#283d54"/>
        <path id="Trazado_890178" data-name="Trazado 890178" d="M47,64.728V74.2a.728.728,0,1,0,1.457,0V64.728a.728.728,0,1,0-1.457,0Z" transform="translate(-21.509 -17.389)" fill="#283d54"/>
        <path id="Trazado_890179" data-name="Trazado 890179" d="M21.468,84.185H20.011v-.728A1.457,1.457,0,0,0,18.555,82H15.642a1.457,1.457,0,0,0-1.457,1.457v.278l-.927.464A1.457,1.457,0,0,0,12,85.642v5.1A1.457,1.457,0,0,0,13.457,92.2h8.011a1.457,1.457,0,0,0,1.457-1.457v-5.1A1.457,1.457,0,0,0,21.468,84.185Zm0,6.555H13.457v-5.1a.9.9,0,0,0,.323-.076l1.457-.728a.728.728,0,0,0,.4-.652v-.728h2.913v.728h-.728a.728.728,0,1,0,0,1.457h3.642Z" transform="translate(-12 -22.279)" fill="#283d54"/>
        <path id="Trazado_890180" data-name="Trazado 890180" d="M50.468,84.185H49.011v-.728A1.457,1.457,0,0,0,47.555,82H44.642a1.457,1.457,0,0,0-1.457,1.457v.278l-.927.464A1.457,1.457,0,0,0,41,85.642v5.1A1.457,1.457,0,0,0,42.457,92.2h8.011a1.457,1.457,0,0,0,1.457-1.457v-5.1A1.457,1.457,0,0,0,50.468,84.185Zm0,6.555H42.457v-5.1a.9.9,0,0,0,.323-.076l1.457-.728a.728.728,0,0,0,.4-.652v-.728h2.913v.728h-.728a.728.728,0,1,0,0,1.457h3.642Z" transform="translate(-19.879 -22.279)" fill="#283d54"/>
        <path id="Trazado_890181" data-name="Trazado 890181" d="M78.468,84.185H77.011v-.728A1.457,1.457,0,0,0,75.555,82H72.642a1.457,1.457,0,0,0-1.457,1.457v.278l-.927.464A1.457,1.457,0,0,0,69,85.642v5.1A1.457,1.457,0,0,0,70.457,92.2h8.011a1.457,1.457,0,0,0,1.457-1.457v-5.1A1.457,1.457,0,0,0,78.468,84.185Zm0,6.555H70.457v-5.1a.9.9,0,0,0,.323-.076l1.457-.728a.728.728,0,0,0,.4-.652v-.728h2.913v.728h-.728a.728.728,0,0,0,0,1.457h3.642Z" transform="translate(-27.487 -22.279)" fill="#283d54"/>
      </g>
    </g>
  </g>
</svg>
