<svg xmlns="http://www.w3.org/2000/svg" width="104" height="104" viewBox="0 0 104 104">
  <g id="_81" data-name="81" transform="translate(-1168 -941)">
    <circle id="Elipse_11848" data-name="Elipse 11848" cx="52" cy="52" r="52" transform="translate(1168 941)" fill="#f0c518"/>
    <g id="_11.Web_Hosting_and_FTP" data-name="11.Web Hosting and FTP" transform="translate(1187 960)">
      <g id="_Group_" data-name="&lt;Group&gt;" transform="translate(0.681 4.769)">
        <path id="Trazado_890182" data-name="Trazado 890182" d="M65.047,9.725V48.563H1V9.725A2.725,2.725,0,0,1,3.725,7h58.6A2.725,2.725,0,0,1,65.047,9.725Z" transform="translate(-1 -7)" fill="#96c0ff"/>
      </g>
      <rect id="Rectángulo_405123" data-name="Rectángulo 405123" width="2.602" height="41.635" transform="translate(4.337 4.337)" fill="#b8d4ff"/>
      <rect id="Rectángulo_405124" data-name="Rectángulo 405124" width="1.735" height="41.635" transform="translate(58.983 4.337)" fill="#b8d4ff"/>
      <path id="Trazado_890183" data-name="Trazado 890183" d="M48.759,83l6.132,8.176H29L35.132,83Z" transform="translate(-9.241 -26.447)" fill="#fff"/>
      <path id="Trazado_890184" data-name="Trazado 890184" d="M65.047,68v7.495a2.725,2.725,0,0,1-2.725,2.725H3.725A2.725,2.725,0,0,1,1,75.495V68Z" transform="translate(-0.319 -21.668)" fill="#ebf4ff"/>
      <path id="Trazado_890185" data-name="Trazado 890185" d="M50.671,83H37.044L35,85.725H52.715Z" transform="translate(-11.153 -26.447)" fill="#c3d4ef"/>
      <path id="Trazado_890186" data-name="Trazado 890186" d="M61.783,3.044V7.814H10V3.044A2.044,2.044,0,0,1,12.044,1H59.739A2.044,2.044,0,0,1,61.783,3.044Z" transform="translate(-3.186 -0.319)" fill="#d3bcfb"/>
      <rect id="Rectángulo_405125" data-name="Rectángulo 405125" width="52.044" height="38.165" transform="translate(6.939 7.807)" fill="#f8fafd"/>
      <path id="Trazado_890187" data-name="Trazado 890187" d="M38.4,60l2.044,2.725H20L22.044,60Z" transform="translate(-6.373 -19.119)" fill="#c3d4ef"/>
      <path id="Trazado_890188" data-name="Trazado 890188" d="M38.4,44l2.044,2.725H20L22.044,44Z" transform="translate(-6.373 -14.02)" fill="#c3d4ef"/>
      <path id="Trazado_890189" data-name="Trazado 890189" d="M38.4,28l2.044,2.725H20L22.044,28Z" transform="translate(-6.373 -8.922)" fill="#c3d4ef"/>
      <path id="Trazado_890190" data-name="Trazado 890190" d="M41.892,50.044v4.088a2.044,2.044,0,0,1-2.044,2.044h-21.8A2.044,2.044,0,0,1,16,54.132V50.044A2.044,2.044,0,0,1,18.044,48h21.8A2.044,2.044,0,0,1,41.892,50.044Z" transform="translate(-5.098 -15.295)" fill="#e5eefd"/>
      <path id="Trazado_890191" data-name="Trazado 890191" d="M41.892,34.044v4.088a2.044,2.044,0,0,1-2.044,2.044h-21.8A2.044,2.044,0,0,1,16,38.132V34.044A2.044,2.044,0,0,1,18.044,32h21.8A2.044,2.044,0,0,1,41.892,34.044Z" transform="translate(-5.098 -10.197)" fill="#e5eefd"/>
      <path id="Trazado_890192" data-name="Trazado 890192" d="M41.892,18.044v4.088a2.044,2.044,0,0,1-2.044,2.044h-21.8A2.044,2.044,0,0,1,16,22.132V18.044A2.044,2.044,0,0,1,18.044,16h21.8A2.044,2.044,0,0,1,41.892,18.044Z" transform="translate(-5.098 -5.098)" fill="#e5eefd"/>
      <g id="_Group_2" data-name="&lt;Group&gt;">
        <rect id="Rectángulo_405126" data-name="Rectángulo 405126" width="12.143" height="30.359" rx="2" transform="translate(42.502 12.143)" fill="#f1f2f2"/>
        <path id="Trazado_890193" data-name="Trazado 890193" d="M74.264,19.363A1.367,1.367,0,0,0,72.9,18H63.363A1.367,1.367,0,0,0,62,19.363v2.725H74.264Z" transform="translate(-19.756 -5.736)" fill="#a9ebc8"/>
        <path id="Trazado_890194" data-name="Trazado 890194" d="M62,4.088H59.278V2.725A2.725,2.725,0,0,0,56.553,0H8.858A2.725,2.725,0,0,0,6.132,2.725V4.088H3.407A3.411,3.411,0,0,0,0,7.495V53.827a3.411,3.411,0,0,0,3.407,3.407.681.681,0,1,0,0-1.363,2.044,2.044,0,0,1-2.044-2.044V47.014H64.047v6.814A2.044,2.044,0,0,1,62,55.871H6.814a.681.681,0,1,0,0,1.363H24.529l-5.11,6.814H17.034a.681.681,0,1,0,0,1.363H48.376a.681.681,0,1,0,0-1.363H45.992l-5.11-6.814H62a3.411,3.411,0,0,0,3.407-3.407V7.495A3.411,3.411,0,0,0,62,4.088ZM44.288,64.047H21.122l5.11-6.814H39.178ZM7.495,2.725A1.363,1.363,0,0,1,8.858,1.363H56.553a1.363,1.363,0,0,1,1.363,1.363V6.814H7.495ZM1.363,7.495A2.044,2.044,0,0,1,3.407,5.451H6.132v40.2H1.363ZM59.278,45.651V21.8a.681.681,0,1,0-1.363,0V45.651H7.495V8.176h50.42V18.4a.681.681,0,1,0,1.363,0V5.451H62a2.044,2.044,0,0,1,2.044,2.044V45.651Z" fill="#283d54"/>
        <path id="Trazado_890195" data-name="Trazado 890195" d="M48.407,75.363a.681.681,0,0,0,0-1.363H45.681a.681.681,0,0,0,0,1.363Z" transform="translate(-14.339 -23.58)" fill="#283d54"/>
        <path id="Trazado_890196" data-name="Trazado 890196" d="M14.681,6.363h2.044a.681.681,0,0,0,0-1.363H14.681a.681.681,0,1,0,0,1.363Z" transform="translate(-4.461 -1.593)" fill="#283d54"/>
        <path id="Trazado_890197" data-name="Trazado 890197" d="M78.681,6.363h1.363a.681.681,0,0,0,0-1.363H78.681a.681.681,0,0,0,0,1.363Z" transform="translate(-24.854 -1.593)" fill="#283d54"/>
        <path id="Trazado_890198" data-name="Trazado 890198" d="M71.681,6.363h1.363a.681.681,0,1,0,0-1.363H71.681a.681.681,0,1,0,0,1.363Z" transform="translate(-22.624 -1.593)" fill="#283d54"/>
        <path id="Trazado_890199" data-name="Trazado 890199" d="M39.529,15H21.814a.681.681,0,1,0,0,1.363H39.529a1.363,1.363,0,0,1,1.363,1.363v4.088a1.363,1.363,0,0,1-1.363,1.363h-21.8a1.363,1.363,0,0,1-1.363-1.363V17.725a1.363,1.363,0,0,1,1.363-1.363.681.681,0,1,0,0-1.363A2.725,2.725,0,0,0,15,17.725v4.088a2.725,2.725,0,0,0,2.725,2.725h1.363L18.066,25.9h-.341A2.725,2.725,0,0,0,15,28.627v4.088a2.725,2.725,0,0,0,2.725,2.725h1.363L18.066,36.8h-.341A2.725,2.725,0,0,0,15,39.529v4.088a2.725,2.725,0,0,0,2.725,2.725h1.363l-1.022,1.363H15.681a.681.681,0,0,0,0,1.363H41.573a.681.681,0,0,0,0-1.363H39.188l-1.022-1.363h1.363a2.725,2.725,0,0,0,2.725-2.725V39.529A2.725,2.725,0,0,0,39.529,36.8h-.341l-1.022-1.363h1.363a2.725,2.725,0,0,0,2.725-2.725V28.627A2.725,2.725,0,0,0,39.529,25.9h-.341l-1.022-1.363h1.363a2.725,2.725,0,0,0,2.725-2.725V17.725A2.725,2.725,0,0,0,39.529,15ZM37.485,47.705H19.769l1.022-1.363H36.463Zm3.407-8.176v4.088a1.363,1.363,0,0,1-1.363,1.363h-21.8a1.363,1.363,0,0,1-1.363-1.363V39.529a1.363,1.363,0,0,1,1.363-1.363h21.8A1.363,1.363,0,0,1,40.892,39.529ZM37.485,36.8H19.769l1.022-1.363H36.463Zm3.407-8.176v4.088a1.363,1.363,0,0,1-1.363,1.363h-21.8a1.363,1.363,0,0,1-1.363-1.363V28.627a1.363,1.363,0,0,1,1.363-1.363h21.8A1.363,1.363,0,0,1,40.892,28.627ZM37.485,25.9H19.769l1.022-1.363H36.463Z" transform="translate(-4.78 -4.78)" fill="#283d54"/>
        <path id="Trazado_890200" data-name="Trazado 890200" d="M20,22.044a.681.681,0,1,0,1.363,0V20.681a.681.681,0,1,0-1.363,0Z" transform="translate(-6.373 -6.373)" fill="#283d54"/>
        <path id="Trazado_890201" data-name="Trazado 890201" d="M26.363,22.044V20.681a.681.681,0,1,0-1.363,0v1.363a.681.681,0,1,0,1.363,0Z" transform="translate(-7.966 -6.373)" fill="#283d54"/>
        <path id="Trazado_890202" data-name="Trazado 890202" d="M31.363,22.044V20.681a.681.681,0,1,0-1.363,0v1.363a.681.681,0,1,0,1.363,0Z" transform="translate(-9.559 -6.373)" fill="#283d54"/>
        <path id="Trazado_890203" data-name="Trazado 890203" d="M44.858,22.363a.681.681,0,1,0,0-1.363H36.681a.681.681,0,0,0,0,1.363Z" transform="translate(-11.471 -6.692)" fill="#283d54"/>
        <path id="Trazado_890204" data-name="Trazado 890204" d="M20.681,36a.681.681,0,0,0-.681.681v1.363a.681.681,0,0,0,1.363,0V36.681A.681.681,0,0,0,20.681,36Z" transform="translate(-6.373 -11.471)" fill="#283d54"/>
        <path id="Trazado_890205" data-name="Trazado 890205" d="M25.681,36a.681.681,0,0,0-.681.681v1.363a.681.681,0,0,0,1.363,0V36.681A.681.681,0,0,0,25.681,36Z" transform="translate(-7.966 -11.471)" fill="#283d54"/>
        <path id="Trazado_890206" data-name="Trazado 890206" d="M30.681,36a.681.681,0,0,0-.681.681v1.363a.681.681,0,0,0,1.363,0V36.681A.681.681,0,0,0,30.681,36Z" transform="translate(-9.559 -11.471)" fill="#283d54"/>
        <path id="Trazado_890207" data-name="Trazado 890207" d="M44.858,37H36.681a.681.681,0,0,0,0,1.363h8.176a.681.681,0,1,0,0-1.363Z" transform="translate(-11.471 -11.79)" fill="#283d54"/>
        <path id="Trazado_890208" data-name="Trazado 890208" d="M20.681,52a.681.681,0,0,0-.681.681v1.363a.681.681,0,0,0,1.363,0V52.681A.681.681,0,0,0,20.681,52Z" transform="translate(-6.373 -16.569)" fill="#283d54"/>
        <path id="Trazado_890209" data-name="Trazado 890209" d="M25.681,52a.681.681,0,0,0-.681.681v1.363a.681.681,0,0,0,1.363,0V52.681A.681.681,0,0,0,25.681,52Z" transform="translate(-7.966 -16.569)" fill="#283d54"/>
        <path id="Trazado_890210" data-name="Trazado 890210" d="M30.681,52a.681.681,0,0,0-.681.681v1.363a.681.681,0,0,0,1.363,0V52.681A.681.681,0,0,0,30.681,52Z" transform="translate(-9.559 -16.569)" fill="#283d54"/>
        <path id="Trazado_890211" data-name="Trazado 890211" d="M44.858,53H36.681a.681.681,0,0,0,0,1.363h8.176a.681.681,0,1,0,0-1.363Z" transform="translate(-11.471 -16.888)" fill="#283d54"/>
        <path id="Trazado_890212" data-name="Trazado 890212" d="M72.583,17H63.044A2.044,2.044,0,0,0,61,19.044V46.3a2.044,2.044,0,0,0,2.044,2.044h9.539A2.044,2.044,0,0,0,74.627,46.3V19.044A2.044,2.044,0,0,0,72.583,17Zm.681,29.3a.681.681,0,0,1-.681.681H63.044a.681.681,0,0,1-.681-.681V19.044a.681.681,0,0,1,.681-.681h9.539a.681.681,0,0,1,.681.681Z" transform="translate(-19.437 -5.417)" fill="#283d54"/>
      </g>
    </g>
  </g>
</svg>
