<svg xmlns="http://www.w3.org/2000/svg" xmlns:xlink="http://www.w3.org/1999/xlink" width="610" height="173.857" viewBox="0 0 610 173.857">
  <defs>
    <clipPath id="clip-path">
      <rect id="Rectángulo_402796" data-name="Rectángulo 402796" width="43.491" height="46.491" transform="translate(0 0)" fill="none"/>
    </clipPath>
    <clipPath id="clip-path-2">
      <rect id="Rectángulo_402798" data-name="Rectángulo 402798" width="47.721" height="57.78" fill="none"/>
    </clipPath>
    <clipPath id="clip-path-3">
      <rect id="Rectángulo_402800" data-name="Rectángulo 402800" width="48.774" height="52.139" fill="none"/>
    </clipPath>
  </defs>
  <g id="_9" data-name="9" transform="translate(-915 -7875.738)">
    <rect id="Rectángulo_402773" data-name="Rectángulo 402773" width="610" height="124.416" rx="10" transform="translate(915 7903.098)" fill="#f0c518"/>
    <g id="Grupo_1101639" data-name="Grupo 1101639" transform="translate(1002.205 7875.738)">
      <g id="Graphics" transform="translate(37.184 18.82)">
        <g id="Grupo_1101603" data-name="Grupo 1101603" transform="translate(0 0)">
          <g id="Grupo_1101599" data-name="Grupo 1101599" transform="translate(345.152 -10.749)">
            <path id="Trazado_878926" data-name="Trazado 878926" d="M341.8,131.107a21.314,21.314,0,0,0,10.736-6.21l6.862,2.317,3.426-5.928-5.441-4.779a21.049,21.049,0,0,0,.915-6.2,21.374,21.374,0,0,0-.915-6.2l5.441-4.779L359.4,93.4l-6.862,2.317a21.368,21.368,0,0,0-10.736-6.2l-1.421-7.1H336.95" transform="translate(-311.078 -82.42)" fill="none" stroke="#263238" stroke-miterlimit="10" stroke-width="1"/>
            <path id="Trazado_878927" data-name="Trazado 878927" d="M332.815,82.42l-1.421,7.1a21.368,21.368,0,0,0-10.736,6.2L313.8,93.4l-3.426,5.928,5.441,4.779a21.468,21.468,0,0,0,0,12.4l-5.441,4.779,3.426,5.928,6.862-2.317a21.454,21.454,0,0,0,10.736,6.21l1.421,7.1h6.843l1.421-7.1" transform="translate(-310.37 -82.42)" fill="none" stroke="#263238" stroke-miterlimit="10" stroke-width="1"/>
            <path id="Trazado_878928" data-name="Trazado 878928" d="M336.216,122.215c-12.206-.857-14.5-18.62-2.3-21.745" transform="translate(-310.782 -82.901)" fill="none" stroke="#263238" stroke-miterlimit="10" stroke-width="1"/>
            <path id="Trazado_878929" data-name="Trazado 878929" d="M344.322,102.98c6.074,5.568,4.146,16.43-3.942,18.883" transform="translate(-311.17 -82.968)" fill="none" stroke="#263238" stroke-miterlimit="10" stroke-width="1"/>
            <path id="Trazado_878930" data-name="Trazado 878930" d="M338.38,100.2a11.19,11.19,0,0,1,3.076.847" transform="translate(-311.116 -82.894)" fill="none" stroke="#263238" stroke-miterlimit="10" stroke-width="1"/>
            <path id="Trazado_878931" data-name="Trazado 878931" d="M379.29,137.937l1.441-1.733a14.084,14.084,0,0,0,8.167-.2l3.241,3.494" transform="translate(-312.207 -83.848)" fill="none" stroke="#263238" stroke-miterlimit="10" stroke-width="1"/>
            <path id="Trazado_878932" data-name="Trazado 878932" d="M373.6,110.26l.623,1.7a14,14,0,0,0-3.893,7.174l-4.653,1.051.117,4.507,4.7.818a14.077,14.077,0,0,0,1.616,3.8,13.74,13.74,0,0,0,2.648,3.163l-1.411,4.555,3.962,2.151" transform="translate(-311.844 -83.162)" fill="none" stroke="#263238" stroke-miterlimit="10" stroke-width="1"/>
            <path id="Trazado_878933" data-name="Trazado 878933" d="M391.955,138.668l3.845-2.355-1.645-4.477a14.069,14.069,0,0,0,3.893-7.174l4.653-1.051-.117-4.507-4.691-.818a14.064,14.064,0,0,0-4.263-6.959l1.411-4.555-3.962-2.151-3.056,3.66a14.049,14.049,0,0,0-8.157.2l-3.241-3.494-3.845,2.356" transform="translate(-312.033 -83.012)" fill="none" stroke="#263238" stroke-miterlimit="10" stroke-width="1"/>
            <g id="Grupo_1101598" data-name="Grupo 1101598" transform="translate(65.263 32.14)">
              <path id="Trazado_878934" data-name="Trazado 878934" d="M391.5,120.471c1.324,5.6-3.981,10.979-9.6,8.7-5.353-2.171-6.132-10.016-1.168-13.033" transform="translate(-377.42 -115.459)" fill="none" stroke="#263238" stroke-miterlimit="10" stroke-width="1"/>
              <path id="Trazado_878935" data-name="Trazado 878935" d="M387.17,115.44a7.2,7.2,0,0,1,2.949,1.9" transform="translate(-377.68 -115.44)" fill="none" stroke="#263238" stroke-miterlimit="10" stroke-width="1"/>
            </g>
          </g>
          <g id="Grupo_1101602" data-name="Grupo 1101602" transform="translate(-86.66 0.87)">
            <g id="Grupo_1101600" data-name="Grupo 1101600" transform="translate(0 0.009)">
              <path id="Trazado_878936" data-name="Trazado 878936" d="M70.23,234.153l7.293,7.293a7.871,7.871,0,0,0,9.459,9.459L82.4,246.321l1.243-4.633,4.632-1.243,4.584,4.584A7.871,7.871,0,0,0,83.4,235.57l-6.72-6.72" transform="translate(-43.784 -201.822)" fill="none" stroke="#263238" stroke-miterlimit="10" stroke-width="1"/>
              <path id="Trazado_878937" data-name="Trazado 878937" d="M65.23,217.374l-6.691-6.691a7.871,7.871,0,0,0-9.459-9.459l4.584,4.584L52.42,210.44l-4.632,1.243L43.2,207.1a7.871,7.871,0,0,0,9.459,9.459l6.691,6.691" transform="translate(-42.999 -201.019)" fill="none" stroke="#263238" stroke-miterlimit="10" stroke-width="1"/>
            </g>
            <g id="Grupo_1101601" data-name="Grupo 1101601" transform="translate(0.921)">
              <path id="Trazado_878938" data-name="Trazado 878938" d="M73.573,224.415l9.333-9.333a6.3,6.3,0,0,1,1.564-1.146l1.884-.971,6.759-7.73-4.225-4.225-7.73,6.759-.971,1.884a6.236,6.236,0,0,1-1.146,1.564l-7.4,7.4" transform="translate(-44.746 -201.01)" fill="none" stroke="#263238" stroke-miterlimit="10" stroke-width="1"/>
              <path id="Trazado_878939" data-name="Trazado 878939" d="M47.932,249.444a3.169,3.169,0,0,0,4.059-.563L68.171,232.7a3.087,3.087,0,0,0,1-2.807l2.807-2.807.175.175a1.037,1.037,0,1,0,1.466-1.466l-5.536-5.536a1.037,1.037,0,1,0-1.466,1.466l.175.175-2.807,2.807a3.055,3.055,0,0,0-2.807,1L45,241.889a3.113,3.113,0,0,0-1.029,2.661" transform="translate(-43.948 -201.556)" fill="none" stroke="#263238" stroke-miterlimit="10" stroke-width="1"/>
              <path id="Trazado_878940" data-name="Trazado 878940" d="M44.62,247.04a9.048,9.048,0,0,0,1.35,1.661,8.471,8.471,0,0,0,1.981,1.525" transform="translate(-43.967 -202.338)" fill="none" stroke="#263238" stroke-miterlimit="10" stroke-width="1"/>
            </g>
            <line id="Línea_698" data-name="Línea 698" y1="2.826" x2="2.826" transform="translate(6.556 40.157)" fill="none" stroke="#263238" stroke-miterlimit="10" stroke-width="1"/>
            <line id="Línea_699" data-name="Línea 699" y1="12.198" x2="11.945" transform="translate(13.199 24.143)" fill="none" stroke="#263238" stroke-miterlimit="10" stroke-width="1"/>
          </g>
        </g>
      </g>
      <g id="_4542734" data-name="4542734" transform="translate(14.26)">
        <g id="Background_Simple" data-name="Background Simple" transform="translate(99.753)">
          <g id="Grupo_1101615" data-name="Grupo 1101615" transform="translate(0)">
            <path id="Trazado_878941" data-name="Trazado 878941" d="M148.021,20.541C163.753,8.119,183.8,1.656,203.642.207c29.892-2.185,47.4,13.489,47.759,29.528s8.723,33.467,28.419,53.37,14.962,49.8-18.215,59.271a82.374,82.374,0,0,1-21.7,3.189,87.409,87.409,0,0,1-50.119-15.586c-11.3-8.019-35,15.31-50.672,7.655-9.981-4.874-14.16-21.525-16.353-31.175-4.1-18.016-3.79-37.555,2.565-55.017a69.538,69.538,0,0,1,22.692-30.9Z" transform="translate(-103.925 -0.003)" fill="#fff5cb" opacity="0.5"/>
            <g id="Coding" transform="translate(0 0)">
              <g id="Grupo_1101614" data-name="Grupo 1101614">
                <g id="Grupo_1101605" data-name="Grupo 1101605">
                  <rect id="Rectángulo_402774" data-name="Rectángulo 402774" width="123.273" height="80.086" fill="#fff"/>
                  <path id="Trazado_878942" data-name="Trazado 878942" d="M181.643,26.04H58.37v80.086H181.643Z" transform="translate(-58.37 -26.04)" fill="#bfbfbf"/>
                  <rect id="Rectángulo_402775" data-name="Rectángulo 402775" width="123.273" height="10.478" fill="#fff"/>
                  <rect id="Rectángulo_402776" data-name="Rectángulo 402776" width="123.273" height="10.478" fill="#757575"/>
                  <rect id="Rectángulo_402777" data-name="Rectángulo 402777" width="7.139" height="7.139" rx="2.62" transform="translate(113.567 1.669)" fill="#fff"/>
                  <rect id="Rectángulo_402778" data-name="Rectángulo 402778" width="7.139" height="7.139" rx="2.64" transform="translate(104.819 1.669)" fill="#fff"/>
                  <rect id="Rectángulo_402779" data-name="Rectángulo 402779" width="7.139" height="7.139" rx="2.62" transform="translate(96.066 1.669)" fill="#fff"/>
                  <rect id="Rectángulo_402780" data-name="Rectángulo 402780" width="114.025" height="60.36" rx="5.22" transform="translate(4.624 15.102)" fill="#263238" stroke="#263238" stroke-linecap="round" stroke-linejoin="round" stroke-width="1"/>
                  <g id="Grupo_1101604" data-name="Grupo 1101604" transform="translate(115.607 3.704)">
                    <line id="Línea_700" data-name="Línea 700" y1="3.066" x2="3.061" fill="none" stroke="#263238" stroke-linecap="round" stroke-linejoin="round" stroke-width="1"/>
                    <line id="Línea_701" data-name="Línea 701" x2="3.061" y2="3.066" fill="none" stroke="#263238" stroke-linecap="round" stroke-linejoin="round" stroke-width="1"/>
                  </g>
                  <rect id="Rectángulo_402781" data-name="Rectángulo 402781" width="4.083" height="2.696" transform="translate(106.345 4.582)" fill="none" stroke="#263238" stroke-linecap="round" stroke-linejoin="round" stroke-width="1"/>
                  <line id="Línea_702" data-name="Línea 702" x1="4.083" transform="translate(97.596 7.278)" fill="none" stroke="#263238" stroke-linecap="round" stroke-linejoin="round" stroke-width="1"/>
                </g>
                <g id="Grupo_1101606" data-name="Grupo 1101606" transform="translate(60.712 54.284)">
                  <path id="Trazado_878943" data-name="Trazado 878943" d="M288.96,145.29h-8.106a.925.925,0,1,1,0-1.85h8.106a.925.925,0,1,1,0,1.85Z" transform="translate(-238.195 -143.44)" fill="#757575"/>
                  <path id="Trazado_878944" data-name="Trazado 878944" d="M272.079,159.12H249.455a.925.925,0,1,1,0-1.85h22.625a.925.925,0,1,1,0,1.85Z" transform="translate(-221.314 -150.875)" fill="#757575"/>
                  <path id="Trazado_878945" data-name="Trazado 878945" d="M240.436,172.949H190.595a.925.925,0,1,1,0-1.85h49.841a.925.925,0,1,1,0,1.85Z" transform="translate(-189.67 -158.31)" fill="#757575"/>
                </g>
                <g id="Grupo_1101611" data-name="Grupo 1101611" transform="translate(8.48 47.885)">
                  <path id="Trazado_878946" data-name="Trazado 878946" d="M81.408,131.45H77.635a.925.925,0,0,1,0-1.85h3.773a.925.925,0,0,1,0,1.85Z" transform="translate(-76.71 -129.6)" fill="#bfbfbf"/>
                  <path id="Trazado_878947" data-name="Trazado 878947" d="M81.408,145.29H77.635a.925.925,0,0,1,0-1.85h3.773a.925.925,0,0,1,0,1.85Z" transform="translate(-76.71 -137.041)" fill="#bfbfbf"/>
                  <path id="Trazado_878948" data-name="Trazado 878948" d="M81.408,159.12H77.635a.925.925,0,0,1,0-1.85h3.773a.925.925,0,0,1,0,1.85Z" transform="translate(-76.71 -144.476)" fill="#bfbfbf"/>
                  <path id="Trazado_878949" data-name="Trazado 878949" d="M81.408,172.949H77.635a.925.925,0,0,1,0-1.85h3.773a.925.925,0,0,1,0,1.85Z" transform="translate(-76.71 -151.911)" fill="#bfbfbf"/>
                  <g id="Grupo_1101607" data-name="Grupo 1101607" opacity="0.7">
                    <path id="Trazado_878950" data-name="Trazado 878950" d="M81.408,131.45H77.635a.925.925,0,0,1,0-1.85h3.773a.925.925,0,0,1,0,1.85Z" transform="translate(-76.71 -129.6)" fill="#bfbfbf"/>
                  </g>
                  <g id="Grupo_1101608" data-name="Grupo 1101608" transform="translate(0 6.399)" opacity="0.7">
                    <path id="Trazado_878951" data-name="Trazado 878951" d="M81.408,145.29H77.635a.925.925,0,0,1,0-1.85h3.773a.925.925,0,0,1,0,1.85Z" transform="translate(-76.71 -143.44)" fill="#bfbfbf"/>
                  </g>
                  <g id="Grupo_1101609" data-name="Grupo 1101609" transform="translate(0 12.794)" opacity="0.7">
                    <path id="Trazado_878952" data-name="Trazado 878952" d="M81.408,159.12H77.635a.925.925,0,0,1,0-1.85h3.773a.925.925,0,0,1,0,1.85Z" transform="translate(-76.71 -157.27)" fill="#bfbfbf"/>
                  </g>
                  <g id="Grupo_1101610" data-name="Grupo 1101610" transform="translate(0 19.189)" opacity="0.7">
                    <path id="Trazado_878953" data-name="Trazado 878953" d="M81.408,172.949H77.635a.925.925,0,0,1,0-1.85h3.773a.925.925,0,0,1,0,1.85Z" transform="translate(-76.71 -171.1)" fill="#bfbfbf"/>
                  </g>
                </g>
                <g id="Grupo_1101612" data-name="Grupo 1101612" transform="translate(8.476 28.696)">
                  <path id="Trazado_878954" data-name="Trazado 878954" d="M157.077,117.62H77.625a.925.925,0,0,1,0-1.85h79.452a.925.925,0,1,1,0,1.85Z" transform="translate(-76.7 -102.976)" fill="#bfbfbf"/>
                  <path id="Trazado_878955" data-name="Trazado 878955" d="M288.96,89.95h-8.106a.925.925,0,1,1,0-1.85h8.106a.925.925,0,1,1,0,1.85Z" transform="translate(-185.959 -88.1)" fill="#bfbfbf"/>
                  <path id="Trazado_878956" data-name="Trazado 878956" d="M264.525,89.95h-7.74a.925.925,0,1,1,0-1.85h7.74a.925.925,0,1,1,0,1.85Z" transform="translate(-173.018 -88.1)" fill="#bfbfbf"/>
                  <path id="Trazado_878957" data-name="Trazado 878957" d="M157.077,89.95H77.625a.925.925,0,0,1,0-1.85h79.452a.925.925,0,1,1,0,1.85Z" transform="translate(-76.7 -88.1)" fill="#bfbfbf"/>
                </g>
                <g id="Grupo_1101613" data-name="Grupo 1101613" transform="translate(16.415 47.885)">
                  <path id="Trazado_878958" data-name="Trazado 878958" d="M288.96,131.45h-8.106a.925.925,0,1,1,0-1.85h8.106a.925.925,0,1,1,0,1.85Z" transform="translate(-193.898 -129.6)" fill="#999"/>
                  <path id="Trazado_878959" data-name="Trazado 878959" d="M177.438,131.45H94.795a.925.925,0,0,1,0-1.85h82.647a.925.925,0,0,1,0,1.85Z" transform="translate(-93.87 -129.6)" fill="#999"/>
                  <path id="Trazado_878960" data-name="Trazado 878960" d="M118.529,145.29H94.795a.925.925,0,0,1,0-1.85h23.734a.925.925,0,0,1,0,1.85Z" transform="translate(-93.87 -137.041)" fill="#999"/>
                  <path id="Trazado_878961" data-name="Trazado 878961" d="M118.529,159.12H94.795a.925.925,0,0,1,0-1.85h23.734a.925.925,0,0,1,0,1.85Z" transform="translate(-93.87 -144.476)" fill="#999"/>
                  <path id="Trazado_878962" data-name="Trazado 878962" d="M118.529,172.949H94.795a.925.925,0,1,1,0-1.85h23.734a.925.925,0,1,1,0,1.85Z" transform="translate(-93.87 -151.911)" fill="#999"/>
                </g>
              </g>
            </g>
          </g>
        </g>
        <g id="Room_3" data-name="Room 3" transform="translate(49.406 46.607)">
          <g id="Grupo_1101617" data-name="Grupo 1101617" transform="translate(0 60.943)" opacity="0.3">
            <g id="Grupo_1101616" data-name="Grupo 1101616" transform="translate(148.674)">
              <rect id="Rectángulo_402782" data-name="Rectángulo 402782" width="210.013" height="37.092" rx="4.85" transform="translate(0 21.55)" fill="#fff" stroke="#000" stroke-linecap="round" stroke-linejoin="round" stroke-width="1"/>
              <path id="Trazado_878963" data-name="Trazado 878963" d="M246.4,119.31H71.97a6.772,6.772,0,0,0-6.77,6.77v51.88H253.166V126.08A6.772,6.772,0,0,0,246.4,119.31Z" transform="translate(-54.177 -119.31)" fill="#fff" stroke="#000" stroke-linecap="round" stroke-linejoin="round" stroke-width="1"/>
              <rect id="Rectángulo_402783" data-name="Rectángulo 402783" width="187.958" height="24.058" transform="translate(11.032 34.584)" fill="#fff" stroke="#000" stroke-linecap="round" stroke-linejoin="round" stroke-width="1"/>
            </g>
            <line id="Línea_703" data-name="Línea 703" x1="384.357" transform="translate(0 58.791)" fill="none" stroke="#000" stroke-linecap="round" stroke-linejoin="round" stroke-width="1"/>
          </g>
          <g id="Grupo_1101620" data-name="Grupo 1101620" transform="translate(-21.554)" opacity="0.3">
            <rect id="Rectángulo_402784" data-name="Rectángulo 402784" width="91.149" height="58.642" transform="translate(0 44.879)" fill="#fff" stroke="#000" stroke-linecap="round" stroke-linejoin="round" stroke-width="1"/>
            <g id="Grupo_1101618" data-name="Grupo 1101618" transform="translate(3.691 49.969)">
              <rect id="Rectángulo_402785" data-name="Rectángulo 402785" width="39.343" height="19.713" transform="translate(0)" fill="#fff" stroke="#000" stroke-linecap="round" stroke-linejoin="round" stroke-width="1"/>
              <rect id="Rectángulo_402786" data-name="Rectángulo 402786" width="39.343" height="19.713" transform="translate(43.555)" fill="#fff" stroke="#000" stroke-linecap="round" stroke-linejoin="round" stroke-width="1"/>
            </g>
            <g id="Grupo_1101619" data-name="Grupo 1101619" transform="translate(3.691 74.316)">
              <rect id="Rectángulo_402787" data-name="Rectángulo 402787" width="39.343" height="19.713" transform="translate(0)" fill="#fff" stroke="#000" stroke-linecap="round" stroke-linejoin="round" stroke-width="1"/>
              <rect id="Rectángulo_402788" data-name="Rectángulo 402788" width="39.343" height="19.713" transform="translate(43.555)" fill="#fff" stroke="#000" stroke-linecap="round" stroke-linejoin="round" stroke-width="1"/>
            </g>
            <rect id="Rectángulo_402789" data-name="Rectángulo 402789" width="91.149" height="4.759" transform="translate(0 40.121)" fill="#fff" stroke="#000" stroke-linecap="round" stroke-linejoin="round" stroke-width="1"/>
            <path id="Trazado_878964" data-name="Trazado 878964" d="M388.822,73.645a4.069,4.069,0,0,0-4.883-2.458l-2.946-3.277a2.011,2.011,0,0,0-.662-2.119,2.155,2.155,0,0,0-1.539-.712,2.247,2.247,0,0,0-2.218,2.251,2.215,2.215,0,0,0,.149.786L358.673,84.735a2.162,2.162,0,0,0-1.779-.074,2.24,2.24,0,0,0,.521,4.32l2.648,10.4h-5.379a3.437,3.437,0,0,0-3.434,3.434v2.632h20.871v-2.632a3.437,3.437,0,0,0-3.434-3.434h-6.918l-2.756-10.808a2.241,2.241,0,0,0,.935-1.821,2.21,2.21,0,0,0-.157-.811l18.033-16.609a2.2,2.2,0,0,0,.993.24,2.174,2.174,0,0,0,1.15-.331l2.441,2.714a4.073,4.073,0,0,0-1.225,4.6l1.771,4.6,7.622-2.93-1.771-4.6Z" transform="translate(-344.083 -65.08)" stroke="#000" stroke-miterlimit="10" stroke-width="1"/>
          </g>
          <g id="Grupo_1101622" data-name="Grupo 1101622" transform="translate(345.456 43.477)" opacity="0.3">
            <g id="Grupo_1101621" data-name="Grupo 1101621" transform="translate(0)">
              <path id="Trazado_878965" data-name="Trazado 878965" d="M39.356,128.069s-.463-1.97-.48-2.1c-.157-1.49.422-4.452,1.961-5.131a1.986,1.986,0,0,1,2.656,1.291,4.15,4.15,0,0,1-.836,3.385,14.259,14.259,0,0,1-3.294,2.557Z" transform="translate(-29.161 -114.796)"/>
              <path id="Trazado_878966" data-name="Trazado 878966" d="M9,129.072a14.321,14.321,0,0,1-4.163.314c-.033,0,.7-1.9.761-2.019.7-1.324,2.814-3.484,4.461-3.2a1.988,1.988,0,0,1,1.506,2.541A4.139,4.139,0,0,1,9,129.072Z" transform="translate(30.954 -115.394)"/>
              <path id="Trazado_878967" data-name="Trazado 878967" d="M44.138,135.724a13.521,13.521,0,0,1-4.055-.786,34.27,34.27,0,0,1-1.746,4.345c-.389.819-.811,1.639-1.241,2.45.248-.339.48-.645.513-.687,1.018-1.1,3.633-2.615,5.147-1.9a1.983,1.983,0,0,1,.778,2.847,4.143,4.143,0,0,1-3.1,1.605,13.285,13.285,0,0,1-3.939-.745c-.166.314-.331.621-.5.935-.811,1.49-1.63,2.963-2.392,4.444-.265.521-.513,1.043-.761,1.564.223-.306.414-.554.447-.6,1.018-1.092,3.633-2.615,5.148-1.912a1.983,1.983,0,0,1,.778,2.847,4.143,4.143,0,0,1-3.1,1.605,12.955,12.955,0,0,1-3.84-.712c-.24.538-.472,1.084-.679,1.622-.132.372-.281.712-.4,1.092s-.232.737-.348,1.1c-.2.712-.406,1.44-.579,2.135-.124.48-.232.943-.348,1.415.257-.521.786-1.531.844-1.605.844-1.241,3.194-3.136,4.8-2.665a1.982,1.982,0,0,1,1.2,2.7,4.155,4.155,0,0,1-2.822,2.052,13.616,13.616,0,0,1-4.1-.157c-.182.77-.356,1.523-.5,2.243-.521,2.466-.869,4.535-1.092,5.992l-1.134-.041a.914.914,0,0,1,.025-.132c.257-1.465.646-3.559,1.233-6.041.182-.786.4-1.622.621-2.474a20.515,20.515,0,0,1-2.251-1.159,14.61,14.61,0,0,1-3.418,2.036c.273.745.546,1.465.811,2.143.927,2.35,1.779,4.27,2.4,5.6l-1.25-.041c-.571-1.324-1.308-3.1-2.077-5.205-.281-.753-.563-1.572-.852-2.408a13.491,13.491,0,0,1-4.1.174,4.129,4.129,0,0,1-2.83-2.044,1.981,1.981,0,0,1,1.192-2.7c1.605-.48,3.964,1.415,4.808,2.648.05.075.5.927.778,1.465-.116-.339-.232-.679-.339-1.026-.232-.7-.439-1.407-.662-2.16-.1-.372-.19-.745-.29-1.117s-.174-.778-.257-1.167c-.182-.91-.323-1.845-.447-2.8a12.839,12.839,0,0,1-3.914.753,4.157,4.157,0,0,1-3.1-1.589,1.981,1.981,0,0,1,.77-2.847c1.514-.712,4.138.794,5.156,1.887.066.066.712.935,1.051,1.415-.066-.571-.141-1.134-.19-1.713-.149-1.672-.248-3.36-.348-5.048-.033-.521-.066-1.034-.108-1.548a13.676,13.676,0,0,1-4.047.8,4.157,4.157,0,0,1-3.1-1.589,1.981,1.981,0,0,1,.77-2.847c1.514-.712,4.138.794,5.156,1.887.074.083,1,1.332,1.225,1.655-.083-1.134-.166-2.268-.306-3.376a34.832,34.832,0,0,0-.811-4.461,14.073,14.073,0,0,1-4.072.811,4.157,4.157,0,0,1-3.1-1.589,1.981,1.981,0,0,1,.77-2.847c1.514-.712,4.138.795,5.156,1.887.066.074.778,1.018,1.1,1.481a.766.766,0,0,0,.083-.041,25.7,25.7,0,0,0-1.605-4.262c-.356-.761-.737-1.465-1.126-2.143a13.055,13.055,0,0,1-3.873,1.208,4.158,4.158,0,0,1-3.261-1.241,1.98,1.98,0,0,1,.447-2.913c1.432-.877,4.2.339,5.33,1.308.058.05.629.662,1.043,1.109-.182-.306-.356-.621-.538-.91-.662-1.076-1.341-2.028-1.945-2.863-.348-.472-.67-.894-.977-1.283a13.369,13.369,0,0,1-3.972-.712,4.179,4.179,0,0,1-2.325-2.6A1.986,1.986,0,0,1,7.278,115.9c1.672-.124,3.567,2.234,4.13,3.617.05.124.588,2.085.563,2.077h-.033c.306.372.621.77.96,1.208.621.819,1.316,1.763,2.011,2.83a33.663,33.663,0,0,1,2.061,3.559,26.331,26.331,0,0,1,1.721,4.262.061.061,0,0,0,.017.05c.008-.488.083-1.862.1-1.97.248-1.473,1.589-4.188,3.244-4.436a1.982,1.982,0,0,1,2.218,1.945,4.145,4.145,0,0,1-1.7,3.045,13.947,13.947,0,0,1-3.815,1.581,35.252,35.252,0,0,1,.943,4.593c.132.9.232,1.812.323,2.731.025-.422.041-.8.05-.852.248-1.473,1.589-4.187,3.244-4.428a1.982,1.982,0,0,1,2.218,1.945,4.145,4.145,0,0,1-1.7,3.045,12.933,12.933,0,0,1-3.7,1.548c.033.356.066.7.091,1.051.141,1.688.273,3.377.455,5.023.066.579.149,1.15.232,1.721.017-.381.041-.7.05-.745.248-1.473,1.589-4.188,3.244-4.428a1.982,1.982,0,0,1,2.218,1.945,4.128,4.128,0,0,1-1.7,3.045,12.78,12.78,0,0,1-3.592,1.523c.1.579.207,1.167.331,1.721.091.381.157.753.273,1.126s.215.745.314,1.117c.223.7.455,1.423.7,2.1.166.472.323.919.488,1.374-.074-.579-.182-1.713-.182-1.8a7.636,7.636,0,0,1,1.167-3.707,2.623,2.623,0,0,1,.041-.439,1.987,1.987,0,0,1,2.483-1.6c1.605.488,2.532,3.368,2.557,4.858,0,.091-.091,1.051-.157,1.655.091-.348.182-.687.281-1.051.2-.712.414-1.415.637-2.168l.372-1.092c.116-.372.29-.745.43-1.117.348-.861.745-1.721,1.167-2.582a13.1,13.1,0,0,1-3.683-1.531,4.147,4.147,0,0,1-1.713-3.037,1.981,1.981,0,0,1,2.21-1.953c1.655.24,3.012,2.946,3.261,4.419.017.091.074,1.167.1,1.763.257-.513.513-1.026.786-1.539.794-1.473,1.647-2.938,2.491-4.4.257-.447.513-.9.77-1.349a13.973,13.973,0,0,1-3.823-1.564,4.147,4.147,0,0,1-1.713-3.037,1.981,1.981,0,0,1,2.21-1.953c1.655.24,3.012,2.946,3.261,4.419.017.108.108,1.663.108,2.061.563-.993,1.109-1.986,1.614-2.988a35.409,35.409,0,0,0,1.788-4.163,13.952,13.952,0,0,1-3.84-1.572,4.147,4.147,0,0,1-1.713-3.037,1.981,1.981,0,0,1,2.21-1.953c1.655.24,3.012,2.946,3.261,4.419.017.1.083,1.283.1,1.845a.178.178,0,0,1,.091.017,25.137,25.137,0,0,0,1.01-4.444c.124-.828.19-1.63.248-2.408a13.415,13.415,0,0,1-3.9-1.125,4.161,4.161,0,0,1-2.036-2.83,1.984,1.984,0,0,1,1.986-2.185c1.672.058,3.319,2.6,3.724,4.03.025.074.166.9.257,1.5.017-.348.041-.712.05-1.051.041-1.266,0-2.433-.041-3.459-.033-.588-.066-1.117-.108-1.606a13.35,13.35,0,0,1-2.921-2.781,4.156,4.156,0,0,1-.5-3.451,1.985,1.985,0,0,1,2.764-1.026c1.457.819,1.746,3.832,1.448,5.3-.025.124-.654,2.061-.679,2.044,0,0-.025-.017-.025-.025.05.472.1.985.132,1.539.066,1.026.132,2.193.116,3.467a34.492,34.492,0,0,1-.24,4.1,26.208,26.208,0,0,1-.919,4.5c0,.017-.017.033-.017.05.281-.406,1.092-1.506,1.167-1.589,1.018-1.092,3.633-2.615,5.147-1.9a1.983,1.983,0,0,1,.778,2.847,4.143,4.143,0,0,1-3.1,1.606Z" transform="translate(-5.5 -113.571)"/>
              <path id="Trazado_878968" data-name="Trazado 878968" d="M9,129.072a14.321,14.321,0,0,1-4.163.314c-.033,0,.7-1.9.761-2.019.7-1.324,2.814-3.484,4.461-3.2a1.988,1.988,0,0,1,1.506,2.541A4.139,4.139,0,0,1,9,129.072Z" transform="translate(30.954 -115.394)" opacity="0.3"/>
              <path id="Trazado_878969" data-name="Trazado 878969" d="M39.356,128.069s-.463-1.97-.48-2.1c-.157-1.49.422-4.452,1.961-5.131a1.986,1.986,0,0,1,2.656,1.291,4.15,4.15,0,0,1-.836,3.385,14.259,14.259,0,0,1-3.294,2.557Z" transform="translate(-29.161 -114.796)" opacity="0.3"/>
              <path id="Trazado_878970" data-name="Trazado 878970" d="M44.138,135.724a13.521,13.521,0,0,1-4.055-.786,34.27,34.27,0,0,1-1.746,4.345c-.389.819-.811,1.639-1.241,2.45.248-.339.48-.645.513-.687,1.018-1.1,3.633-2.615,5.147-1.9a1.983,1.983,0,0,1,.778,2.847,4.143,4.143,0,0,1-3.1,1.605,13.285,13.285,0,0,1-3.939-.745c-.166.314-.331.621-.5.935-.811,1.49-1.63,2.963-2.392,4.444-.265.521-.513,1.043-.761,1.564.223-.306.414-.554.447-.6,1.018-1.092,3.633-2.615,5.148-1.912a1.983,1.983,0,0,1,.778,2.847,4.143,4.143,0,0,1-3.1,1.605,12.955,12.955,0,0,1-3.84-.712c-.24.538-.472,1.084-.679,1.622-.132.372-.281.712-.4,1.092s-.232.737-.348,1.1c-.2.712-.406,1.44-.579,2.135-.124.48-.232.943-.348,1.415.257-.521.786-1.531.844-1.605.844-1.241,3.194-3.136,4.8-2.665a1.982,1.982,0,0,1,1.2,2.7,4.155,4.155,0,0,1-2.822,2.052,13.616,13.616,0,0,1-4.1-.157c-.182.77-.356,1.523-.5,2.243-.521,2.466-.869,4.535-1.092,5.992l-1.134-.041a.914.914,0,0,1,.025-.132c.257-1.465.646-3.559,1.233-6.041.182-.786.4-1.622.621-2.474a20.515,20.515,0,0,1-2.251-1.159,14.61,14.61,0,0,1-3.418,2.036c.273.745.546,1.465.811,2.143.927,2.35,1.779,4.27,2.4,5.6l-1.25-.041c-.571-1.324-1.308-3.1-2.077-5.205-.281-.753-.563-1.572-.852-2.408a13.491,13.491,0,0,1-4.1.174,4.129,4.129,0,0,1-2.83-2.044,1.981,1.981,0,0,1,1.192-2.7c1.605-.48,3.964,1.415,4.808,2.648.05.075.5.927.778,1.465-.116-.339-.232-.679-.339-1.026-.232-.7-.439-1.407-.662-2.16-.1-.372-.19-.745-.29-1.117s-.174-.778-.257-1.167c-.182-.91-.323-1.845-.447-2.8a12.839,12.839,0,0,1-3.914.753,4.157,4.157,0,0,1-3.1-1.589,1.981,1.981,0,0,1,.77-2.847c1.514-.712,4.138.794,5.156,1.887.066.066.712.935,1.051,1.415-.066-.571-.141-1.134-.19-1.713-.149-1.672-.248-3.36-.348-5.048-.033-.521-.066-1.034-.108-1.548a13.676,13.676,0,0,1-4.047.8,4.157,4.157,0,0,1-3.1-1.589,1.981,1.981,0,0,1,.77-2.847c1.514-.712,4.138.794,5.156,1.887.074.083,1,1.332,1.225,1.655-.083-1.134-.166-2.268-.306-3.376a34.832,34.832,0,0,0-.811-4.461,14.073,14.073,0,0,1-4.072.811,4.157,4.157,0,0,1-3.1-1.589,1.981,1.981,0,0,1,.77-2.847c1.514-.712,4.138.795,5.156,1.887.066.074.778,1.018,1.1,1.481a.766.766,0,0,0,.083-.041,25.7,25.7,0,0,0-1.605-4.262c-.356-.761-.737-1.465-1.126-2.143a13.055,13.055,0,0,1-3.873,1.208,4.158,4.158,0,0,1-3.261-1.241,1.98,1.98,0,0,1,.447-2.913c1.432-.877,4.2.339,5.33,1.308.058.05.629.662,1.043,1.109-.182-.306-.356-.621-.538-.91-.662-1.076-1.341-2.028-1.945-2.863-.348-.472-.67-.894-.977-1.283a13.369,13.369,0,0,1-3.972-.712,4.179,4.179,0,0,1-2.325-2.6A1.986,1.986,0,0,1,7.278,115.9c1.672-.124,3.567,2.234,4.13,3.617.05.124.588,2.085.563,2.077h-.033c.306.372.621.77.96,1.208.621.819,1.316,1.763,2.011,2.83a33.663,33.663,0,0,1,2.061,3.559,26.331,26.331,0,0,1,1.721,4.262.061.061,0,0,0,.017.05c.008-.488.083-1.862.1-1.97.248-1.473,1.589-4.188,3.244-4.436a1.982,1.982,0,0,1,2.218,1.945,4.145,4.145,0,0,1-1.7,3.045,13.947,13.947,0,0,1-3.815,1.581,35.252,35.252,0,0,1,.943,4.593c.132.9.232,1.812.323,2.731.025-.422.041-.8.05-.852.248-1.473,1.589-4.187,3.244-4.428a1.982,1.982,0,0,1,2.218,1.945,4.145,4.145,0,0,1-1.7,3.045,12.933,12.933,0,0,1-3.7,1.548c.033.356.066.7.091,1.051.141,1.688.273,3.377.455,5.023.066.579.149,1.15.232,1.721.017-.381.041-.7.05-.745.248-1.473,1.589-4.188,3.244-4.428a1.982,1.982,0,0,1,2.218,1.945,4.128,4.128,0,0,1-1.7,3.045,12.78,12.78,0,0,1-3.592,1.523c.1.579.207,1.167.331,1.721.091.381.157.753.273,1.126s.215.745.314,1.117c.223.7.455,1.423.7,2.1.166.472.323.919.488,1.374-.074-.579-.182-1.713-.182-1.8a7.636,7.636,0,0,1,1.167-3.707,2.623,2.623,0,0,1,.041-.439,1.987,1.987,0,0,1,2.483-1.6c1.605.488,2.532,3.368,2.557,4.858,0,.091-.091,1.051-.157,1.655.091-.348.182-.687.281-1.051.2-.712.414-1.415.637-2.168l.372-1.092c.116-.372.29-.745.43-1.117.348-.861.745-1.721,1.167-2.582a13.1,13.1,0,0,1-3.683-1.531,4.147,4.147,0,0,1-1.713-3.037,1.981,1.981,0,0,1,2.21-1.953c1.655.24,3.012,2.946,3.261,4.419.017.091.074,1.167.1,1.763.257-.513.513-1.026.786-1.539.794-1.473,1.647-2.938,2.491-4.4.257-.447.513-.9.77-1.349a13.973,13.973,0,0,1-3.823-1.564,4.147,4.147,0,0,1-1.713-3.037,1.981,1.981,0,0,1,2.21-1.953c1.655.24,3.012,2.946,3.261,4.419.017.108.108,1.663.108,2.061.563-.993,1.109-1.986,1.614-2.988a35.409,35.409,0,0,0,1.788-4.163,13.952,13.952,0,0,1-3.84-1.572,4.147,4.147,0,0,1-1.713-3.037,1.981,1.981,0,0,1,2.21-1.953c1.655.24,3.012,2.946,3.261,4.419.017.1.083,1.283.1,1.845a.178.178,0,0,1,.091.017,25.137,25.137,0,0,0,1.01-4.444c.124-.828.19-1.63.248-2.408a13.415,13.415,0,0,1-3.9-1.125,4.161,4.161,0,0,1-2.036-2.83,1.984,1.984,0,0,1,1.986-2.185c1.672.058,3.319,2.6,3.724,4.03.025.074.166.9.257,1.5.017-.348.041-.712.05-1.051.041-1.266,0-2.433-.041-3.459-.033-.588-.066-1.117-.108-1.606a13.35,13.35,0,0,1-2.921-2.781,4.156,4.156,0,0,1-.5-3.451,1.985,1.985,0,0,1,2.764-1.026c1.457.819,1.746,3.832,1.448,5.3-.025.124-.654,2.061-.679,2.044,0,0-.025-.017-.025-.025.05.472.1.985.132,1.539.066,1.026.132,2.193.116,3.467a34.492,34.492,0,0,1-.24,4.1,26.208,26.208,0,0,1-.919,4.5c0,.017-.017.033-.017.05.281-.406,1.092-1.506,1.167-1.589,1.018-1.092,3.633-2.615,5.147-1.9a1.983,1.983,0,0,1,.778,2.847,4.143,4.143,0,0,1-3.1,1.606Z" transform="translate(-5.5 -113.571)" opacity="0.3"/>
            </g>
            <rect id="Rectángulo_402790" data-name="Rectángulo 402790" width="7.713" height="24.278" transform="translate(17.287 51.821)"/>
          </g>
        </g>
        <g id="Plant_2" data-name="Plant 2" transform="translate(34.395 98.442)">
          <g id="Grupo_1101624" data-name="Grupo 1101624" transform="translate(0)">
            <g id="Grupo_1101623" data-name="Grupo 1101623">
              <path id="Trazado_878971" data-name="Trazado 878971" d="M397.724,182.109s1-11.986,0-19.308-5.657-9.99-5.988-13.32,1.665-6.66-.331-9.99a39.355,39.355,0,0,0-5.988-6.991s2.668,5,.662,8.987-5.092,8.325-3,11.655,4.323,6.66,3.661,9.318-4.333,2-3.661,7.994,2.327,8.325,2.327,8.325l-.331,3.33,11.324-.331" transform="translate(-372.418 -132.5)" fill="#1682fb" stroke="#000" stroke-linecap="round" stroke-linejoin="round" stroke-width="1"/>
              <path id="Trazado_878972" data-name="Trazado 878972" d="M382.279,182.043s-2.366-2.483,1.47-6.232c2.473-2.424,4.917-6.027,5.024-9.766.058-1.84-.779-3.3-.214-5.024.613-1.879,2.532-3.067,3.048-5.161,1.013-4.05-1.694-7.819-2.035-9.1s-.01-1.373,1.811-4.946a14.851,14.851,0,0,0,1.7-6.641,6.715,6.715,0,0,1-4.956,4.732c-4.187,1.09-6.582,3.778-6.29,8.87s.633,6.378-2.911,7.3c-5.569,1.451-5.024,5.287-4.391,9.961.4,2.931.555,3.69-1.188,5.813-1.412,1.723-3.593,1.431-1.889,4.411,1.889,3.291-.828,6.066,2.493,6.923s8.305-1.139,8.305-1.139Z" transform="translate(-356.097 -132.57)" fill="#1682fb" stroke="#000" stroke-linecap="round" stroke-linejoin="round" stroke-width="1"/>
              <path id="Trazado_878973" data-name="Trazado 878973" d="M397,182.612s2.3-2.541-1.646-6.193c-2.541-2.356-5.083-5.881-5.3-9.62-.107-1.84.682-3.32.068-5.024-.672-1.86-2.619-3-3.194-5.073-1.12-4.021,1.47-7.858,1.772-9.162s-.029-1.373-1.947-4.888a14.967,14.967,0,0,1-1.9-6.592,6.731,6.731,0,0,0,5.092,4.6c4.216.974,6.689,3.593,6.533,8.685s-.448,6.387,3.116,7.215c5.608,1.3,5.17,5.141,4.674,9.834-.312,2.941-.448,3.71,1.344,5.774,1.461,1.684,3.632,1.334,2.006,4.362-1.8,3.34.993,6.037-2.3,6.991s-8.335-.906-8.335-.906Z" transform="translate(-384.856 -132.594)" fill="#1682fb" stroke="#000" stroke-linecap="round" stroke-linejoin="round" stroke-width="1"/>
              <path id="Trazado_878974" data-name="Trazado 878974" d="M375.83,180.71v17.049a6.4,6.4,0,0,0,.049.964,9.98,9.98,0,0,0,.565,2.6,10.7,10.7,0,0,0,10.1,7.147h5.813a10.7,10.7,0,0,0,10.1-7.147,9.976,9.976,0,0,0,.565-2.6,7.987,7.987,0,0,0,.049-.964V180.71H375.83Z" transform="translate(-370.932 -133.769)" fill="#fff" stroke="#000" stroke-linecap="round" stroke-linejoin="round" stroke-width="1"/>
            </g>
            <rect id="Rectángulo_402791" data-name="Rectángulo 402791" width="27.234" height="0.643" transform="translate(4.898 59.112)" fill="#263238" stroke="#000" stroke-linecap="round" stroke-linejoin="round" stroke-width="1"/>
            <path id="Trazado_878975" data-name="Trazado 878975" d="M375.88,197.6a9.978,9.978,0,0,0,.565,2.6h26.007a9.975,9.975,0,0,0,.565-2.6Z" transform="translate(-370.934 -134.213)" fill="#263238" stroke="#000" stroke-linecap="round" stroke-linejoin="round" stroke-width="1"/>
          </g>
        </g>
        <g id="Device_3" data-name="Device 3" transform="translate(115.915 69.231)">
          <g id="Grupo_1101625" data-name="Grupo 1101625" transform="translate(0 0)">
            <path id="Trazado_878976" data-name="Trazado 878976" d="M334.469,151.508l-11.249,47.63a2.278,2.278,0,0,0,2.212,2.805h14.195v3.577H321.657a4.21,4.21,0,0,1-4.076-5.281l14.1-53.89,2.777,5.158Z" transform="translate(-317.44 -101.618)" fill="#fff" stroke="#263238" stroke-linecap="round" stroke-linejoin="round" stroke-width="1"/>
            <rect id="Rectángulo_402792" data-name="Rectángulo 402792" width="6.354" height="89.744" transform="matrix(-0.985, 0.174, -0.174, -0.985, 27.167, 88.378)" fill="#263238" stroke="#263238" stroke-linecap="round" stroke-linejoin="round" stroke-width="1"/>
            <rect id="Rectángulo_402793" data-name="Rectángulo 402793" width="57.41" height="2.485" transform="translate(42.943 101.418)" fill="#fff" stroke="#263238" stroke-linecap="round" stroke-linejoin="round" stroke-width="1"/>
          </g>
        </g>
        <g id="Table_3" data-name="Table 3" transform="translate(0 173.142)">
          <line id="Línea_704" data-name="Línea 704" x1="386.244" fill="none" stroke="#263238" stroke-linecap="round" stroke-linejoin="round" stroke-width="1"/>
        </g>
        <g id="Character_3" data-name="Character 3" transform="translate(179.981 3.779)">
          <g id="Grupo_1101631" data-name="Grupo 1101631" transform="translate(0)">
            <path id="Trazado_878977" data-name="Trazado 878977" d="M109.845,50.7s1.686-16.11,10.1-21.159,4.084,8.655,4.084,9.376,12.5-13.225,23.079-5.526.721,23.8.721,23.8,12.748-4.327,12.5.244S148.3,65.849,148.3,65.849s21.4,2.164,13.7,11.783-28.614,2.641-28.614,2.641,5.77,6.247,1.686,6.969S115.362,75.7,113.92,72.574s-9.619-12.5-4.084-21.88Z" transform="translate(3.114 -28.43)" fill="#263238" stroke="#263238" stroke-linecap="round" stroke-linejoin="round" stroke-width="1"/>
            <path id="Trazado_878978" data-name="Trazado 878978" d="M168.2,81.363s-7.821-.412-11.942-7-2.473-11.118,3.709-13.591,14.818-1.236,14.818-1.236,13.179-16.466,31.705-12.354,21,18.527,19.763,25.936-4.936,29.645-4.936,29.645-15.23,2.473-19.351-1.648-11.942-18.939-20.175-21S168.2,81.354,168.2,81.354Z" transform="translate(-102.873 -29.577)" fill="#263238" stroke="#263238" stroke-linecap="round" stroke-linejoin="round" stroke-width="1"/>
            <g id="Grupo_1101626" data-name="Grupo 1101626" transform="translate(61.585 43.889)">
              <path id="Trazado_878979" data-name="Trazado 878979" d="M209.116,98.7c.5,3.7,3.156,8.889,5.7,8.552s4.215-3.615,3.718-7.315-3.175-4.215-5.723-3.868-4.187-1.058-3.69,2.641Z" transform="translate(-208.115 -76.599)" fill="none" stroke="#263238" stroke-linecap="round" stroke-linejoin="round" stroke-width="1"/>
              <path id="Trazado_878980" data-name="Trazado 878980" d="M199.19,93.067s-3.3,1.236-8.233-2.473-4.936-12.766-15.642-14.818-17.7,2.885-18.115,5.76,1.236,8.645,1.236,14.406-1.236,8.645-2.473,9.882-2.885.412-.412,2.885a46.026,46.026,0,0,0,7.409,5.348s7,13.179,9.882,15.642,9.882,1.236,12.354,0,7.821-4.121,7.821-4.121l3.3,11.53,19.763-16.054-4.936-16.466s-9.882-2.473-11.942-11.53Z" transform="translate(-154.27 -75.288)" fill="#fff" stroke="#263238" stroke-linecap="round" stroke-linejoin="round" stroke-width="1"/>
              <path id="Trazado_878981" data-name="Trazado 878981" d="M173.24,128.583l5.3-6.023-2.857,12.588Z" transform="translate(-134.501 -78.283)" fill="#263238" stroke="#263238" stroke-linecap="round" stroke-linejoin="round" stroke-width="1"/>
              <path id="Trazado_878982" data-name="Trazado 878982" d="M209.058,99.906c.141,1.583.955,2.81,1.817,2.735s1.442-1.424,1.293-3.016-.955-2.81-1.817-2.735S208.909,98.313,209.058,99.906Z" transform="translate(-201.679 -76.657)" fill="#263238"/>
              <line id="Línea_705" data-name="Línea 705" y1="1.873" x2="28.193" transform="translate(15.248 17.582)" fill="none" stroke="#263238" stroke-linecap="round" stroke-linejoin="round" stroke-width="1"/>
              <line id="Línea_706" data-name="Línea 706" x1="2.285" transform="translate(3.643 23.352)" fill="none" stroke="#263238" stroke-linecap="round" stroke-linejoin="round" stroke-width="1"/>
              <path id="Trazado_878983" data-name="Trazado 878983" d="M213.507,89.394a5.488,5.488,0,0,0-6.247.721" transform="translate(-201.332 -76.139)" fill="none" stroke="#263238" stroke-linecap="round" stroke-linejoin="round" stroke-width="1"/>
              <path id="Trazado_878984" data-name="Trazado 878984" d="M201.61,121.536s3.128,0,5.292-3.606" transform="translate(-189.435 -77.99)" fill="none" stroke="#263238" stroke-linecap="round" stroke-linejoin="round" stroke-width="1"/>
            </g>
            <g id="Grupo_1101628" data-name="Grupo 1101628" transform="translate(90.658 57.842)">
              <path id="Trazado_878985" data-name="Trazado 878985" d="M99.47,151.666l-3.7,53.154h81.188S164.267,164.357,160.3,155.9s-8.992-12.167-8.992-12.167-10.312-9.254-24.334-7.409S99.47,151.666,99.47,151.666Z" transform="translate(-89.429 -93.093)" fill="#1682fb" stroke="#263238" stroke-linecap="round" stroke-linejoin="round" stroke-width="1"/>
              <path id="Trazado_878986" data-name="Trazado 878986" d="M163.541,97.308s1.648-8.233,7.409-7,2.885,13.993-.824,17.7-6.172-.412-6.172-.412" transform="translate(-150.166 -90.185)" fill="#fff" stroke="#263238" stroke-linecap="round" stroke-linejoin="round" stroke-width="1"/>
              <g id="Grupo_1101627" data-name="Grupo 1101627" transform="translate(6.877 14.883)">
                <path id="Trazado_878987" data-name="Trazado 878987" d="M113.992,153.2s-3.175-5.554-.524-10.05,10.575-13.488,21.421-21.946,25.121-19.3,27.238-13.488,3.7,17.187,3.7,17.187,9.254,1.583,10.312,4.5,2.117,17.45.525,19.3-2.641-.262-6.079-.262-24.334-6.875-32.267-6.35-9.254,2.913-15.342,6.079-8.992,5.02-8.992,5.02Z" transform="translate(-112.412 -106.075)" fill="#1682fb" stroke="#263238" stroke-linecap="round" stroke-linejoin="round" stroke-width="1"/>
                <path id="Trazado_878988" data-name="Trazado 878988" d="M178.5,146.14a25.977,25.977,0,0,0-4.112,3.775" transform="translate(-171.489 -108.613)" fill="none" stroke="#263238" stroke-linecap="round" stroke-linejoin="round" stroke-width="1"/>
                <path id="Trazado_878989" data-name="Trazado 878989" d="M168.859,131.813c-6.051-1.255-13.385-1.92-18.545.459a128.21,128.21,0,0,0-18.724,10.809" transform="translate(-121.758 -107.634)" fill="none" stroke="#263238" stroke-linecap="round" stroke-linejoin="round" stroke-width="1"/>
                <path id="Trazado_878990" data-name="Trazado 878990" d="M129.276,135.023a75.482,75.482,0,0,0-9.226-2.763" transform="translate(-71.366 -107.734)" fill="none" stroke="#263238" stroke-linecap="round" stroke-linejoin="round" stroke-width="1"/>
                <path id="Trazado_878991" data-name="Trazado 878991" d="M144.125,126.106s-6.613-2.641-15.6.262" transform="translate(-94.148 -107.274)" fill="none" stroke="#263238" stroke-linecap="round" stroke-linejoin="round" stroke-width="1"/>
              </g>
              <path id="Trazado_878992" data-name="Trazado 878992" d="M183.5,154.252c-2.117-4.5-8.992-14.546-19.566-9.254s-13.225,17.984-17.984,33.588S136.7,205.3,136.7,205.3h39.4l9.788-39.4" transform="translate(-136.7 -93.563)" fill="#1682fb" stroke="#263238" stroke-linecap="round" stroke-linejoin="round" stroke-width="1"/>
            </g>
            <path id="Trazado_878993" data-name="Trazado 878993" d="M268.831,207.88l-4.374-3.747s-5.189,1.236-13.637-1.367-11.249-5.114-11.249-5.114a62.89,62.89,0,0,0-7.634,4.271c-3.878,2.576-6.688,3.569-10.434,2.538s1.021-2.042,5.17-4.974,9.142-6.959,9.142-6.959-7.84,3.747-10.565,4.767-5.451,2.726-7.84,1.7-1.367-2.042,4.777-5.114c5.62-2.81,11.933-8.177,15-8.177s17.047,5.8,17.047,5.8l27.359,16.363H268.831Z" transform="translate(-216.22 -38.395)" fill="#fff" stroke="#263238" stroke-linecap="round" stroke-linejoin="round" stroke-width="1"/>
            <g id="Grupo_1101630" data-name="Grupo 1101630" transform="translate(7.589 148.804)">
              <g id="Grupo_1101629" data-name="Grupo 1101629" transform="translate(0)">
                <path id="Trazado_878994" data-name="Trazado 878994" d="M266.138,201.883a13.656,13.656,0,0,1-6.407.468c-3.072-.684-7.156-1.367-7.156-1.367s-8.177.337-10.912,0-2.042-2.042,2.388-3.747,21.131-2.726,21.477-1.7a56.13,56.13,0,0,1,.609,6.35Z" transform="translate(-230.679 -187.796)" fill="#263238" stroke="#263238" stroke-linecap="round" stroke-linejoin="round" stroke-width="1"/>
                <path id="Trazado_878995" data-name="Trazado 878995" d="M275.893,192.61a81.074,81.074,0,0,0-7.69,3.241c-1.218.805-3.644,1.414-2.632,2.838s4.252.206,6.482-.206a23.285,23.285,0,0,0,5.058-1.817l-1.218-4.046Z" transform="translate(-265.33 -187.636)" fill="#fff" stroke="#263238" stroke-linecap="round" stroke-linejoin="round" stroke-width="1"/>
                <path id="Trazado_878996" data-name="Trazado 878996" d="M267.721,188.718s-11.539.609-14.171,1.414-4.655,6.276-5.058,7.9-1.817,3.644-.609,3.85,5.667-4.861,7.493-5.873,9.1-4.449,11.736-5.461,2.023-2.023.609-1.826Z" transform="translate(-240.365 -187.388)" fill="#fff" stroke="#263238" stroke-linecap="round" stroke-linejoin="round" stroke-width="1"/>
                <path id="Trazado_878997" data-name="Trazado 878997" d="M266.53,205.986S240.089,187.3,237.26,187.3s-15.511,5.639-18.339,7.053-6.35,9.17-6.35,9.17.7,1.761,3.175.356,5.292-5.995,5.292-5.995l14.078-.543s3.55,3.344,5.667,4.046a48.92,48.92,0,0,0,7.081,1.218l4.552,4.093,14.106-.7Z" transform="translate(-205.332 -187.3)" fill="#fff" stroke="#263238" stroke-linecap="round" stroke-linejoin="round" stroke-width="1"/>
              </g>
              <path id="Trazado_878998" data-name="Trazado 878998" d="M210.459,197.58l-6.069,11.137h26.32Z" transform="translate(-161.85 -187.951)" fill="#1682fb" stroke="#263238" stroke-linecap="round" stroke-linejoin="round" stroke-width="1"/>
            </g>
            <path id="Trazado_878999" data-name="Trazado 878999" d="M203.812,95.387s7.915-2.9,8.973-1.058,2.107,8.7-2.107,11.6-6.425-6.135-6.425-6.135" transform="translate(-136.739 -32.567)" fill="none" stroke="#263238" stroke-linecap="round" stroke-linejoin="round" stroke-width="1"/>
          </g>
        </g>
      </g>
      <g id="Grupo_1101636" data-name="Grupo 1101636" transform="translate(-23.052 -20.436)">
        <g id="Grupo_1101632" data-name="Grupo 1101632" transform="translate(58.981 33)" clip-path="url(#clip-path)">
          <path id="Trazado_879000" data-name="Trazado 879000" d="M43.491,45.844,0,42.238C6.46,38.466,5.32,7.674,5.32,7.674h38.17Z" transform="translate(0 0.646)" fill="#fff"/>
          <path id="Trazado_879001" data-name="Trazado 879001" d="M16.408,16.628q9.026.73,18.088.712v-.813l-.549.055c-.516.052-.52.865,0,.813l.549-.055c.511-.052.535-.814,0-.813q-9.056.018-18.088-.712c-.522-.042-.519.771,0,.813" transform="translate(1.349 1.332)" fill="#273a89"/>
          <path id="Trazado_879002" data-name="Trazado 879002" d="M16.816,20.576a117.619,117.619,0,0,0,17.244.764v-.813l-.577.031c-.52.028-.524.841,0,.813l.577-.031c.518-.028.526-.828,0-.813a117.619,117.619,0,0,1-17.244-.764c-.518-.061-.514.752,0,.813" transform="translate(1.384 1.664)" fill="#273a89"/>
          <path id="Trazado_879003" data-name="Trazado 879003" d="M16.707,31.825a158.974,158.974,0,0,0,17.2,1.478.407.407,0,0,0,0-.813,156.912,156.912,0,0,1-16.989-1.449c-.512-.073-.733.711-.216.784" transform="translate(1.382 2.614)" fill="#273a89"/>
          <path id="Trazado_879004" data-name="Trazado 879004" d="M16.456,35.435a108.221,108.221,0,0,0,18.487.957c.522-.018.524-.832,0-.813a106.914,106.914,0,0,1-18.272-.928c-.512-.07-.733.712-.216.784" transform="translate(1.361 2.918)" fill="#273a89"/>
          <rect id="Rectángulo_402794" data-name="Rectángulo 402794" width="6.58" height="6.58" transform="translate(8.452 15.592)" fill="#273a89"/>
          <path id="Trazado_879005" data-name="Trazado 879005" d="M0,0H6.58V6.58H0Z" transform="translate(8.258 38.135) rotate(-86.524)" fill="#273a89"/>
          <path id="Trazado_879006" data-name="Trazado 879006" d="M8.735,17.335l1.549,1.592c.237.245.488.591.839.67a.785.785,0,0,0,.837-.465c.41-.736.735-1.531,1.086-2.3.1-.23.209-.459.313-.688a.419.419,0,0,0-.146-.556.41.41,0,0,0-.556.145q-.34.753-.687,1.5c-.166.358-.333.715-.5,1.07-.072.147-.14.3-.221.44-.007.011-.048.064-.046.074.005.029-.064-.067.014-.005,0,0,.114-.011.111,0s-.064-.05-.067-.053c-.121-.108-.23-.235-.344-.351L9.31,16.76c-.365-.376-.94.2-.575.575" transform="translate(0.726 1.309)" fill="#fff"/>
          <path id="Trazado_879007" data-name="Trazado 879007" d="M8.476,31.489l1.382,1.224a1.846,1.846,0,0,0,.7.5.972.972,0,0,0,.925-.226c.51-.458.93-.97,1.376-1.456.138-.15.275-.3.411-.451.273-.3-.429-.576-.7-.275s-.569.623-.857.934c-.214.231-.427.46-.646.687-.081.086-.183.169-.254.258-.022.026-.1.04.007.029s.048.009.035-.021-.075-.062-.1-.081l-.17-.151L9.178,31.214a.551.551,0,0,0-.557-.1c-.171.067-.279.256-.145.374" transform="translate(0.709 2.584)" fill="#fff"/>
          <rect id="Rectángulo_402795" data-name="Rectángulo 402795" width="12.343" height="4.68" transform="translate(22.862 11.65) rotate(-70.709)" fill="#1682fb"/>
        </g>
        <g id="Grupo_1101635" data-name="Grupo 1101635" transform="translate(-4.819 106.191)">
          <path id="Trazado_879008" data-name="Trazado 879008" d="M0,0H43.744V43.744H0Z" transform="translate(0 14.236) rotate(-5.479)" fill="#fff"/>
          <g id="Grupo_1101634" data-name="Grupo 1101634" transform="translate(0 0)">
            <g id="Grupo_1101633" data-name="Grupo 1101633" clip-path="url(#clip-path-2)">
              <path id="Trazado_879009" data-name="Trazado 879009" d="M6.027,18.91l27.8-2.861c.645-.067.652-1.086,0-1.019l-27.8,2.861c-.645.067-.652,1.086,0,1.019" transform="translate(1.987 5.389)" fill="#273a89"/>
              <path id="Trazado_879010" data-name="Trazado 879010" d="M5.837,22.551q15.14-1.763,30.362-2.683c-.046-.333-.09-.667-.136-1l-.789.279c-.615.217-.349,1.2.27.984.262-.094.527-.186.789-.279.509-.181.473-1.038-.135-1q-15.217.921-30.362,2.683c-.644.075-.651,1.1,0,1.019" transform="translate(1.919 6.759)" fill="#273a89"/>
              <path id="Trazado_879011" data-name="Trazado 879011" d="M6.915,26.062A192.5,192.5,0,0,0,32.247,24.2c.647-.091.372-1.073-.27-.982A190.487,190.487,0,0,1,6.915,25.043a.51.51,0,0,0,0,1.019" transform="translate(2.303 8.324)" fill="#273a89"/>
              <path id="Trazado_879012" data-name="Trazado 879012" d="M9.5,32.1l19.286-1.778c.648-.06.654-1.08,0-1.019L9.5,31.085c-.648.06-.654,1.079,0,1.019" transform="translate(3.231 10.51)" fill="#273a89"/>
              <rect id="Rectángulo_402797" data-name="Rectángulo 402797" width="5.864" height="15.468" transform="matrix(0.976, -0.218, 0.218, 0.976, 15.868, 1.278)" fill="#4973ed"/>
            </g>
          </g>
        </g>
      </g>
      <g id="Grupo_1101638" data-name="Grupo 1101638" transform="matrix(0.899, -0.438, 0.438, 0.899, 447.63, 84.001)">
        <g id="Grupo_1101637" data-name="Grupo 1101637" transform="translate(0 0)" clip-path="url(#clip-path-3)">
          <path id="Trazado_879013" data-name="Trazado 879013" d="M48.774,42.808,0,38.763C7.245,34.533,5.967,0,5.967,0H48.774Z" transform="translate(0 9.331)" fill="#fff"/>
          <path id="Trazado_879014" data-name="Trazado 879014" d="M.438.914q10.123.819,20.286.8V.8l-.615.062c-.579.058-.584.97,0,.912l.615-.062c.573-.058.6-.913,0-.912Q10.568.821.438,0c-.585-.047-.582.865,0,.912" transform="translate(19.477 19.228)" fill="#273a89"/>
          <path id="Trazado_879015" data-name="Trazado 879015" d="M.434.916a131.909,131.909,0,0,0,19.339.857V.861L19.126.9c-.584.032-.587.944,0,.912l.647-.035c.581-.032.59-.929,0-.912A131.909,131.909,0,0,1,.434,0c-.581-.068-.576.844,0,.912" transform="translate(19.977 24.027)" fill="#273a89"/>
          <path id="Trazado_879016" data-name="Trazado 879016" d="M.331.884A178.283,178.283,0,0,0,19.625,2.542a.456.456,0,0,0,0-.912A175.975,175.975,0,0,1,.573.005C0-.076-.249.8.331.884" transform="translate(19.956 37.739)" fill="#273a89"/>
          <path id="Trazado_879017" data-name="Trazado 879017" d="M.331.884A121.367,121.367,0,0,0,21.064,1.958c.585-.021.587-.933,0-.912A119.9,119.9,0,0,1,.573.005C0-.074-.249.8.331.884" transform="translate(19.651 42.129)" fill="#273a89"/>
          <rect id="Rectángulo_402799" data-name="Rectángulo 402799" width="7.38" height="7.38" transform="translate(9.478 17.487)" fill="#273a89"/>
          <path id="Trazado_879018" data-name="Trazado 879018" d="M0,0H7.38V7.38H0Z" transform="translate(9.261 42.768) rotate(-86.524)" fill="#273a89"/>
          <path id="Trazado_879019" data-name="Trazado 879019" d="M.131,2.015,1.869,3.8c.266.275.547.663.941.751a.881.881,0,0,0,.939-.522c.46-.826.824-1.717,1.218-2.575C5.084,1.2,5.2.94,5.318.682A.47.47,0,0,0,5.154.059.46.46,0,0,0,4.53.222Q4.149,1.066,3.76,1.9c-.186.4-.373.8-.565,1.2-.08.165-.157.336-.248.494-.007.012-.054.072-.051.083.006.033-.072-.075.016-.006,0,0,.128-.012.124,0s-.072-.056-.075-.06c-.136-.122-.258-.264-.385-.394L.776,1.371c-.41-.422-1.054.224-.644.644" transform="translate(10.479 18.893)" fill="#fff"/>
          <path id="Trazado_879020" data-name="Trazado 879020" d="M.067.915l1.55,1.373a2.071,2.071,0,0,0,.784.558,1.09,1.09,0,0,0,1.037-.253C4.011,2.08,4.482,1.505,4.982.96c.154-.168.309-.337.461-.506.306-.338-.482-.646-.787-.309s-.638.7-.961,1.047c-.24.259-.479.516-.725.771-.091.1-.205.19-.285.289-.024.029-.111.045.007.033s.054.01.039-.023-.084-.069-.109-.091C2.559,2.116,2.5,2.06,2.432,2L.855.607A.618.618,0,0,0,.23.5C.038.571-.082.783.067.915" transform="translate(10.233 37.297)" fill="#fff"/>
          <path id="Trazado_879021" data-name="Trazado 879021" d="M0,0H13.843V5.248H0Z" transform="translate(25.64 13.065) rotate(-70.709)" fill="#1682fb"/>
        </g>
      </g>
    </g>
  </g>
</svg>
