<svg id="megafono" xmlns="http://www.w3.org/2000/svg" xmlns:xlink="http://www.w3.org/1999/xlink" width="119.01" height="115.665" viewBox="0 0 119.01 115.665">
  <defs>
    <clipPath id="clip-path">
      <rect id="Rectángulo_401164" data-name="Rectángulo 401164" width="119.01" height="115.665" fill="none"/>
    </clipPath>
    <clipPath id="clip-path-4">
      <rect id="Rectángulo_401148" data-name="Rectángulo 401148" width="19.079" height="26.878" fill="none"/>
    </clipPath>
    <clipPath id="clip-path-5">
      <rect id="Rectángulo_401149" data-name="Rectángulo 401149" width="30.274" height="26.778" fill="none"/>
    </clipPath>
    <clipPath id="clip-path-6">
      <rect id="Rectángulo_401150" data-name="Rectángulo 401150" width="16.838" height="30.308" fill="none"/>
    </clipPath>
    <clipPath id="clip-path-7">
      <rect id="Rectángulo_401151" data-name="Rectángulo 401151" width="18.102" height="7.729" fill="none"/>
    </clipPath>
    <clipPath id="clip-path-8">
      <rect id="Rectángulo_401152" data-name="Rectángulo 401152" width="6.063" height="9.98" fill="none"/>
    </clipPath>
    <clipPath id="clip-path-9">
      <rect id="Rectángulo_401153" data-name="Rectángulo 401153" width="6.478" height="4.051" fill="none"/>
    </clipPath>
    <clipPath id="clip-path-10">
      <rect id="Rectángulo_401154" data-name="Rectángulo 401154" width="14.83" height="9.605" fill="none"/>
    </clipPath>
    <clipPath id="clip-path-11">
      <rect id="Rectángulo_401155" data-name="Rectángulo 401155" width="34.79" height="48.663" fill="none"/>
    </clipPath>
    <clipPath id="clip-path-12">
      <rect id="Rectángulo_401156" data-name="Rectángulo 401156" width="25.652" height="55.01" fill="none"/>
    </clipPath>
    <clipPath id="clip-path-13">
      <rect id="Rectángulo_401157" data-name="Rectángulo 401157" width="7.163" height="13.286" fill="none"/>
    </clipPath>
    <clipPath id="clip-path-14">
      <rect id="Rectángulo_401158" data-name="Rectángulo 401158" width="2.905" height="4.888" fill="none"/>
    </clipPath>
    <clipPath id="clip-path-15">
      <rect id="Rectángulo_401159" data-name="Rectángulo 401159" width="14.684" height="8.9" fill="none"/>
    </clipPath>
    <clipPath id="clip-path-16">
      <rect id="Rectángulo_401160" data-name="Rectángulo 401160" width="2.611" height="4.035" fill="none"/>
    </clipPath>
    <clipPath id="clip-path-17">
      <rect id="Rectángulo_401161" data-name="Rectángulo 401161" width="25.525" height="16.409" fill="none"/>
    </clipPath>
    <clipPath id="clip-path-18">
      <rect id="Rectángulo_401162" data-name="Rectángulo 401162" width="22.951" height="52.882" fill="none"/>
    </clipPath>
  </defs>
  <g id="Grupo_1100535" data-name="Grupo 1100535" clip-path="url(#clip-path)">
    <g id="Grupo_1100487" data-name="Grupo 1100487">
      <g id="Grupo_1100486" data-name="Grupo 1100486" clip-path="url(#clip-path)">
        <path id="Trazado_873874" data-name="Trazado 873874" d="M178.835,232.183l-30.095-.281-9.12-.043-2.48.005-.645.008a1.445,1.445,0,0,0-.22.012,1.374,1.374,0,0,0,.22.014l.645.015,2.48.03,9.12.048,30.1.019c11.746,0,22.383.014,30.084.069,3.85.027,6.966.062,9.12.1,1.076.02,1.913.041,2.48.063a4.663,4.663,0,0,1,.864.064,4.72,4.72,0,0,1-.865.055c-.567.016-1.4.029-2.48.038-2.154.019-5.27.023-9.12.012-7.7-.021-18.337-.112-30.083-.231" transform="translate(-102.374 -174.178)" fill="#f5f5f5"/>
        <path id="Trazado_873875" data-name="Trazado 873875" d="M179.6,223.219l-29.684-4.826-9-1.419-2.451-.368-.638-.089a1.358,1.358,0,0,0-.219-.021,1.361,1.361,0,0,0,.215.047l.634.113,2.444.405,9,1.425,29.728,4.561c11.6,1.772,22.109,3.392,29.707,4.609,3.8.608,6.871,1.114,8.992,1.48,1.06.183,1.883.33,2.439.437a4.6,4.6,0,0,1,.844.194,4.578,4.578,0,0,1-.864-.075c-.563-.07-1.391-.183-2.456-.336-2.131-.306-5.21-.772-9.011-1.365-7.6-1.184-18.1-2.882-29.68-4.774" transform="translate(-103.372 -162.636)" fill="#f5f5f5"/>
        <path id="Trazado_873876" data-name="Trazado 873876" d="M181.872,214.152l-28.531-9.31-8.661-2.779-2.36-.738-.616-.185a1.364,1.364,0,0,0-.213-.054,1.311,1.311,0,0,0,.2.08l.608.208,2.348.775,8.658,2.786,28.618,9.053c11.172,3.525,21.284,6.732,28.59,9.1,3.653,1.182,6.605,2.152,8.64,2.838,1.018.343,1.806.615,2.338.806a4.5,4.5,0,0,1,.8.322,4.539,4.539,0,0,1-.841-.206c-.545-.155-1.344-.393-2.371-.708-2.054-.628-5.02-1.559-8.678-2.727-7.317-2.333-17.4-5.616-28.536-9.258" transform="translate(-106.291 -151.06)" fill="#f5f5f5"/>
        <path id="Trazado_873877" data-name="Trazado 873877" d="M185.578,205.553,158.909,192l-8.1-4.069-2.211-1.09-.578-.277a1.381,1.381,0,0,0-.2-.087,1.338,1.338,0,0,0,.189.11l.567.3,2.194,1.123,8.1,4.075L185.659,205.4c10.462,5.19,19.928,9.9,26.76,13.358,3.416,1.726,6.175,3.135,8.074,4.123.949.494,1.684.882,2.179,1.152a4.527,4.527,0,0,1,.74.439,4.606,4.606,0,0,1-.8-.333c-.512-.237-1.264-.595-2.227-1.062-1.927-.935-4.7-2.308-8.128-4.02-6.848-3.423-16.278-8.207-26.682-13.505" transform="translate(-111.042 -140.084)" fill="#f5f5f5"/>
        <path id="Trazado_873878" data-name="Trazado 873878" d="M190.557,197.737,166.4,180.3l-7.348-5.25-2.009-1.413-.527-.361a1.3,1.3,0,0,0-.185-.116,1.332,1.332,0,0,0,.169.137l.512.381,1.986,1.443,7.345,5.255L190.662,197.6c9.5,6.716,18.091,12.811,24.283,17.26,3.1,2.224,5.594,4.035,7.311,5.3.858.632,1.521,1.128,1.966,1.469a4.467,4.467,0,0,1,.66.546,4.546,4.546,0,0,1-.733-.45c-.468-.311-1.152-.779-2.029-1.387-1.753-1.216-4.275-2.995-7.381-5.206-6.213-4.421-14.758-10.579-24.182-17.392" transform="translate(-117.436 -130.079)" fill="#f5f5f5"/>
        <path id="Trazado_873879" data-name="Trazado 873879" d="M196.663,190.844l-21.077-20.88-6.419-6.3-1.758-1.7-.462-.437a1.4,1.4,0,0,0-.164-.143,1.269,1.269,0,0,0,.145.161l.445.454,1.731,1.726,6.414,6.3,21.271,20.693c8.308,8.07,15.82,15.39,21.225,20.72,2.7,2.665,4.881,4.831,6.374,6.34.747.754,1.322,1.344,1.707,1.749a4.407,4.407,0,0,1,.565.639,4.478,4.478,0,0,1-.652-.555c-.412-.378-1.013-.944-1.782-1.677-1.537-1.466-3.744-3.6-6.458-6.258-5.43-5.307-12.885-12.681-21.1-20.836" transform="translate(-125.292 -121.238)" fill="#f5f5f5"/>
        <path id="Trazado_873880" data-name="Trazado 873880" d="M203.8,184.957l-17.478-23.812-5.333-7.191-1.465-1.945-.387-.5a1.293,1.293,0,0,0-.139-.165,1.3,1.3,0,0,0,.118.181l.367.516,1.434,1.966,5.328,7.194,17.7,23.657c6.916,9.228,13.165,17.594,17.651,23.677,2.244,3.041,4.048,5.51,5.282,7.226.617.858,1.091,1.527,1.407,1.985a4.355,4.355,0,0,1,.455.717,4.414,4.414,0,0,1-.555-.647c-.347-.436-.85-1.085-1.492-1.926-1.284-1.681-3.122-4.126-5.379-7.158-4.515-6.063-10.7-14.474-17.513-23.773" transform="translate(-134.468 -113.692)" fill="#f5f5f5"/>
        <path id="Trazado_873881" data-name="Trazado 873881" d="M211.886,180.171,198.454,154l-4.111-7.913-1.134-2.143-.3-.554a1.271,1.271,0,0,0-.111-.185,1.233,1.233,0,0,0,.087.2l.279.565,1.1,2.16,4.1,7.916,13.678,26.055c5.346,10.165,10.173,19.377,13.626,26.067,1.727,3.344,3.112,6.057,4.054,7.94.471.941.832,1.675,1.07,2.175a4.3,4.3,0,0,1,.334.777,4.31,4.31,0,0,1-.445-.723c-.273-.483-.665-1.2-1.164-2.129-1-1.855-2.42-4.55-4.161-7.888-3.484-6.674-8.239-15.922-13.473-26.142" transform="translate(-144.833 -107.576)" fill="#f5f5f5"/>
        <path id="Trazado_873882" data-name="Trazado 873882" d="M220.759,176.629l-9.027-27.9-2.779-8.442-.773-2.29-.208-.593a1.206,1.206,0,0,0-.08-.2,1.275,1.275,0,0,0,.054.208l.184.6.736,2.3,2.772,8.445,9.29,27.822c3.634,10.856,6.91,20.692,9.237,27.826,1.164,3.567,2.092,6.458,2.718,8.461.313,1,.55,1.781.7,2.311a4.233,4.233,0,0,1,.2.819,4.26,4.26,0,0,1-.322-.782c-.191-.519-.462-1.288-.805-2.28-.685-1.984-1.653-4.863-2.832-8.426-2.36-7.124-5.558-16.983-9.072-27.877" transform="translate(-156.173 -103.069)" fill="#f5f5f5"/>
        <path id="Trazado_873883" data-name="Trazado 873883" d="M230.092,174.488l-4.4-28.936-1.377-8.762-.393-2.38-.109-.618a1.259,1.259,0,0,0-.047-.209,1.292,1.292,0,0,0,.02.213l.085.621.354,2.385,1.37,8.763,4.67,28.9c1.831,11.277,3.473,21.491,4.616,28.892.572,3.7,1.021,6.7,1.315,8.771.147,1.037.255,1.843.321,2.391a4.225,4.225,0,0,1,.069.84,4.276,4.276,0,0,1-.191-.822c-.1-.542-.248-1.343-.426-2.375-.355-2.065-.845-5.056-1.433-8.754-1.177-7.4-2.74-17.622-4.447-28.917" transform="translate(-168.1 -100.351)" fill="#f5f5f5"/>
        <path id="Trazado_873884" data-name="Trazado 873884" d="M237.847,173.809c.106-11.421.2-21.757.271-29.249.016-3.737.029-6.763.039-8.864,0-1.041-.006-1.851-.007-2.41,0-.27-.007-.478-.009-.627a1.321,1.321,0,0,0-.012-.213,1.3,1.3,0,0,0-.014.213c0,.149-.008.357-.015.627-.007.559-.017,1.369-.03,2.41-.01,2.1-.025,5.127-.044,8.864,0,7.492,0,17.828,0,29.25s0,21.754-.053,29.238c-.025,3.742-.06,6.77-.1,8.863-.02,1.047-.041,1.859-.063,2.41a4.309,4.309,0,0,1-.065.84,4.305,4.305,0,0,1-.057-.841c-.017-.551-.03-1.364-.041-2.41-.021-2.093-.027-5.122-.018-8.864.017-7.484.1-17.822.219-29.237" transform="translate(-178.508 -99.497)" fill="#f5f5f5"/>
        <path id="Trazado_873885" data-name="Trazado 873885" d="M207.567,174.546l4.946-28.853,1.454-8.75.377-2.382.091-.621a1.256,1.256,0,0,0,.022-.213,1.278,1.278,0,0,0-.049.208c-.028.147-.066.351-.115.617l-.416,2.376c-.346,2.074-.845,5.06-1.461,8.749l-4.675,28.9c-1.815,11.279-3.476,21.49-4.724,28.875-.623,3.693-1.142,6.679-1.517,8.74-.187,1.031-.339,1.83-.448,2.371a4.265,4.265,0,0,1-.2.82,4.217,4.217,0,0,1,.077-.839c.072-.547.188-1.352.344-2.387.314-2.071.791-5.064,1.4-8.759,1.214-7.391,2.953-17.589,4.893-28.849" transform="translate(-150.881 -100.46)" fill="#f5f5f5"/>
        <path id="Trazado_873886" data-name="Trazado 873886" d="M177.471,176.749l9.561-27.735,2.854-8.419.758-2.295.19-.6a1.245,1.245,0,0,0,.056-.207,1.23,1.23,0,0,0-.082.2l-.214.591-.8,2.283-2.861,8.417-9.3,27.82c-3.62,10.861-6.913,20.69-9.343,27.792-1.214,3.551-2.21,6.421-2.915,8.4-.352.989-.631,1.755-.827,2.273a4.25,4.25,0,0,1-.33.779,4.217,4.217,0,0,1,.211-.817c.159-.529.4-1.307.726-2.305.645-2,1.6-4.88,2.8-8.436,2.4-7.113,5.767-16.918,9.507-27.74" transform="translate(-123.368 -103.289)" fill="#f5f5f5"/>
        <path id="Trazado_873887" data-name="Trazado 873887" d="M148.923,180.346l13.93-25.928,4.182-7.877,1.121-2.15.285-.562a1.306,1.306,0,0,0,.089-.2,1.283,1.283,0,0,0-.113.184l-.307.551-1.155,2.133-4.188,7.874-13.687,26.05C143.746,190.6,138.9,199.8,135.352,206.441c-1.774,3.321-3.222,6-4.237,7.849-.507.923-.907,1.637-1.184,2.118a4.374,4.374,0,0,1-.452.719,4.308,4.308,0,0,1,.342-.774c.243-.5.611-1.228,1.091-2.165.961-1.873,2.372-4.574,4.132-7.9,3.518-6.658,8.434-15.825,13.879-25.941" transform="translate(-97.266 -107.9)" fill="#f5f5f5"/>
        <path id="Trazado_873888" data-name="Trazado 873888" d="M122.728,185.18l17.93-23.493,5.4-7.145,1.453-1.953.372-.512a1.305,1.305,0,0,0,.119-.18,1.35,1.35,0,0,0-.141.164l-.392.5-1.483,1.931-5.4,7.141-17.709,23.651c-6.9,9.236-13.17,17.59-17.743,23.611-2.286,3.011-4.148,5.44-5.448,7.109-.65.835-1.159,1.479-1.511,1.912a4.37,4.37,0,0,1-.562.642,4.365,4.365,0,0,1,.462-.712c.32-.455.8-1.12,1.426-1.973,1.25-1.7,3.079-4.157,5.352-7.177,4.545-6.041,10.875-14.35,17.88-23.513" transform="translate(-73.324 -114.108)" fill="#f5f5f5"/>
        <path id="Trazado_873889" data-name="Trazado 873889" d="M99.464,191.11l21.471-20.5,6.475-6.242,1.748-1.71.449-.45a1.265,1.265,0,0,0,.146-.16,1.369,1.369,0,0,0-.165.141l-.467.433-1.775,1.683-6.479,6.238L99.589,191.233c-8.3,8.08-15.825,15.385-21.306,20.641-2.74,2.629-4.968,4.747-6.519,6.2-.775.726-1.382,1.286-1.8,1.661a4.472,4.472,0,0,1-.658.549,4.409,4.409,0,0,1,.571-.634c.389-.4.97-.985,1.724-1.733,1.508-1.495,3.707-3.641,6.435-6.281C83.5,206.354,91.078,199.1,99.464,191.11" transform="translate(-52.066 -121.737)" fill="#f5f5f5"/>
        <path id="Trazado_873890" data-name="Trazado 873890" d="M79.607,198.043l24.49-17,7.4-5.187,2-1.425.516-.376a1.268,1.268,0,0,0,.17-.136,1.433,1.433,0,0,0-.186.114l-.53.357-2.022,1.395-7.4,5.182-24.33,17.218c-9.49,6.727-18.094,12.806-24.35,17.17-3.127,2.182-5.667,3.938-7.432,5.138-.882.6-1.571,1.062-2.042,1.368a4.536,4.536,0,0,1-.738.443,4.485,4.485,0,0,1,.665-.54c.449-.338,1.116-.827,1.981-1.451,1.728-1.249,4.244-3.037,7.362-5.232,6.235-4.391,14.886-10.407,24.449-17.036" transform="translate(-33.917 -130.651)" fill="#f5f5f5"/>
        <path id="Trazado_873891" data-name="Trazado 873891" d="M63.6,205.9l26.924-13.071,8.139-4,2.2-1.1.57-.294a1.293,1.293,0,0,0,.19-.108,1.366,1.366,0,0,0-.2.085l-.581.272-2.222,1.07-8.142,3.994-26.8,13.31c-10.456,5.2-19.932,9.9-26.813,13.259-3.44,1.681-6.231,3.028-8.167,3.945-.968.459-1.722.81-2.237,1.041a4.6,4.6,0,0,1-.8.325,4.482,4.482,0,0,1,.744-.433c.5-.265,1.236-.647,2.19-1.132,1.908-.971,4.68-2.355,8.113-4.049,6.865-3.39,16.377-8.017,26.89-13.111" transform="translate(-19.277 -140.72)" fill="#f5f5f5"/>
        <path id="Trazado_873892" data-name="Trazado 873892" d="M51.871,214.519l28.7-8.79,8.685-2.706,2.356-.753.61-.2a1.314,1.314,0,0,0,.2-.078,1.353,1.353,0,0,0-.213.052l-.618.179-2.367.717-8.687,2.7-28.621,9.047c-11.167,3.539-21.286,6.729-28.625,8.995-3.669,1.133-6.643,2.038-8.7,2.647-1.03.3-1.832.536-2.378.686a4.547,4.547,0,0,1-.842.2,4.553,4.553,0,0,1,.8-.314c.534-.186,1.325-.45,2.346-.784,2.041-.667,5-1.61,8.667-2.758,7.328-2.3,17.471-5.413,28.677-8.835" transform="translate(-8.546 -151.739)" fill="#f5f5f5"/>
        <path id="Trazado_873893" data-name="Trazado 873893" d="M44.8,223.589,74.57,219.3l9.015-1.344,2.448-.383.636-.107a1.373,1.373,0,0,0,.215-.045,1.353,1.353,0,0,0-.22.019l-.639.083-2.454.346L74.555,219.2l-29.729,4.556c-11.6,1.787-22.11,3.389-29.725,4.5-3.807.559-6.891,1-9.024,1.283-1.067.143-1.9.249-2.459.314a4.6,4.6,0,0,1-.864.068,4.6,4.6,0,0,1,.845-.187c.558-.1,1.381-.242,2.443-.415,2.124-.346,5.2-.824,9.006-1.4,7.609-1.149,18.13-2.674,29.75-4.34" transform="translate(-2.069 -163.328)" fill="#f5f5f5"/>
        <path id="Trazado_873894" data-name="Trazado 873894" d="M42.548,231.265l30.095.245,9.12.032,2.48-.008.645-.009a1.384,1.384,0,0,0,.22-.012,1.454,1.454,0,0,0-.22-.013l-.645-.014-2.48-.027-9.12-.037-30.1.017c-11.746.015-22.383.013-30.084-.033-3.85-.022-6.966-.054-9.12-.092-1.077-.019-1.913-.039-2.48-.06A4.682,4.682,0,0,1,0,231.19a4.708,4.708,0,0,1,.865-.056c.567-.016,1.4-.03,2.48-.041,2.154-.022,5.27-.03,9.12-.023,7.7.012,18.337.09,30.083.195" transform="translate(0 -173.584)" fill="#f5f5f5"/>
        <path id="Trazado_873895" data-name="Trazado 873895" d="M45.072,201.854l29.69,4.789,9,1.408,2.451.365.639.088a1.374,1.374,0,0,0,.219.021,1.33,1.33,0,0,0-.214-.047l-.635-.112-2.445-.4-9-1.414-29.734-4.525c-11.606-1.757-22.114-3.364-29.713-4.573-3.8-.6-6.873-1.106-8.994-1.469-1.061-.181-1.883-.328-2.44-.434a4.581,4.581,0,0,1-.844-.193,4.587,4.587,0,0,1,.863.074c.563.069,1.391.182,2.457.333,2.131.3,5.211.766,9.013,1.354,7.605,1.175,18.1,2.859,29.686,4.737" transform="translate(-2.293 -146.751)" fill="#f5f5f5"/>
        <path id="Trazado_873896" data-name="Trazado 873896" d="M52.421,172.6l28.543,9.275,8.664,2.768,2.362.735.616.184a1.347,1.347,0,0,0,.213.054,1.3,1.3,0,0,0-.2-.08l-.608-.208-2.349-.772L81,181.781l-28.63-9.018c-11.177-3.511-21.293-6.706-28.6-9.062-3.655-1.177-6.608-2.144-8.643-2.827-1.018-.342-1.807-.612-2.339-.8a4.5,4.5,0,0,1-.8-.321,4.539,4.539,0,0,1,.841.205c.545.154,1.345.392,2.373.7,2.055.626,5.022,1.553,8.681,2.716,7.32,2.324,17.411,5.594,28.548,9.223" transform="translate(-8.999 -120.006)" fill="#f5f5f5"/>
        <path id="Trazado_873897" data-name="Trazado 873897" d="M64.412,144.846,91.1,158.369l8.108,4.059,2.213,1.088.579.277a1.382,1.382,0,0,0,.2.086,1.329,1.329,0,0,0-.189-.11l-.567-.3-2.2-1.121-8.105-4.065L64.331,145c-10.469-5.178-19.941-9.881-26.778-13.325-3.419-1.722-6.179-3.128-8.079-4.113-.95-.493-1.685-.88-2.18-1.15a4.5,4.5,0,0,1-.74-.438,4.6,4.6,0,0,1,.8.332c.513.236,1.264.593,2.228,1.059,1.928.933,4.707,2.3,8.133,4.011,6.852,3.415,16.288,8.187,26.7,13.472" transform="translate(-19.948 -94.632)" fill="#f5f5f5"/>
        <path id="Trazado_873898" data-name="Trazado 873898" d="M80.66,119.377l24.184,17.411,7.355,5.241,2.01,1.411.527.361a1.318,1.318,0,0,0,.185.116,1.321,1.321,0,0,0-.169-.137l-.512-.381-1.988-1.441-7.351-5.246-24.346-17.2c-9.507-6.7-18.107-12.789-24.305-17.23-3.1-2.22-5.6-4.028-7.318-5.29-.859-.631-1.523-1.126-1.969-1.467a4.447,4.447,0,0,1-.66-.546,4.558,4.558,0,0,1,.734.449c.468.311,1.153.778,2.031,1.385,1.754,1.214,4.279,2.99,7.388,5.2,6.219,4.414,14.771,10.561,24.2,17.363" transform="translate(-34.784 -71.353)" fill="#f5f5f5"/>
        <path id="Trazado_873899" data-name="Trazado 873899" d="M100.73,96.755l21.1,20.854,6.427,6.289,1.76,1.7.463.436a1.323,1.323,0,0,0,.164.142,1.317,1.317,0,0,0-.145-.161l-.445-.453-1.733-1.724-6.422-6.294L100.6,96.876c-8.319-8.06-15.84-15.37-21.252-20.694-2.707-2.661-4.887-4.825-6.382-6.332-.748-.753-1.324-1.342-1.71-1.746a4.388,4.388,0,0,1-.565-.639,4.493,4.493,0,0,1,.653.554c.413.378,1.015.943,1.784,1.675,1.539,1.465,3.749,3.6,6.467,6.25,5.437,5.3,12.9,12.665,21.132,20.81" transform="translate(-53.107 -50.68)" fill="#f5f5f5"/>
        <path id="Trazado_873900" data-name="Trazado 873900" d="M124.174,77.441l17.509,23.791,5.342,7.184,1.467,1.943.388.5a1.322,1.322,0,0,0,.14.166,1.273,1.273,0,0,0-.117-.181l-.368-.515-1.436-1.965-5.337-7.188L124.03,77.542c-6.928-9.219-13.187-17.578-17.682-23.655-2.248-3.038-4.055-5.505-5.291-7.22-.618-.857-1.093-1.526-1.41-1.984a4.341,4.341,0,0,1-.456-.716,4.422,4.422,0,0,1,.556.646c.348.436.851,1.084,1.494,1.924,1.286,1.679,3.127,4.123,5.387,7.152,4.523,6.057,10.718,14.461,17.544,23.752" transform="translate(-74.514 -33.029)" fill="#f5f5f5"/>
        <path id="Trazado_873901" data-name="Trazado 873901" d="M150.518,61.865l13.466,26.159,4.121,7.908,1.137,2.142.3.554a1.252,1.252,0,0,0,.111.185,1.287,1.287,0,0,0-.087-.2l-.28-.565-1.1-2.159-4.115-7.911L150.36,61.943c-5.36-10.159-10.2-19.365-13.66-26.05-1.731-3.342-3.119-6.054-4.064-7.935-.472-.941-.834-1.674-1.073-2.174a4.278,4.278,0,0,1-.335-.777,4.348,4.348,0,0,1,.446.723c.273.483.667,1.2,1.166,2.127,1,1.854,2.426,4.547,4.171,7.882,3.492,6.67,8.259,15.912,13.507,26.126" transform="translate(-98.58 -18.786)" fill="#f5f5f5"/>
        <path id="Trazado_873902" data-name="Trazado 873902" d="M179.167,50.45l9.063,27.893,2.79,8.439.776,2.289.209.593a1.238,1.238,0,0,0,.08.2,1.273,1.273,0,0,0-.054-.207l-.185-.6-.739-2.3-2.783-8.441L179,50.5c-3.649-10.851-6.937-20.683-9.273-27.814-1.169-3.565-2.1-6.455-2.729-8.458-.314-1-.553-1.78-.707-2.311a4.236,4.236,0,0,1-.2-.819,4.3,4.3,0,0,1,.323.782c.192.519.464,1.287.808,2.279.687,1.984,1.66,4.861,2.843,8.422,2.369,7.121,5.581,16.977,9.109,27.866" transform="translate(-124.763 -8.34)" fill="#f5f5f5"/>
        <path id="Trazado_873903" data-name="Trazado 873903" d="M209.3,43.558l4.435,28.931,1.389,8.761.4,2.379.11.618a1.27,1.27,0,0,0,.047.209,1.27,1.27,0,0,0-.02-.213l-.086-.621-.358-2.385c-.328-2.077-.8-5.067-1.382-8.762l-4.707-28.89c-1.846-11.274-3.5-21.486-4.654-28.886-.577-3.7-1.029-6.7-1.326-8.77-.148-1.037-.258-1.842-.325-2.39a4.255,4.255,0,0,1-.07-.84,4.248,4.248,0,0,1,.193.822c.105.542.25,1.342.429,2.374.358,2.064.852,5.055,1.444,8.752,1.187,7.395,2.763,17.619,4.484,28.912" transform="translate(-152.309 -2.027)" fill="#f5f5f5"/>
        <path id="Trazado_873904" data-name="Trazado 873904" d="M238.989,41.352c-.091,11.422-.174,21.757-.233,29.249-.011,3.737-.021,6.763-.027,8.864,0,1.041.008,1.851.01,2.41,0,.27.007.478.01.627a1.257,1.257,0,0,0,.012.213,1.356,1.356,0,0,0,.014-.213c0-.149.008-.357.014-.627.006-.559.015-1.369.026-2.41.008-2.1.019-5.127.033-8.864-.01-7.492-.023-17.828-.037-29.25s-.027-21.754.015-29.238c.02-3.742.052-6.77.089-8.863.019-1.047.039-1.859.06-2.41a4.264,4.264,0,0,1,.064-.84,4.335,4.335,0,0,1,.058.841c.017.551.032,1.364.044,2.41.023,2.093.034,5.122.029,8.864-.007,7.484-.081,17.822-.181,29.238" transform="translate(-179.339 0)" fill="#f5f5f5"/>
        <path id="Trazado_873905" data-name="Trazado 873905" d="M229.788,43.786,224.88,72.645,223.437,81.4l-.374,2.383-.09.621a1.215,1.215,0,0,0-.021.213A1.279,1.279,0,0,0,223,84.4l.115-.617.412-2.376,1.45-8.751,4.636-28.9c1.8-11.281,3.448-21.495,4.686-28.881.618-3.693,1.133-6.68,1.505-8.742.186-1.031.336-1.83.445-2.372a4.232,4.232,0,0,1,.2-.82,4.227,4.227,0,0,1-.076.839c-.071.547-.186,1.352-.341,2.388-.311,2.072-.784,5.065-1.387,8.761-1.2,7.392-2.93,17.593-4.855,28.855" transform="translate(-167.486 -2.212)" fill="#f5f5f5"/>
        <path id="Trazado_873906" data-name="Trazado 873906" d="M220.455,50.91l-9.524,27.747-2.843,8.422-.755,2.3-.189.6a1.248,1.248,0,0,0-.055.207,1.244,1.244,0,0,0,.082-.2l.213-.592.792-2.284,2.85-8.42,9.26-27.831c3.605-10.865,6.886-20.7,9.306-27.8,1.209-3.553,2.2-6.424,2.9-8.4.351-.99.629-1.756.824-2.274a4.251,4.251,0,0,1,.329-.779,4.227,4.227,0,0,1-.21.817c-.158.529-.4,1.307-.723,2.306-.642,2-1.595,4.882-2.789,8.439-2.386,7.116-5.744,16.925-9.471,27.751" transform="translate(-155.569 -8.711)" fill="#f5f5f5"/>
        <path id="Trazado_873907" data-name="Trazado 873907" d="M211.6,62.545,197.7,88.491l-4.171,7.882-1.118,2.151-.284.563a1.262,1.262,0,0,0-.089.2,1.288,1.288,0,0,0,.113-.184l.306-.552,1.152-2.134,4.177-7.879,13.653-26.067c5.321-10.178,10.154-19.387,13.693-26.034,1.769-3.324,3.214-6.007,4.227-7.854.506-.924.9-1.638,1.181-2.12a4.368,4.368,0,0,1,.451-.72,4.334,4.334,0,0,1-.341.775c-.242.5-.609,1.229-1.089,2.166-.958,1.875-2.366,4.576-4.121,7.907-3.509,6.662-8.413,15.836-13.845,25.958" transform="translate(-144.267 -19.336)" fill="#f5f5f5"/>
        <path id="Trazado_873908" data-name="Trazado 873908" d="M203.547,78.321l-17.9,23.515-5.388,7.152-1.45,1.955-.371.513a1.306,1.306,0,0,0-.119.18,1.317,1.317,0,0,0,.141-.164l.391-.5,1.481-1.933,5.393-7.148L203.4,78.219c6.892-9.245,13.147-17.606,17.712-23.633,2.282-3.014,4.141-5.445,5.438-7.115.649-.835,1.158-1.481,1.508-1.914a4.385,4.385,0,0,1,.561-.642,4.375,4.375,0,0,1-.461.713c-.32.456-.8,1.121-1.423,1.974-1.248,1.706-3.073,4.161-5.342,7.184-4.537,6.047-10.856,14.363-17.849,23.535" transform="translate(-133.958 -33.74)" fill="#f5f5f5"/>
        <path id="Trazado_873909" data-name="Trazado 873909" d="M196.442,97.812,175,118.336l-6.467,6.25-1.745,1.712-.449.45a1.325,1.325,0,0,0-.146.16,1.3,1.3,0,0,0,.165-.141l.466-.433,1.772-1.686,6.471-6.246L196.317,97.69c8.288-8.09,15.805-15.4,21.279-20.668,2.737-2.632,4.962-4.753,6.511-6.207.775-.727,1.38-1.288,1.8-1.663a4.5,4.5,0,0,1,.657-.55,4.4,4.4,0,0,1-.57.635c-.389.4-.969.987-1.722,1.735-1.506,1.5-3.7,3.646-6.427,6.289-5.45,5.287-13.023,12.547-21.4,20.551" transform="translate(-124.846 -51.535)" fill="#f5f5f5"/>
        <path id="Trazado_873910" data-name="Trazado 873910" d="M190.372,120.585,165.9,137.618l-7.389,5.2-2,1.427-.515.377a1.3,1.3,0,0,0-.17.136,1.33,1.33,0,0,0,.186-.115l.53-.357,2.021-1.4,7.392-5.192,24.307-17.248c9.482-6.738,18.078-12.828,24.328-17.2,3.125-2.186,5.662-3.945,7.425-5.147.881-.6,1.57-1.063,2.04-1.371a4.507,4.507,0,0,1,.737-.444,4.5,4.5,0,0,1-.664.541c-.448.338-1.115.828-1.979,1.454-1.727,1.25-4.24,3.042-7.355,5.24-6.23,4.4-14.872,10.426-24.427,17.066" transform="translate(-117.065 -72.33)" fill="#f5f5f5"/>
        <path id="Trazado_873911" data-name="Trazado 873911" d="M185.433,146.178l-26.907,13.1-8.134,4.01-2.2,1.106-.569.294a1.327,1.327,0,0,0-.19.108,1.343,1.343,0,0,0,.2-.085l.581-.273,2.221-1.073,8.137-4,26.782-13.343c10.449-5.216,19.918-9.924,26.795-13.293,3.438-1.685,6.227-3.036,8.162-3.955.967-.46,1.722-.812,2.236-1.044a4.564,4.564,0,0,1,.8-.326,4.506,4.506,0,0,1-.743.434c-.5.266-1.235.649-2.188,1.135-1.907.973-4.677,2.36-8.108,4.059-6.861,3.4-16.367,8.037-26.873,13.144" transform="translate(-110.753 -95.709)" fill="#f5f5f5"/>
        <path id="Trazado_873912" data-name="Trazado 873912" d="M181.773,174.014,153.08,182.84l-8.681,2.717-2.355.756-.61.2a1.269,1.269,0,0,0-.2.078,1.425,1.425,0,0,0,.213-.053l.618-.18,2.367-.719,8.684-2.71,28.608-9.082c11.163-3.553,21.277-6.756,28.613-9.03,3.668-1.138,6.641-2.046,8.7-2.658,1.03-.306,1.831-.538,2.377-.689a4.545,4.545,0,0,1,.842-.2,4.564,4.564,0,0,1-.8.315c-.534.187-1.324.452-2.345.787-2.041.669-5,1.616-8.664,2.769-7.326,2.307-17.464,5.434-28.666,8.871" transform="translate(-106.095 -121.149)" fill="#f5f5f5"/>
        <path id="Trazado_873913" data-name="Trazado 873913" d="M179.552,203.3l-29.765,4.329-9.013,1.355-2.448.386-.635.108a1.414,1.414,0,0,0-.215.046,1.306,1.306,0,0,0,.219-.019l.639-.083,2.453-.349,9.014-1.349,29.723-4.593c11.6-1.8,22.105-3.417,29.719-4.542,3.807-.563,6.889-1,9.022-1.294,1.067-.145,1.9-.252,2.459-.317a4.606,4.606,0,0,1,.864-.069,4.6,4.6,0,0,1-.845.188c-.557.1-1.381.244-2.443.418-2.124.349-5.2.831-9,1.409-7.608,1.158-18.126,2.7-29.745,4.377" transform="translate(-103.275 -147.917)" fill="#f5f5f5"/>
        <path id="Trazado_873914" data-name="Trazado 873914" d="M340.5,49.6l4.4-5.367-1.8-.692,1.4-3.913-4.01,4.628,2.063.6Z" transform="translate(-255.787 -29.766)" fill="#e0e0e0"/>
        <path id="Trazado_873915" data-name="Trazado 873915" d="M397.1,264.284l4.16,5.554,1.1-1.578,3.463,2.3-3.535-5-1.077,1.859Z" transform="translate(-298.308 -198.537)" fill="#e0e0e0"/>
        <path id="Trazado_873916" data-name="Trazado 873916" d="M94.063,76.036,98.5,89.01l3.032-2.295,5.107,6.433L103.04,81.6l-3.158,2.837Z" transform="translate(-70.663 -57.12)" fill="#e0e0e0"/>
        <path id="Trazado_873917" data-name="Trazado 873917" d="M217.991,321.636l2.983-10.684-3.073.143-.462-6.629-2.89,9.352,3.405-.447Z" transform="translate(-161.174 -228.723)" fill="#e0e0e0"/>
        <path id="Trazado_873918" data-name="Trazado 873918" d="M168.636,83.842l-.026,5,1.32-.428.989,2.828.145-4.411-1.428.6Z" transform="translate(-126.663 -62.984)" fill="#e0e0e0"/>
        <path id="Trazado_873919" data-name="Trazado 873919" d="M78.383,143.637l3.164,3.873.745-1.17,2.564,1.551-2.7-3.493-.719,1.371Z" transform="translate(-58.883 -107.904)" fill="#e0e0e0"/>
        <path id="Trazado_873920" data-name="Trazado 873920" d="M265.334,309.311l-.026,5,1.32-.428.989,2.828.145-4.411-1.428.6Z" transform="translate(-199.305 -232.362)" fill="#e0e0e0"/>
      </g>
    </g>
    <g id="Grupo_1100534" data-name="Grupo 1100534">
      <g id="Grupo_1100533" data-name="Grupo 1100533" clip-path="url(#clip-path)">
        <path id="Trazado_873921" data-name="Trazado 873921" d="M65.158,229.292c1.419,4.95-1.072,10.007-5.563,11.294s-9.283-1.682-10.7-6.632,1.071-10.007,5.563-11.294,9.283,1.682,10.7,6.632" transform="translate(-36.431 -167.042)" fill="#455a64"/>
        <path id="Trazado_873922" data-name="Trazado 873922" d="M73.076,220.128c2.32,6.613,1,13.1-2.959,14.486s-9.042-2.849-11.362-9.461-1-13.1,2.959-14.486,9.042,2.848,11.362,9.461" transform="translate(-43.279 -158.06)" fill="#f0c518"/>
        <path id="Trazado_873923" data-name="Trazado 873923" d="M142.893,192.354c2.541,7.242.861,14.425-3.754,16.044s-10.415-2.939-12.956-10.181-.861-14.425,3.754-16.044,10.415,2.939,12.956,10.181" transform="translate(-93.902 -136.607)" fill="#ff725e"/>
        <path id="Trazado_873924" data-name="Trazado 873924" d="M96.823,230.331c-3.123-6.441-2.147-16.721-2.147-16.721a8.73,8.73,0,0,1,0-2.668c.26-.781,4-1.844,4-1.844l-8.9-26.32-18.639,7.471,5.951,23.626s.936,9.168,1.587,13.332,1.562,10.02,2.407,12.232,4.75,2.473,6.832,2.733,9.955-3.579,10.764-4.75,1.273-.651-1.85-7.092" transform="translate(-53.436 -137.307)" fill="#f0c518"/>
        <g id="Grupo_1100490" data-name="Grupo 1100490" transform="translate(31.097 45.239)" opacity="0.3">
          <g id="Grupo_1100489" data-name="Grupo 1100489">
            <g id="Grupo_1100488" data-name="Grupo 1100488" clip-path="url(#clip-path-4)">
              <path id="Trazado_873925" data-name="Trazado 873925" d="M142.893,192.354c2.541,7.242.861,14.425-3.754,16.044s-10.415-2.939-12.956-10.181-.861-14.425,3.754-16.044,10.415,2.939,12.956,10.181" transform="translate(-124.999 -181.846)"/>
            </g>
          </g>
        </g>
        <path id="Trazado_873926" data-name="Trazado 873926" d="M144.266,121.336s9.172-5.428,13.91-10.827c3.855-4.392,9.146-11.79,9.146-11.79l24.351,51.126S179,145,167.322,144.888c-11.142-.105-15.33-.033-15.33-.033Z" transform="translate(-108.376 -74.161)" fill="#e0e0e0"/>
        <path id="Trazado_873927" data-name="Trazado 873927" d="M147.119,196.986c2.287,6.518,1.205,12.833-2.417,14.1s-8.412-2.983-10.7-9.5-1.205-12.833,2.417-14.1,8.412,2.983,10.7,9.5" transform="translate(-99.765 -140.674)" fill="#e0e0e0"/>
        <g id="Grupo_1100493" data-name="Grupo 1100493" transform="translate(33.164 36.496)" opacity="0.3">
          <g id="Grupo_1100492" data-name="Grupo 1100492">
            <g id="Grupo_1100491" data-name="Grupo 1100491" clip-path="url(#clip-path-5)">
              <path id="Trazado_873928" data-name="Trazado 873928" d="M135.365,173.48c8.606-5.19,17.885-9.365,28.219-8.084a57.458,57.458,0,0,1-4.593-18.695c-6.535,8.938-14.952,17.11-25.681,19.841a32.247,32.247,0,0,0,.863,3.946c.433,1.238,1.192,2.991,1.192,2.991" transform="translate(-133.31 -146.702)" fill="#fff"/>
            </g>
          </g>
        </g>
        <g id="Grupo_1100496" data-name="Grupo 1100496" transform="translate(23.647 72.03)" opacity="0.2">
          <g id="Grupo_1100495" data-name="Grupo 1100495">
            <g id="Grupo_1100494" data-name="Grupo 1100494" clip-path="url(#clip-path-6)">
              <path id="Trazado_873929" data-name="Trazado 873929" d="M100.468,319.124l.381-.2q.244-.124.489-.246l.392-.192.488-.234.395-.185q.251-.116.5-.229c.127-.057.254-.115.381-.171.182-.081.365-.159.549-.237l.341-.147q.429-.18.86-.354l.264-.1c.214-.085.428-.17.643-.252l.371-.14.528-.2.4-.145.5-.178.407-.141.5-.168.4-.134.5-.163.39-.124.535-.165.352-.108q.423-.127.843-.248l.01,0c-.213-.541-2.059-4.341-4.114-10.007-2.208-6.088-.818-14.686-1.309-15.095s-11.415,4.514-11.415,4.514.936,9.168,1.587,13.332,1.561,10.02,2.407,12.232q.041.106.09.205c.157-.089.314-.178.473-.265.115-.063.232-.124.348-.187.169-.091.339-.182.509-.271" transform="translate(-95.054 -289.539)" fill="#f5f5f5"/>
            </g>
          </g>
        </g>
        <g id="Grupo_1100499" data-name="Grupo 1100499" transform="translate(27.732 97.149)" opacity="0.3">
          <g id="Grupo_1100498" data-name="Grupo 1100498">
            <g id="Grupo_1100497" data-name="Grupo 1100497" clip-path="url(#clip-path-7)">
              <path id="Trazado_873930" data-name="Trazado 873930" d="M124.226,390.514l-.01,0q-.42.121-.843.248l-.352.108-.535.165-.39.124-.5.163-.4.134-.5.168-.407.141-.5.178-.4.145q-.264.1-.527.2l-.371.14c-.214.082-.429.167-.643.252l-.264.1q-.431.173-.86.354c-.114.048-.228.1-.341.146-.183.078-.366.157-.549.237-.127.056-.254.113-.381.171q-.252.113-.5.229l-.395.185-.488.234-.392.192q-.245.122-.489.246l-.381.2c-.17.089-.34.18-.509.271-.116.062-.232.123-.348.187-.158.087-.315.177-.473.266,1,2.023,4.726,2.275,6.742,2.527,2.082.26,9.955-3.579,10.764-4.75.434-.628.767-.771.5-1.759-1.722-.42-3.3-.8-5.232-1.208l-.024.007" transform="translate(-111.473 -390.507)"/>
            </g>
          </g>
        </g>
        <path id="Trazado_873931" data-name="Trazado 873931" d="M148.651,298.586a2.238,2.238,0,0,0-.937.268c-.2.2-.466,9.632.468,11.171.055.092-.067.067.468.4s3.022,1.392,3.786.9,2.569-2.1,2.436-2.77-.816-1.18-1.615-2.731c-.717-1.392-.994-5.834-.994-5.834a22.267,22.267,0,0,0-3.612-1.4" transform="translate(-110.82 -224.304)" fill="#f5f5f5"/>
        <g id="Grupo_1100502" data-name="Grupo 1100502" transform="translate(37.99 74.296)" opacity="0.3">
          <g id="Grupo_1100501" data-name="Grupo 1100501">
            <g id="Grupo_1100500" data-name="Grupo 1100500" clip-path="url(#clip-path-8)">
              <path id="Trazado_873932" data-name="Trazado 873932" d="M158.769,308.626c0-.008,0-.018,0-.026-.134-.669-.816-1.181-1.615-2.731-.717-1.392-.994-5.834-.994-5.834a30.142,30.142,0,0,0-3.454-1.389c.036.239.578,3.147,1.051,5.277a10.348,10.348,0,0,0,1.54,3.572c.049-.032.085-.05.1-.046a19.041,19.041,0,0,1,3.371,1.178" transform="translate(-152.706 -298.646)"/>
            </g>
          </g>
        </g>
        <g id="Grupo_1100505" data-name="Grupo 1100505" transform="translate(37.581 83.098)" opacity="0.5">
          <g id="Grupo_1100504" data-name="Grupo 1100504">
            <g id="Grupo_1100503" data-name="Grupo 1100503" clip-path="url(#clip-path-9)">
              <path id="Trazado_873933" data-name="Trazado 873933" d="M154.166,334.028c-.016,0-.051.014-.1.046-.488.323-2.478,2.291-3,2.813.062.043.143.1.254.165.535.335,3.022,1.392,3.786.9a8,8,0,0,0,2.381-2.433.639.639,0,0,0,.055-.31,19.039,19.039,0,0,0-3.371-1.178" transform="translate(-151.062 -334.028)"/>
            </g>
          </g>
        </g>
        <path id="Trazado_873934" data-name="Trazado 873934" d="M131.611,391.952a.93.93,0,0,1-.178-.011c-.117-.011-.288-.036-.506-.079-.438-.081-1.059-.257-1.818-.484-.38-.11-.8-.228-1.253-.318a3.686,3.686,0,0,0-1.458-.048,24.979,24.979,0,0,0-3.223,1.077,49.748,49.748,0,0,0-5.713,2.384c-.71.352-1.277.654-1.667.865l-.449.244a.951.951,0,0,1-.161.078.893.893,0,0,1,.148-.1c.1-.061.245-.154.437-.265.383-.225.943-.54,1.65-.9a44.807,44.807,0,0,1,5.712-2.424,23.847,23.847,0,0,1,3.246-1.073,3.327,3.327,0,0,1,.776-.046,5.486,5.486,0,0,1,.722.105c.46.1.879.219,1.258.336.758.238,1.37.427,1.8.522.216.05.385.083.5.1a.919.919,0,0,1,.175.037" transform="translate(-86.53 -293.611)" fill="#263238"/>
        <path id="Trazado_873935" data-name="Trazado 873935" d="M154.281,334.167a3.264,3.264,0,0,1-.456.414c-.289.246-.687.587-1.115.976s-.806.752-1.079,1.016a3.257,3.257,0,0,1-.456.414,2.636,2.636,0,0,1,.391-.478c.257-.281.627-.657,1.058-1.048s.84-.723,1.145-.951a2.627,2.627,0,0,1,.513-.343" transform="translate(-113.565 -251.033)" fill="#263238"/>
        <path id="Trazado_873936" data-name="Trazado 873936" d="M155.621,308.954a1.258,1.258,0,0,1-.178-.252,5.945,5.945,0,0,1-.387-.746,13.675,13.675,0,0,1-.762-2.659c-.228-1.055-.4-2.017-.5-2.719-.048-.351-.077-.636-.091-.833a1.359,1.359,0,0,1-.008-.308,1.435,1.435,0,0,1,.058.3l.132.825c.116.7.306,1.652.534,2.705a16.087,16.087,0,0,0,.72,2.651c.261.653.5,1.021.48,1.033" transform="translate(-115.457 -226.447)" fill="#263238"/>
        <path id="Trazado_873937" data-name="Trazado 873937" d="M166.549,335.113c-.017.035-.7-.292-1.575-.581s-1.617-.438-1.61-.476a1.667,1.667,0,0,1,.493.053,8.984,8.984,0,0,1,2.264.752,1.655,1.655,0,0,1,.427.253" transform="translate(-122.724 -250.946)" fill="#263238"/>
        <g id="Grupo_1100508" data-name="Grupo 1100508" transform="translate(15.487 54.977)" opacity="0.3">
          <g id="Grupo_1100507" data-name="Grupo 1100507">
            <g id="Grupo_1100506" data-name="Grupo 1100506" clip-path="url(#clip-path-10)">
              <path id="Trazado_873938" data-name="Trazado 873938" d="M76.719,220.988a8.885,8.885,0,0,0,.363,4.615s-9.421,3-13.94,4.99a6.241,6.241,0,0,1-.83-4.069Z" transform="translate(-62.251 -220.988)" fill="#fff"/>
            </g>
          </g>
        </g>
        <path id="Trazado_873939" data-name="Trazado 873939" d="M129.763,183.158a.5.5,0,0,1-.085.041l-.252.107a6.359,6.359,0,0,0-.919.506,7.226,7.226,0,0,0-2.439,2.93,13.131,13.131,0,0,0-1.181,5.556,20.958,20.958,0,0,0,4.56,13,13.133,13.133,0,0,0,4.394,3.6,7.228,7.228,0,0,0,3.734.763,6.355,6.355,0,0,0,1.033-.179l.263-.074a.538.538,0,0,1,.091-.021.488.488,0,0,1-.087.034l-.261.087a5.794,5.794,0,0,1-1.036.2,7.183,7.183,0,0,1-3.778-.731,13.122,13.122,0,0,1-4.447-3.608,20.909,20.909,0,0,1-4.587-13.073,13.117,13.117,0,0,1,1.218-5.595,7.18,7.18,0,0,1,2.493-2.932,5.812,5.812,0,0,1,.936-.488l.258-.1a.512.512,0,0,1,.089-.028" transform="translate(-93.728 -137.593)" fill="#263238"/>
        <path id="Trazado_873940" data-name="Trazado 873940" d="M148.156,291.608a.875.875,0,0,1-.243,0c-.156-.009-.381-.031-.658-.065a16.667,16.667,0,0,1-4.208-1.122c-.258-.108-.464-.2-.6-.271a.884.884,0,0,1-.212-.12,8.689,8.689,0,0,1,.848.305c.521.193,1.248.44,2.067.659s1.572.365,2.121.457a8.654,8.654,0,0,1,.888.158" transform="translate(-106.848 -217.875)" fill="#263238"/>
        <path id="Trazado_873941" data-name="Trazado 873941" d="M105.727,289.488c.014.033-2.384,1.08-5.354,2.34s-5.391,2.253-5.405,2.22,2.383-1.08,5.355-2.34,5.391-2.253,5.4-2.22" transform="translate(-71.341 -217.469)" fill="#263238"/>
        <path id="Trazado_873942" data-name="Trazado 873942" d="M167.322,98.719a.4.4,0,0,1-.044.072l-.139.2-.548.776c-.48.672-1.18,1.639-2.06,2.823s-1.94,2.586-3.146,4.12c-.6.766-1.244,1.566-1.924,2.382q-.507.614-1.048,1.236c-.357.416-.748.816-1.127,1.232a48.081,48.081,0,0,1-4.776,4.186c-1.543,1.2-2.98,2.211-4.2,3.038s-2.233,1.464-2.936,1.9c-.351.217-.627.38-.814.49l-.215.123a.042.042,0,1,1-.007-.011l.208-.133.8-.51c.694-.446,1.7-1.093,2.911-1.93s2.645-1.856,4.18-3.056a49.21,49.21,0,0,0,4.757-4.182c.378-.415.766-.812,1.123-1.227s.709-.824,1.048-1.232c.68-.814,1.321-1.612,1.928-2.375,1.21-1.529,2.276-2.925,3.166-4.1l2.093-2.8.568-.762.15-.2a.434.434,0,0,1,.054-.064" transform="translate(-108.377 -74.16)" fill="#263238"/>
        <path id="Trazado_873943" data-name="Trazado 873943" d="M175.321,284.058a.327.327,0,0,1,.076-.006l.224-.006.863-.01,3.174-.014,10.473,0a57.519,57.519,0,0,1,10.417,1.044c1.318.245,2.378.481,3.108.651.365.084.647.155.839.2l.217.057a.335.335,0,0,1,.073.024.342.342,0,0,1-.076-.011l-.22-.044-.844-.18c-.733-.155-1.794-.377-3.113-.61a60.111,60.111,0,0,0-10.4-1l-10.471-.041-3.174-.027-.863-.014-.224-.007a.34.34,0,0,1-.077-.007" transform="translate(-131.705 -213.363)" fill="#263238"/>
        <g id="Grupo_1100511" data-name="Grupo 1100511" transform="translate(56.227 25.07)" opacity="0.3">
          <g id="Grupo_1100510" data-name="Grupo 1100510">
            <g id="Grupo_1100509" data-name="Grupo 1100509" clip-path="url(#clip-path-11)">
              <path id="Trazado_873944" data-name="Trazado 873944" d="M260.8,117.063l-32.5-16.288-1.967,2.762c-.872,6.7.016,15.168,2.876,23.888,2.761,8.417,6.863,15.557,11.345,20.434l6.5,1.579Z" transform="translate(-226.013 -100.775)"/>
            </g>
          </g>
        </g>
        <path id="Trazado_873945" data-name="Trazado 873945" d="M265.656,81.051c5.822,17.752,3.469,34.462-5.255,37.323s-20.517-9.21-26.339-26.961-3.47-34.462,5.255-37.323,20.517,9.209,26.339,26.961" transform="translate(-173.432 -40.318)" fill="#f0c518"/>
        <path id="Trazado_873946" data-name="Trazado 873946" d="M278.449,100.85c4.8,14.62,3.95,28.024-1.887,29.939s-14.457-8.385-19.252-23.006-3.95-28.024,1.887-29.939,14.457,8.385,19.252,23.006" transform="translate(-190.962 -58.307)" fill="#e0e0e0"/>
        <g id="Grupo_1100514" data-name="Grupo 1100514" transform="translate(67.75 18.269)" opacity="0.3">
          <g id="Grupo_1100513" data-name="Grupo 1100513">
            <g id="Grupo_1100512" data-name="Grupo 1100512" clip-path="url(#clip-path-12)">
              <path id="Trazado_873947" data-name="Trazado 873947" d="M294.956,97.117c-4.933-15.041-14.15-25.523-20.586-23.413a5.639,5.639,0,0,0-2.035,1.2,4.505,4.505,0,0,1,.5-.2c5.837-1.915,14.457,8.385,19.252,23.006s3.95,28.024-1.887,29.939a5.05,5.05,0,0,1-2.8.061,6.621,6.621,0,0,0,4.829.46c6.436-2.111,7.654-16.015,2.721-31.057" transform="translate(-272.335 -73.435)"/>
            </g>
          </g>
        </g>
        <path id="Trazado_873948" data-name="Trazado 873948" d="M259.758,166.519l15.208-3.294,2.76,8.414-13.811,7.317s-3.906-8.632-4.157-12.437" transform="translate(-195.136 -122.619)" fill="#8722e2"/>
        <g id="Grupo_1100517" data-name="Grupo 1100517" transform="translate(64.622 42.981)" opacity="0.2">
          <g id="Grupo_1100516" data-name="Grupo 1100516">
            <g id="Grupo_1100515" data-name="Grupo 1100515" clip-path="url(#clip-path-13)">
              <path id="Trazado_873949" data-name="Trazado 873949" d="M264,172.77c-.238.1-3.051,5.052-1.115,7.891a11.929,11.929,0,0,0,4.035,3.873l-2.816,1.523-2.941-7.795-1.406-4.572Z" transform="translate(-259.757 -172.77)"/>
            </g>
          </g>
        </g>
        <path id="Trazado_873950" data-name="Trazado 873950" d="M320.906,166.56c.762,2.324.428,4.519-.747,4.9s-2.744-1.186-3.506-3.509-.428-4.519.747-4.9,2.744,1.186,3.506,3.509" transform="translate(-237.57 -122.444)" fill="#ff725e"/>
        <path id="Trazado_873951" data-name="Trazado 873951" d="M320.722,166.4a1.4,1.4,0,0,1-.086-.2c-.048-.135-.13-.329-.24-.577a8.241,8.241,0,0,0-.463-.871,5.766,5.766,0,0,0-.791-1.032,2.653,2.653,0,0,0-1.309-.8,1.145,1.145,0,0,0-.816.13,1.513,1.513,0,0,0-.578.68,4.251,4.251,0,0,0-.309,1.944,8.312,8.312,0,0,0,1.324,4.038,4.26,4.26,0,0,0,1.4,1.384,1.516,1.516,0,0,0,.868.206,1.145,1.145,0,0,0,.735-.379,2.651,2.651,0,0,0,.579-1.422,5.764,5.764,0,0,0,.026-1.3,8.206,8.206,0,0,0-.143-.976c-.058-.265-.108-.47-.148-.607a1.383,1.383,0,0,1-.05-.213,1.359,1.359,0,0,1,.075.205c.049.135.107.339.173.6a7.662,7.662,0,0,1,.166.98,5.7,5.7,0,0,1-.007,1.319,2.727,2.727,0,0,1-.591,1.483,1.255,1.255,0,0,1-.8.419,1.628,1.628,0,0,1-.936-.214,4.345,4.345,0,0,1-1.45-1.419,8.36,8.36,0,0,1-1.346-4.1,4.348,4.348,0,0,1,.328-2,1.628,1.628,0,0,1,.627-.726,1.253,1.253,0,0,1,.894-.137,2.728,2.728,0,0,1,1.355.845,5.693,5.693,0,0,1,.787,1.059,7.66,7.66,0,0,1,.447.888c.1.253.178.451.218.589a1.386,1.386,0,0,1,.061.21" transform="translate(-237.386 -122.287)" fill="#263238"/>
        <g id="Grupo_1100520" data-name="Grupo 1100520" transform="translate(79.796 42.357)" opacity="0.3">
          <g id="Grupo_1100519" data-name="Grupo 1100519">
            <g id="Grupo_1100518" data-name="Grupo 1100518" clip-path="url(#clip-path-14)">
              <path id="Trazado_873952" data-name="Trazado 873952" d="M323.424,172.3c.437,1.331.245,2.59-.428,2.81s-1.573-.68-2.009-2.011-.245-2.59.428-2.81,1.573.68,2.009,2.011" transform="translate(-320.753 -170.26)"/>
            </g>
          </g>
        </g>
        <path id="Trazado_873953" data-name="Trazado 873953" d="M259.036,78.536s-.051.025-.151.068-.255.1-.443.194a5.351,5.351,0,0,0-1.465,1.13,11.945,11.945,0,0,0-2.542,6.256,30.282,30.282,0,0,0-.341,4.717,46.531,46.531,0,0,0,.355,5.422,66.936,66.936,0,0,0,7.721,23.543,46.544,46.544,0,0,0,2.926,4.579,30.3,30.3,0,0,0,3.069,3.6,11.944,11.944,0,0,0,5.753,3.535,5.35,5.35,0,0,0,1.849.043c.21-.032.365-.085.472-.106s.162-.035.162-.035a6.2,6.2,0,0,1-.63.167,5.245,5.245,0,0,1-1.863-.019,8.415,8.415,0,0,1-2.739-1.092,16.149,16.149,0,0,1-3.069-2.427,30.122,30.122,0,0,1-3.091-3.6,46.233,46.233,0,0,1-2.943-4.584,66.471,66.471,0,0,1-7.736-23.587,46.215,46.215,0,0,1-.344-5.436,30.162,30.162,0,0,1,.358-4.732A16.148,16.148,0,0,1,255.38,82.4a8.413,8.413,0,0,1,1.561-2.5,5.247,5.247,0,0,1,1.49-1.119,6.153,6.153,0,0,1,.606-.239" transform="translate(-190.801 -58.998)" fill="#263238"/>
        <g id="Grupo_1100523" data-name="Grupo 1100523" transform="translate(67.476 47.367)" opacity="0.2">
          <g id="Grupo_1100522" data-name="Grupo 1100522">
            <g id="Grupo_1100521" data-name="Grupo 1100521" clip-path="url(#clip-path-15)">
              <path id="Trazado_873954" data-name="Trazado 873954" d="M271.232,195.691l12.48-5.288s.968,1.647,2.2,1.709L272.725,199.3Z" transform="translate(-271.232 -190.403)"/>
            </g>
          </g>
        </g>
        <g id="Grupo_1100526" data-name="Grupo 1100526" transform="translate(58.903 31.521)" opacity="0.3">
          <g id="Grupo_1100525" data-name="Grupo 1100525">
            <g id="Grupo_1100524" data-name="Grupo 1100524" clip-path="url(#clip-path-16)">
              <path id="Trazado_873955" data-name="Trazado 873955" d="M237.063,126.7s-.66,2.919,0,4.035h2.318V126.7Z" transform="translate(-236.77 -126.703)" fill="#fff"/>
            </g>
          </g>
        </g>
        <g id="Grupo_1100529" data-name="Grupo 1100529" transform="translate(59.075 13.412)" opacity="0.3">
          <g id="Grupo_1100528" data-name="Grupo 1100528">
            <g id="Grupo_1100527" data-name="Grupo 1100527" clip-path="url(#clip-path-17)">
              <path id="Trazado_873956" data-name="Trazado 873956" d="M247.984,53.911a10.4,10.4,0,0,0-5.153,2.557c-3.829,3.239-5.4,8.9-5.369,13.852a3.748,3.748,0,0,1,2.531,0,26.053,26.053,0,0,1,1.315-7.349,8.3,8.3,0,0,1,10.845-5.529c4.4,1.258,7.789,4.566,10.834,8.062-4.635-6.74-10.071-11.05-15-11.592" transform="translate(-237.461 -53.911)" fill="#fff"/>
            </g>
          </g>
        </g>
        <path id="Trazado_873957" data-name="Trazado 873957" d="M326.635,280.266a.992.992,0,0,1-.069.173c-.052.11-.116.279-.229.482a9.685,9.685,0,0,1-1.074,1.641,9.41,9.41,0,0,1-2.144,1.964,8.308,8.308,0,0,1-1.528.8,7.764,7.764,0,0,1-1.793.461,6.57,6.57,0,0,1-3.491-.612,12.624,12.624,0,0,1-2.48-1.521c-.657-.5-1.161-.947-1.5-1.258-.172-.154-.3-.28-.39-.363a1.014,1.014,0,0,1-.129-.134.982.982,0,0,1,.147.114l.405.345c.352.3.863.731,1.524,1.223a12.965,12.965,0,0,0,2.473,1.485,6.515,6.515,0,0,0,3.427.593,7.734,7.734,0,0,0,1.763-.45,8.313,8.313,0,0,0,1.509-.78,9.55,9.55,0,0,0,2.138-1.923,10.47,10.47,0,0,0,1.1-1.607c.119-.2.19-.363.25-.469a1.033,1.033,0,0,1,.093-.161" transform="translate(-234.236 -210.542)" fill="#fff"/>
        <g id="Grupo_1100532" data-name="Grupo 1100532" transform="translate(63.117 19.829)" opacity="0.3">
          <g id="Grupo_1100531" data-name="Grupo 1100531">
            <g id="Grupo_1100530" data-name="Grupo 1100530" clip-path="url(#clip-path-18)">
              <path id="Trazado_873958" data-name="Trazado 873958" d="M263.632,120.339a84.748,84.748,0,0,1-7.471-25.818,33.287,33.287,0,0,1-.13-8.934,16.548,16.548,0,0,1,1.987-5.88c-5.21,2.716-5.8,15.621-1.2,29.647,4.8,14.62,13.414,24.92,19.252,23.006a4.576,4.576,0,0,0,.591-.243,12.28,12.28,0,0,1-7.865-3.8,27.886,27.886,0,0,1-5.163-7.977" transform="translate(-253.709 -79.707)"/>
            </g>
          </g>
        </g>
      </g>
    </g>
    <path id="Trazado_873959" data-name="Trazado 873959" d="M374.859,138.839l15.286-2.753-2.351-3.349,8.378-3.532-13.355,1.613,2.421,3.671Z" transform="translate(-281.603 -97.062)" fill="#debefb"/>
    <path id="Trazado_873960" data-name="Trazado 873960" d="M369.189,81.459l9.7-7.761-3.772-1.627,3.372-6.135L370.6,72.571l3.271,1.546Z" transform="translate(-277.344 -49.533)" fill="#debefb"/>
    <path id="Trazado_873961" data-name="Trazado 873961" d="M389.6,201.114l9.742,7.745.255-2.91,6.476,2.659-8.387-6.755-.262,3.085Z" transform="translate(-292.675 -151.082)" fill="#debefb"/>
  </g>
</svg>
